<svg width="44" height="44" viewBox="0 0 44 44" fill="none" xmlns="http://www.w3.org/2000/svg">
<circle cx="22" cy="22" r="22" fill="#0000FF"/>
<path d="M25.6953 18.7802L16.9297 13.7253" stroke="white" stroke-linecap="round" stroke-linejoin="round"/>
<path d="M30.0781 25.2084V17.4167C30.0778 17.0751 29.9876 16.7396 29.8167 16.4439C29.6457 16.1481 29.4 15.9026 29.1042 15.7318L22.2865 11.8359C21.9903 11.665 21.6544 11.575 21.3125 11.575C20.9706 11.575 20.6347 11.665 20.3385 11.8359L13.5208 15.7318C13.225 15.9026 12.9793 16.1481 12.8083 16.4439C12.6374 16.7396 12.5472 17.0751 12.5469 17.4167V25.2084C12.5472 25.55 12.6374 25.8855 12.8083 26.1812C12.9793 26.4769 13.225 26.7225 13.5208 26.8933L20.3385 30.7892C20.6347 30.9601 20.9706 31.0501 21.3125 31.0501C21.6544 31.0501 21.9903 30.9601 22.2865 30.7892L29.1042 26.8933C29.4 26.7225 29.6457 26.4769 29.8167 26.1812C29.9876 25.8855 30.0778 25.55 30.0781 25.2084Z" stroke="white" stroke-linecap="round" stroke-linejoin="round"/>
<path d="M12.8098 16.4037L21.3125 21.3222L29.8151 16.4037" stroke="white" stroke-linecap="round" stroke-linejoin="round"/>
<path d="M21.3125 31.13V21.3125" stroke="white" stroke-linecap="round" stroke-linejoin="round"/>
</svg>
