<svg width="110" height="28" viewBox="0 0 110 28" fill="none" xmlns="http://www.w3.org/2000/svg">
<rect width="110" height="27" rx="13.5" fill="#0D0D5D"/>
<path d="M27.341 19V6.4H33.659C34.271 6.4 34.835 6.502 35.351 6.706C35.879 6.898 36.329 7.168 36.701 7.516C37.073 7.864 37.361 8.284 37.565 8.776C37.781 9.256 37.889 9.784 37.889 10.36C37.889 10.924 37.781 11.446 37.565 11.926C37.361 12.394 37.067 12.802 36.683 13.15C36.311 13.498 35.867 13.768 35.351 13.96C34.835 14.152 34.271 14.248 33.659 14.248H29.951V19H27.341ZM33.371 8.65H29.951V12.088H33.371C33.935 12.088 34.385 11.932 34.721 11.62C35.069 11.308 35.243 10.894 35.243 10.378C35.243 9.862 35.069 9.448 34.721 9.136C34.385 8.812 33.935 8.65 33.371 8.65ZM41.9967 19.162C40.9887 19.162 40.1667 18.898 39.5307 18.37C38.8947 17.83 38.5767 17.134 38.5767 16.282C38.5767 15.394 38.9187 14.698 39.6027 14.194C40.2867 13.69 41.2287 13.438 42.4287 13.438C42.8127 13.438 43.1967 13.468 43.5807 13.528C43.9647 13.588 44.3427 13.678 44.7147 13.798V13.132C44.7147 12.592 44.5467 12.184 44.2107 11.908C43.8747 11.632 43.3827 11.494 42.7347 11.494C42.3387 11.494 41.9067 11.56 41.4387 11.692C40.9827 11.812 40.4607 12.004 39.8727 12.268L38.9727 10.45C39.7047 10.114 40.4127 9.862 41.0967 9.694C41.7927 9.526 42.4767 9.442 43.1487 9.442C44.4087 9.442 45.3867 9.748 46.0827 10.36C46.7907 10.96 47.1447 11.812 47.1447 12.916V19H44.7147V18.352C44.3187 18.628 43.8987 18.832 43.4547 18.964C43.0227 19.096 42.5367 19.162 41.9967 19.162ZM40.9347 16.228C40.9347 16.588 41.0907 16.876 41.4027 17.092C41.7147 17.296 42.1287 17.398 42.6447 17.398C43.0527 17.398 43.4247 17.35 43.7607 17.254C44.1087 17.146 44.4267 16.996 44.7147 16.804V15.4C44.4147 15.28 44.0967 15.196 43.7607 15.148C43.4367 15.088 43.0947 15.058 42.7347 15.058C42.1707 15.058 41.7267 15.166 41.4027 15.382C41.0907 15.586 40.9347 15.868 40.9347 16.228ZM48.2191 17.884L49.4431 16.246C49.9951 16.606 50.5171 16.876 51.0091 17.056C51.5011 17.224 51.9931 17.308 52.4851 17.308C53.0371 17.308 53.4751 17.218 53.7991 17.038C54.1351 16.858 54.3031 16.618 54.3031 16.318C54.3031 16.078 54.2071 15.886 54.0151 15.742C53.8351 15.598 53.5411 15.496 53.1331 15.436L51.3331 15.166C50.4091 15.022 49.7011 14.722 49.2091 14.266C48.7291 13.81 48.4891 13.204 48.4891 12.448C48.4891 11.548 48.8431 10.828 49.5511 10.288C50.2591 9.748 51.2071 9.478 52.3951 9.478C53.0791 9.478 53.7451 9.58 54.3931 9.784C55.0411 9.976 55.6591 10.264 56.2471 10.648L55.0591 12.232C54.5431 11.932 54.0511 11.71 53.5831 11.566C53.1151 11.41 52.6411 11.332 52.1611 11.332C51.7171 11.332 51.3571 11.416 51.0811 11.584C50.8171 11.752 50.6851 11.974 50.6851 12.25C50.6851 12.502 50.7811 12.7 50.9731 12.844C51.1771 12.976 51.5071 13.072 51.9631 13.132L53.7631 13.402C54.6751 13.534 55.3771 13.834 55.8691 14.302C56.3731 14.77 56.6251 15.364 56.6251 16.084C56.6251 16.528 56.5171 16.942 56.3011 17.326C56.0971 17.698 55.8151 18.022 55.4551 18.298C55.0951 18.574 54.6631 18.79 54.1591 18.946C53.6551 19.102 53.1091 19.18 52.5211 19.18C51.6691 19.18 50.8711 19.072 50.1271 18.856C49.3831 18.628 48.7471 18.304 48.2191 17.884ZM57.5088 14.32C57.5088 13.636 57.6348 13 57.8868 12.412C58.1508 11.812 58.5048 11.296 58.9488 10.864C59.4048 10.42 59.9388 10.072 60.5508 9.82C61.1628 9.568 61.8168 9.442 62.5128 9.442C63.2088 9.442 63.8628 9.568 64.4748 9.82C65.0868 10.072 65.6148 10.42 66.0587 10.864C66.5148 11.296 66.8688 11.812 67.1208 12.412C67.3848 13 67.5168 13.636 67.5168 14.32C67.5168 15.004 67.3848 15.646 67.1208 16.246C66.8688 16.834 66.5148 17.344 66.0587 17.776C65.6148 18.208 65.0868 18.55 64.4748 18.802C63.8628 19.054 63.2088 19.18 62.5128 19.18C61.8168 19.18 61.1628 19.054 60.5508 18.802C59.9388 18.55 59.4048 18.208 58.9488 17.776C58.5048 17.344 58.1508 16.834 57.8868 16.246C57.6348 15.646 57.5088 15.004 57.5088 14.32ZM62.5128 17.038C63.2328 17.038 63.8448 16.774 64.3488 16.246C64.8528 15.718 65.1048 15.076 65.1048 14.32C65.1048 13.552 64.8528 12.904 64.3488 12.376C63.8448 11.848 63.2328 11.584 62.5128 11.584C61.7928 11.584 61.1808 11.848 60.6768 12.376C60.1728 12.904 59.9208 13.552 59.9208 14.32C59.9208 15.076 60.1728 15.718 60.6768 16.246C61.1808 16.774 61.7928 17.038 62.5128 17.038ZM81.7436 6.4V13.978H83.2916V16.048H81.7436V19H79.2776V16.048H72.1676V14.068L78.8996 6.4H81.7436ZM75.0116 13.978H79.2776V9.136L75.0116 13.978Z" fill="white"/>
</svg>
