<svg width="363" height="30" viewBox="0 0 363 30" fill="none" xmlns="http://www.w3.org/2000/svg">
<rect x="0.535714" y="0.535714" width="105" height="28.9286" rx="14.4643" stroke="white" stroke-width="1.07143"/>
<path d="M10.7144 8.49063V23.8188C10.7145 23.8521 10.7244 23.8845 10.7429 23.9122C10.7614 23.9398 10.7876 23.9614 10.8183 23.9742C10.849 23.987 10.8828 23.9904 10.9155 23.9841C10.9481 23.9777 10.9782 23.9619 11.0018 23.9385L18.983 16.1551L11.0018 8.37089C10.9782 8.34754 10.9481 8.3317 10.9155 8.32536C10.8828 8.31902 10.849 8.32246 10.8183 8.33525C10.7876 8.34804 10.7614 8.3696 10.7429 8.39725C10.7244 8.42489 10.7145 8.45737 10.7144 8.49063V8.49063Z" fill="white"/>
<path d="M22.3294 12.9565L12.322 7.44305L12.3158 7.43954C12.1434 7.34593 11.9796 7.57917 12.1208 7.7149L19.9654 15.216L22.3294 12.9565Z" fill="white"/>
<path d="M12.1219 24.5946C11.9799 24.7303 12.1437 24.9636 12.3169 24.87L12.3232 24.8665L22.3298 19.353L19.9658 17.0928L12.1219 24.5946Z" fill="white"/>
<path d="M26.3694 15.1797L23.5749 13.6406L20.9472 16.1548L23.5749 18.6677L26.3694 17.1298C27.1296 16.7098 27.1296 15.5997 26.3694 15.1797Z" fill="white"/>
<path d="M33.6107 6.25H35.1375C35.5339 6.25 35.8839 6.33036 36.1875 6.49107C36.4911 6.64821 36.7268 6.86964 36.8946 7.15536C37.0625 7.4375 37.1464 7.76071 37.1464 8.125C37.1464 8.48929 37.0625 8.81429 36.8946 9.1C36.7268 9.38214 36.4911 9.60357 36.1875 9.76429C35.8839 9.92143 35.5339 10 35.1375 10H33.6107V6.25ZM35.1161 9.65714C35.4446 9.65714 35.7321 9.59286 35.9786 9.46429C36.225 9.33214 36.4161 9.15179 36.5518 8.92321C36.6875 8.69107 36.7554 8.425 36.7554 8.125C36.7554 7.825 36.6875 7.56071 36.5518 7.33214C36.4161 7.1 36.225 6.91964 35.9786 6.79107C35.7321 6.65893 35.4446 6.59286 35.1161 6.59286H34.0071V9.65714H35.1161ZM37.9563 7.18214H38.3366V10H37.9563V7.18214ZM38.1491 6.56607C38.0706 6.56607 38.0045 6.53929 37.9509 6.48571C37.8973 6.43214 37.8706 6.36786 37.8706 6.29286C37.8706 6.22143 37.8973 6.15893 37.9509 6.10536C38.0045 6.05179 38.0706 6.025 38.1491 6.025C38.2277 6.025 38.2938 6.05179 38.3473 6.10536C38.4009 6.15536 38.4277 6.21607 38.4277 6.2875C38.4277 6.36607 38.4009 6.43214 38.3473 6.48571C38.2938 6.53929 38.2277 6.56607 38.1491 6.56607ZM40.1503 10.0268C39.9217 10.0268 39.7021 9.99464 39.4914 9.93036C39.2842 9.8625 39.1217 9.77857 39.0039 9.67857L39.1753 9.37857C39.2932 9.47143 39.4414 9.54821 39.62 9.60893C39.7985 9.66607 39.9842 9.69464 40.1771 9.69464C40.4342 9.69464 40.6235 9.65536 40.745 9.57679C40.87 9.49464 40.9325 9.38036 40.9325 9.23393C40.9325 9.13036 40.8985 9.05 40.8307 8.99286C40.7628 8.93214 40.6771 8.8875 40.5735 8.85893C40.47 8.82679 40.3325 8.79643 40.161 8.76786C39.9325 8.725 39.7485 8.68214 39.6092 8.63929C39.47 8.59286 39.3503 8.51607 39.2503 8.40893C39.1539 8.30179 39.1057 8.15357 39.1057 7.96429C39.1057 7.72857 39.2039 7.53571 39.4003 7.38571C39.5967 7.23571 39.87 7.16071 40.22 7.16071C40.4021 7.16071 40.5842 7.18571 40.7664 7.23571C40.9485 7.28214 41.0985 7.34464 41.2164 7.42321L41.0503 7.72857C40.8182 7.56786 40.5414 7.4875 40.22 7.4875C39.9771 7.4875 39.7932 7.53036 39.6682 7.61607C39.5467 7.70179 39.486 7.81429 39.486 7.95357C39.486 8.06071 39.52 8.14643 39.5878 8.21071C39.6592 8.275 39.7467 8.32321 39.8503 8.35536C39.9539 8.38393 40.0967 8.41429 40.2789 8.44643C40.5039 8.48929 40.6842 8.53214 40.82 8.575C40.9557 8.61786 41.0717 8.69107 41.1682 8.79464C41.2646 8.89821 41.3128 9.04107 41.3128 9.22321C41.3128 9.46964 41.2092 9.66607 41.0021 9.8125C40.7985 9.95536 40.5146 10.0268 40.1503 10.0268ZM43.4678 7.16071C43.7321 7.16071 43.9713 7.22143 44.1856 7.34286C44.3999 7.46071 44.5678 7.62857 44.6892 7.84643C44.8106 8.06429 44.8713 8.3125 44.8713 8.59107C44.8713 8.87321 44.8106 9.12321 44.6892 9.34107C44.5678 9.55893 44.3999 9.72857 44.1856 9.85C43.9749 9.96786 43.7356 10.0268 43.4678 10.0268C43.2392 10.0268 43.0321 9.98036 42.8463 9.8875C42.6642 9.79107 42.5142 9.65179 42.3963 9.46964V11.0393H42.016V7.18214H42.3803V7.73929C42.4946 7.55357 42.6446 7.41071 42.8303 7.31071C43.0196 7.21071 43.2321 7.16071 43.4678 7.16071ZM43.441 9.68929C43.6374 9.68929 43.816 9.64464 43.9767 9.55536C44.1374 9.4625 44.2624 9.33214 44.3517 9.16429C44.4446 8.99643 44.491 8.80536 44.491 8.59107C44.491 8.37679 44.4446 8.1875 44.3517 8.02321C44.2624 7.85536 44.1374 7.725 43.9767 7.63214C43.816 7.53929 43.6374 7.49286 43.441 7.49286C43.241 7.49286 43.0606 7.53929 42.8999 7.63214C42.7428 7.725 42.6178 7.85536 42.5249 8.02321C42.4356 8.1875 42.391 8.37679 42.391 8.59107C42.391 8.80536 42.4356 8.99643 42.5249 9.16429C42.6178 9.33214 42.7428 9.4625 42.8999 9.55536C43.0606 9.64464 43.241 9.68929 43.441 9.68929ZM46.7985 10.0268C46.5271 10.0268 46.2824 9.96607 46.0646 9.84464C45.8467 9.71964 45.6753 9.54821 45.5503 9.33036C45.4253 9.1125 45.3628 8.86607 45.3628 8.59107C45.3628 8.31607 45.4253 8.06964 45.5503 7.85179C45.6753 7.63393 45.8467 7.46429 46.0646 7.34286C46.2824 7.22143 46.5271 7.16071 46.7985 7.16071C47.0699 7.16071 47.3146 7.22143 47.5324 7.34286C47.7503 7.46429 47.9199 7.63393 48.0413 7.85179C48.1664 8.06964 48.2289 8.31607 48.2289 8.59107C48.2289 8.86607 48.1664 9.1125 48.0413 9.33036C47.9199 9.54821 47.7503 9.71964 47.5324 9.84464C47.3146 9.96607 47.0699 10.0268 46.7985 10.0268ZM46.7985 9.68929C46.9985 9.68929 47.1771 9.64464 47.3342 9.55536C47.4949 9.4625 47.6199 9.33214 47.7092 9.16429C47.7985 8.99643 47.8431 8.80536 47.8431 8.59107C47.8431 8.37679 47.7985 8.18571 47.7092 8.01786C47.6199 7.85 47.4949 7.72143 47.3342 7.63214C47.1771 7.53929 46.9985 7.49286 46.7985 7.49286C46.5985 7.49286 46.4181 7.53929 46.2574 7.63214C46.1003 7.72143 45.9753 7.85 45.8824 8.01786C45.7931 8.18571 45.7485 8.37679 45.7485 8.59107C45.7485 8.80536 45.7931 8.99643 45.8824 9.16429C45.9753 9.33214 46.1003 9.4625 46.2574 9.55536C46.4181 9.64464 46.5985 9.68929 46.7985 9.68929ZM50.4411 7.16071C50.7947 7.16071 51.075 7.26429 51.2822 7.47143C51.4929 7.675 51.5982 7.97321 51.5982 8.36607V10H51.2179V8.40357C51.2179 8.11071 51.1447 7.8875 50.9982 7.73393C50.8518 7.58036 50.6429 7.50357 50.3715 7.50357C50.0679 7.50357 49.8268 7.59464 49.6482 7.77679C49.4732 7.95536 49.3857 8.20357 49.3857 8.52143V10H49.0054V7.18214H49.3697V7.70179C49.4732 7.53036 49.6161 7.39821 49.7982 7.30536C49.984 7.20893 50.1982 7.16071 50.4411 7.16071ZM52.6309 7.18214H53.0112V10H52.6309V7.18214ZM52.8237 6.56607C52.7452 6.56607 52.6791 6.53929 52.6255 6.48571C52.5719 6.43214 52.5452 6.36786 52.5452 6.29286C52.5452 6.22143 52.5719 6.15893 52.6255 6.10536C52.6791 6.05179 52.7452 6.025 52.8237 6.025C52.9023 6.025 52.9684 6.05179 53.0219 6.10536C53.0755 6.15536 53.1023 6.21607 53.1023 6.2875C53.1023 6.36607 53.0755 6.43214 53.0219 6.48571C52.9684 6.53929 52.9023 6.56607 52.8237 6.56607ZM55.5213 7.16071C55.7856 7.16071 56.0249 7.22143 56.2392 7.34286C56.4535 7.46071 56.6213 7.62857 56.7428 7.84643C56.8642 8.06429 56.9249 8.3125 56.9249 8.59107C56.9249 8.86964 56.8642 9.11786 56.7428 9.33571C56.6213 9.55357 56.4535 9.72321 56.2392 9.84464C56.0249 9.96607 55.7856 10.0268 55.5213 10.0268C55.2856 10.0268 55.0731 9.97679 54.8838 9.87679C54.6981 9.77679 54.5481 9.63214 54.4338 9.44286V10H54.0696V6.025H54.4499V7.71786C54.5678 7.53571 54.7178 7.39821 54.8999 7.30536C55.0856 7.20893 55.2928 7.16071 55.5213 7.16071ZM55.4946 9.68929C55.691 9.68929 55.8696 9.64464 56.0303 9.55536C56.191 9.4625 56.316 9.33214 56.4053 9.16429C56.4981 8.99643 56.5446 8.80536 56.5446 8.59107C56.5446 8.37679 56.4981 8.18571 56.4053 8.01786C56.316 7.85 56.191 7.72143 56.0303 7.63214C55.8696 7.53929 55.691 7.49286 55.4946 7.49286C55.2946 7.49286 55.1142 7.53929 54.9535 7.63214C54.7963 7.72143 54.6713 7.85 54.5785 8.01786C54.4892 8.18571 54.4446 8.37679 54.4446 8.59107C54.4446 8.80536 54.4892 8.99643 54.5785 9.16429C54.6713 9.33214 54.7963 9.4625 54.9535 9.55536C55.1142 9.64464 55.2946 9.68929 55.4946 9.68929ZM57.7003 6.025H58.0806V10H57.7003V6.025ZM61.5925 8.70893H59.2354C59.2568 9.00179 59.3693 9.23929 59.5729 9.42143C59.7765 9.6 60.0336 9.68929 60.3443 9.68929C60.5193 9.68929 60.68 9.65893 60.8265 9.59821C60.9729 9.53393 61.0997 9.44107 61.2068 9.31964L61.4211 9.56607C61.2961 9.71607 61.139 9.83036 60.9497 9.90893C60.764 9.9875 60.5586 10.0268 60.3336 10.0268C60.0443 10.0268 59.7872 9.96607 59.5622 9.84464C59.3407 9.71964 59.1675 9.54821 59.0425 9.33036C58.9175 9.1125 58.855 8.86607 58.855 8.59107C58.855 8.31607 58.914 8.06964 59.0318 7.85179C59.1532 7.63393 59.3175 7.46429 59.5247 7.34286C59.7354 7.22143 59.9711 7.16071 60.2318 7.16071C60.4925 7.16071 60.7265 7.22143 60.9336 7.34286C61.1407 7.46429 61.3032 7.63393 61.4211 7.85179C61.539 8.06607 61.5979 8.3125 61.5979 8.59107L61.5925 8.70893ZM60.2318 7.4875C59.9604 7.4875 59.7318 7.575 59.5461 7.75C59.364 7.92143 59.2604 8.14643 59.2354 8.425H61.2336C61.2086 8.14643 61.1032 7.92143 60.9175 7.75C60.7354 7.575 60.5068 7.4875 60.2318 7.4875ZM65.2259 7.16071C65.4902 7.16071 65.7295 7.22143 65.9438 7.34286C66.1581 7.46071 66.3259 7.62857 66.4474 7.84643C66.5688 8.06429 66.6295 8.3125 66.6295 8.59107C66.6295 8.87321 66.5688 9.12321 66.4474 9.34107C66.3259 9.55893 66.1581 9.72857 65.9438 9.85C65.7331 9.96786 65.4938 10.0268 65.2259 10.0268C64.9974 10.0268 64.7902 9.98036 64.6045 9.8875C64.4224 9.79107 64.2724 9.65179 64.1545 9.46964V11.0393H63.7741V7.18214H64.1384V7.73929C64.2527 7.55357 64.4027 7.41071 64.5884 7.31071C64.7777 7.21071 64.9902 7.16071 65.2259 7.16071ZM65.1991 9.68929C65.3956 9.68929 65.5741 9.64464 65.7349 9.55536C65.8956 9.4625 66.0206 9.33214 66.1099 9.16429C66.2027 8.99643 66.2491 8.80536 66.2491 8.59107C66.2491 8.37679 66.2027 8.1875 66.1099 8.02321C66.0206 7.85536 65.8956 7.725 65.7349 7.63214C65.5741 7.53929 65.3956 7.49286 65.1991 7.49286C64.9991 7.49286 64.8188 7.53929 64.6581 7.63214C64.5009 7.725 64.3759 7.85536 64.2831 8.02321C64.1938 8.1875 64.1491 8.37679 64.1491 8.59107C64.1491 8.80536 64.1938 8.99643 64.2831 9.16429C64.3759 9.33214 64.5009 9.4625 64.6581 9.55536C64.8188 9.64464 64.9991 9.68929 65.1991 9.68929ZM68.3749 7.16071C68.7427 7.16071 69.0249 7.25357 69.2213 7.43929C69.4177 7.62143 69.516 7.89286 69.516 8.25357V10H69.1517V9.56071C69.066 9.70714 68.9392 9.82143 68.7713 9.90357C68.607 9.98571 68.4106 10.0268 68.182 10.0268C67.8677 10.0268 67.6177 9.95179 67.432 9.80179C67.2463 9.65179 67.1535 9.45357 67.1535 9.20714C67.1535 8.96786 67.2392 8.775 67.4106 8.62857C67.5856 8.48214 67.8624 8.40893 68.241 8.40893H69.1356V8.2375C69.1356 7.99464 69.0677 7.81071 68.932 7.68571C68.7963 7.55714 68.5981 7.49286 68.3374 7.49286C68.1588 7.49286 67.9874 7.52321 67.8231 7.58393C67.6588 7.64107 67.5177 7.72143 67.3999 7.825L67.2285 7.54107C67.3713 7.41964 67.5427 7.32679 67.7427 7.2625C67.9427 7.19464 68.1535 7.16071 68.3749 7.16071ZM68.241 9.72679C68.4552 9.72679 68.6392 9.67857 68.7927 9.58214C68.9463 9.48214 69.0606 9.33929 69.1356 9.15357V8.69286H68.2517C67.7695 8.69286 67.5285 8.86071 67.5285 9.19643C67.5285 9.36071 67.591 9.49107 67.716 9.5875C67.841 9.68036 68.016 9.72679 68.241 9.72679ZM70.9133 7.73393C71.0026 7.54464 71.1348 7.40179 71.3098 7.30536C71.4883 7.20893 71.708 7.16071 71.9687 7.16071V7.53036L71.8776 7.525C71.5812 7.525 71.349 7.61607 71.1812 7.79821C71.0133 7.98036 70.9294 8.23571 70.9294 8.56429V10H70.549V7.18214H70.9133V7.73393ZM73.6379 7.16071C74.0057 7.16071 74.2879 7.25357 74.4843 7.43929C74.6807 7.62143 74.7789 7.89286 74.7789 8.25357V10H74.4146V9.56071C74.3289 9.70714 74.2021 9.82143 74.0343 9.90357C73.87 9.98571 73.6736 10.0268 73.445 10.0268C73.1307 10.0268 72.8807 9.95179 72.695 9.80179C72.5093 9.65179 72.4164 9.45357 72.4164 9.20714C72.4164 8.96786 72.5021 8.775 72.6736 8.62857C72.8486 8.48214 73.1254 8.40893 73.5039 8.40893H74.3986V8.2375C74.3986 7.99464 74.3307 7.81071 74.195 7.68571C74.0593 7.55714 73.8611 7.49286 73.6004 7.49286C73.4218 7.49286 73.2504 7.52321 73.0861 7.58393C72.9218 7.64107 72.7807 7.72143 72.6629 7.825L72.4914 7.54107C72.6343 7.41964 72.8057 7.32679 73.0057 7.2625C73.2057 7.19464 73.4164 7.16071 73.6379 7.16071ZM73.5039 9.72679C73.7182 9.72679 73.9021 9.67857 74.0557 9.58214C74.2093 9.48214 74.3236 9.33929 74.3986 9.15357V8.69286H73.5146C73.0325 8.69286 72.7914 8.86071 72.7914 9.19643C72.7914 9.36071 72.8539 9.49107 72.9789 9.5875C73.1039 9.68036 73.2789 9.72679 73.5039 9.72679Z" fill="white"/>
<path d="M39.5036 19.25H40.2643V22.1107C39.9143 22.4179 39.5 22.6536 39.0214 22.8179C38.5429 22.9821 38.0393 23.0643 37.5107 23.0643C36.7607 23.0643 36.0857 22.9 35.4857 22.5714C34.8857 22.2429 34.4143 21.7893 34.0714 21.2107C33.7286 20.625 33.5571 19.9714 33.5571 19.25C33.5571 18.5286 33.7286 17.8786 34.0714 17.3C34.4143 16.7143 34.8857 16.2571 35.4857 15.9286C36.0857 15.6 36.7643 15.4357 37.5214 15.4357C38.0929 15.4357 38.6179 15.5286 39.0964 15.7143C39.575 15.8929 39.9786 16.1607 40.3071 16.5179L39.8143 17.0214C39.2214 16.4357 38.4679 16.1429 37.5536 16.1429C36.9464 16.1429 36.3964 16.2786 35.9036 16.55C35.4179 16.8143 35.0357 17.1857 34.7571 17.6643C34.4786 18.1357 34.3393 18.6643 34.3393 19.25C34.3393 19.8357 34.4786 20.3643 34.7571 20.8357C35.0357 21.3071 35.4179 21.6786 35.9036 21.95C36.3893 22.2214 36.9357 22.3571 37.5429 22.3571C38.3143 22.3571 38.9679 22.1643 39.5036 21.7786V19.25ZM44.6511 23.0536C44.1083 23.0536 43.619 22.9321 43.1833 22.6893C42.7475 22.4393 42.4047 22.0964 42.1547 21.6607C41.9047 21.225 41.7797 20.7321 41.7797 20.1821C41.7797 19.6321 41.9047 19.1393 42.1547 18.7036C42.4047 18.2679 42.7475 17.9286 43.1833 17.6857C43.619 17.4429 44.1083 17.3214 44.6511 17.3214C45.194 17.3214 45.6833 17.4429 46.119 17.6857C46.5547 17.9286 46.894 18.2679 47.1368 18.7036C47.3868 19.1393 47.5118 19.6321 47.5118 20.1821C47.5118 20.7321 47.3868 21.225 47.1368 21.6607C46.894 22.0964 46.5547 22.4393 46.119 22.6893C45.6833 22.9321 45.194 23.0536 44.6511 23.0536ZM44.6511 22.3786C45.0511 22.3786 45.4083 22.2893 45.7225 22.1107C46.044 21.925 46.294 21.6643 46.4725 21.3286C46.6511 20.9929 46.7404 20.6107 46.7404 20.1821C46.7404 19.7536 46.6511 19.3714 46.4725 19.0357C46.294 18.7 46.044 18.4429 45.7225 18.2643C45.4083 18.0786 45.0511 17.9857 44.6511 17.9857C44.2511 17.9857 43.8904 18.0786 43.569 18.2643C43.2547 18.4429 43.0047 18.7 42.819 19.0357C42.6404 19.3714 42.5511 19.7536 42.5511 20.1821C42.5511 20.6107 42.6404 20.9929 42.819 21.3286C43.0047 21.6643 43.2547 21.925 43.569 22.1107C43.8904 22.2893 44.2511 22.3786 44.6511 22.3786ZM51.3685 23.0536C50.8256 23.0536 50.3363 22.9321 49.9006 22.6893C49.4649 22.4393 49.122 22.0964 48.872 21.6607C48.622 21.225 48.497 20.7321 48.497 20.1821C48.497 19.6321 48.622 19.1393 48.872 18.7036C49.122 18.2679 49.4649 17.9286 49.9006 17.6857C50.3363 17.4429 50.8256 17.3214 51.3685 17.3214C51.9113 17.3214 52.4006 17.4429 52.8363 17.6857C53.272 17.9286 53.6113 18.2679 53.8542 18.7036C54.1042 19.1393 54.2292 19.6321 54.2292 20.1821C54.2292 20.7321 54.1042 21.225 53.8542 21.6607C53.6113 22.0964 53.272 22.4393 52.8363 22.6893C52.4006 22.9321 51.9113 23.0536 51.3685 23.0536ZM51.3685 22.3786C51.7685 22.3786 52.1256 22.2893 52.4399 22.1107C52.7613 21.925 53.0113 21.6643 53.1899 21.3286C53.3685 20.9929 53.4578 20.6107 53.4578 20.1821C53.4578 19.7536 53.3685 19.3714 53.1899 19.0357C53.0113 18.7 52.7613 18.4429 52.4399 18.2643C52.1256 18.0786 51.7685 17.9857 51.3685 17.9857C50.9685 17.9857 50.6078 18.0786 50.2863 18.2643C49.972 18.4429 49.722 18.7 49.5363 19.0357C49.3578 19.3714 49.2685 19.7536 49.2685 20.1821C49.2685 20.6107 49.3578 20.9929 49.5363 21.3286C49.722 21.6643 49.972 21.925 50.2863 22.1107C50.6078 22.2893 50.9685 22.3786 51.3685 22.3786ZM61.0001 17.3643V22.3143C61.0001 23.2714 60.7644 23.9786 60.293 24.4357C59.8287 24.9 59.1251 25.1321 58.1823 25.1321C57.6608 25.1321 57.1644 25.0536 56.693 24.8964C56.2287 24.7464 55.8501 24.5357 55.5573 24.2643L55.943 23.6857C56.2144 23.9286 56.543 24.1179 56.9287 24.2536C57.3215 24.3893 57.7323 24.4571 58.1608 24.4571C58.8751 24.4571 59.4001 24.2893 59.7358 23.9536C60.0715 23.625 60.2394 23.1107 60.2394 22.4107V21.6929C60.0037 22.05 59.693 22.3214 59.3073 22.5071C58.9287 22.6929 58.5073 22.7857 58.043 22.7857C57.5144 22.7857 57.0323 22.6714 56.5965 22.4429C56.168 22.2071 55.8287 21.8821 55.5787 21.4679C55.3358 21.0464 55.2144 20.5714 55.2144 20.0429C55.2144 19.5143 55.3358 19.0429 55.5787 18.6286C55.8287 18.2143 56.168 17.8929 56.5965 17.6643C57.0251 17.4357 57.5073 17.3214 58.043 17.3214C58.5215 17.3214 58.9537 17.4179 59.3394 17.6107C59.7251 17.8036 60.0358 18.0821 60.2715 18.4464V17.3643H61.0001ZM58.118 22.1107C58.5251 22.1107 58.893 22.025 59.2215 21.8536C59.5501 21.675 59.8037 21.4286 59.9823 21.1143C60.168 20.8 60.2608 20.4429 60.2608 20.0429C60.2608 19.6429 60.168 19.2893 59.9823 18.9821C59.8037 18.6679 59.5501 18.425 59.2215 18.2536C58.9001 18.075 58.5323 17.9857 58.118 17.9857C57.7108 17.9857 57.343 18.0714 57.0144 18.2429C56.693 18.4143 56.4394 18.6571 56.2537 18.9714C56.0751 19.2857 55.9858 19.6429 55.9858 20.0429C55.9858 20.4429 56.0751 20.8 56.2537 21.1143C56.4394 21.4286 56.693 21.675 57.0144 21.8536C57.343 22.025 57.7108 22.1107 58.118 22.1107ZM63.1274 15.05H63.8881V23H63.1274V15.05ZM70.9119 20.4179H66.1976C66.2405 21.0036 66.4655 21.4786 66.8726 21.8429C67.2798 22.2 67.7941 22.3786 68.4155 22.3786C68.7655 22.3786 69.0869 22.3179 69.3798 22.1964C69.6726 22.0679 69.9262 21.8821 70.1405 21.6393L70.5691 22.1321C70.3191 22.4321 70.0048 22.6607 69.6262 22.8179C69.2548 22.975 68.8441 23.0536 68.3941 23.0536C67.8155 23.0536 67.3012 22.9321 66.8512 22.6893C66.4083 22.4393 66.0619 22.0964 65.8119 21.6607C65.5619 21.225 65.4369 20.7321 65.4369 20.1821C65.4369 19.6321 65.5548 19.1393 65.7905 18.7036C66.0333 18.2679 66.3619 17.9286 66.7762 17.6857C67.1976 17.4429 67.6691 17.3214 68.1905 17.3214C68.7119 17.3214 69.1798 17.4429 69.5941 17.6857C70.0083 17.9286 70.3333 18.2679 70.5691 18.7036C70.8048 19.1321 70.9226 19.625 70.9226 20.1821L70.9119 20.4179ZM68.1905 17.975C67.6476 17.975 67.1905 18.15 66.8191 18.5C66.4548 18.8429 66.2476 19.2929 66.1976 19.85H70.1941C70.1441 19.2929 69.9333 18.8429 69.5619 18.5C69.1976 18.15 68.7405 17.975 68.1905 17.975ZM78.243 15.5C79.2001 15.5 79.9501 15.7286 80.493 16.1857C81.0359 16.6429 81.3073 17.2714 81.3073 18.0714C81.3073 18.8714 81.0359 19.5 80.493 19.9571C79.9501 20.4071 79.2001 20.6321 78.243 20.6321H76.2287V23H75.4359V15.5H78.243ZM78.2216 19.9357C78.9644 19.9357 79.5323 19.775 79.9251 19.4536C80.318 19.125 80.5144 18.6643 80.5144 18.0714C80.5144 17.4643 80.318 17 79.9251 16.6786C79.5323 16.35 78.9644 16.1857 78.2216 16.1857H76.2287V19.9357H78.2216ZM82.9656 15.05H83.7263V23H82.9656V15.05ZM87.8144 17.3214C88.5501 17.3214 89.1144 17.5071 89.5072 17.8786C89.9001 18.2429 90.0965 18.7857 90.0965 19.5071V23H89.3679V22.1214C89.1965 22.4143 88.9429 22.6429 88.6072 22.8071C88.2787 22.9714 87.8858 23.0536 87.4287 23.0536C86.8001 23.0536 86.3001 22.9036 85.9287 22.6036C85.5572 22.3036 85.3715 21.9071 85.3715 21.4143C85.3715 20.9357 85.5429 20.55 85.8858 20.2571C86.2358 19.9643 86.7894 19.8179 87.5465 19.8179H89.3358V19.475C89.3358 18.9893 89.2001 18.6214 88.9287 18.3714C88.6572 18.1143 88.2608 17.9857 87.7394 17.9857C87.3822 17.9857 87.0394 18.0464 86.7108 18.1679C86.3822 18.2821 86.1001 18.4429 85.8644 18.65L85.5215 18.0821C85.8072 17.8393 86.1501 17.6536 86.5501 17.525C86.9501 17.3893 87.3715 17.3214 87.8144 17.3214ZM87.5465 22.4536C87.9751 22.4536 88.3429 22.3571 88.6501 22.1643C88.9572 21.9643 89.1858 21.6786 89.3358 21.3071V20.3857H87.5679C86.6037 20.3857 86.1215 20.7214 86.1215 21.3929C86.1215 21.7214 86.2465 21.9821 86.4965 22.175C86.7465 22.3607 87.0965 22.4536 87.5465 22.4536ZM96.7938 17.3643L93.9759 23.675C93.7473 24.2036 93.4831 24.5786 93.1831 24.8C92.8831 25.0214 92.5223 25.1321 92.1009 25.1321C91.8295 25.1321 91.5759 25.0893 91.3402 25.0036C91.1045 24.9179 90.9009 24.7893 90.7295 24.6179L91.0831 24.05C91.3688 24.3357 91.7116 24.4786 92.1116 24.4786C92.3688 24.4786 92.5866 24.4071 92.7652 24.2643C92.9509 24.1214 93.1223 23.8786 93.2795 23.5357L93.5259 22.9893L91.0081 17.3643H91.8009L93.9223 22.1536L96.0438 17.3643H96.7938Z" fill="white"/>
<rect x="130.536" y="0.535714" width="105" height="28.9286" rx="14.4643" stroke="white" stroke-width="1.07143"/>
<path d="M168.611 6.25H170.137C170.534 6.25 170.884 6.33036 171.187 6.49107C171.491 6.64821 171.727 6.86964 171.895 7.15536C172.062 7.4375 172.146 7.76071 172.146 8.125C172.146 8.48929 172.062 8.81429 171.895 9.1C171.727 9.38214 171.491 9.60357 171.187 9.76429C170.884 9.92143 170.534 10 170.137 10H168.611V6.25ZM170.116 9.65714C170.445 9.65714 170.732 9.59286 170.979 9.46429C171.225 9.33214 171.416 9.15179 171.552 8.92321C171.687 8.69107 171.755 8.425 171.755 8.125C171.755 7.825 171.687 7.56071 171.552 7.33214C171.416 7.1 171.225 6.91964 170.979 6.79107C170.732 6.65893 170.445 6.59286 170.116 6.59286H169.007V9.65714H170.116ZM172.956 7.18214H173.337V10H172.956V7.18214ZM173.149 6.56607C173.071 6.56607 173.004 6.53929 172.951 6.48571C172.897 6.43214 172.871 6.36786 172.871 6.29286C172.871 6.22143 172.897 6.15893 172.951 6.10536C173.004 6.05179 173.071 6.025 173.149 6.025C173.228 6.025 173.294 6.05179 173.347 6.10536C173.401 6.15536 173.428 6.21607 173.428 6.2875C173.428 6.36607 173.401 6.43214 173.347 6.48571C173.294 6.53929 173.228 6.56607 173.149 6.56607ZM175.15 10.0268C174.922 10.0268 174.702 9.99464 174.491 9.93036C174.284 9.8625 174.122 9.77857 174.004 9.67857L174.175 9.37857C174.293 9.47143 174.441 9.54821 174.62 9.60893C174.799 9.66607 174.984 9.69464 175.177 9.69464C175.434 9.69464 175.624 9.65536 175.745 9.57679C175.87 9.49464 175.932 9.38036 175.932 9.23393C175.932 9.13036 175.899 9.05 175.831 8.99286C175.763 8.93214 175.677 8.8875 175.574 8.85893C175.47 8.82679 175.332 8.79643 175.161 8.76786C174.932 8.725 174.749 8.68214 174.609 8.63929C174.47 8.59286 174.35 8.51607 174.25 8.40893C174.154 8.30179 174.106 8.15357 174.106 7.96429C174.106 7.72857 174.204 7.53571 174.4 7.38571C174.597 7.23571 174.87 7.16071 175.22 7.16071C175.402 7.16071 175.584 7.18571 175.766 7.23571C175.949 7.28214 176.099 7.34464 176.216 7.42321L176.05 7.72857C175.818 7.56786 175.541 7.4875 175.22 7.4875C174.977 7.4875 174.793 7.53036 174.668 7.61607C174.547 7.70179 174.486 7.81429 174.486 7.95357C174.486 8.06071 174.52 8.14643 174.588 8.21071C174.659 8.275 174.747 8.32321 174.85 8.35536C174.954 8.38393 175.097 8.41429 175.279 8.44643C175.504 8.48929 175.684 8.53214 175.82 8.575C175.956 8.61786 176.072 8.69107 176.168 8.79464C176.265 8.89821 176.313 9.04107 176.313 9.22321C176.313 9.46964 176.209 9.66607 176.002 9.8125C175.799 9.95536 175.515 10.0268 175.15 10.0268ZM178.468 7.16071C178.732 7.16071 178.971 7.22143 179.186 7.34286C179.4 7.46071 179.568 7.62857 179.689 7.84643C179.811 8.06429 179.871 8.3125 179.871 8.59107C179.871 8.87321 179.811 9.12321 179.689 9.34107C179.568 9.55893 179.4 9.72857 179.186 9.85C178.975 9.96786 178.736 10.0268 178.468 10.0268C178.239 10.0268 178.032 9.98036 177.846 9.8875C177.664 9.79107 177.514 9.65179 177.396 9.46964V11.0393H177.016V7.18214H177.38V7.73929C177.495 7.55357 177.645 7.41071 177.83 7.31071C178.02 7.21071 178.232 7.16071 178.468 7.16071ZM178.441 9.68929C178.637 9.68929 178.816 9.64464 178.977 9.55536C179.137 9.4625 179.262 9.33214 179.352 9.16429C179.445 8.99643 179.491 8.80536 179.491 8.59107C179.491 8.37679 179.445 8.1875 179.352 8.02321C179.262 7.85536 179.137 7.725 178.977 7.63214C178.816 7.53929 178.637 7.49286 178.441 7.49286C178.241 7.49286 178.061 7.53929 177.9 7.63214C177.743 7.725 177.618 7.85536 177.525 8.02321C177.436 8.1875 177.391 8.37679 177.391 8.59107C177.391 8.80536 177.436 8.99643 177.525 9.16429C177.618 9.33214 177.743 9.4625 177.9 9.55536C178.061 9.64464 178.241 9.68929 178.441 9.68929ZM181.798 10.0268C181.527 10.0268 181.282 9.96607 181.065 9.84464C180.847 9.71964 180.675 9.54821 180.55 9.33036C180.425 9.1125 180.363 8.86607 180.363 8.59107C180.363 8.31607 180.425 8.06964 180.55 7.85179C180.675 7.63393 180.847 7.46429 181.065 7.34286C181.282 7.22143 181.527 7.16071 181.798 7.16071C182.07 7.16071 182.315 7.22143 182.532 7.34286C182.75 7.46429 182.92 7.63393 183.041 7.85179C183.166 8.06964 183.229 8.31607 183.229 8.59107C183.229 8.86607 183.166 9.1125 183.041 9.33036C182.92 9.54821 182.75 9.71964 182.532 9.84464C182.315 9.96607 182.07 10.0268 181.798 10.0268ZM181.798 9.68929C181.998 9.68929 182.177 9.64464 182.334 9.55536C182.495 9.4625 182.62 9.33214 182.709 9.16429C182.798 8.99643 182.843 8.80536 182.843 8.59107C182.843 8.37679 182.798 8.18571 182.709 8.01786C182.62 7.85 182.495 7.72143 182.334 7.63214C182.177 7.53929 181.998 7.49286 181.798 7.49286C181.598 7.49286 181.418 7.53929 181.257 7.63214C181.1 7.72143 180.975 7.85 180.882 8.01786C180.793 8.18571 180.748 8.37679 180.748 8.59107C180.748 8.80536 180.793 8.99643 180.882 9.16429C180.975 9.33214 181.1 9.4625 181.257 9.55536C181.418 9.64464 181.598 9.68929 181.798 9.68929ZM185.441 7.16071C185.795 7.16071 186.075 7.26429 186.282 7.47143C186.493 7.675 186.598 7.97321 186.598 8.36607V10H186.218V8.40357C186.218 8.11071 186.145 7.8875 185.998 7.73393C185.852 7.58036 185.643 7.50357 185.371 7.50357C185.068 7.50357 184.827 7.59464 184.648 7.77679C184.473 7.95536 184.386 8.20357 184.386 8.52143V10H184.005V7.18214H184.37V7.70179C184.473 7.53036 184.616 7.39821 184.798 7.30536C184.984 7.20893 185.198 7.16071 185.441 7.16071ZM187.631 7.18214H188.011V10H187.631V7.18214ZM187.824 6.56607C187.745 6.56607 187.679 6.53929 187.626 6.48571C187.572 6.43214 187.545 6.36786 187.545 6.29286C187.545 6.22143 187.572 6.15893 187.626 6.10536C187.679 6.05179 187.745 6.025 187.824 6.025C187.902 6.025 187.968 6.05179 188.022 6.10536C188.076 6.15536 188.102 6.21607 188.102 6.2875C188.102 6.36607 188.076 6.43214 188.022 6.48571C187.968 6.53929 187.902 6.56607 187.824 6.56607ZM190.521 7.16071C190.786 7.16071 191.025 7.22143 191.239 7.34286C191.453 7.46071 191.621 7.62857 191.743 7.84643C191.864 8.06429 191.925 8.3125 191.925 8.59107C191.925 8.86964 191.864 9.11786 191.743 9.33571C191.621 9.55357 191.453 9.72321 191.239 9.84464C191.025 9.96607 190.786 10.0268 190.521 10.0268C190.286 10.0268 190.073 9.97679 189.884 9.87679C189.698 9.77679 189.548 9.63214 189.434 9.44286V10H189.07V6.025H189.45V7.71786C189.568 7.53571 189.718 7.39821 189.9 7.30536C190.086 7.20893 190.293 7.16071 190.521 7.16071ZM190.495 9.68929C190.691 9.68929 190.87 9.64464 191.03 9.55536C191.191 9.4625 191.316 9.33214 191.405 9.16429C191.498 8.99643 191.545 8.80536 191.545 8.59107C191.545 8.37679 191.498 8.18571 191.405 8.01786C191.316 7.85 191.191 7.72143 191.03 7.63214C190.87 7.53929 190.691 7.49286 190.495 7.49286C190.295 7.49286 190.114 7.53929 189.953 7.63214C189.796 7.72143 189.671 7.85 189.578 8.01786C189.489 8.18571 189.445 8.37679 189.445 8.59107C189.445 8.80536 189.489 8.99643 189.578 9.16429C189.671 9.33214 189.796 9.4625 189.953 9.55536C190.114 9.64464 190.295 9.68929 190.495 9.68929ZM192.7 6.025H193.081V10H192.7V6.025ZM196.593 8.70893H194.235C194.257 9.00179 194.369 9.23929 194.573 9.42143C194.776 9.6 195.034 9.68929 195.344 9.68929C195.519 9.68929 195.68 9.65893 195.826 9.59821C195.973 9.53393 196.1 9.44107 196.207 9.31964L196.421 9.56607C196.296 9.71607 196.139 9.83036 195.95 9.90893C195.764 9.9875 195.559 10.0268 195.334 10.0268C195.044 10.0268 194.787 9.96607 194.562 9.84464C194.341 9.71964 194.168 9.54821 194.043 9.33036C193.918 9.1125 193.855 8.86607 193.855 8.59107C193.855 8.31607 193.914 8.06964 194.032 7.85179C194.153 7.63393 194.318 7.46429 194.525 7.34286C194.735 7.22143 194.971 7.16071 195.232 7.16071C195.493 7.16071 195.726 7.22143 195.934 7.34286C196.141 7.46429 196.303 7.63393 196.421 7.85179C196.539 8.06607 196.598 8.3125 196.598 8.59107L196.593 8.70893ZM195.232 7.4875C194.96 7.4875 194.732 7.575 194.546 7.75C194.364 7.92143 194.26 8.14643 194.235 8.425H196.234C196.209 8.14643 196.103 7.92143 195.918 7.75C195.735 7.575 195.507 7.4875 195.232 7.4875ZM200.226 7.16071C200.49 7.16071 200.73 7.22143 200.944 7.34286C201.158 7.46071 201.326 7.62857 201.447 7.84643C201.569 8.06429 201.63 8.3125 201.63 8.59107C201.63 8.87321 201.569 9.12321 201.447 9.34107C201.326 9.55893 201.158 9.72857 200.944 9.85C200.733 9.96786 200.494 10.0268 200.226 10.0268C199.997 10.0268 199.79 9.98036 199.605 9.8875C199.422 9.79107 199.272 9.65179 199.155 9.46964V11.0393H198.774V7.18214H199.138V7.73929C199.253 7.55357 199.403 7.41071 199.588 7.31071C199.778 7.21071 199.99 7.16071 200.226 7.16071ZM200.199 9.68929C200.396 9.68929 200.574 9.64464 200.735 9.55536C200.896 9.4625 201.021 9.33214 201.11 9.16429C201.203 8.99643 201.249 8.80536 201.249 8.59107C201.249 8.37679 201.203 8.1875 201.11 8.02321C201.021 7.85536 200.896 7.725 200.735 7.63214C200.574 7.53929 200.396 7.49286 200.199 7.49286C199.999 7.49286 199.819 7.53929 199.658 7.63214C199.501 7.725 199.376 7.85536 199.283 8.02321C199.194 8.1875 199.149 8.37679 199.149 8.59107C199.149 8.80536 199.194 8.99643 199.283 9.16429C199.376 9.33214 199.501 9.4625 199.658 9.55536C199.819 9.64464 199.999 9.68929 200.199 9.68929ZM203.375 7.16071C203.743 7.16071 204.025 7.25357 204.221 7.43929C204.418 7.62143 204.516 7.89286 204.516 8.25357V10H204.152V9.56071C204.066 9.70714 203.939 9.82143 203.771 9.90357C203.607 9.98571 203.411 10.0268 203.182 10.0268C202.868 10.0268 202.618 9.95179 202.432 9.80179C202.246 9.65179 202.153 9.45357 202.153 9.20714C202.153 8.96786 202.239 8.775 202.411 8.62857C202.586 8.48214 202.862 8.40893 203.241 8.40893H204.136V8.2375C204.136 7.99464 204.068 7.81071 203.932 7.68571C203.796 7.55714 203.598 7.49286 203.337 7.49286C203.159 7.49286 202.987 7.52321 202.823 7.58393C202.659 7.64107 202.518 7.72143 202.4 7.825L202.228 7.54107C202.371 7.41964 202.543 7.32679 202.743 7.2625C202.943 7.19464 203.153 7.16071 203.375 7.16071ZM203.241 9.72679C203.455 9.72679 203.639 9.67857 203.793 9.58214C203.946 9.48214 204.061 9.33929 204.136 9.15357V8.69286H203.252C202.77 8.69286 202.528 8.86071 202.528 9.19643C202.528 9.36071 202.591 9.49107 202.716 9.5875C202.841 9.68036 203.016 9.72679 203.241 9.72679ZM205.913 7.73393C206.003 7.54464 206.135 7.40179 206.31 7.30536C206.488 7.20893 206.708 7.16071 206.969 7.16071V7.53036L206.878 7.525C206.581 7.525 206.349 7.61607 206.181 7.79821C206.013 7.98036 205.929 8.23571 205.929 8.56429V10H205.549V7.18214H205.913V7.73393ZM208.638 7.16071C209.006 7.16071 209.288 7.25357 209.484 7.43929C209.681 7.62143 209.779 7.89286 209.779 8.25357V10H209.415V9.56071C209.329 9.70714 209.202 9.82143 209.034 9.90357C208.87 9.98571 208.674 10.0268 208.445 10.0268C208.131 10.0268 207.881 9.95179 207.695 9.80179C207.509 9.65179 207.416 9.45357 207.416 9.20714C207.416 8.96786 207.502 8.775 207.674 8.62857C207.849 8.48214 208.125 8.40893 208.504 8.40893H209.399V8.2375C209.399 7.99464 209.331 7.81071 209.195 7.68571C209.059 7.55714 208.861 7.49286 208.6 7.49286C208.422 7.49286 208.25 7.52321 208.086 7.58393C207.922 7.64107 207.781 7.72143 207.663 7.825L207.491 7.54107C207.634 7.41964 207.806 7.32679 208.006 7.2625C208.206 7.19464 208.416 7.16071 208.638 7.16071ZM208.504 9.72679C208.718 9.72679 208.902 9.67857 209.056 9.58214C209.209 9.48214 209.324 9.33929 209.399 9.15357V8.69286H208.515C208.033 8.69286 207.791 8.86071 207.791 9.19643C207.791 9.36071 207.854 9.49107 207.979 9.5875C208.104 9.68036 208.279 9.72679 208.504 9.72679Z" fill="white"/>
<path d="M173.53 20.7726H169.63L168.79 22.6426H168.02L171.22 15.6426H171.95L175.15 22.6426H174.37L173.53 20.7726ZM173.26 20.1726L171.58 16.4126L169.9 20.1726H173.26ZM178.868 17.3426C179.361 17.3426 179.808 17.4559 180.208 17.6826C180.608 17.9026 180.921 18.2159 181.148 18.6226C181.375 19.0292 181.488 19.4926 181.488 20.0126C181.488 20.5392 181.375 21.0059 181.148 21.4126C180.921 21.8192 180.608 22.1359 180.208 22.3626C179.815 22.5826 179.368 22.6926 178.868 22.6926C178.441 22.6926 178.055 22.6059 177.708 22.4326C177.368 22.2526 177.088 21.9926 176.868 21.6526V24.5826H176.158V17.3826H176.838V18.4226C177.051 18.0759 177.331 17.8092 177.678 17.6226C178.031 17.4359 178.428 17.3426 178.868 17.3426ZM178.818 22.0626C179.185 22.0626 179.518 21.9792 179.818 21.8126C180.118 21.6392 180.351 21.3959 180.518 21.0826C180.691 20.7692 180.778 20.4126 180.778 20.0126C180.778 19.6126 180.691 19.2592 180.518 18.9526C180.351 18.6392 180.118 18.3959 179.818 18.2226C179.518 18.0492 179.185 17.9626 178.818 17.9626C178.445 17.9626 178.108 18.0492 177.808 18.2226C177.515 18.3959 177.281 18.6392 177.108 18.9526C176.941 19.2592 176.858 19.6126 176.858 20.0126C176.858 20.4126 176.941 20.7692 177.108 21.0826C177.281 21.3959 177.515 21.6392 177.808 21.8126C178.108 21.9792 178.445 22.0626 178.818 22.0626ZM185.645 17.3426C186.139 17.3426 186.585 17.4559 186.985 17.6826C187.385 17.9026 187.699 18.2159 187.925 18.6226C188.152 19.0292 188.265 19.4926 188.265 20.0126C188.265 20.5392 188.152 21.0059 187.925 21.4126C187.699 21.8192 187.385 22.1359 186.985 22.3626C186.592 22.5826 186.145 22.6926 185.645 22.6926C185.219 22.6926 184.832 22.6059 184.485 22.4326C184.145 22.2526 183.865 21.9926 183.645 21.6526V24.5826H182.935V17.3826H183.615V18.4226C183.829 18.0759 184.109 17.8092 184.455 17.6226C184.809 17.4359 185.205 17.3426 185.645 17.3426ZM185.595 22.0626C185.962 22.0626 186.295 21.9792 186.595 21.8126C186.895 21.6392 187.129 21.3959 187.295 21.0826C187.469 20.7692 187.555 20.4126 187.555 20.0126C187.555 19.6126 187.469 19.2592 187.295 18.9526C187.129 18.6392 186.895 18.3959 186.595 18.2226C186.295 18.0492 185.962 17.9626 185.595 17.9626C185.222 17.9626 184.885 18.0492 184.585 18.2226C184.292 18.3959 184.059 18.6392 183.885 18.9526C183.719 19.2592 183.635 19.6126 183.635 20.0126C183.635 20.4126 183.719 20.7692 183.885 21.0826C184.059 21.3959 184.292 21.6392 184.585 21.8126C184.885 21.9792 185.222 22.0626 185.595 22.0626ZM194.41 22.7026C193.89 22.7026 193.39 22.6192 192.91 22.4526C192.437 22.2859 192.07 22.0659 191.81 21.7926L192.1 21.2226C192.353 21.4759 192.69 21.6826 193.11 21.8426C193.53 21.9959 193.963 22.0726 194.41 22.0726C195.037 22.0726 195.507 21.9592 195.82 21.7326C196.133 21.4992 196.29 21.1992 196.29 20.8326C196.29 20.5526 196.203 20.3292 196.03 20.1626C195.863 19.9959 195.657 19.8692 195.41 19.7826C195.163 19.6892 194.82 19.5892 194.38 19.4826C193.853 19.3492 193.433 19.2226 193.12 19.1026C192.807 18.9759 192.537 18.7859 192.31 18.5326C192.09 18.2792 191.98 17.9359 191.98 17.5026C191.98 17.1492 192.073 16.8292 192.26 16.5426C192.447 16.2492 192.733 16.0159 193.12 15.8426C193.507 15.6692 193.987 15.5826 194.56 15.5826C194.96 15.5826 195.35 15.6392 195.73 15.7526C196.117 15.8592 196.45 16.0092 196.73 16.2026L196.48 16.7926C196.187 16.5992 195.873 16.4559 195.54 16.3626C195.207 16.2626 194.88 16.2126 194.56 16.2126C193.947 16.2126 193.483 16.3326 193.17 16.5726C192.863 16.8059 192.71 17.1092 192.71 17.4826C192.71 17.7626 192.793 17.9892 192.96 18.1626C193.133 18.3292 193.347 18.4592 193.6 18.5526C193.86 18.6392 194.207 18.7359 194.64 18.8426C195.153 18.9692 195.567 19.0959 195.88 19.2226C196.2 19.3426 196.47 19.5292 196.69 19.7826C196.91 20.0292 197.02 20.3659 197.02 20.7926C197.02 21.1459 196.923 21.4692 196.73 21.7626C196.543 22.0492 196.253 22.2792 195.86 22.4526C195.467 22.6192 194.983 22.7026 194.41 22.7026ZM201.252 22.3226C201.119 22.4426 200.952 22.5359 200.752 22.6026C200.559 22.6626 200.356 22.6926 200.142 22.6926C199.649 22.6926 199.269 22.5592 199.002 22.2926C198.736 22.0259 198.602 21.6492 198.602 21.1626V17.9826H197.662V17.3826H198.602V16.2326H199.312V17.3826H200.912V17.9826H199.312V21.1226C199.312 21.4359 199.389 21.6759 199.542 21.8426C199.702 22.0026 199.929 22.0826 200.222 22.0826C200.369 22.0826 200.509 22.0592 200.642 22.0126C200.782 21.9659 200.902 21.8992 201.002 21.8126L201.252 22.3226ZM204.509 22.6926C204.002 22.6926 203.546 22.5792 203.139 22.3526C202.732 22.1192 202.412 21.7992 202.179 21.3926C201.946 20.9859 201.829 20.5259 201.829 20.0126C201.829 19.4992 201.946 19.0392 202.179 18.6326C202.412 18.2259 202.732 17.9092 203.139 17.6826C203.546 17.4559 204.002 17.3426 204.509 17.3426C205.016 17.3426 205.472 17.4559 205.879 17.6826C206.286 17.9092 206.602 18.2259 206.829 18.6326C207.062 19.0392 207.179 19.4992 207.179 20.0126C207.179 20.5259 207.062 20.9859 206.829 21.3926C206.602 21.7992 206.286 22.1192 205.879 22.3526C205.472 22.5792 205.016 22.6926 204.509 22.6926ZM204.509 22.0626C204.882 22.0626 205.216 21.9792 205.509 21.8126C205.809 21.6392 206.042 21.3959 206.209 21.0826C206.376 20.7692 206.459 20.4126 206.459 20.0126C206.459 19.6126 206.376 19.2559 206.209 18.9426C206.042 18.6292 205.809 18.3892 205.509 18.2226C205.216 18.0492 204.882 17.9626 204.509 17.9626C204.136 17.9626 203.799 18.0492 203.499 18.2226C203.206 18.3892 202.972 18.6292 202.799 18.9426C202.632 19.2559 202.549 19.6126 202.549 20.0126C202.549 20.4126 202.632 20.7692 202.799 21.0826C202.972 21.3959 203.206 21.6392 203.499 21.8126C203.799 21.9792 204.136 22.0626 204.509 22.0626ZM209.309 18.4126C209.475 18.0592 209.722 17.7926 210.049 17.6126C210.382 17.4326 210.792 17.3426 211.279 17.3426V18.0326L211.109 18.0226C210.555 18.0226 210.122 18.1926 209.809 18.5326C209.495 18.8726 209.339 19.3492 209.339 19.9626V22.6426H208.629V17.3826H209.309V18.4126ZM217.095 20.2326H212.695C212.735 20.7792 212.945 21.2226 213.325 21.5626C213.705 21.8959 214.185 22.0626 214.765 22.0626C215.092 22.0626 215.392 22.0059 215.665 21.8926C215.939 21.7726 216.175 21.5992 216.375 21.3726L216.775 21.8326C216.542 22.1126 216.249 22.3259 215.895 22.4726C215.549 22.6192 215.165 22.6926 214.745 22.6926C214.205 22.6926 213.725 22.5792 213.305 22.3526C212.892 22.1192 212.569 21.7992 212.335 21.3926C212.102 20.9859 211.985 20.5259 211.985 20.0126C211.985 19.4992 212.095 19.0392 212.315 18.6326C212.542 18.2259 212.849 17.9092 213.235 17.6826C213.629 17.4559 214.069 17.3426 214.555 17.3426C215.042 17.3426 215.479 17.4559 215.865 17.6826C216.252 17.9092 216.555 18.2259 216.775 18.6326C216.995 19.0326 217.105 19.4926 217.105 20.0126L217.095 20.2326ZM214.555 17.9526C214.049 17.9526 213.622 18.1159 213.275 18.4426C212.935 18.7626 212.742 19.1826 212.695 19.7026H216.425C216.379 19.1826 216.182 18.7626 215.835 18.4426C215.495 18.1159 215.069 17.9526 214.555 17.9526Z" fill="white"/>
<path d="M159.541 14.5124C159.532 13.0369 160.195 11.925 161.534 11.1051C160.785 10.0234 159.652 9.42843 158.159 9.31377C156.745 9.20128 155.197 10.1445 154.631 10.1445C154.032 10.1445 152.663 9.35272 151.586 9.35272C149.363 9.38733 147 11.1397 147 14.7049C147 15.7585 147.191 16.8467 147.573 17.9673C148.084 19.4427 149.925 23.0577 151.845 22.9993C152.85 22.9755 153.56 22.2811 154.867 22.2811C156.135 22.2811 156.792 22.9993 157.912 22.9993C159.85 22.9712 161.515 19.685 162 18.2053C159.401 16.97 159.541 14.5881 159.541 14.5124V14.5124ZM157.285 7.91407C158.373 6.61172 158.275 5.42619 158.242 5C157.281 5.05625 156.17 5.65983 155.536 6.40187C154.839 7.19799 154.429 8.18233 154.517 9.29214C155.556 9.37219 156.504 8.8335 157.285 7.91407V7.91407Z" fill="white"/>
<rect x="256.536" y="0.535714" width="105" height="28.9286" rx="14.4643" stroke="white" stroke-width="1.07143"/>
<path d="M276.92 6.00098C275.22 10.0809 275.787 15.5208 275.9 18.9208C276.92 17.9007 279.459 14.5442 280.32 11.1007C281.085 8.04065 279.64 6.34065 276.92 6.00098Z" fill="white"/>
<path d="M281.68 23.0001C279.776 23.0001 278.167 21.4135 277.6 20.6201L284.4 20.9601C284.287 21.6401 283.584 23.0001 281.68 23.0001Z" fill="white"/>
<path d="M281.68 23.0001C279.776 23.0001 278.167 21.4135 277.6 20.6201L284.4 20.9601C284.287 21.6401 283.584 23.0001 281.68 23.0001Z" fill="white"/>
<path d="M286.44 14.5006L277.26 19.9406C278.96 20.1672 282.768 20.4166 284.4 19.6006C286.78 18.4106 286.78 16.2006 286.44 14.5006Z" fill="white"/>
<path d="M284.4 14.1606C285.93 12.1206 284.06 9.40055 283.04 9.06055L279.64 14.1606L276.92 19.2606C279.063 18.1067 282.87 16.2006 284.4 14.1606Z" fill="white"/>
<path d="M273.69 6C275.374 10.08 274.813 15.52 274.7 18.92C273.69 17.8999 271.175 14.5433 270.322 11.0997C269.564 8.0397 270.995 6.33967 273.69 6Z" fill="white"/>
<path d="M268.76 23C270.664 23 272.273 21.64 272.84 20.96L266.04 21.2514C266.153 21.8342 266.856 23 268.76 23Z" fill="white"/>
<path d="M264.158 14.3853L273.186 20.0498C271.514 20.2858 267.769 20.5455 266.164 19.6958C263.824 18.4567 263.824 16.1554 264.158 14.3853Z" fill="white"/>
<path d="M266.164 14.0312C264.66 11.907 266.499 9.07474 267.502 8.7207L270.845 14.0312L273.52 19.3417C271.413 18.1403 267.669 16.1554 266.164 14.0312Z" fill="white"/>
<path d="M299.53 21.13H295.63L294.79 23H294.02L297.22 16H297.95L301.15 23H300.37L299.53 21.13ZM299.26 20.53L297.58 16.77L295.9 20.53H299.26ZM304.868 17.7C305.361 17.7 305.808 17.8133 306.208 18.04C306.608 18.26 306.921 18.5733 307.148 18.98C307.375 19.3867 307.488 19.85 307.488 20.37C307.488 20.8967 307.375 21.3633 307.148 21.77C306.921 22.1767 306.608 22.4933 306.208 22.72C305.815 22.94 305.368 23.05 304.868 23.05C304.441 23.05 304.055 22.9633 303.708 22.79C303.368 22.61 303.088 22.35 302.868 22.01V24.94H302.158V17.74H302.838V18.78C303.051 18.4333 303.331 18.1667 303.678 17.98C304.031 17.7933 304.428 17.7 304.868 17.7ZM304.818 22.42C305.185 22.42 305.518 22.3367 305.818 22.17C306.118 21.9967 306.351 21.7533 306.518 21.44C306.691 21.1267 306.778 20.77 306.778 20.37C306.778 19.97 306.691 19.6167 306.518 19.31C306.351 18.9967 306.118 18.7533 305.818 18.58C305.518 18.4067 305.185 18.32 304.818 18.32C304.445 18.32 304.108 18.4067 303.808 18.58C303.515 18.7533 303.281 18.9967 303.108 19.31C302.941 19.6167 302.858 19.97 302.858 20.37C302.858 20.77 302.941 21.1267 303.108 21.44C303.281 21.7533 303.515 21.9967 303.808 22.17C304.108 22.3367 304.445 22.42 304.818 22.42ZM311.645 17.7C312.139 17.7 312.585 17.8133 312.985 18.04C313.385 18.26 313.699 18.5733 313.925 18.98C314.152 19.3867 314.265 19.85 314.265 20.37C314.265 20.8967 314.152 21.3633 313.925 21.77C313.699 22.1767 313.385 22.4933 312.985 22.72C312.592 22.94 312.145 23.05 311.645 23.05C311.219 23.05 310.832 22.9633 310.485 22.79C310.145 22.61 309.865 22.35 309.645 22.01V24.94H308.935V17.74H309.615V18.78C309.829 18.4333 310.109 18.1667 310.455 17.98C310.809 17.7933 311.205 17.7 311.645 17.7ZM311.595 22.42C311.962 22.42 312.295 22.3367 312.595 22.17C312.895 21.9967 313.129 21.7533 313.295 21.44C313.469 21.1267 313.555 20.77 313.555 20.37C313.555 19.97 313.469 19.6167 313.295 19.31C313.129 18.9967 312.895 18.7533 312.595 18.58C312.295 18.4067 311.962 18.32 311.595 18.32C311.222 18.32 310.885 18.4067 310.585 18.58C310.292 18.7533 310.059 18.9967 309.885 19.31C309.719 19.6167 309.635 19.97 309.635 20.37C309.635 20.77 309.719 21.1267 309.885 21.44C310.059 21.7533 310.292 21.9967 310.585 22.17C310.885 22.3367 311.222 22.42 311.595 22.42ZM323.41 19.5H324.12V22.17C323.793 22.4567 323.407 22.6767 322.96 22.83C322.513 22.9833 322.043 23.06 321.55 23.06C320.85 23.06 320.22 22.9067 319.66 22.6C319.1 22.2933 318.66 21.87 318.34 21.33C318.02 20.7833 317.86 20.1733 317.86 19.5C317.86 18.8267 318.02 18.22 318.34 17.68C318.66 17.1333 319.1 16.7067 319.66 16.4C320.22 16.0933 320.853 15.94 321.56 15.94C322.093 15.94 322.583 16.0267 323.03 16.2C323.477 16.3667 323.853 16.6167 324.16 16.95L323.7 17.42C323.147 16.8733 322.443 16.6 321.59 16.6C321.023 16.6 320.51 16.7267 320.05 16.98C319.597 17.2267 319.24 17.5733 318.98 18.02C318.72 18.46 318.59 18.9533 318.59 19.5C318.59 20.0467 318.72 20.54 318.98 20.98C319.24 21.42 319.597 21.7667 320.05 22.02C320.503 22.2733 321.013 22.4 321.58 22.4C322.3 22.4 322.91 22.22 323.41 21.86V19.5ZM327.904 17.7C328.591 17.7 329.118 17.8733 329.484 18.22C329.851 18.56 330.034 19.0667 330.034 19.74V23H329.354V22.18C329.194 22.4533 328.958 22.6667 328.644 22.82C328.338 22.9733 327.971 23.05 327.544 23.05C326.958 23.05 326.491 22.91 326.144 22.63C325.798 22.35 325.624 21.98 325.624 21.52C325.624 21.0733 325.784 20.7133 326.104 20.44C326.431 20.1667 326.948 20.03 327.654 20.03H329.324V19.71C329.324 19.2567 329.198 18.9133 328.944 18.68C328.691 18.44 328.321 18.32 327.834 18.32C327.501 18.32 327.181 18.3767 326.874 18.49C326.568 18.5967 326.304 18.7467 326.084 18.94L325.764 18.41C326.031 18.1833 326.351 18.01 326.724 17.89C327.098 17.7633 327.491 17.7 327.904 17.7ZM327.654 22.49C328.054 22.49 328.398 22.4 328.684 22.22C328.971 22.0333 329.184 21.7667 329.324 21.42V20.56H327.674C326.774 20.56 326.324 20.8733 326.324 21.5C326.324 21.8067 326.441 22.05 326.674 22.23C326.908 22.4033 327.234 22.49 327.654 22.49ZM331.963 15.58H332.673V23H331.963V15.58ZM334.648 15.58H335.358V23H334.648V15.58ZM341.914 20.59H337.514C337.554 21.1367 337.764 21.58 338.144 21.92C338.524 22.2533 339.004 22.42 339.584 22.42C339.91 22.42 340.21 22.3633 340.484 22.25C340.757 22.13 340.994 21.9567 341.194 21.73L341.594 22.19C341.36 22.47 341.067 22.6833 340.714 22.83C340.367 22.9767 339.984 23.05 339.564 23.05C339.024 23.05 338.544 22.9367 338.124 22.71C337.71 22.4767 337.387 22.1567 337.154 21.75C336.92 21.3433 336.804 20.8833 336.804 20.37C336.804 19.8567 336.914 19.3967 337.134 18.99C337.36 18.5833 337.667 18.2667 338.054 18.04C338.447 17.8133 338.887 17.7 339.374 17.7C339.86 17.7 340.297 17.8133 340.684 18.04C341.07 18.2667 341.374 18.5833 341.594 18.99C341.814 19.39 341.924 19.85 341.924 20.37L341.914 20.59ZM339.374 18.31C338.867 18.31 338.44 18.4733 338.094 18.8C337.754 19.12 337.56 19.54 337.514 20.06H341.244C341.197 19.54 341 19.12 340.654 18.8C340.314 18.4733 339.887 18.31 339.374 18.31ZM344.049 18.77C344.216 18.4167 344.462 18.15 344.789 17.97C345.122 17.79 345.532 17.7 346.019 17.7V18.39L345.849 18.38C345.296 18.38 344.862 18.55 344.549 18.89C344.236 19.23 344.079 19.7067 344.079 20.32V23H343.369V17.74H344.049V18.77ZM351.949 17.74L349.319 23.63C349.106 24.1233 348.859 24.4733 348.579 24.68C348.299 24.8867 347.962 24.99 347.569 24.99C347.316 24.99 347.079 24.95 346.859 24.87C346.639 24.79 346.449 24.67 346.289 24.51L346.619 23.98C346.886 24.2467 347.206 24.38 347.579 24.38C347.819 24.38 348.022 24.3133 348.189 24.18C348.362 24.0467 348.522 23.82 348.669 23.5L348.899 22.99L346.549 17.74H347.289L349.269 22.21L351.249 17.74H351.949Z" fill="white"/>
<path d="M294.611 6.25H296.137C296.534 6.25 296.884 6.33036 297.187 6.49107C297.491 6.64821 297.727 6.86964 297.895 7.15536C298.062 7.4375 298.146 7.76071 298.146 8.125C298.146 8.48929 298.062 8.81429 297.895 9.1C297.727 9.38214 297.491 9.60357 297.187 9.76429C296.884 9.92143 296.534 10 296.137 10H294.611V6.25ZM296.116 9.65714C296.445 9.65714 296.732 9.59286 296.979 9.46429C297.225 9.33214 297.416 9.15179 297.552 8.92321C297.687 8.69107 297.755 8.425 297.755 8.125C297.755 7.825 297.687 7.56071 297.552 7.33214C297.416 7.1 297.225 6.91964 296.979 6.79107C296.732 6.65893 296.445 6.59286 296.116 6.59286H295.007V9.65714H296.116ZM298.956 7.18214H299.337V10H298.956V7.18214ZM299.149 6.56607C299.071 6.56607 299.004 6.53929 298.951 6.48571C298.897 6.43214 298.871 6.36786 298.871 6.29286C298.871 6.22143 298.897 6.15893 298.951 6.10536C299.004 6.05179 299.071 6.025 299.149 6.025C299.228 6.025 299.294 6.05179 299.347 6.10536C299.401 6.15536 299.428 6.21607 299.428 6.2875C299.428 6.36607 299.401 6.43214 299.347 6.48571C299.294 6.53929 299.228 6.56607 299.149 6.56607ZM301.15 10.0268C300.922 10.0268 300.702 9.99464 300.491 9.93036C300.284 9.8625 300.122 9.77857 300.004 9.67857L300.175 9.37857C300.293 9.47143 300.441 9.54821 300.62 9.60893C300.799 9.66607 300.984 9.69464 301.177 9.69464C301.434 9.69464 301.624 9.65536 301.745 9.57679C301.87 9.49464 301.932 9.38036 301.932 9.23393C301.932 9.13036 301.899 9.05 301.831 8.99286C301.763 8.93214 301.677 8.8875 301.574 8.85893C301.47 8.82679 301.332 8.79643 301.161 8.76786C300.932 8.725 300.749 8.68214 300.609 8.63929C300.47 8.59286 300.35 8.51607 300.25 8.40893C300.154 8.30179 300.106 8.15357 300.106 7.96429C300.106 7.72857 300.204 7.53571 300.4 7.38571C300.597 7.23571 300.87 7.16071 301.22 7.16071C301.402 7.16071 301.584 7.18571 301.766 7.23571C301.949 7.28214 302.099 7.34464 302.216 7.42321L302.05 7.72857C301.818 7.56786 301.541 7.4875 301.22 7.4875C300.977 7.4875 300.793 7.53036 300.668 7.61607C300.547 7.70179 300.486 7.81429 300.486 7.95357C300.486 8.06071 300.52 8.14643 300.588 8.21071C300.659 8.275 300.747 8.32321 300.85 8.35536C300.954 8.38393 301.097 8.41429 301.279 8.44643C301.504 8.48929 301.684 8.53214 301.82 8.575C301.956 8.61786 302.072 8.69107 302.168 8.79464C302.265 8.89821 302.313 9.04107 302.313 9.22321C302.313 9.46964 302.209 9.66607 302.002 9.8125C301.799 9.95536 301.515 10.0268 301.15 10.0268ZM304.468 7.16071C304.732 7.16071 304.971 7.22143 305.186 7.34286C305.4 7.46071 305.568 7.62857 305.689 7.84643C305.811 8.06429 305.871 8.3125 305.871 8.59107C305.871 8.87321 305.811 9.12321 305.689 9.34107C305.568 9.55893 305.4 9.72857 305.186 9.85C304.975 9.96786 304.736 10.0268 304.468 10.0268C304.239 10.0268 304.032 9.98036 303.846 9.8875C303.664 9.79107 303.514 9.65179 303.396 9.46964V11.0393H303.016V7.18214H303.38V7.73929C303.495 7.55357 303.645 7.41071 303.83 7.31071C304.02 7.21071 304.232 7.16071 304.468 7.16071ZM304.441 9.68929C304.637 9.68929 304.816 9.64464 304.977 9.55536C305.137 9.4625 305.262 9.33214 305.352 9.16429C305.445 8.99643 305.491 8.80536 305.491 8.59107C305.491 8.37679 305.445 8.1875 305.352 8.02321C305.262 7.85536 305.137 7.725 304.977 7.63214C304.816 7.53929 304.637 7.49286 304.441 7.49286C304.241 7.49286 304.061 7.53929 303.9 7.63214C303.743 7.725 303.618 7.85536 303.525 8.02321C303.436 8.1875 303.391 8.37679 303.391 8.59107C303.391 8.80536 303.436 8.99643 303.525 9.16429C303.618 9.33214 303.743 9.4625 303.9 9.55536C304.061 9.64464 304.241 9.68929 304.441 9.68929ZM307.798 10.0268C307.527 10.0268 307.282 9.96607 307.065 9.84464C306.847 9.71964 306.675 9.54821 306.55 9.33036C306.425 9.1125 306.363 8.86607 306.363 8.59107C306.363 8.31607 306.425 8.06964 306.55 7.85179C306.675 7.63393 306.847 7.46429 307.065 7.34286C307.282 7.22143 307.527 7.16071 307.798 7.16071C308.07 7.16071 308.315 7.22143 308.532 7.34286C308.75 7.46429 308.92 7.63393 309.041 7.85179C309.166 8.06964 309.229 8.31607 309.229 8.59107C309.229 8.86607 309.166 9.1125 309.041 9.33036C308.92 9.54821 308.75 9.71964 308.532 9.84464C308.315 9.96607 308.07 10.0268 307.798 10.0268ZM307.798 9.68929C307.998 9.68929 308.177 9.64464 308.334 9.55536C308.495 9.4625 308.62 9.33214 308.709 9.16429C308.798 8.99643 308.843 8.80536 308.843 8.59107C308.843 8.37679 308.798 8.18571 308.709 8.01786C308.62 7.85 308.495 7.72143 308.334 7.63214C308.177 7.53929 307.998 7.49286 307.798 7.49286C307.598 7.49286 307.418 7.53929 307.257 7.63214C307.1 7.72143 306.975 7.85 306.882 8.01786C306.793 8.18571 306.748 8.37679 306.748 8.59107C306.748 8.80536 306.793 8.99643 306.882 9.16429C306.975 9.33214 307.1 9.4625 307.257 9.55536C307.418 9.64464 307.598 9.68929 307.798 9.68929ZM311.441 7.16071C311.795 7.16071 312.075 7.26429 312.282 7.47143C312.493 7.675 312.598 7.97321 312.598 8.36607V10H312.218V8.40357C312.218 8.11071 312.145 7.8875 311.998 7.73393C311.852 7.58036 311.643 7.50357 311.371 7.50357C311.068 7.50357 310.827 7.59464 310.648 7.77679C310.473 7.95536 310.386 8.20357 310.386 8.52143V10H310.005V7.18214H310.37V7.70179C310.473 7.53036 310.616 7.39821 310.798 7.30536C310.984 7.20893 311.198 7.16071 311.441 7.16071ZM313.631 7.18214H314.011V10H313.631V7.18214ZM313.824 6.56607C313.745 6.56607 313.679 6.53929 313.626 6.48571C313.572 6.43214 313.545 6.36786 313.545 6.29286C313.545 6.22143 313.572 6.15893 313.626 6.10536C313.679 6.05179 313.745 6.025 313.824 6.025C313.902 6.025 313.968 6.05179 314.022 6.10536C314.076 6.15536 314.102 6.21607 314.102 6.2875C314.102 6.36607 314.076 6.43214 314.022 6.48571C313.968 6.53929 313.902 6.56607 313.824 6.56607ZM316.521 7.16071C316.786 7.16071 317.025 7.22143 317.239 7.34286C317.453 7.46071 317.621 7.62857 317.743 7.84643C317.864 8.06429 317.925 8.3125 317.925 8.59107C317.925 8.86964 317.864 9.11786 317.743 9.33571C317.621 9.55357 317.453 9.72321 317.239 9.84464C317.025 9.96607 316.786 10.0268 316.521 10.0268C316.286 10.0268 316.073 9.97679 315.884 9.87679C315.698 9.77679 315.548 9.63214 315.434 9.44286V10H315.07V6.025H315.45V7.71786C315.568 7.53571 315.718 7.39821 315.9 7.30536C316.086 7.20893 316.293 7.16071 316.521 7.16071ZM316.495 9.68929C316.691 9.68929 316.87 9.64464 317.03 9.55536C317.191 9.4625 317.316 9.33214 317.405 9.16429C317.498 8.99643 317.545 8.80536 317.545 8.59107C317.545 8.37679 317.498 8.18571 317.405 8.01786C317.316 7.85 317.191 7.72143 317.03 7.63214C316.87 7.53929 316.691 7.49286 316.495 7.49286C316.295 7.49286 316.114 7.53929 315.953 7.63214C315.796 7.72143 315.671 7.85 315.578 8.01786C315.489 8.18571 315.445 8.37679 315.445 8.59107C315.445 8.80536 315.489 8.99643 315.578 9.16429C315.671 9.33214 315.796 9.4625 315.953 9.55536C316.114 9.64464 316.295 9.68929 316.495 9.68929ZM318.7 6.025H319.081V10H318.7V6.025ZM322.593 8.70893H320.235C320.257 9.00179 320.369 9.23929 320.573 9.42143C320.776 9.6 321.034 9.68929 321.344 9.68929C321.519 9.68929 321.68 9.65893 321.826 9.59821C321.973 9.53393 322.1 9.44107 322.207 9.31964L322.421 9.56607C322.296 9.71607 322.139 9.83036 321.95 9.90893C321.764 9.9875 321.559 10.0268 321.334 10.0268C321.044 10.0268 320.787 9.96607 320.562 9.84464C320.341 9.71964 320.168 9.54821 320.043 9.33036C319.918 9.1125 319.855 8.86607 319.855 8.59107C319.855 8.31607 319.914 8.06964 320.032 7.85179C320.153 7.63393 320.318 7.46429 320.525 7.34286C320.735 7.22143 320.971 7.16071 321.232 7.16071C321.493 7.16071 321.726 7.22143 321.934 7.34286C322.141 7.46429 322.303 7.63393 322.421 7.85179C322.539 8.06607 322.598 8.3125 322.598 8.59107L322.593 8.70893ZM321.232 7.4875C320.96 7.4875 320.732 7.575 320.546 7.75C320.364 7.92143 320.26 8.14643 320.235 8.425H322.234C322.209 8.14643 322.103 7.92143 321.918 7.75C321.735 7.575 321.507 7.4875 321.232 7.4875ZM326.226 7.16071C326.49 7.16071 326.73 7.22143 326.944 7.34286C327.158 7.46071 327.326 7.62857 327.447 7.84643C327.569 8.06429 327.63 8.3125 327.63 8.59107C327.63 8.87321 327.569 9.12321 327.447 9.34107C327.326 9.55893 327.158 9.72857 326.944 9.85C326.733 9.96786 326.494 10.0268 326.226 10.0268C325.997 10.0268 325.79 9.98036 325.605 9.8875C325.422 9.79107 325.272 9.65179 325.155 9.46964V11.0393H324.774V7.18214H325.138V7.73929C325.253 7.55357 325.403 7.41071 325.588 7.31071C325.778 7.21071 325.99 7.16071 326.226 7.16071ZM326.199 9.68929C326.396 9.68929 326.574 9.64464 326.735 9.55536C326.896 9.4625 327.021 9.33214 327.11 9.16429C327.203 8.99643 327.249 8.80536 327.249 8.59107C327.249 8.37679 327.203 8.1875 327.11 8.02321C327.021 7.85536 326.896 7.725 326.735 7.63214C326.574 7.53929 326.396 7.49286 326.199 7.49286C325.999 7.49286 325.819 7.53929 325.658 7.63214C325.501 7.725 325.376 7.85536 325.283 8.02321C325.194 8.1875 325.149 8.37679 325.149 8.59107C325.149 8.80536 325.194 8.99643 325.283 9.16429C325.376 9.33214 325.501 9.4625 325.658 9.55536C325.819 9.64464 325.999 9.68929 326.199 9.68929ZM329.375 7.16071C329.743 7.16071 330.025 7.25357 330.221 7.43929C330.418 7.62143 330.516 7.89286 330.516 8.25357V10H330.152V9.56071C330.066 9.70714 329.939 9.82143 329.771 9.90357C329.607 9.98571 329.411 10.0268 329.182 10.0268C328.868 10.0268 328.618 9.95179 328.432 9.80179C328.246 9.65179 328.153 9.45357 328.153 9.20714C328.153 8.96786 328.239 8.775 328.411 8.62857C328.586 8.48214 328.862 8.40893 329.241 8.40893H330.136V8.2375C330.136 7.99464 330.068 7.81071 329.932 7.68571C329.796 7.55714 329.598 7.49286 329.337 7.49286C329.159 7.49286 328.987 7.52321 328.823 7.58393C328.659 7.64107 328.518 7.72143 328.4 7.825L328.228 7.54107C328.371 7.41964 328.543 7.32679 328.743 7.2625C328.943 7.19464 329.153 7.16071 329.375 7.16071ZM329.241 9.72679C329.455 9.72679 329.639 9.67857 329.793 9.58214C329.946 9.48214 330.061 9.33929 330.136 9.15357V8.69286H329.252C328.77 8.69286 328.528 8.86071 328.528 9.19643C328.528 9.36071 328.591 9.49107 328.716 9.5875C328.841 9.68036 329.016 9.72679 329.241 9.72679ZM331.913 7.73393C332.003 7.54464 332.135 7.40179 332.31 7.30536C332.488 7.20893 332.708 7.16071 332.969 7.16071V7.53036L332.878 7.525C332.581 7.525 332.349 7.61607 332.181 7.79821C332.013 7.98036 331.929 8.23571 331.929 8.56429V10H331.549V7.18214H331.913V7.73393ZM334.638 7.16071C335.006 7.16071 335.288 7.25357 335.484 7.43929C335.681 7.62143 335.779 7.89286 335.779 8.25357V10H335.415V9.56071C335.329 9.70714 335.202 9.82143 335.034 9.90357C334.87 9.98571 334.674 10.0268 334.445 10.0268C334.131 10.0268 333.881 9.95179 333.695 9.80179C333.509 9.65179 333.416 9.45357 333.416 9.20714C333.416 8.96786 333.502 8.775 333.674 8.62857C333.849 8.48214 334.125 8.40893 334.504 8.40893H335.399V8.2375C335.399 7.99464 335.331 7.81071 335.195 7.68571C335.059 7.55714 334.861 7.49286 334.6 7.49286C334.422 7.49286 334.25 7.52321 334.086 7.58393C333.922 7.64107 333.781 7.72143 333.663 7.825L333.491 7.54107C333.634 7.41964 333.806 7.32679 334.006 7.2625C334.206 7.19464 334.416 7.16071 334.638 7.16071ZM334.504 9.72679C334.718 9.72679 334.902 9.67857 335.056 9.58214C335.209 9.48214 335.324 9.33929 335.399 9.15357V8.69286H334.515C334.033 8.69286 333.791 8.86071 333.791 9.19643C333.791 9.36071 333.854 9.49107 333.979 9.5875C334.104 9.68036 334.279 9.72679 334.504 9.72679Z" fill="white"/>
</svg>
