<svg width="58" height="58" viewBox="0 0 58 58" fill="none" xmlns="http://www.w3.org/2000/svg">
<circle cx="29" cy="29" r="29" fill="#0000FF"/>
<path d="M44.9601 44.8195V40.9028C44.9601 38.8253 44.1348 36.8328 42.6657 35.3638C41.1967 33.8948 39.2042 33.0695 37.1267 33.0695H21.46C19.3825 33.0695 17.3901 33.8948 15.921 35.3638C14.452 36.8328 13.6267 38.8253 13.6267 40.9028V44.8195" stroke="white" stroke-width="2" stroke-linecap="round" stroke-linejoin="round"/>
<path d="M29.5001 28.5C33.8263 28.5 37.3334 24.9929 37.3334 20.6666C37.3334 16.3404 33.8263 12.8333 29.5001 12.8333C25.1739 12.8333 21.6667 16.3404 21.6667 20.6666C21.6667 24.9929 25.1739 28.5 29.5001 28.5Z" stroke="white" stroke-width="2" stroke-linecap="round" stroke-linejoin="round"/>
<path d="M17.5 9L43.5 46.5" stroke="white" stroke-width="2" stroke-linecap="round"/>
<circle cx="29" cy="29" r="23" stroke="white" stroke-width="2"/>
</svg>
