<svg width="44" height="44" viewBox="0 0 44 44" fill="none" xmlns="http://www.w3.org/2000/svg">
<circle cx="22" cy="22" r="22" fill="#045ECC"/>
<g clip-path="url(#clip0)">
<path d="M14.9512 17.6997C14.8985 17.7006 14.8463 17.6912 14.7973 17.6719C14.7483 17.6526 14.7037 17.6239 14.6658 17.5873C14.5894 17.5135 14.5454 17.4123 14.5435 17.3061C14.5417 17.1998 14.5821 17.0972 14.6559 17.0207C14.7297 16.9443 14.8309 16.9003 14.9371 16.8984C16.9029 16.8765 18.8644 16.7104 20.8059 16.4017C20.8404 16.3945 20.8757 16.392 20.9108 16.3945C21.3975 16.4202 21.8696 16.5691 22.283 16.8271C22.3512 16.8767 22.4021 16.9466 22.4283 17.0268C22.4545 17.107 22.4547 17.1934 22.4289 17.2738C22.4031 17.3541 22.3526 17.4242 22.2846 17.4742C22.2166 17.5241 22.1346 17.5513 22.0502 17.5519C21.9559 17.5518 21.8644 17.5195 21.791 17.4601C21.5209 17.3053 21.2185 17.2157 20.9076 17.1985C18.9402 17.5076 16.953 17.6751 14.9616 17.6997H14.9512Z" fill="white"/>
<path d="M29.6062 27.2306C29.2644 27.231 28.9312 27.123 28.6547 26.9221L28.5686 26.8624C28.5574 26.8548 28.5385 26.8396 28.5209 26.8223L23.8051 23.4262C23.7611 23.3962 23.7235 23.3576 23.6946 23.3129C23.6656 23.2681 23.6459 23.218 23.6366 23.1656C23.6272 23.1131 23.6284 23.0593 23.6402 23.0073C23.6519 22.9553 23.6739 22.9061 23.7048 22.8627C23.7358 22.8193 23.7751 22.7825 23.8204 22.7545C23.8658 22.7265 23.9162 22.7078 23.9689 22.6995C24.0216 22.6913 24.0753 22.6936 24.1271 22.7064C24.1788 22.7192 24.2275 22.7422 24.2703 22.774L24.5908 23.0024L29.0036 26.1845C29.0169 26.194 29.0294 26.2043 29.0413 26.2154L29.1178 26.2687C29.2916 26.3932 29.5065 26.4463 29.7183 26.417C29.9301 26.3877 30.1226 26.2783 30.256 26.1112C30.3379 26.0079 30.3937 25.8864 30.4187 25.757C30.4437 25.6276 30.4373 25.494 30.3998 25.3677C30.3548 25.2084 30.2618 25.067 30.1334 24.9626L23.826 19.8238C21.4106 21.1058 19.6995 20.4464 18.8827 19.9244C18.7477 19.8365 18.6381 19.7148 18.5648 19.5713C18.4915 19.4279 18.4571 19.2678 18.465 19.1069C18.4729 18.946 18.5228 18.79 18.6098 18.6544C18.6968 18.5189 18.8178 18.4085 18.9608 18.3343L22.5712 16.4169C22.8017 16.2963 23.0537 16.2226 23.3128 16.1999C23.5719 16.1772 23.8329 16.206 24.0808 16.2847L26.2165 16.9778C26.8453 17.1846 27.5272 17.16 28.1395 16.9085L29.0698 16.5275C29.1184 16.5075 29.1706 16.4973 29.2232 16.4975C29.2758 16.4977 29.3279 16.5082 29.3765 16.5286C29.425 16.5489 29.4691 16.5785 29.5062 16.6159C29.5432 16.6532 29.5726 16.6975 29.5926 16.7462C29.6125 16.7949 29.6227 16.847 29.6225 16.8997C29.6223 16.9523 29.6118 17.0044 29.5915 17.0529C29.5712 17.1015 29.5415 17.1455 29.5041 17.1826C29.4668 17.2197 29.4225 17.2491 29.3738 17.269L28.4444 17.6496C27.656 17.9741 26.7775 18.006 25.9677 17.7394L23.834 17.0467C23.6878 17.0008 23.5341 16.9842 23.3815 16.998C23.2289 17.0117 23.0806 17.0555 22.945 17.1268L19.3338 19.0446C19.3137 19.0541 19.2966 19.0689 19.2844 19.0875C19.2722 19.1061 19.2655 19.1277 19.2649 19.15C19.2632 19.1701 19.2671 19.1902 19.2761 19.2082C19.2852 19.2263 19.299 19.2414 19.3161 19.2521C20.1574 19.7898 21.6017 20.184 23.6693 18.9961C23.7396 18.9557 23.8206 18.9376 23.9014 18.9442C23.9822 18.9508 24.0592 18.9817 24.122 19.033L30.6362 24.3413C30.8916 24.5473 31.0774 24.8271 31.1682 25.1425C31.2402 25.3908 31.2523 25.6525 31.2035 25.9064C31.1548 26.1602 31.0466 26.3988 30.8878 26.6028C30.7365 26.7986 30.5423 26.957 30.3201 27.0659C30.0979 27.1747 29.8536 27.2311 29.6062 27.2306V27.2306Z" fill="white"/>
<path d="M27.9483 29.0876C27.6088 29.0879 27.2776 28.9825 27.0008 28.7859L22.6701 25.7131C22.5854 25.6509 22.5287 25.5579 22.5119 25.4541C22.4952 25.3504 22.5199 25.2443 22.5807 25.1586C22.6415 25.0729 22.7335 25.0145 22.8369 24.996C22.9403 24.9775 23.0469 25.0004 23.1336 25.0597L27.4643 28.1321C27.646 28.2508 27.8666 28.2946 28.0799 28.2545C28.2932 28.2144 28.4827 28.0935 28.6089 27.9169C28.7351 27.7403 28.7882 27.5218 28.757 27.3071C28.7259 27.0923 28.613 26.8978 28.4419 26.7644L24.1255 23.6535C24.046 23.5891 23.9941 23.4968 23.9804 23.3954C23.9668 23.294 23.9925 23.1912 24.0523 23.1081C24.112 23.025 24.2013 22.968 24.3018 22.9486C24.4023 22.9293 24.5063 22.9491 24.5927 23.0041L28.9102 26.1153C29.1912 26.3188 29.4006 26.606 29.5084 26.9359C29.6161 27.2657 29.6166 27.6211 29.5098 27.9513C29.4031 28.2814 29.1945 28.5692 28.914 28.7735C28.6336 28.9778 28.2957 29.088 27.9487 29.0884L27.9483 29.0876Z" fill="white"/>
<path d="M26.0786 30.6929C25.7561 30.6928 25.4414 30.594 25.1768 30.4097L21.2959 27.7215C21.2085 27.6609 21.1488 27.5682 21.1298 27.4636C21.1107 27.359 21.1341 27.2512 21.1946 27.1638C21.2551 27.0764 21.3478 27.0166 21.4524 26.9976C21.557 26.9786 21.6649 27.0019 21.7522 27.0624L25.6331 29.7506C25.7183 29.8096 25.8143 29.8512 25.9156 29.873C26.0169 29.8948 26.1215 29.8965 26.2235 29.8779C26.3254 29.8593 26.4227 29.8208 26.5097 29.7646C26.5968 29.7084 26.6719 29.6356 26.7308 29.5503C26.8481 29.3794 26.8936 29.1693 26.8576 28.9652C26.8217 28.7611 26.7071 28.5792 26.5385 28.4586L22.6765 25.7191C22.6326 25.6891 22.5951 25.6506 22.5662 25.606C22.5373 25.5613 22.5176 25.5113 22.5082 25.459C22.4989 25.4066 22.5 25.3529 22.5116 25.301C22.5232 25.2491 22.5451 25.2 22.5759 25.1566C22.6066 25.1132 22.6457 25.0764 22.6909 25.0483C22.7361 25.0202 22.7864 25.0014 22.8389 24.9929C22.8914 24.9844 22.9451 24.9865 22.9968 24.999C23.0485 25.0115 23.0972 25.0342 23.14 25.0657L27.002 27.8052C27.342 28.0481 27.5731 28.4147 27.6457 28.8262C27.7183 29.2377 27.6265 29.6612 27.3903 30.0058C27.2722 30.178 27.1211 30.3251 26.9459 30.4386C26.7706 30.5521 26.5745 30.6297 26.3691 30.6669C26.2732 30.6844 26.176 30.6931 26.0786 30.6929V30.6929Z" fill="white"/>
<path d="M23.7895 32.0099C23.5092 32.0085 23.2341 31.9337 22.9918 31.7928L20.8377 30.5508C20.7464 30.4973 20.68 30.4099 20.653 30.3076C20.6259 30.2053 20.6404 30.0965 20.6933 30.0049C20.7462 29.9133 20.8332 29.8463 20.9353 29.8186C21.0374 29.7909 21.1463 29.8047 21.2383 29.857L23.392 31.0989C23.5741 31.2017 23.7892 31.2292 23.9913 31.1756C24.1934 31.122 24.3665 30.9915 24.4737 30.812C24.5756 30.64 24.608 30.4355 24.5643 30.2404C24.5206 30.0453 24.4041 29.8742 24.2386 29.762L21.4863 27.8554C21.443 27.8255 21.4061 27.7873 21.3776 27.743C21.3491 27.6988 21.3296 27.6494 21.3202 27.5976C21.3108 27.5459 21.3117 27.4928 21.3229 27.4413C21.334 27.3899 21.3552 27.3412 21.3851 27.298C21.4151 27.2547 21.4533 27.2178 21.4975 27.1893C21.5417 27.1608 21.5911 27.1413 21.6429 27.1319C21.6947 27.1225 21.7478 27.1234 21.7992 27.1346C21.8506 27.1457 21.8993 27.1668 21.9426 27.1968L24.6945 29.103C24.9738 29.2964 25.1842 29.5739 25.2948 29.8952C25.4054 30.2164 25.4106 30.5646 25.3096 30.889C25.2085 31.2134 25.0065 31.4971 24.733 31.6987C24.4596 31.9003 24.1288 32.0094 23.7891 32.0099H23.7895Z" fill="white"/>
<path d="M19.2531 31.7708C18.9254 31.7713 18.6052 31.6718 18.3355 31.4856C18.0658 31.2993 17.8594 31.0353 17.7437 30.7286C17.6281 30.4219 17.6087 30.0873 17.6883 29.7693C17.7679 29.4514 17.9426 29.1653 18.189 28.9492L19.2591 28.0118C19.4181 27.8722 19.6031 27.7652 19.8034 27.6971C20.0038 27.629 20.2156 27.601 20.4267 27.6147C20.6379 27.6284 20.8442 27.6836 21.0341 27.7771C21.2239 27.8706 21.3935 28.0006 21.5331 28.1596C21.6726 28.3186 21.7795 28.5036 21.8476 28.704C21.9157 28.9043 21.9437 29.1161 21.9299 29.3273C21.9161 29.5384 21.8609 29.7448 21.7674 29.9346C21.6739 30.1244 21.5439 30.294 21.3848 30.4335L20.3148 31.373C20.0211 31.6304 19.6436 31.7718 19.2531 31.7708V31.7708ZM20.3216 28.4124C20.1251 28.4119 19.9352 28.4831 19.7875 28.6127L18.7171 29.5514C18.6371 29.6215 18.5717 29.7067 18.5247 29.8022C18.4777 29.8976 18.4499 30.0013 18.4429 30.1075C18.436 30.2136 18.45 30.3201 18.4843 30.4208C18.5185 30.5216 18.5722 30.6146 18.6424 30.6945C18.784 30.856 18.9841 30.9546 19.1985 30.9687C19.3046 30.9756 19.4111 30.9616 19.5118 30.9273C19.6126 30.8931 19.7056 30.8394 19.7855 30.7693L20.8556 29.8298C20.979 29.7211 21.0665 29.5775 21.1062 29.4179C21.146 29.2584 21.1363 29.0905 21.0783 28.9366C21.0203 28.7827 20.9169 28.6501 20.7817 28.5565C20.6465 28.4628 20.486 28.4126 20.3216 28.4124V28.4124Z" fill="white"/>
<path d="M16.8277 30.6794C16.7921 30.6794 16.7564 30.6794 16.7207 30.6762C16.5095 30.663 16.3029 30.608 16.113 30.5145C15.923 30.421 15.7535 30.2907 15.6142 30.1313C15.4727 29.9723 15.364 29.7869 15.2943 29.5857C15.2247 29.3845 15.1954 29.1716 15.2083 28.9591C15.2211 28.7466 15.2758 28.5387 15.3692 28.3474C15.4626 28.156 15.5928 27.985 15.7524 27.8442L17.54 26.2749C17.699 26.1353 17.884 26.0284 18.0843 25.9603C18.2847 25.8922 18.4965 25.8642 18.7076 25.8779C18.9188 25.8916 19.1251 25.9468 19.315 26.0403C19.5048 26.1338 19.6744 26.2638 19.814 26.4228L19.5243 26.7004L19.8252 26.436C19.9648 26.595 20.0718 26.7799 20.1399 26.9803C20.2081 27.1806 20.2361 27.3924 20.2224 27.6036C20.2087 27.8148 20.1535 28.0212 20.0599 28.211C19.9664 28.4008 19.8364 28.5704 19.6774 28.7099L17.8882 30.2792C17.5954 30.5376 17.2182 30.68 16.8277 30.6794V30.6794ZM18.6005 26.6756C18.4042 26.675 18.2146 26.7463 18.0672 26.8759L16.2797 28.4451C16.16 28.5532 16.0747 28.694 16.0345 28.8502C15.9942 29.0063 16.0008 29.1708 16.0534 29.3233C16.1059 29.4757 16.2022 29.6093 16.3301 29.7075C16.458 29.8056 16.612 29.864 16.7728 29.8753C16.8791 29.8826 16.9857 29.8687 17.0864 29.8343C17.1872 29.7999 17.2801 29.7457 17.3597 29.675L19.1473 28.1058C19.2273 28.0356 19.2927 27.9504 19.3397 27.8549C19.3868 27.7595 19.4145 27.6557 19.4214 27.5495C19.4284 27.4434 19.4143 27.3369 19.3801 27.2361C19.3458 27.1354 19.292 27.0424 19.2218 26.9624L19.2102 26.9492C19.1403 26.8695 19.0553 26.8045 18.9602 26.7578C18.865 26.7111 18.7616 26.6837 18.6558 26.6772C18.6369 26.6764 18.6181 26.676 18.6001 26.676L18.6005 26.6756Z" fill="white"/>
<path d="M14.8063 29.2088C14.771 29.2088 14.7354 29.2088 14.6993 29.2056C14.488 29.1924 14.2814 29.1374 14.0915 29.0439C13.9016 28.9504 13.7321 28.8202 13.5928 28.6608L13.5491 28.6087C13.2675 28.2875 13.125 27.8676 13.1529 27.4414C13.1807 27.0151 13.3767 26.6174 13.6977 26.3356L15.7702 24.5163C15.9292 24.3767 16.1141 24.2697 16.3144 24.2016C16.5148 24.1334 16.7266 24.1054 16.9378 24.1191C17.1489 24.1328 17.3553 24.188 17.5452 24.2816C17.735 24.3751 17.9045 24.5051 18.0441 24.6641L18.0894 24.7158C18.3711 25.037 18.5137 25.4569 18.4858 25.8832C18.4579 26.3095 18.2619 26.7072 17.9408 26.989L15.8683 28.8082C15.5752 29.0671 15.1974 29.2096 14.8063 29.2088V29.2088ZM16.8306 24.9173C16.6344 24.9168 16.4448 24.9881 16.2974 25.1177L14.225 26.9369C14.0633 27.0787 13.9646 27.2789 13.9506 27.4935C13.9365 27.708 14.0083 27.9194 14.15 28.0811L14.1953 28.1328C14.3372 28.294 14.5372 28.3923 14.7515 28.4061C14.9659 28.4199 15.1769 28.3481 15.3383 28.2065L17.4107 26.3872C17.4907 26.3171 17.5561 26.2318 17.6031 26.1364C17.6502 26.0409 17.6779 25.9372 17.6848 25.831C17.6918 25.7248 17.6777 25.6183 17.6435 25.5176C17.6092 25.4168 17.5554 25.3238 17.4852 25.2439L17.4408 25.193C17.3708 25.113 17.2857 25.0476 17.1903 25.0007C17.0949 24.9538 16.9912 24.9263 16.8851 24.9197C16.8663 24.9181 16.8486 24.9173 16.8306 24.9173V24.9173Z" fill="white"/>
<path d="M13.0647 27.4255C13.0294 27.4255 12.9934 27.4255 12.9577 27.4219C12.6377 27.4017 12.3308 27.2871 12.0759 27.0926C11.821 26.8981 11.6295 26.6323 11.5255 26.329C11.4216 26.0256 11.4099 25.6983 11.492 25.3883C11.5741 25.0783 11.7462 24.7996 11.9866 24.5874L13.2842 23.4484C13.4432 23.3088 13.6282 23.2018 13.8285 23.1337C14.0289 23.0655 14.2407 23.0375 14.4518 23.0512C14.663 23.065 14.8694 23.1202 15.0592 23.2137C15.2491 23.3072 15.4186 23.4372 15.5582 23.5963L15.5722 23.6123C15.7119 23.7713 15.8188 23.9563 15.887 24.1566C15.9551 24.3569 15.9831 24.5687 15.9694 24.7799C15.9557 24.9911 15.9005 25.1975 15.807 25.3873C15.7134 25.5771 15.5834 25.7467 15.4244 25.8863L14.1267 27.0253C13.8336 27.2841 13.4557 27.4264 13.0647 27.4255ZM14.3467 23.8491C14.1505 23.8486 13.9608 23.9198 13.8135 24.0494L12.5158 25.1884C12.4358 25.2585 12.3705 25.3438 12.3234 25.4392C12.2764 25.5347 12.2486 25.6385 12.2417 25.7446C12.2348 25.8508 12.2489 25.9573 12.2831 26.0581C12.3173 26.1588 12.3711 26.2518 12.4413 26.3318C12.511 26.4142 12.5963 26.4821 12.6923 26.5313C12.7884 26.5806 12.8933 26.6103 13.0009 26.6187C13.1085 26.6272 13.2167 26.6141 13.3193 26.5804C13.4219 26.5467 13.5167 26.493 13.5983 26.4223L14.8959 25.2833C14.9759 25.2132 15.0413 25.1279 15.0883 25.0325C15.1354 24.937 15.1631 24.8332 15.1701 24.7271C15.177 24.6209 15.1629 24.5144 15.1287 24.4136C15.0944 24.3129 15.0407 24.2199 14.9705 24.1399L14.9564 24.1239C14.8865 24.0438 14.8013 23.9783 14.7058 23.9314C14.6104 23.8844 14.5065 23.8568 14.4004 23.8503C14.3807 23.8499 14.3627 23.8491 14.3447 23.8491H14.3467Z" fill="white"/>
<path d="M12.338 25.2119C12.2513 25.2121 12.1669 25.184 12.0976 25.1318L10.7287 24.0902C10.6868 24.0583 10.6516 24.0185 10.6251 23.9731C10.5986 23.9276 10.5813 23.8774 10.5742 23.8252C10.5671 23.7731 10.5704 23.7201 10.5838 23.6692C10.5972 23.6183 10.6205 23.5706 10.6523 23.5287C10.7167 23.4441 10.812 23.3886 10.9173 23.3743C10.9694 23.3672 11.0224 23.3704 11.0733 23.3838C11.1242 23.3972 11.1719 23.4205 11.2138 23.4524L12.5827 24.494C12.6502 24.5446 12.6999 24.6151 12.725 24.6956C12.75 24.7761 12.749 24.8624 12.7221 24.9423C12.6952 25.0222 12.6438 25.0916 12.5752 25.1406C12.5066 25.1895 12.4243 25.2156 12.34 25.2151L12.338 25.2119Z" fill="white"/>
<path d="M30.7836 25.6559C30.7044 25.6559 30.6269 25.6324 30.5611 25.5883C30.4952 25.5443 30.4439 25.4817 30.4135 25.4085C30.3832 25.3354 30.3753 25.2548 30.3908 25.1771C30.4062 25.0994 30.4443 25.028 30.5004 24.972L32.7483 22.7233C32.8238 22.6503 32.925 22.6099 33.0301 22.6109C33.1351 22.6118 33.2356 22.6539 33.3099 22.7282C33.3842 22.8025 33.4263 22.9029 33.4272 23.008C33.4281 23.113 33.3877 23.2142 33.3148 23.2898L31.0668 25.5377C31.0297 25.575 30.9856 25.6047 30.937 25.625C30.8884 25.6453 30.8363 25.6558 30.7836 25.6559V25.6559Z" fill="white"/>
<path d="M33.8488 24.8247C33.7802 24.8247 33.7128 24.8073 33.653 24.7739C33.5932 24.7405 33.5429 24.6923 33.507 24.634L28.6154 16.6775C28.5637 16.5934 28.5449 16.4931 28.5627 16.3959C28.5804 16.2987 28.6334 16.2116 28.7115 16.1511L33.5563 12.3988C33.6095 12.3576 33.6722 12.3305 33.7386 12.3199C33.805 12.3093 33.8731 12.3157 33.9364 12.3383C33.9997 12.3609 34.0564 12.3991 34.1011 12.4494C34.1457 12.4997 34.1771 12.5604 34.1921 12.626L36.5746 23.021C36.5944 23.1056 36.5861 23.1943 36.5511 23.2738C36.516 23.3533 36.4561 23.4193 36.3803 23.4617L34.0443 24.7746C33.9845 24.8078 33.9171 24.825 33.8488 24.8247V24.8247ZM29.4863 16.5637L33.9878 23.8852L35.7269 22.9077L33.5515 13.416L29.4863 16.5637Z" fill="white"/>
<path d="M10.4763 24.9667C10.4077 24.9666 10.3402 24.949 10.2804 24.9154L7.94432 23.6045C7.86853 23.5621 7.8086 23.4961 7.77355 23.4167C7.73851 23.3372 7.73025 23.2484 7.75001 23.1639L10.1329 12.77C10.148 12.7045 10.1793 12.6437 10.224 12.5935C10.2687 12.5432 10.3253 12.505 10.3886 12.4823C10.452 12.4597 10.52 12.4534 10.5864 12.464C10.6529 12.4745 10.7155 12.5017 10.7687 12.5429L15.6139 16.2947C15.692 16.3552 15.745 16.4424 15.7628 16.5395C15.7805 16.6367 15.7617 16.737 15.71 16.8212L10.818 24.7776C10.7819 24.8356 10.7316 24.8835 10.6717 24.9166C10.6119 24.9497 10.5446 24.9669 10.4763 24.9667V24.9667ZM8.59814 23.0525L10.3373 24.0296L14.8387 16.7078L10.7735 13.5601L8.59814 23.0525Z" fill="white"/>
</g>
<defs>
<clipPath id="clip0">
<rect width="29.6463" height="29.6463" fill="white" transform="translate(7.33936 7.33936)"/>
</clipPath>
</defs>
</svg>
