<svg width="599" height="599" viewBox="0 0 599 599" fill="none" xmlns="http://www.w3.org/2000/svg">
<circle cx="299.014" cy="299.014" r="299.014" fill="#045ECC"/>
<path d="M132.812 280.285C139.58 280.285 145.957 278.583 151.551 275.605L210.668 336.479C205.596 343.186 202.552 351.5 202.552 360.535C202.552 382.602 220.504 400.549 242.571 400.549C264.637 400.549 282.585 382.597 282.585 360.535C282.585 351.905 279.814 343.926 275.148 337.384L323.226 298.246C330.531 305.999 340.858 310.873 352.329 310.873C364.414 310.873 375.244 305.467 382.587 296.964L423.554 319.272C422.611 322.674 422.069 326.242 422.069 329.937C422.069 352.004 440.021 369.956 462.083 369.956C484.145 369.956 502.098 352.004 502.098 329.937C502.098 307.871 484.145 289.918 462.083 289.918C450.489 289.918 440.059 294.905 432.744 302.813L391.198 280.19C391.919 277.188 392.344 274.078 392.344 270.859C392.344 248.792 374.391 230.84 352.329 230.84C330.258 230.84 312.306 248.792 312.306 270.859C312.306 274.587 312.857 278.178 313.814 281.6L260.645 324.875C255.206 322.109 249.079 320.516 242.571 320.516C236.382 320.516 230.538 321.972 225.302 324.489L165.657 263.068C170.168 256.592 172.831 248.74 172.831 240.266C172.831 218.199 154.879 200.247 132.812 200.247C110.745 200.247 92.7975 218.199 92.7975 240.266C92.7975 262.333 110.75 280.285 132.812 280.285ZM462.088 308.775C473.758 308.775 483.25 318.272 483.25 329.942C483.25 341.612 473.753 351.109 462.088 351.109C450.423 351.109 440.926 341.612 440.926 329.942C440.922 318.272 450.418 308.775 462.088 308.775ZM352.334 249.692C364.004 249.692 373.496 259.189 373.496 270.859C373.496 282.528 363.999 292.02 352.334 292.02C340.66 292.02 331.163 282.528 331.163 270.859C331.163 259.189 340.66 249.692 352.334 249.692ZM263.737 360.535C263.737 372.204 254.245 381.697 242.575 381.697C230.901 381.697 221.409 372.2 221.409 360.535C221.409 348.86 230.906 339.368 242.575 339.368C254.245 339.368 263.737 348.86 263.737 360.535ZM132.812 219.104C144.486 219.104 153.978 228.601 153.978 240.271C153.978 251.94 144.481 261.437 132.812 261.437C121.142 261.437 111.65 251.94 111.65 240.271C111.65 228.601 121.142 219.104 132.812 219.104Z" fill="white"/>
</svg>
