<svg width="54" height="54" viewBox="0 0 54 54" fill="none" xmlns="http://www.w3.org/2000/svg">
<circle cx="27" cy="27" r="27" fill="#0000FF"/>
<g clip-path="url(#clip0)">
<path d="M18.3491 21.722C18.2845 21.7231 18.2204 21.7115 18.1603 21.6879C18.1002 21.6642 18.0454 21.6289 17.9989 21.5841C17.9051 21.4935 17.8511 21.3693 17.8488 21.2389C17.8465 21.1085 17.8961 20.9826 17.9867 20.8887C18.0773 20.7949 18.2015 20.7409 18.3319 20.7387C20.7444 20.7117 23.1517 20.5079 25.5344 20.129C25.5768 20.1201 25.6201 20.1172 25.6633 20.1201C26.2605 20.1517 26.8399 20.3344 27.3472 20.6511C27.431 20.712 27.4934 20.7978 27.5256 20.8962C27.5578 20.9946 27.558 21.1007 27.5264 21.1993C27.4947 21.2978 27.4327 21.3839 27.3493 21.4452C27.2658 21.5065 27.1651 21.5399 27.0616 21.5406C26.9458 21.5406 26.8335 21.5008 26.7435 21.428C26.412 21.238 26.0408 21.1281 25.6593 21.1069C23.2447 21.4863 20.8059 21.6919 18.3619 21.722H18.3491Z" fill="white"/>
<path d="M36.3346 33.4189C35.9151 33.4195 35.5063 33.2869 35.1669 33.0403L35.0612 32.9671C35.0474 32.9577 35.0243 32.9391 35.0027 32.9179L29.2151 28.75C29.1611 28.7131 29.115 28.6658 29.0794 28.6109C29.0439 28.5559 29.0197 28.4945 29.0082 28.4301C28.9968 28.3656 28.9983 28.2996 29.0127 28.2358C29.027 28.172 29.054 28.1117 29.092 28.0584C29.13 28.0051 29.1782 27.96 29.2339 27.9256C29.2895 27.8912 29.3515 27.8683 29.4161 27.8581C29.4807 27.848 29.5467 27.8509 29.6103 27.8665C29.6738 27.8822 29.7335 27.9104 29.786 27.9495L30.1793 28.2298L35.5951 32.1352C35.6113 32.1468 35.6268 32.1594 35.6413 32.173L35.7353 32.2384C35.9485 32.3913 36.2123 32.4564 36.4722 32.4205C36.7321 32.3845 36.9683 32.2502 37.1321 32.0452C37.2326 31.9184 37.301 31.7693 37.3318 31.6105C37.3625 31.4516 37.3545 31.2877 37.3086 31.1326C37.2534 30.9372 37.1392 30.7636 36.9817 30.6355L29.2407 24.3288C26.2764 25.9022 24.1764 25.0929 23.1739 24.4522C23.0082 24.3444 22.8737 24.195 22.7838 24.019C22.6938 23.8429 22.6516 23.6464 22.6613 23.449C22.671 23.2515 22.7323 23.0601 22.8391 22.8937C22.9458 22.7273 23.0943 22.5918 23.2698 22.5008L27.7008 20.1476C27.9836 19.9997 28.2929 19.9091 28.6109 19.8813C28.9288 19.8534 29.2492 19.8888 29.5534 19.9854L32.1745 20.836C32.9462 21.0898 33.7832 21.0596 34.5346 20.7509L35.6763 20.2833C35.736 20.2588 35.8 20.2463 35.8646 20.2465C35.9292 20.2468 35.9931 20.2597 36.0527 20.2846C36.1122 20.3096 36.1663 20.346 36.2118 20.3918C36.2574 20.4377 36.2934 20.492 36.3179 20.5518C36.3424 20.6115 36.3549 20.6755 36.3547 20.7401C36.3544 20.8047 36.3415 20.8686 36.3165 20.9282C36.2916 20.9878 36.2552 21.0419 36.2094 21.0874C36.1635 21.1329 36.1092 21.1689 36.0494 21.1934L34.9087 21.6605C33.9412 22.0588 32.8631 22.0978 31.8692 21.7706L29.2505 20.9205C29.0712 20.8642 28.8824 20.8439 28.6952 20.8607C28.508 20.8776 28.3259 20.9313 28.1595 21.0189L23.7275 23.3725C23.7029 23.3841 23.6819 23.4024 23.667 23.4252C23.652 23.448 23.6437 23.4746 23.643 23.5018C23.6409 23.5265 23.6457 23.5512 23.6568 23.5733C23.6679 23.5955 23.6849 23.6141 23.7059 23.6272C24.7384 24.287 26.5109 24.7708 29.0485 23.313C29.1348 23.2634 29.2341 23.2412 29.3333 23.2493C29.4325 23.2574 29.5269 23.2954 29.604 23.3583L37.5987 29.873C37.9122 30.1259 38.1402 30.4692 38.2516 30.8563C38.34 31.161 38.3548 31.4822 38.295 31.7938C38.2351 32.1053 38.1024 32.3982 37.9075 32.6485C37.7218 32.8888 37.4834 33.0832 37.2107 33.2168C36.938 33.3504 36.6383 33.4195 36.3346 33.4189Z" fill="white"/>
<path d="M34.3 35.6978C33.8834 35.6983 33.4769 35.5688 33.1372 35.3276L27.8222 31.5564C27.7184 31.48 27.6487 31.3659 27.6282 31.2386C27.6076 31.1113 27.6379 30.9811 27.7125 30.8759C27.7871 30.7707 27.9001 30.6991 28.027 30.6764C28.1539 30.6537 28.2847 30.6817 28.3911 30.7545L33.7061 34.5252C33.9291 34.6708 34.1997 34.7247 34.4615 34.6755C34.7233 34.6262 34.9559 34.4778 35.1108 34.2611C35.2656 34.0444 35.3308 33.7762 35.2926 33.5126C35.2544 33.249 35.1158 33.0104 34.9058 32.8466L29.6085 29.0287C29.5108 28.9497 29.4471 28.8364 29.4304 28.7119C29.4137 28.5875 29.4452 28.4613 29.5186 28.3594C29.5919 28.2574 29.7015 28.1874 29.8248 28.1636C29.9481 28.1399 30.0758 28.1643 30.1818 28.2317L35.4806 32.0501C35.8255 32.2998 36.0825 32.6523 36.2147 33.0571C36.3469 33.4618 36.3475 33.8981 36.2165 34.3032C36.0854 34.7084 35.8295 35.0617 35.4853 35.3124C35.1411 35.5631 34.7264 35.6983 34.3005 35.6988L34.3 35.6978Z" fill="white"/>
<path d="M32.0054 37.668C31.6097 37.6679 31.2234 37.5465 30.8987 37.3204L26.1358 34.0212C26.0285 33.9469 25.9552 33.8331 25.9318 33.7048C25.9085 33.5764 25.9371 33.4441 26.0114 33.3368C26.0857 33.2295 26.1995 33.1562 26.3278 33.1329C26.4562 33.1095 26.5886 33.1381 26.6958 33.2124L31.4587 36.5116C31.5633 36.5839 31.6811 36.6349 31.8054 36.6617C31.9297 36.6885 32.0581 36.6906 32.1832 36.6677C32.3083 36.6449 32.4277 36.5977 32.5345 36.5287C32.6414 36.4597 32.7336 36.3703 32.8059 36.2657C32.9498 36.056 33.0057 35.7981 32.9615 35.5476C32.9174 35.2971 32.7768 35.0739 32.5699 34.9259L27.8301 31.5638C27.7762 31.527 27.7302 31.4798 27.6948 31.4249C27.6593 31.3701 27.6351 31.3088 27.6236 31.2445C27.6121 31.1803 27.6136 31.1144 27.6278 31.0506C27.642 30.9869 27.6688 30.9267 27.7066 30.8735C27.7444 30.8202 27.7924 30.775 27.8478 30.7405C27.9032 30.706 27.965 30.6829 28.0294 30.6725C28.0939 30.6621 28.1597 30.6647 28.2232 30.68C28.2866 30.6954 28.3464 30.7232 28.399 30.7619L33.1387 34.124C33.556 34.4221 33.8396 34.872 33.9286 35.377C34.0177 35.882 33.9052 36.4018 33.6152 36.8248C33.4703 37.0361 33.2849 37.2167 33.0698 37.3559C32.8547 37.4952 32.6141 37.5904 32.3619 37.636C32.2443 37.6575 32.125 37.6682 32.0054 37.668Z" fill="white"/>
<path d="M29.196 39.2847C28.852 39.283 28.5144 39.1911 28.2171 39.0182L25.5733 37.494C25.4613 37.4283 25.3798 37.321 25.3466 37.1955C25.3134 37.07 25.3313 36.9364 25.3962 36.824C25.4611 36.7115 25.5679 36.6294 25.6932 36.5953C25.8185 36.5613 25.9521 36.5782 26.065 36.6424L28.7082 38.1666C28.9317 38.2927 29.1956 38.3265 29.4436 38.2607C29.6917 38.195 29.9042 38.0349 30.0358 37.8146C30.1608 37.6034 30.2005 37.3525 30.1469 37.113C30.0933 36.8735 29.9503 36.6636 29.7471 36.5259L26.3693 34.186C26.3163 34.1492 26.271 34.1024 26.236 34.0481C26.201 33.9938 26.1771 33.9332 26.1656 33.8696C26.154 33.8061 26.1551 33.7409 26.1688 33.6778C26.1825 33.6147 26.2084 33.5549 26.2452 33.5018C26.282 33.4488 26.3288 33.4034 26.3831 33.3685C26.4374 33.3335 26.498 33.3096 26.5616 33.2981C26.6251 33.2865 26.6903 33.2876 26.7534 33.3013C26.8165 33.315 26.8763 33.3409 26.9294 33.3777L30.3067 35.7171C30.6495 35.9544 30.9076 36.295 31.0434 36.6893C31.1792 37.0836 31.1856 37.5109 31.0616 37.909C30.9376 38.3072 30.6897 38.6553 30.354 38.9028C30.0184 39.1502 29.6125 39.284 29.1955 39.2847H29.196Z" fill="white"/>
<path d="M23.6287 38.9911C23.2264 38.9917 22.8336 38.8695 22.5026 38.641C22.1716 38.4124 21.9182 38.0883 21.7763 37.712C21.6343 37.3356 21.6106 36.9249 21.7082 36.5347C21.8059 36.1445 22.0203 35.7933 22.3228 35.5282L23.636 34.3777C23.8312 34.2063 24.0582 34.0751 24.3041 33.9915C24.5499 33.9079 24.8099 33.8735 25.069 33.8904C25.3281 33.9072 25.5814 33.975 25.8144 34.0897C26.0474 34.2044 26.2555 34.3639 26.4268 34.5591C26.5981 34.7543 26.7293 34.9813 26.8128 35.2272C26.8964 35.4731 26.9307 35.733 26.9138 35.9922C26.8969 36.2513 26.8292 36.5046 26.7144 36.7375C26.5996 36.9705 26.4401 37.1786 26.2449 37.3498L24.9316 38.5028C24.5712 38.8187 24.1079 38.9923 23.6287 38.9911ZM24.94 34.8693C24.6988 34.8687 24.4658 34.9561 24.2846 35.1152L22.9708 36.2672C22.8727 36.3533 22.7924 36.4579 22.7347 36.575C22.677 36.6921 22.6429 36.8194 22.6344 36.9497C22.6259 37.08 22.6431 37.2106 22.6851 37.3343C22.7271 37.4579 22.793 37.572 22.8791 37.6702C23.053 37.8684 23.2985 37.9894 23.5616 38.0066C23.6919 38.0151 23.8226 37.9979 23.9462 37.9559C24.0698 37.9139 24.184 37.848 24.2821 37.7619L25.5954 36.6089C25.7469 36.4755 25.8542 36.2992 25.903 36.1034C25.9518 35.9076 25.9398 35.7015 25.8687 35.5127C25.7975 35.3238 25.6706 35.1611 25.5047 35.0462C25.3387 34.9313 25.1418 34.8696 24.94 34.8693Z" fill="white"/>
<path d="M20.6521 37.6518C20.6083 37.6518 20.5646 37.6518 20.5208 37.6479C20.2615 37.6316 20.008 37.5642 19.7749 37.4494C19.5418 37.3346 19.3338 37.1748 19.1628 36.9792C18.9891 36.784 18.8557 36.5564 18.7702 36.3095C18.6847 36.0626 18.6488 35.8013 18.6646 35.5405C18.6803 35.2797 18.7474 35.0245 18.8621 34.7897C18.9767 34.5549 19.1365 34.3451 19.3324 34.1722L21.5263 32.2463C21.7214 32.075 21.9484 31.9438 22.1943 31.8602C22.4402 31.7766 22.7001 31.7422 22.9592 31.759C23.2184 31.7759 23.4717 31.8436 23.7046 31.9584C23.9376 32.0731 24.1457 32.2326 24.317 32.4277L23.9615 32.7685L24.3308 32.444C24.5022 32.6391 24.6335 32.8661 24.7171 33.112C24.8007 33.3578 24.8351 33.6178 24.8183 33.8769C24.8014 34.1361 24.7337 34.3894 24.6189 34.6224C24.5041 34.8553 24.3446 35.0634 24.1494 35.2347L21.9535 37.1606C21.5943 37.4778 21.1313 37.6525 20.6521 37.6518ZM22.8277 32.738C22.5869 32.7373 22.3542 32.8248 22.1733 32.9838L19.9795 34.9097C19.8326 35.0423 19.7279 35.2152 19.6786 35.4068C19.6292 35.5985 19.6373 35.8004 19.7018 35.9875C19.7663 36.1745 19.8844 36.3385 20.0414 36.459C20.1984 36.5795 20.3873 36.6511 20.5847 36.665C20.7151 36.6739 20.8459 36.6568 20.9696 36.6146C21.0933 36.5724 21.2073 36.5059 21.305 36.4192L23.4989 34.4933C23.597 34.4072 23.6773 34.3025 23.735 34.1854C23.7927 34.0683 23.8268 33.9409 23.8353 33.8106C23.8438 33.6803 23.8265 33.5496 23.7845 33.4259C23.7425 33.3023 23.6765 33.1882 23.5903 33.09L23.5761 33.0738C23.4903 32.976 23.386 32.8962 23.2692 32.8389C23.1524 32.7816 23.0254 32.748 22.8956 32.74C22.8725 32.739 22.8494 32.7385 22.8272 32.7385L22.8277 32.738Z" fill="white"/>
<path d="M18.1711 35.8468C18.1278 35.8468 18.084 35.8468 18.0398 35.8429C17.7805 35.8267 17.527 35.7592 17.2939 35.6444C17.0608 35.5297 16.8527 35.3699 16.6818 35.1742L16.6282 35.1103C16.2826 34.7161 16.1077 34.2008 16.1419 33.6777C16.1761 33.1545 16.4166 32.6664 16.8106 32.3205L19.354 30.0878C19.5492 29.9164 19.7761 29.7852 20.022 29.7015C20.2679 29.6179 20.5278 29.5835 20.787 29.6004C21.0462 29.6172 21.2995 29.6849 21.5324 29.7997C21.7654 29.9145 21.9735 30.074 22.1448 30.2693L22.2003 30.3327C22.5461 30.7268 22.7211 31.2422 22.6869 31.7653C22.6526 32.2885 22.412 32.7767 22.0179 33.1225L19.4745 35.3552C19.1147 35.6729 18.651 35.8478 18.1711 35.8468ZM20.6555 30.58C20.4147 30.5794 20.1819 30.6668 20.0011 30.8258L17.4576 33.0585C17.2593 33.2326 17.1381 33.4783 17.1209 33.7416C17.1036 34.0049 17.1917 34.2643 17.3657 34.4628L17.4213 34.5262C17.5954 34.724 17.8409 34.8447 18.1039 34.8617C18.3669 34.8786 18.6259 34.7905 18.824 34.6167L21.3674 32.384C21.4656 32.2978 21.5458 32.1932 21.6036 32.0761C21.6613 31.959 21.6954 31.8316 21.7039 31.7013C21.7124 31.571 21.6951 31.4403 21.6531 31.3166C21.611 31.193 21.5451 31.0788 21.4589 30.9807L21.4043 30.9183C21.3185 30.8201 21.214 30.7399 21.0969 30.6823C20.9799 30.6248 20.8526 30.591 20.7224 30.5829C20.6993 30.581 20.6776 30.58 20.6555 30.58Z" fill="white"/>
<path d="M16.0337 33.6584C15.9905 33.6584 15.9462 33.6584 15.9025 33.654C15.5097 33.6293 15.1331 33.4886 14.8202 33.2499C14.5074 33.0111 14.2723 32.685 14.1448 32.3127C14.0172 31.9404 14.0029 31.5387 14.1036 31.1583C14.2043 30.7778 14.4156 30.4358 14.7106 30.1754L16.3032 28.7775C16.4983 28.6061 16.7253 28.4749 16.9712 28.3912C17.217 28.3076 17.477 28.2732 17.7361 28.2901C17.9953 28.3069 18.2486 28.3746 18.4816 28.4894C18.7146 28.6042 18.9226 28.7637 19.0939 28.959L19.1111 28.9786C19.2825 29.1738 19.4138 29.4007 19.4974 29.6466C19.5811 29.8925 19.6155 30.1524 19.5986 30.4116C19.5818 30.6708 19.514 30.9241 19.3993 31.1571C19.2845 31.39 19.1249 31.5981 18.9297 31.7694L17.3372 33.1672C16.9774 33.4849 16.5137 33.6596 16.0337 33.6584ZM17.6071 29.2692C17.3663 29.2686 17.1335 29.356 16.9527 29.5151L15.3601 30.9129C15.262 30.999 15.1817 31.1036 15.124 31.2208C15.0663 31.3379 15.0322 31.4653 15.0237 31.5956C15.0152 31.7259 15.0325 31.8566 15.0745 31.9802C15.1166 32.1039 15.1825 32.218 15.2687 32.3161C15.3542 32.4174 15.4589 32.5006 15.5768 32.5611C15.6947 32.6215 15.8234 32.658 15.9555 32.6683C16.0875 32.6787 16.2204 32.6627 16.3462 32.6213C16.4721 32.5799 16.5885 32.514 16.6887 32.4273L18.2812 31.0294C18.3794 30.9433 18.4596 30.8387 18.5173 30.7215C18.575 30.6044 18.6091 30.4771 18.6176 30.3467C18.6261 30.2164 18.6088 30.0857 18.5668 29.9621C18.5248 29.8384 18.4588 29.7243 18.3726 29.6262L18.3554 29.6065C18.2696 29.5082 18.165 29.4278 18.0479 29.3702C17.9307 29.3126 17.8033 29.2787 17.673 29.2707C17.6489 29.2702 17.6268 29.2692 17.6046 29.2692H17.6071Z" fill="white"/>
<path d="M15.1418 30.9418C15.0354 30.942 14.9318 30.9075 14.8468 30.8435L13.1667 29.5651C13.1153 29.526 13.0721 29.4772 13.0396 29.4214C13.0071 29.3656 12.9859 29.304 12.9772 29.24C12.9685 29.176 12.9725 29.1109 12.9889 29.0485C13.0054 28.986 13.0339 28.9274 13.073 28.876C13.152 28.7722 13.269 28.7041 13.3982 28.6865C13.4622 28.6778 13.5272 28.6818 13.5897 28.6982C13.6521 28.7147 13.7107 28.7433 13.7621 28.7824L15.4422 30.0607C15.5249 30.1228 15.586 30.2094 15.6167 30.3082C15.6474 30.4069 15.6462 30.5129 15.6132 30.6109C15.5802 30.709 15.5171 30.7941 15.4329 30.8542C15.3487 30.9143 15.2477 30.9464 15.1442 30.9457L15.1418 30.9418Z" fill="white"/>
<path d="M37.7797 31.4867C37.6824 31.4867 37.5874 31.4579 37.5066 31.4038C37.4257 31.3498 37.3627 31.273 37.3255 31.1832C37.2883 31.0934 37.2786 30.9945 37.2975 30.8991C37.3165 30.8038 37.3633 30.7162 37.4321 30.6474L40.1909 27.8877C40.2836 27.7981 40.4078 27.7485 40.5367 27.7497C40.6656 27.7508 40.7889 27.8025 40.8801 27.8936C40.9713 27.9848 41.023 28.1081 41.0241 28.237C41.0252 28.366 40.9757 28.4902 40.8861 28.5829L38.1273 31.3417C38.0817 31.3875 38.0276 31.4239 37.9679 31.4488C37.9083 31.4737 37.8443 31.4866 37.7797 31.4867Z" fill="white"/>
<path d="M41.5414 30.4665C41.4574 30.4666 41.3747 30.4451 41.3012 30.4041C41.2278 30.3632 41.1661 30.3041 41.122 30.2324L35.1187 20.4677C35.0552 20.3644 35.0322 20.2413 35.054 20.1221C35.0758 20.0029 35.1408 19.8959 35.2367 19.8217L41.1825 15.2166C41.2478 15.1661 41.3247 15.1327 41.4063 15.1198C41.4878 15.1068 41.5713 15.1145 41.649 15.1423C41.7267 15.1701 41.7962 15.217 41.8511 15.2787C41.9059 15.3404 41.9444 15.4149 41.9628 15.4954L44.8868 28.2529C44.9111 28.3568 44.9009 28.4656 44.8579 28.5632C44.8149 28.6608 44.7414 28.7417 44.6484 28.7938L41.7814 30.405C41.708 30.4458 41.6254 30.4669 41.5414 30.4665ZM36.1876 20.3281L41.7121 29.3135L43.8464 28.1138L41.1766 16.465L36.1876 20.3281Z" fill="white"/>
<path d="M12.857 30.641C12.7728 30.641 12.69 30.6193 12.6166 30.5781L9.74963 28.9693C9.65662 28.9172 9.58306 28.8363 9.54005 28.7387C9.49704 28.6412 9.4869 28.5323 9.51117 28.4284L12.4357 15.6724C12.4541 15.5919 12.4925 15.5174 12.5474 15.4557C12.6022 15.394 12.6717 15.3471 12.7495 15.3193C12.8272 15.2915 12.9107 15.2838 12.9922 15.2968C13.0737 15.3098 13.1507 15.3431 13.216 15.3936L19.1623 19.9982C19.2581 20.0724 19.3232 20.1794 19.345 20.2986C19.3668 20.4178 19.3437 20.5409 19.2803 20.6442L13.2764 30.4089C13.2321 30.4802 13.1703 30.5389 13.0969 30.5795C13.0235 30.6201 12.9409 30.6413 12.857 30.641ZM10.552 28.2918L12.6864 29.491L18.2109 20.5051L13.2219 16.642L10.552 28.2918Z" fill="white"/>
</g>
<defs>
<clipPath id="clip0">
<rect width="36.3841" height="36.3841" fill="white" transform="translate(9.00721 9.0072)"/>
</clipPath>
</defs>
</svg>
