<svg width="110" height="28" viewBox="0 0 110 28" fill="none" xmlns="http://www.w3.org/2000/svg">
<rect width="110" height="27" rx="13.5" fill="#0D0D5D"/>
<path d="M30.259 19V6.4H36.577C37.189 6.4 37.753 6.502 38.269 6.706C38.797 6.898 39.247 7.168 39.619 7.516C39.991 7.864 40.279 8.284 40.483 8.776C40.699 9.256 40.807 9.784 40.807 10.36C40.807 10.924 40.699 11.446 40.483 11.926C40.279 12.394 39.985 12.802 39.601 13.15C39.229 13.498 38.785 13.768 38.269 13.96C37.753 14.152 37.189 14.248 36.577 14.248H32.869V19H30.259ZM36.289 8.65H32.869V12.088H36.289C36.853 12.088 37.303 11.932 37.639 11.62C37.987 11.308 38.161 10.894 38.161 10.378C38.161 9.862 37.987 9.448 37.639 9.136C37.303 8.812 36.853 8.65 36.289 8.65ZM44.9147 19.162C43.9067 19.162 43.0847 18.898 42.4487 18.37C41.8127 17.83 41.4947 17.134 41.4947 16.282C41.4947 15.394 41.8367 14.698 42.5207 14.194C43.2047 13.69 44.1467 13.438 45.3467 13.438C45.7307 13.438 46.1147 13.468 46.4987 13.528C46.8827 13.588 47.2607 13.678 47.6327 13.798V13.132C47.6327 12.592 47.4647 12.184 47.1287 11.908C46.7927 11.632 46.3007 11.494 45.6527 11.494C45.2567 11.494 44.8247 11.56 44.3567 11.692C43.9007 11.812 43.3787 12.004 42.7907 12.268L41.8907 10.45C42.6227 10.114 43.3307 9.862 44.0147 9.694C44.7107 9.526 45.3947 9.442 46.0667 9.442C47.3267 9.442 48.3047 9.748 49.0007 10.36C49.7087 10.96 50.0627 11.812 50.0627 12.916V19H47.6327V18.352C47.2367 18.628 46.8167 18.832 46.3727 18.964C45.9407 19.096 45.4547 19.162 44.9147 19.162ZM43.8527 16.228C43.8527 16.588 44.0087 16.876 44.3207 17.092C44.6327 17.296 45.0467 17.398 45.5627 17.398C45.9707 17.398 46.3427 17.35 46.6787 17.254C47.0267 17.146 47.3447 16.996 47.6327 16.804V15.4C47.3327 15.28 47.0147 15.196 46.6787 15.148C46.3547 15.088 46.0127 15.058 45.6527 15.058C45.0887 15.058 44.6447 15.166 44.3207 15.382C44.0087 15.586 43.8527 15.868 43.8527 16.228ZM51.137 17.884L52.361 16.246C52.913 16.606 53.435 16.876 53.927 17.056C54.419 17.224 54.911 17.308 55.403 17.308C55.955 17.308 56.393 17.218 56.717 17.038C57.053 16.858 57.221 16.618 57.221 16.318C57.221 16.078 57.125 15.886 56.933 15.742C56.753 15.598 56.459 15.496 56.051 15.436L54.251 15.166C53.327 15.022 52.619 14.722 52.127 14.266C51.647 13.81 51.407 13.204 51.407 12.448C51.407 11.548 51.761 10.828 52.469 10.288C53.177 9.748 54.125 9.478 55.313 9.478C55.997 9.478 56.663 9.58 57.311 9.784C57.959 9.976 58.577 10.264 59.165 10.648L57.977 12.232C57.461 11.932 56.969 11.71 56.501 11.566C56.033 11.41 55.559 11.332 55.079 11.332C54.635 11.332 54.275 11.416 53.999 11.584C53.735 11.752 53.603 11.974 53.603 12.25C53.603 12.502 53.699 12.7 53.891 12.844C54.095 12.976 54.425 13.072 54.881 13.132L56.681 13.402C57.593 13.534 58.295 13.834 58.787 14.302C59.291 14.77 59.543 15.364 59.543 16.084C59.543 16.528 59.435 16.942 59.219 17.326C59.015 17.698 58.733 18.022 58.373 18.298C58.013 18.574 57.581 18.79 57.077 18.946C56.573 19.102 56.027 19.18 55.439 19.18C54.587 19.18 53.789 19.072 53.045 18.856C52.301 18.628 51.665 18.304 51.137 17.884ZM60.4267 14.32C60.4267 13.636 60.5527 13 60.8047 12.412C61.0687 11.812 61.4227 11.296 61.8667 10.864C62.3227 10.42 62.8567 10.072 63.4687 9.82C64.0807 9.568 64.7347 9.442 65.4307 9.442C66.1267 9.442 66.7807 9.568 67.3927 9.82C68.0047 10.072 68.5327 10.42 68.9767 10.864C69.4327 11.296 69.7867 11.812 70.0387 12.412C70.3027 13 70.4347 13.636 70.4347 14.32C70.4347 15.004 70.3027 15.646 70.0387 16.246C69.7867 16.834 69.4327 17.344 68.9767 17.776C68.5327 18.208 68.0047 18.55 67.3927 18.802C66.7807 19.054 66.1267 19.18 65.4307 19.18C64.7347 19.18 64.0807 19.054 63.4687 18.802C62.8567 18.55 62.3227 18.208 61.8667 17.776C61.4227 17.344 61.0687 16.834 60.8047 16.246C60.5527 15.646 60.4267 15.004 60.4267 14.32ZM65.4307 17.038C66.1507 17.038 66.7627 16.774 67.2667 16.246C67.7707 15.718 68.0227 15.076 68.0227 14.32C68.0227 13.552 67.7707 12.904 67.2667 12.376C66.7627 11.848 66.1507 11.584 65.4307 11.584C64.7107 11.584 64.0987 11.848 63.5947 12.376C63.0907 12.904 62.8387 13.552 62.8387 14.32C62.8387 15.076 63.0907 15.718 63.5947 16.246C64.0987 16.774 64.7107 17.038 65.4307 17.038ZM79.9096 6.4V19H77.4436V8.902L74.9776 9.91V7.768L78.3436 6.4H79.9096Z" fill="white"/>
</svg>
