<svg width="237" height="30" viewBox="0 0 237 30" fill="none" xmlns="http://www.w3.org/2000/svg">
<rect x="0.535714" y="0.535714" width="105" height="28.9286" rx="14.4643" stroke="white" stroke-width="1.07143"/>
<path d="M10.7144 8.48965V23.8178C10.7145 23.8511 10.7244 23.8836 10.7429 23.9112C10.7614 23.9388 10.7876 23.9604 10.8183 23.9732C10.849 23.986 10.8828 23.9894 10.9154 23.9831C10.9481 23.9767 10.9781 23.9609 11.0018 23.9376L18.983 16.1541L11.0018 8.36991C10.9781 8.34656 10.9481 8.33073 10.9154 8.32439C10.8828 8.31805 10.849 8.32149 10.8183 8.33427C10.7876 8.34706 10.7614 8.36863 10.7429 8.39627C10.7244 8.42391 10.7145 8.4564 10.7144 8.48965Z" fill="white"/>
<path d="M22.3294 12.956L12.322 7.44256L12.3158 7.43905C12.1434 7.34544 11.9796 7.57868 12.1208 7.71441L19.9654 15.2155L22.3294 12.956Z" fill="white"/>
<path d="M12.1218 24.5941C11.9799 24.7299 12.1437 24.9631 12.3169 24.8695L12.3231 24.866L22.3297 19.3525L19.9657 17.0923L12.1218 24.5941Z" fill="white"/>
<path d="M26.3695 15.1792L23.5749 13.6401L20.9473 16.1543L23.5749 18.6672L26.3695 17.1293C27.1296 16.7093 27.1296 15.5993 26.3695 15.1792Z" fill="white"/>
<path d="M35.2769 6.60742C35.6411 6.60742 35.9697 6.68956 36.2626 6.85385C36.559 7.01456 36.7911 7.23778 36.959 7.52349C37.1269 7.80921 37.2108 8.12885 37.2108 8.48242C37.2108 8.83599 37.1251 9.15564 36.9536 9.44135C36.7858 9.72706 36.5536 9.95206 36.2572 10.1164C35.9608 10.2771 35.6286 10.3574 35.2608 10.3574H33.7501V6.60742H35.2769ZM35.2876 9.89135C35.5483 9.89135 35.784 9.83064 35.9947 9.70921C36.209 9.58778 36.3769 9.41992 36.4983 9.20564C36.6233 8.99135 36.6858 8.75206 36.6858 8.48778C36.6858 8.21992 36.6233 7.97885 36.4983 7.76456C36.3733 7.55028 36.2019 7.38242 35.984 7.26099C35.7697 7.13599 35.5304 7.07349 35.2661 7.07349H34.2644V9.89135H35.2876ZM37.8976 7.52349H38.3958V10.3574H37.8976V7.52349ZM38.144 6.39314C38.2333 6.39314 38.3065 6.42349 38.3637 6.48421C38.4244 6.54492 38.4547 6.62171 38.4547 6.71456C38.4547 6.80742 38.4244 6.88421 38.3637 6.94492C38.3065 7.00564 38.2333 7.03599 38.144 7.03599C38.0547 7.03599 37.9797 7.00564 37.919 6.94492C37.8619 6.88421 37.8333 6.80742 37.8333 6.71456C37.8333 6.62171 37.8619 6.54492 37.919 6.48421C37.9797 6.42349 38.0547 6.39314 38.144 6.39314ZM40.9159 8.15028C40.798 8.07885 40.6677 8.02171 40.5248 7.97885C40.3855 7.93599 40.2516 7.91456 40.123 7.91456C39.973 7.91456 39.8516 7.94314 39.7587 8.00028C39.6694 8.05385 39.6248 8.13778 39.6248 8.25206C39.6248 8.36635 39.6748 8.45385 39.7748 8.51456C39.8784 8.57171 40.0337 8.63064 40.2409 8.69135C40.4373 8.74849 40.598 8.80564 40.723 8.86278C40.848 8.91992 40.9534 9.00385 41.0391 9.11456C41.1284 9.22528 41.173 9.37171 41.173 9.55385C41.173 9.82171 41.0712 10.0253 40.8677 10.1646C40.6677 10.3039 40.4177 10.3735 40.1177 10.3735C39.9069 10.3735 39.7016 10.3396 39.5016 10.2717C39.3052 10.2039 39.1391 10.1074 39.0034 9.98242L39.1909 9.61814C39.3087 9.72528 39.4534 9.81099 39.6248 9.87528C39.7998 9.93956 39.9694 9.97171 40.1337 9.97171C40.298 9.97171 40.4302 9.94135 40.5302 9.88064C40.6302 9.81992 40.6802 9.72706 40.6802 9.60206C40.6802 9.47349 40.6266 9.37706 40.5194 9.31278C40.4159 9.24849 40.2569 9.18421 40.0427 9.11992C39.8534 9.06635 39.698 9.01278 39.5766 8.95921C39.4587 8.90206 39.3569 8.81992 39.2712 8.71278C39.1891 8.60564 39.148 8.46635 39.148 8.29492C39.148 8.03064 39.2444 7.83242 39.4373 7.70028C39.6302 7.56814 39.8712 7.50206 40.1605 7.50206C40.3319 7.50206 40.4998 7.52706 40.6641 7.57706C40.8319 7.62349 40.9766 7.68778 41.098 7.76992L40.9159 8.15028ZM43.4067 7.50742C43.671 7.50742 43.9067 7.56814 44.1139 7.68956C44.321 7.81099 44.4817 7.98064 44.596 8.19849C44.7103 8.41635 44.7675 8.66635 44.7675 8.94849C44.7675 9.22706 44.7103 9.47528 44.596 9.69314C44.4853 9.90742 44.3264 10.0753 44.1192 10.1967C43.9157 10.3146 43.6817 10.3735 43.4175 10.3735C43.1782 10.3735 42.9675 10.3235 42.7853 10.2235C42.6032 10.1235 42.4603 9.98064 42.3567 9.79492V11.3967H41.8585V7.52349H42.3567V8.08599C42.4603 7.90028 42.6014 7.75742 42.78 7.65742C42.9621 7.55742 43.171 7.50742 43.4067 7.50742ZM43.3103 9.93956C43.4925 9.93956 43.655 9.89671 43.7978 9.81099C43.9442 9.72528 44.0567 9.60564 44.1353 9.45206C44.2175 9.29849 44.2585 9.12528 44.2585 8.93242C44.2585 8.74314 44.2175 8.57171 44.1353 8.41814C44.0532 8.26456 43.9407 8.14492 43.7978 8.05921C43.655 7.97349 43.4925 7.93064 43.3103 7.93064C43.1282 7.93064 42.9639 7.97349 42.8175 8.05921C42.6746 8.14492 42.5621 8.26456 42.48 8.41814C42.3978 8.57171 42.3567 8.74314 42.3567 8.93242C42.3567 9.12885 42.3978 9.30385 42.48 9.45742C42.5621 9.60742 42.6746 9.72528 42.8175 9.81099C42.9639 9.89671 43.1282 9.93956 43.3103 9.93956ZM46.641 7.50742C46.9232 7.50742 47.1732 7.56814 47.391 7.68956C47.6125 7.81099 47.7839 7.98064 47.9053 8.19849C48.0303 8.41278 48.0928 8.65921 48.0928 8.93778C48.0928 9.21635 48.0303 9.46456 47.9053 9.68242C47.7839 9.90028 47.6125 10.0699 47.391 10.1914C47.1732 10.3128 46.9232 10.3735 46.641 10.3735C46.3553 10.3735 46.1017 10.3128 45.8803 10.1914C45.6625 10.0699 45.491 9.90206 45.366 9.68778C45.2446 9.46992 45.1839 9.21992 45.1839 8.93778C45.1839 8.65921 45.2446 8.41278 45.366 8.19849C45.491 7.98064 45.6625 7.81099 45.8803 7.68956C46.1017 7.56814 46.3553 7.50742 46.641 7.50742ZM46.641 7.94135C46.4553 7.94135 46.2892 7.98421 46.1428 8.06992C46 8.15564 45.8875 8.27528 45.8053 8.42885C45.7267 8.57885 45.6875 8.75028 45.6875 8.94314C45.6875 9.13956 45.7267 9.31456 45.8053 9.46814C45.8875 9.62171 46 9.74135 46.1428 9.82706C46.2892 9.90921 46.4553 9.95028 46.641 9.95028C46.8232 9.95028 46.9857 9.90921 47.1285 9.82706C47.275 9.74135 47.3875 9.62171 47.466 9.46814C47.5482 9.31456 47.5892 9.13956 47.5892 8.94314C47.5892 8.75028 47.5482 8.57885 47.466 8.42885C47.3875 8.27528 47.275 8.15564 47.1285 8.06992C46.9857 7.98421 46.8232 7.94135 46.641 7.94135ZM50.3647 7.50742C50.6969 7.50742 50.9576 7.60564 51.1469 7.80206C51.3362 7.99492 51.4308 8.26278 51.4308 8.60564V10.3574H50.9326V8.73956C50.9326 8.50028 50.8647 8.31456 50.729 8.18242C50.5969 8.04671 50.413 7.97885 50.1772 7.97885C49.9237 7.98242 49.7165 8.06456 49.5558 8.22528C49.3987 8.38242 49.3094 8.58778 49.288 8.84135V10.3574H48.7897V7.52349H49.288V8.12349C49.4772 7.71992 49.8362 7.51456 50.3647 7.50742ZM52.3211 7.52349H52.8193V10.3574H52.3211V7.52349ZM52.5675 6.39314C52.6568 6.39314 52.73 6.42349 52.7871 6.48421C52.8479 6.54492 52.8782 6.62171 52.8782 6.71456C52.8782 6.80742 52.8479 6.88421 52.7871 6.94492C52.73 7.00564 52.6568 7.03599 52.5675 7.03599C52.4782 7.03599 52.4032 7.00564 52.3425 6.94492C52.2854 6.88421 52.2568 6.80742 52.2568 6.71456C52.2568 6.62171 52.2854 6.54492 52.3425 6.48421C52.4032 6.42349 52.4782 6.39314 52.5675 6.39314ZM55.3661 7.50742C55.6304 7.50742 55.8661 7.56814 56.0733 7.68956C56.2804 7.81099 56.4411 7.98064 56.5554 8.19849C56.6697 8.41635 56.7269 8.66635 56.7269 8.94849C56.7269 9.22706 56.6697 9.47528 56.5554 9.69314C56.4447 9.90742 56.2858 10.0753 56.0786 10.1967C55.8751 10.3146 55.6411 10.3735 55.3769 10.3735C55.1376 10.3735 54.9269 10.3235 54.7447 10.2235C54.5626 10.1235 54.4197 9.98064 54.3161 9.79492V10.3574H53.8179V6.38242H54.3161V8.08599C54.4197 7.90028 54.5608 7.75742 54.7394 7.65742C54.9215 7.55742 55.1304 7.50742 55.3661 7.50742ZM55.2697 9.93956C55.4519 9.93956 55.6144 9.89671 55.7572 9.81099C55.9036 9.72528 56.0161 9.60564 56.0947 9.45206C56.1769 9.29849 56.2179 9.12528 56.2179 8.93242C56.2179 8.74314 56.1769 8.57171 56.0947 8.41814C56.0126 8.26456 55.9001 8.14492 55.7572 8.05921C55.6144 7.97349 55.4519 7.93064 55.2697 7.93064C55.0876 7.93064 54.9233 7.97349 54.7769 8.05921C54.634 8.14492 54.5215 8.26456 54.4394 8.41814C54.3572 8.57171 54.3161 8.74314 54.3161 8.93242C54.3161 9.12885 54.3572 9.30385 54.4394 9.45742C54.5215 9.60742 54.634 9.72528 54.7769 9.81099C54.9233 9.89671 55.0876 9.93956 55.2697 9.93956ZM57.4486 6.38242H57.9469V10.3574H57.4486V6.38242ZM60.0852 7.50742C60.5245 7.50742 60.8566 7.63778 61.0816 7.89849C61.3066 8.15564 61.4191 8.51456 61.4191 8.97528C61.4191 9.04671 61.4173 9.10028 61.4138 9.13599H59.1745C59.2138 9.38956 59.3191 9.59135 59.4906 9.74135C59.6656 9.89135 59.8798 9.96635 60.1334 9.96635C60.3013 9.96635 60.4566 9.93599 60.5995 9.87528C60.7459 9.81456 60.8727 9.72885 60.9798 9.61814L61.2531 9.90206C61.1138 10.0521 60.9459 10.1681 60.7495 10.2503C60.5531 10.3324 60.3352 10.3735 60.0959 10.3735C59.8173 10.3735 59.5691 10.3146 59.3513 10.1967C59.137 10.0753 58.9691 9.90564 58.8477 9.68778C58.7298 9.46992 58.6709 9.22171 58.6709 8.94314C58.6709 8.66456 58.7298 8.41814 58.8477 8.20385C58.9691 7.98599 59.137 7.81635 59.3513 7.69492C59.5656 7.56992 59.8102 7.50742 60.0852 7.50742ZM60.9691 8.75028C60.9548 8.49314 60.8691 8.29135 60.712 8.14492C60.5548 7.99492 60.3477 7.91992 60.0906 7.91992C59.8406 7.91992 59.6316 7.99492 59.4638 8.14492C59.2995 8.29492 59.2013 8.49671 59.1691 8.75028H60.9691ZM65.076 7.50742C65.3402 7.50742 65.576 7.56814 65.7831 7.68956C65.9902 7.81099 66.151 7.98064 66.2652 8.19849C66.3795 8.41635 66.4367 8.66635 66.4367 8.94849C66.4367 9.22706 66.3795 9.47528 66.2652 9.69314C66.1545 9.90742 65.9956 10.0753 65.7885 10.1967C65.5849 10.3146 65.351 10.3735 65.0867 10.3735C64.8474 10.3735 64.6367 10.3235 64.4545 10.2235C64.2724 10.1235 64.1295 9.98064 64.026 9.79492V11.3967H63.5277V7.52349H64.026V8.08599C64.1295 7.90028 64.2706 7.75742 64.4492 7.65742C64.6313 7.55742 64.8402 7.50742 65.076 7.50742ZM64.9795 9.93956C65.1617 9.93956 65.3242 9.89671 65.467 9.81099C65.6135 9.72528 65.726 9.60564 65.8045 9.45206C65.8867 9.29849 65.9277 9.12528 65.9277 8.93242C65.9277 8.74314 65.8867 8.57171 65.8045 8.41814C65.7224 8.26456 65.6099 8.14492 65.467 8.05921C65.3242 7.97349 65.1617 7.93064 64.9795 7.93064C64.7974 7.93064 64.6331 7.97349 64.4867 8.05921C64.3438 8.14492 64.2313 8.26456 64.1492 8.41814C64.067 8.57171 64.026 8.74314 64.026 8.93242C64.026 9.12885 64.067 9.30385 64.1492 9.45742C64.2313 9.60742 64.3438 9.72528 64.4867 9.81099C64.6331 9.89671 64.7974 9.93956 64.9795 9.93956ZM68.862 10.3574V9.96099C68.6513 10.2396 68.321 10.3789 67.871 10.3789C67.6745 10.3789 67.5013 10.3414 67.3513 10.2664C67.2049 10.1914 67.0906 10.0878 67.0085 9.95564C66.9299 9.82349 66.8906 9.67528 66.8906 9.51099C66.8906 9.25742 66.9835 9.05742 67.1692 8.91099C67.3585 8.76099 67.621 8.68421 67.9567 8.68064H68.8567V8.54671C68.8567 8.34671 68.7942 8.19314 68.6692 8.08599C68.5478 7.97528 68.3692 7.91992 68.1335 7.91992C67.8478 7.91992 67.5567 8.02171 67.2603 8.22528L67.0513 7.88242C67.2549 7.75028 67.4424 7.65564 67.6138 7.59849C67.7888 7.53778 67.996 7.50742 68.2353 7.50742C68.5888 7.50742 68.862 7.59492 69.0549 7.76992C69.2478 7.94135 69.346 8.18242 69.3495 8.49314L69.3549 10.3574H68.862ZM67.9728 9.96635C68.2049 9.96635 68.4013 9.91099 68.562 9.80028C68.7263 9.68599 68.8245 9.53599 68.8567 9.35028V9.06635H68.0263C67.8013 9.06635 67.6335 9.10028 67.5228 9.16814C67.4156 9.23599 67.362 9.34314 67.362 9.48956C67.362 9.63599 67.4174 9.75206 67.5281 9.83778C67.6388 9.92349 67.787 9.96635 67.9728 9.96635ZM70.7427 8.13421C70.8355 7.93064 70.9677 7.77706 71.1391 7.67349C71.3105 7.56635 71.5141 7.51099 71.7498 7.50742V7.98956C71.4605 7.97885 71.2266 8.05385 71.048 8.21456C70.8695 8.37528 70.7677 8.59135 70.7427 8.86278V10.3574H70.2445V7.52349H70.7427V8.13421ZM73.8948 10.3574V9.96099C73.6841 10.2396 73.3537 10.3789 72.9037 10.3789C72.7073 10.3789 72.5341 10.3414 72.3841 10.2664C72.2377 10.1914 72.1234 10.0878 72.0412 9.95564C71.9627 9.82349 71.9234 9.67528 71.9234 9.51099C71.9234 9.25742 72.0162 9.05742 72.202 8.91099C72.3912 8.76099 72.6537 8.68421 72.9895 8.68064H73.8895V8.54671C73.8895 8.34671 73.827 8.19314 73.702 8.08599C73.5805 7.97528 73.402 7.91992 73.1662 7.91992C72.8805 7.91992 72.5895 8.02171 72.293 8.22528L72.0841 7.88242C72.2877 7.75028 72.4752 7.65564 72.6466 7.59849C72.8216 7.53778 73.0287 7.50742 73.268 7.50742C73.6216 7.50742 73.8948 7.59492 74.0877 7.76992C74.2805 7.94135 74.3787 8.18242 74.3823 8.49314L74.3877 10.3574H73.8948ZM73.0055 9.96635C73.2377 9.96635 73.4341 9.91099 73.5948 9.80028C73.7591 9.68599 73.8573 9.53599 73.8895 9.35028V9.06635H73.0591C72.8341 9.06635 72.6662 9.10028 72.5555 9.16814C72.4484 9.23599 72.3948 9.34314 72.3948 9.48956C72.3948 9.63599 72.4502 9.75206 72.5609 9.83778C72.6716 9.92349 72.8198 9.96635 73.0055 9.96635Z" fill="white"/>
<path d="M39.4715 19.1931H40.3822V21.9467C40.0036 22.2467 39.5608 22.486 39.0536 22.6646C38.5465 22.8431 38.0429 22.9324 37.5429 22.9324C36.8215 22.9324 36.1608 22.7646 35.5608 22.4289C34.9608 22.086 34.4858 21.6217 34.1358 21.036C33.7929 20.4431 33.6215 19.7967 33.6215 19.0967C33.6215 18.3967 33.7965 17.7574 34.1465 17.1789C34.4965 16.5931 34.9751 16.1324 35.5822 15.7967C36.1894 15.461 36.8608 15.2931 37.5965 15.2931C38.1179 15.2931 38.6251 15.386 39.1179 15.5717C39.6179 15.7574 40.0501 16.011 40.4144 16.3324L39.8251 17.0824C39.5251 16.8039 39.1786 16.5896 38.7858 16.4396C38.4001 16.2824 38.0036 16.2039 37.5965 16.2039C37.0608 16.2039 36.5679 16.3324 36.1179 16.5896C35.6679 16.8467 35.3108 17.1967 35.0465 17.6396C34.7894 18.0824 34.6608 18.5681 34.6608 19.0967C34.6608 19.6253 34.7929 20.1146 35.0572 20.5646C35.3215 21.0074 35.6786 21.361 36.1286 21.6253C36.5786 21.8824 37.0715 22.011 37.6072 22.011C37.9215 22.011 38.2394 21.961 38.5608 21.861C38.8894 21.7539 39.1929 21.6074 39.4715 21.4217V19.1931ZM44.5927 17.1574C45.157 17.1574 45.657 17.2789 46.0927 17.5217C46.5355 17.7646 46.8784 18.1039 47.1212 18.5396C47.3712 18.9681 47.4962 19.461 47.4962 20.0181C47.4962 20.5753 47.3712 21.0717 47.1212 21.5074C46.8784 21.9431 46.5355 22.2824 46.0927 22.5253C45.657 22.7681 45.157 22.8896 44.5927 22.8896C44.0212 22.8896 43.5141 22.7681 43.0712 22.5253C42.6355 22.2824 42.2927 21.9467 42.0427 21.5181C41.7998 21.0824 41.6784 20.5824 41.6784 20.0181C41.6784 19.461 41.7998 18.9681 42.0427 18.5396C42.2927 18.1039 42.6355 17.7646 43.0712 17.5217C43.5141 17.2789 44.0212 17.1574 44.5927 17.1574ZM44.5927 18.0253C44.2212 18.0253 43.8891 18.111 43.5962 18.2824C43.3105 18.4539 43.0855 18.6931 42.9212 19.0003C42.7641 19.3003 42.6855 19.6431 42.6855 20.0289C42.6855 20.4217 42.7641 20.7717 42.9212 21.0789C43.0855 21.386 43.3105 21.6253 43.5962 21.7967C43.8891 21.961 44.2212 22.0431 44.5927 22.0431C44.957 22.0431 45.282 21.961 45.5677 21.7967C45.8605 21.6253 46.0855 21.386 46.2427 21.0789C46.407 20.7717 46.4891 20.4217 46.4891 20.0289C46.4891 19.6431 46.407 19.3003 46.2427 19.0003C46.0855 18.6931 45.8605 18.4539 45.5677 18.2824C45.282 18.111 44.957 18.0253 44.5927 18.0253ZM51.2473 17.1574C51.8115 17.1574 52.3115 17.2789 52.7473 17.5217C53.1901 17.7646 53.533 18.1039 53.7758 18.5396C54.0258 18.9681 54.1508 19.461 54.1508 20.0181C54.1508 20.5753 54.0258 21.0717 53.7758 21.5074C53.533 21.9431 53.1901 22.2824 52.7473 22.5253C52.3115 22.7681 51.8115 22.8896 51.2473 22.8896C50.6758 22.8896 50.1687 22.7681 49.7258 22.5253C49.2901 22.2824 48.9473 21.9467 48.6973 21.5181C48.4544 21.0824 48.333 20.5824 48.333 20.0181C48.333 19.461 48.4544 18.9681 48.6973 18.5396C48.9473 18.1039 49.2901 17.7646 49.7258 17.5217C50.1687 17.2789 50.6758 17.1574 51.2473 17.1574ZM51.2473 18.0253C50.8758 18.0253 50.5437 18.111 50.2508 18.2824C49.9651 18.4539 49.7401 18.6931 49.5758 19.0003C49.4187 19.3003 49.3401 19.6431 49.3401 20.0289C49.3401 20.4217 49.4187 20.7717 49.5758 21.0789C49.7401 21.386 49.9651 21.6253 50.2508 21.7967C50.5437 21.961 50.8758 22.0431 51.2473 22.0431C51.6115 22.0431 51.9365 21.961 52.2223 21.7967C52.5151 21.6253 52.7401 21.386 52.8973 21.0789C53.0615 20.7717 53.1437 20.4217 53.1437 20.0289C53.1437 19.6431 53.0615 19.3003 52.8973 19.0003C52.7401 18.6931 52.5151 18.4539 52.2223 18.2824C51.9365 18.111 51.6115 18.0253 51.2473 18.0253ZM60.559 17.1896V22.2789C60.559 22.8217 60.4375 23.2967 60.1947 23.7039C59.959 24.111 59.6233 24.4217 59.1875 24.636C58.7518 24.8574 58.2447 24.9681 57.6661 24.9681C56.8304 24.9681 56.0518 24.7039 55.3304 24.1753L55.7697 23.4467C56.0483 23.6753 56.3375 23.8431 56.6375 23.9503C56.9375 24.0646 57.2661 24.1217 57.6233 24.1217C58.209 24.1217 58.6768 23.9574 59.0268 23.6289C59.3768 23.3003 59.5518 22.861 59.5518 22.311V21.5181C59.3518 21.861 59.0804 22.1289 58.7375 22.3217C58.3947 22.5074 58.0018 22.6003 57.559 22.6003C57.0518 22.6003 56.6018 22.486 56.209 22.2574C55.8233 22.0217 55.5233 21.6967 55.309 21.2824C55.0947 20.8681 54.9875 20.3931 54.9875 19.8574C54.9875 19.3289 55.0947 18.861 55.309 18.4539C55.5233 18.0467 55.8233 17.7289 56.209 17.5003C56.6018 17.2717 57.0518 17.1574 57.559 17.1574C58.009 17.1574 58.4018 17.2503 58.7375 17.436C59.0804 17.6217 59.3518 17.886 59.5518 18.2289V17.1896H60.559ZM57.7518 21.7967C58.1018 21.7967 58.4125 21.7146 58.684 21.5503C58.9554 21.386 59.1661 21.161 59.3161 20.8753C59.4733 20.5824 59.5518 20.2539 59.5518 19.8896C59.5518 19.5181 59.4733 19.1896 59.3161 18.9039C59.1661 18.611 58.9554 18.3824 58.684 18.2181C58.4125 18.0539 58.1018 17.9717 57.7518 17.9717C57.4018 17.9717 57.0875 18.0539 56.809 18.2181C56.5375 18.3824 56.3233 18.611 56.1661 18.9039C56.009 19.1896 55.9304 19.5181 55.9304 19.8896C55.9375 20.4467 56.109 20.9039 56.4447 21.261C56.7804 21.6181 57.2161 21.7967 57.7518 21.7967ZM62.4307 14.9074H63.4271V22.8574H62.4307V14.9074ZM67.7038 17.1574C68.5824 17.1574 69.2467 17.4181 69.6967 17.9396C70.1467 18.4539 70.3717 19.1717 70.3717 20.0931C70.3717 20.236 70.3681 20.3431 70.3609 20.4146H65.8824C65.9609 20.9217 66.1717 21.3253 66.5145 21.6253C66.8645 21.9253 67.2931 22.0753 67.8002 22.0753C68.1359 22.0753 68.4467 22.0146 68.7324 21.8931C69.0252 21.7717 69.2788 21.6003 69.4931 21.3789L70.0395 21.9467C69.7609 22.2467 69.4252 22.4789 69.0324 22.6431C68.6395 22.8074 68.2038 22.8896 67.7252 22.8896C67.1681 22.8896 66.6717 22.7717 66.2359 22.536C65.8074 22.2931 65.4717 21.9539 65.2288 21.5181C64.9931 21.0824 64.8752 20.586 64.8752 20.0289C64.8752 19.4717 64.9931 18.9789 65.2288 18.5503C65.4717 18.1146 65.8074 17.7753 66.2359 17.5324C66.6645 17.2824 67.1538 17.1574 67.7038 17.1574ZM69.4717 19.6431C69.4431 19.1289 69.2717 18.7253 68.9574 18.4324C68.6431 18.1324 68.2288 17.9824 67.7145 17.9824C67.2145 17.9824 66.7967 18.1324 66.4609 18.4324C66.1324 18.7324 65.9359 19.136 65.8717 19.6431H69.4717ZM77.5246 15.3574C78.4603 15.3574 79.1818 15.5789 79.6889 16.0217C80.2032 16.4646 80.4603 17.086 80.4603 17.886C80.4603 18.7217 80.2032 19.3717 79.6889 19.836C79.1746 20.2931 78.4532 20.5217 77.5246 20.5217H75.6603V22.8574H74.6318V15.3574H77.5246ZM77.4818 19.5896C78.1246 19.5896 78.6175 19.4503 78.9603 19.1717C79.3032 18.886 79.4746 18.4681 79.4746 17.9181C79.4746 17.3824 79.3032 16.9789 78.9603 16.7074C78.6175 16.4289 78.1246 16.2896 77.4818 16.2896L75.6603 16.3003V19.5896H77.4818ZM81.7771 14.9074H82.7735V22.8574H81.7771V14.9074ZM88.2395 22.8574V22.0646C87.8181 22.6217 87.1573 22.9003 86.2573 22.9003C85.8645 22.9003 85.5181 22.8253 85.2181 22.6753C84.9252 22.5253 84.6966 22.3181 84.5323 22.0539C84.3752 21.7896 84.2966 21.4931 84.2966 21.1646C84.2966 20.6574 84.4823 20.2574 84.8538 19.9646C85.2323 19.6646 85.7573 19.511 86.4288 19.5039H88.2288V19.236C88.2288 18.836 88.1038 18.5289 87.8538 18.3146C87.6109 18.0931 87.2538 17.9824 86.7823 17.9824C86.2109 17.9824 85.6288 18.186 85.0359 18.5931L84.6181 17.9074C85.0252 17.6431 85.4002 17.4539 85.7431 17.3396C86.0931 17.2181 86.5073 17.1574 86.9859 17.1574C87.6931 17.1574 88.2395 17.3324 88.6252 17.6824C89.0109 18.0253 89.2073 18.5074 89.2145 19.1289L89.2252 22.8574H88.2395ZM86.4609 22.0753C86.9252 22.0753 87.3181 21.9646 87.6395 21.7431C87.9681 21.5146 88.1645 21.2146 88.2288 20.8431V20.2753H86.5681C86.1181 20.2753 85.7823 20.3431 85.5609 20.4789C85.3466 20.6146 85.2395 20.8289 85.2395 21.1217C85.2395 21.4146 85.3502 21.6467 85.5716 21.8181C85.7931 21.9896 86.0895 22.0753 86.4609 22.0753ZM92.7877 23.661C92.6091 24.0967 92.3698 24.4253 92.0698 24.6467C91.777 24.8681 91.4306 24.9789 91.0306 24.9789C90.7877 24.9789 90.5663 24.9431 90.3663 24.8717C90.1663 24.8003 89.9734 24.6896 89.7877 24.5396L90.2163 23.7574C90.4663 23.936 90.7198 24.0253 90.977 24.0253C91.4056 24.0253 91.727 23.7824 91.9413 23.2967L92.1556 22.7931L89.8091 17.1896H90.8591L92.6591 21.7324L94.3627 17.1896H95.3806L92.7877 23.661Z" fill="white"/>
<rect x="130.536" y="0.535714" width="105" height="28.9286" rx="14.4643" stroke="white" stroke-width="1.07143"/>
<path d="M170.277 6.25C170.641 6.25 170.97 6.33214 171.263 6.49643C171.559 6.65714 171.791 6.88036 171.959 7.16607C172.127 7.45179 172.211 7.77143 172.211 8.125C172.211 8.47857 172.125 8.79821 171.954 9.08393C171.786 9.36964 171.554 9.59464 171.257 9.75893C170.961 9.91964 170.629 10 170.261 10H168.75V6.25H170.277ZM170.288 9.53393C170.548 9.53393 170.784 9.47321 170.995 9.35179C171.209 9.23036 171.377 9.0625 171.498 8.84821C171.623 8.63393 171.686 8.39464 171.686 8.13036C171.686 7.8625 171.623 7.62143 171.498 7.40714C171.373 7.19286 171.202 7.025 170.984 6.90357C170.77 6.77857 170.53 6.71607 170.266 6.71607H169.264V9.53393H170.288ZM172.898 7.16607H173.396V10H172.898V7.16607ZM173.144 6.03571C173.233 6.03571 173.307 6.06607 173.364 6.12679C173.424 6.1875 173.455 6.26429 173.455 6.35714C173.455 6.45 173.424 6.52679 173.364 6.5875C173.307 6.64821 173.233 6.67857 173.144 6.67857C173.055 6.67857 172.98 6.64821 172.919 6.5875C172.862 6.52679 172.833 6.45 172.833 6.35714C172.833 6.26429 172.862 6.1875 172.919 6.12679C172.98 6.06607 173.055 6.03571 173.144 6.03571ZM175.916 7.79286C175.798 7.72143 175.668 7.66429 175.525 7.62143C175.386 7.57857 175.252 7.55714 175.123 7.55714C174.973 7.55714 174.852 7.58571 174.759 7.64286C174.669 7.69643 174.625 7.78036 174.625 7.89464C174.625 8.00893 174.675 8.09643 174.775 8.15714C174.878 8.21429 175.034 8.27321 175.241 8.33393C175.437 8.39107 175.598 8.44821 175.723 8.50536C175.848 8.5625 175.953 8.64643 176.039 8.75714C176.128 8.86786 176.173 9.01429 176.173 9.19643C176.173 9.46429 176.071 9.66786 175.868 9.80714C175.668 9.94643 175.418 10.0161 175.118 10.0161C174.907 10.0161 174.702 9.98214 174.502 9.91429C174.305 9.84643 174.139 9.75 174.003 9.625L174.191 9.26071C174.309 9.36786 174.453 9.45357 174.625 9.51786C174.8 9.58214 174.969 9.61429 175.134 9.61429C175.298 9.61429 175.43 9.58393 175.53 9.52321C175.63 9.4625 175.68 9.36964 175.68 9.24464C175.68 9.11607 175.627 9.01964 175.519 8.95536C175.416 8.89107 175.257 8.82679 175.043 8.7625C174.853 8.70893 174.698 8.65536 174.577 8.60179C174.459 8.54464 174.357 8.4625 174.271 8.35536C174.189 8.24821 174.148 8.10893 174.148 7.9375C174.148 7.67321 174.244 7.475 174.437 7.34286C174.63 7.21071 174.871 7.14464 175.161 7.14464C175.332 7.14464 175.5 7.16964 175.664 7.21964C175.832 7.26607 175.977 7.33036 176.098 7.4125L175.916 7.79286ZM178.407 7.15C178.671 7.15 178.907 7.21071 179.114 7.33214C179.321 7.45357 179.482 7.62321 179.596 7.84107C179.71 8.05893 179.767 8.30893 179.767 8.59107C179.767 8.86964 179.71 9.11786 179.596 9.33571C179.485 9.55 179.326 9.71786 179.119 9.83929C178.916 9.95714 178.682 10.0161 178.417 10.0161C178.178 10.0161 177.967 9.96607 177.785 9.86607C177.603 9.76607 177.46 9.62321 177.357 9.4375V11.0393H176.859V7.16607H177.357V7.72857C177.46 7.54286 177.601 7.4 177.78 7.3C177.962 7.2 178.171 7.15 178.407 7.15ZM178.31 9.58214C178.492 9.58214 178.655 9.53929 178.798 9.45357C178.944 9.36786 179.057 9.24821 179.135 9.09464C179.217 8.94107 179.259 8.76786 179.259 8.575C179.259 8.38571 179.217 8.21429 179.135 8.06071C179.053 7.90714 178.941 7.7875 178.798 7.70179C178.655 7.61607 178.492 7.57321 178.31 7.57321C178.128 7.57321 177.964 7.61607 177.817 7.70179C177.675 7.7875 177.562 7.90714 177.48 8.06071C177.398 8.21429 177.357 8.38571 177.357 8.575C177.357 8.77143 177.398 8.94643 177.48 9.1C177.562 9.25 177.675 9.36786 177.817 9.45357C177.964 9.53929 178.128 9.58214 178.31 9.58214ZM181.641 7.15C181.923 7.15 182.173 7.21071 182.391 7.33214C182.612 7.45357 182.784 7.62321 182.905 7.84107C183.03 8.05536 183.093 8.30179 183.093 8.58036C183.093 8.85893 183.03 9.10714 182.905 9.325C182.784 9.54286 182.612 9.7125 182.391 9.83393C182.173 9.95536 181.923 10.0161 181.641 10.0161C181.355 10.0161 181.102 9.95536 180.88 9.83393C180.662 9.7125 180.491 9.54464 180.366 9.33036C180.245 9.1125 180.184 8.8625 180.184 8.58036C180.184 8.30179 180.245 8.05536 180.366 7.84107C180.491 7.62321 180.662 7.45357 180.88 7.33214C181.102 7.21071 181.355 7.15 181.641 7.15ZM181.641 7.58393C181.455 7.58393 181.289 7.62679 181.143 7.7125C181 7.79821 180.887 7.91786 180.805 8.07143C180.727 8.22143 180.687 8.39286 180.687 8.58571C180.687 8.78214 180.727 8.95714 180.805 9.11071C180.887 9.26429 181 9.38393 181.143 9.46964C181.289 9.55179 181.455 9.59286 181.641 9.59286C181.823 9.59286 181.986 9.55179 182.129 9.46964C182.275 9.38393 182.387 9.26429 182.466 9.11071C182.548 8.95714 182.589 8.78214 182.589 8.58571C182.589 8.39286 182.548 8.22143 182.466 8.07143C182.387 7.91786 182.275 7.79821 182.129 7.7125C181.986 7.62679 181.823 7.58393 181.641 7.58393ZM185.365 7.15C185.697 7.15 185.958 7.24821 186.147 7.44464C186.336 7.6375 186.431 7.90536 186.431 8.24821V10H185.933V8.38214C185.933 8.14286 185.865 7.95714 185.729 7.825C185.597 7.68929 185.413 7.62143 185.177 7.62143C184.924 7.625 184.717 7.70714 184.556 7.86786C184.399 8.025 184.309 8.23036 184.288 8.48393V10H183.79V7.16607H184.288V7.76607C184.477 7.3625 184.836 7.15714 185.365 7.15ZM187.321 7.16607H187.819V10H187.321V7.16607ZM187.567 6.03571C187.657 6.03571 187.73 6.06607 187.787 6.12679C187.848 6.1875 187.878 6.26429 187.878 6.35714C187.878 6.45 187.848 6.52679 187.787 6.5875C187.73 6.64821 187.657 6.67857 187.567 6.67857C187.478 6.67857 187.403 6.64821 187.342 6.5875C187.285 6.52679 187.257 6.45 187.257 6.35714C187.257 6.26429 187.285 6.1875 187.342 6.12679C187.403 6.06607 187.478 6.03571 187.567 6.03571ZM190.366 7.15C190.63 7.15 190.866 7.21071 191.073 7.33214C191.28 7.45357 191.441 7.62321 191.555 7.84107C191.67 8.05893 191.727 8.30893 191.727 8.59107C191.727 8.86964 191.67 9.11786 191.555 9.33571C191.445 9.55 191.286 9.71786 191.079 9.83929C190.875 9.95714 190.641 10.0161 190.377 10.0161C190.138 10.0161 189.927 9.96607 189.745 9.86607C189.563 9.76607 189.42 9.62321 189.316 9.4375V10H188.818V6.025H189.316V7.72857C189.42 7.54286 189.561 7.4 189.739 7.3C189.921 7.2 190.13 7.15 190.366 7.15ZM190.27 9.58214C190.452 9.58214 190.614 9.53929 190.757 9.45357C190.904 9.36786 191.016 9.24821 191.095 9.09464C191.177 8.94107 191.218 8.76786 191.218 8.575C191.218 8.38571 191.177 8.21429 191.095 8.06071C191.013 7.90714 190.9 7.7875 190.757 7.70179C190.614 7.61607 190.452 7.57321 190.27 7.57321C190.088 7.57321 189.923 7.61607 189.777 7.70179C189.634 7.7875 189.521 7.90714 189.439 8.06071C189.357 8.21429 189.316 8.38571 189.316 8.575C189.316 8.77143 189.357 8.94643 189.439 9.1C189.521 9.25 189.634 9.36786 189.777 9.45357C189.923 9.53929 190.088 9.58214 190.27 9.58214ZM192.449 6.025H192.947V10H192.449V6.025ZM195.085 7.15C195.524 7.15 195.857 7.28036 196.082 7.54107C196.307 7.79821 196.419 8.15714 196.419 8.61786C196.419 8.68929 196.417 8.74286 196.414 8.77857H194.174C194.214 9.03214 194.319 9.23393 194.491 9.38393C194.666 9.53393 194.88 9.60893 195.133 9.60893C195.301 9.60893 195.457 9.57857 195.599 9.51786C195.746 9.45714 195.873 9.37143 195.98 9.26071L196.253 9.54464C196.114 9.69464 195.946 9.81071 195.749 9.89286C195.553 9.975 195.335 10.0161 195.096 10.0161C194.817 10.0161 194.569 9.95714 194.351 9.83929C194.137 9.71786 193.969 9.54821 193.848 9.33036C193.73 9.1125 193.671 8.86429 193.671 8.58571C193.671 8.30714 193.73 8.06071 193.848 7.84643C193.969 7.62857 194.137 7.45893 194.351 7.3375C194.566 7.2125 194.81 7.15 195.085 7.15ZM195.969 8.39286C195.955 8.13571 195.869 7.93393 195.712 7.7875C195.555 7.6375 195.348 7.5625 195.091 7.5625C194.841 7.5625 194.632 7.6375 194.464 7.7875C194.299 7.9375 194.201 8.13929 194.169 8.39286H195.969ZM200.076 7.15C200.34 7.15 200.576 7.21071 200.783 7.33214C200.99 7.45357 201.151 7.62321 201.265 7.84107C201.38 8.05893 201.437 8.30893 201.437 8.59107C201.437 8.86964 201.38 9.11786 201.265 9.33571C201.155 9.55 200.996 9.71786 200.788 9.83929C200.585 9.95714 200.351 10.0161 200.087 10.0161C199.847 10.0161 199.637 9.96607 199.455 9.86607C199.272 9.76607 199.13 9.62321 199.026 9.4375V11.0393H198.528V7.16607H199.026V7.72857C199.13 7.54286 199.271 7.4 199.449 7.3C199.631 7.2 199.84 7.15 200.076 7.15ZM199.98 9.58214C200.162 9.58214 200.324 9.53929 200.467 9.45357C200.613 9.36786 200.726 9.24821 200.805 9.09464C200.887 8.94107 200.928 8.76786 200.928 8.575C200.928 8.38571 200.887 8.21429 200.805 8.06071C200.722 7.90714 200.61 7.7875 200.467 7.70179C200.324 7.61607 200.162 7.57321 199.98 7.57321C199.797 7.57321 199.633 7.61607 199.487 7.70179C199.344 7.7875 199.231 7.90714 199.149 8.06071C199.067 8.21429 199.026 8.38571 199.026 8.575C199.026 8.77143 199.067 8.94643 199.149 9.1C199.231 9.25 199.344 9.36786 199.487 9.45357C199.633 9.53929 199.797 9.58214 199.98 9.58214ZM203.862 10V9.60357C203.651 9.88214 203.321 10.0214 202.871 10.0214C202.675 10.0214 202.501 9.98393 202.351 9.90893C202.205 9.83393 202.091 9.73036 202.008 9.59821C201.93 9.46607 201.891 9.31786 201.891 9.15357C201.891 8.9 201.983 8.7 202.169 8.55357C202.358 8.40357 202.621 8.32679 202.957 8.32321H203.857V8.18929C203.857 7.98929 203.794 7.83571 203.669 7.72857C203.548 7.61786 203.369 7.5625 203.133 7.5625C202.848 7.5625 202.557 7.66429 202.26 7.86786L202.051 7.525C202.255 7.39286 202.442 7.29821 202.614 7.24107C202.789 7.18036 202.996 7.15 203.235 7.15C203.589 7.15 203.862 7.2375 204.055 7.4125C204.248 7.58393 204.346 7.825 204.35 8.13571L204.355 10H203.862ZM202.973 9.60893C203.205 9.60893 203.401 9.55357 203.562 9.44286C203.726 9.32857 203.825 9.17857 203.857 8.99286V8.70893H203.026C202.801 8.70893 202.633 8.74286 202.523 8.81071C202.416 8.87857 202.362 8.98571 202.362 9.13214C202.362 9.27857 202.417 9.39464 202.528 9.48036C202.639 9.56607 202.787 9.60893 202.973 9.60893ZM205.743 7.77679C205.836 7.57321 205.968 7.41964 206.139 7.31607C206.311 7.20893 206.514 7.15357 206.75 7.15V7.63214C206.461 7.62143 206.227 7.69643 206.048 7.85714C205.869 8.01786 205.768 8.23393 205.743 8.50536V10H205.244V7.16607H205.743V7.77679ZM208.895 10V9.60357C208.684 9.88214 208.354 10.0214 207.904 10.0214C207.707 10.0214 207.534 9.98393 207.384 9.90893C207.238 9.83393 207.123 9.73036 207.041 9.59821C206.963 9.46607 206.923 9.31786 206.923 9.15357C206.923 8.9 207.016 8.7 207.202 8.55357C207.391 8.40357 207.654 8.32679 207.989 8.32321H208.889V8.18929C208.889 7.98929 208.827 7.83571 208.702 7.72857C208.581 7.61786 208.402 7.5625 208.166 7.5625C207.881 7.5625 207.589 7.66429 207.293 7.86786L207.084 7.525C207.288 7.39286 207.475 7.29821 207.647 7.24107C207.822 7.18036 208.029 7.15 208.268 7.15C208.622 7.15 208.895 7.2375 209.088 7.4125C209.281 7.58393 209.379 7.825 209.382 8.13571L209.388 10H208.895ZM208.006 9.60893C208.238 9.60893 208.434 9.55357 208.595 9.44286C208.759 9.32857 208.857 9.17857 208.889 8.99286V8.70893H208.059C207.834 8.70893 207.666 8.74286 207.556 8.81071C207.448 8.87857 207.395 8.98571 207.395 9.13214C207.395 9.27857 207.45 9.39464 207.561 9.48036C207.672 9.56607 207.82 9.60893 208.006 9.60893Z" fill="white"/>
<path d="M174.2 22.6426L173.46 20.9426H169.77L169.04 22.6426H168.03L171.14 15.6426H172.14L175.24 22.6426H174.2ZM170.15 20.0726H173.09L171.61 16.6726L170.15 20.0726ZM179.106 17.3226C179.599 17.3226 180.039 17.4359 180.426 17.6626C180.813 17.8892 181.113 18.2059 181.326 18.6126C181.539 19.0192 181.646 19.4859 181.646 20.0126C181.646 20.5326 181.539 20.9959 181.326 21.4026C181.119 21.8026 180.823 22.1159 180.436 22.3426C180.056 22.5626 179.619 22.6726 179.126 22.6726C178.679 22.6726 178.286 22.5792 177.946 22.3926C177.606 22.2059 177.339 21.9392 177.146 21.5926V24.5826H176.216V17.3526H177.146V18.4026C177.339 18.0559 177.603 17.7892 177.936 17.6026C178.276 17.4159 178.666 17.3226 179.106 17.3226ZM178.926 21.8626C179.266 21.8626 179.569 21.7826 179.836 21.6226C180.109 21.4626 180.319 21.2392 180.466 20.9526C180.619 20.6659 180.696 20.3426 180.696 19.9826C180.696 19.6292 180.619 19.3092 180.466 19.0226C180.313 18.7359 180.103 18.5126 179.836 18.3526C179.569 18.1926 179.266 18.1126 178.926 18.1126C178.586 18.1126 178.279 18.1926 178.006 18.3526C177.739 18.5126 177.529 18.7359 177.376 19.0226C177.223 19.3092 177.146 19.6292 177.146 19.9826C177.146 20.3492 177.223 20.6759 177.376 20.9626C177.529 21.2426 177.739 21.4626 178.006 21.6226C178.279 21.7826 178.586 21.8626 178.926 21.8626ZM185.883 17.3226C186.377 17.3226 186.817 17.4359 187.203 17.6626C187.59 17.8892 187.89 18.2059 188.103 18.6126C188.317 19.0192 188.423 19.4859 188.423 20.0126C188.423 20.5326 188.317 20.9959 188.103 21.4026C187.897 21.8026 187.6 22.1159 187.213 22.3426C186.833 22.5626 186.397 22.6726 185.903 22.6726C185.457 22.6726 185.063 22.5792 184.723 22.3926C184.383 22.2059 184.117 21.9392 183.923 21.5926V24.5826H182.993V17.3526H183.923V18.4026C184.117 18.0559 184.38 17.7892 184.713 17.6026C185.053 17.4159 185.443 17.3226 185.883 17.3226ZM185.703 21.8626C186.043 21.8626 186.347 21.7826 186.613 21.6226C186.887 21.4626 187.097 21.2392 187.243 20.9526C187.397 20.6659 187.473 20.3426 187.473 19.9826C187.473 19.6292 187.397 19.3092 187.243 19.0226C187.09 18.7359 186.88 18.5126 186.613 18.3526C186.347 18.1926 186.043 18.1126 185.703 18.1126C185.363 18.1126 185.057 18.1926 184.783 18.3526C184.517 18.5126 184.307 18.7359 184.153 19.0226C184 19.3092 183.923 19.6292 183.923 19.9826C183.923 20.3492 184 20.6759 184.153 20.9626C184.307 21.2426 184.517 21.4626 184.783 21.6226C185.057 21.7826 185.363 21.8626 185.703 21.8626ZM196.518 17.1026C196.191 16.8959 195.851 16.7426 195.498 16.6426C195.151 16.5359 194.831 16.4826 194.538 16.4826C194.131 16.4826 193.804 16.5626 193.558 16.7226C193.318 16.8759 193.198 17.0892 193.198 17.3626C193.198 17.6092 193.271 17.8126 193.418 17.9726C193.564 18.1259 193.744 18.2492 193.958 18.3426C194.171 18.4292 194.468 18.5326 194.848 18.6526C195.321 18.7992 195.704 18.9392 195.998 19.0726C196.291 19.2059 196.541 19.4059 196.748 19.6726C196.954 19.9326 197.058 20.2792 197.058 20.7126C197.058 21.1126 196.948 21.4626 196.728 21.7626C196.514 22.0626 196.211 22.2959 195.818 22.4626C195.431 22.6226 194.984 22.7026 194.478 22.7026C193.964 22.7026 193.464 22.6026 192.978 22.4026C192.491 22.2026 192.071 21.9359 191.718 21.6026L192.148 20.7726C192.481 21.0992 192.854 21.3526 193.268 21.5326C193.688 21.7059 194.094 21.7926 194.488 21.7926C194.954 21.7926 195.321 21.7026 195.588 21.5226C195.861 21.3359 195.998 21.0859 195.998 20.7726C195.998 20.5259 195.924 20.3226 195.778 20.1626C195.631 20.0026 195.444 19.8759 195.218 19.7826C194.998 19.6892 194.698 19.5859 194.318 19.4726C193.851 19.3326 193.471 19.1959 193.178 19.0626C192.884 18.9292 192.634 18.7326 192.428 18.4726C192.228 18.2126 192.128 17.8692 192.128 17.4426C192.128 17.0692 192.231 16.7392 192.438 16.4526C192.644 16.1659 192.934 15.9459 193.308 15.7926C193.681 15.6392 194.114 15.5626 194.608 15.5626C195.028 15.5626 195.438 15.6259 195.838 15.7526C196.244 15.8726 196.604 16.0359 196.918 16.2426L196.518 17.1026ZM201.34 22.2926C200.933 22.5526 200.52 22.6826 200.1 22.6826C199.68 22.6826 199.34 22.5592 199.08 22.3126C198.82 22.0592 198.69 21.6792 198.69 21.1726V18.2426H197.94V17.5326H198.69V16.1126H199.63V17.5326H201.25V18.2426H199.63V21.0026C199.63 21.2959 199.683 21.5059 199.79 21.6326C199.897 21.7592 200.057 21.8226 200.27 21.8226C200.523 21.8226 200.797 21.7392 201.09 21.5726L201.34 22.2926ZM204.606 17.3226C205.133 17.3226 205.599 17.4359 206.006 17.6626C206.419 17.8892 206.739 18.2059 206.966 18.6126C207.199 19.0126 207.316 19.4726 207.316 19.9926C207.316 20.5126 207.199 20.9759 206.966 21.3826C206.739 21.7892 206.419 22.1059 206.006 22.3326C205.599 22.5592 205.133 22.6726 204.606 22.6726C204.073 22.6726 203.599 22.5592 203.186 22.3326C202.779 22.1059 202.459 21.7926 202.226 21.3926C201.999 20.9859 201.886 20.5192 201.886 19.9926C201.886 19.4726 201.999 19.0126 202.226 18.6126C202.459 18.2059 202.779 17.8892 203.186 17.6626C203.599 17.4359 204.073 17.3226 204.606 17.3226ZM204.606 18.1326C204.259 18.1326 203.949 18.2126 203.676 18.3726C203.409 18.5326 203.199 18.7559 203.046 19.0426C202.899 19.3226 202.826 19.6426 202.826 20.0026C202.826 20.3692 202.899 20.6959 203.046 20.9826C203.199 21.2692 203.409 21.4926 203.676 21.6526C203.949 21.8059 204.259 21.8826 204.606 21.8826C204.946 21.8826 205.249 21.8059 205.516 21.6526C205.789 21.4926 205.999 21.2692 206.146 20.9826C206.299 20.6959 206.376 20.3692 206.376 20.0026C206.376 19.6426 206.299 19.3226 206.146 19.0426C205.999 18.7559 205.789 18.5326 205.516 18.3726C205.249 18.2126 204.946 18.1326 204.606 18.1326ZM209.547 18.4926C209.72 18.1126 209.967 17.8259 210.287 17.6326C210.607 17.4326 210.987 17.3292 211.427 17.3226V18.2226C210.887 18.2026 210.45 18.3426 210.117 18.6426C209.784 18.9426 209.594 19.3459 209.547 19.8526V22.6426H208.617V17.3526H209.547V18.4926ZM214.555 17.3226C215.375 17.3226 215.995 17.5659 216.415 18.0526C216.835 18.5326 217.045 19.2026 217.045 20.0626C217.045 20.1959 217.042 20.2959 217.035 20.3626H212.855C212.929 20.8359 213.125 21.2126 213.445 21.4926C213.772 21.7726 214.172 21.9126 214.645 21.9126C214.959 21.9126 215.249 21.8559 215.515 21.7426C215.789 21.6292 216.025 21.4692 216.225 21.2626L216.735 21.7926C216.475 22.0726 216.162 22.2892 215.795 22.4426C215.429 22.5959 215.022 22.6726 214.575 22.6726C214.055 22.6726 213.592 22.5626 213.185 22.3426C212.785 22.1159 212.472 21.7992 212.245 21.3926C212.025 20.9859 211.915 20.5226 211.915 20.0026C211.915 19.4826 212.025 19.0226 212.245 18.6226C212.472 18.2159 212.785 17.8992 213.185 17.6726C213.585 17.4392 214.042 17.3226 214.555 17.3226ZM216.205 19.6426C216.179 19.1626 216.019 18.7859 215.725 18.5126C215.432 18.2326 215.045 18.0926 214.565 18.0926C214.099 18.0926 213.709 18.2326 213.395 18.5126C213.089 18.7926 212.905 19.1692 212.845 19.6426H216.205Z" fill="white"/>
<path d="M159.541 14.5124C159.532 13.0369 160.195 11.925 161.534 11.1051C160.785 10.0234 159.652 9.42843 158.159 9.31377C156.745 9.20128 155.197 10.1445 154.631 10.1445C154.032 10.1445 152.663 9.35272 151.586 9.35272C149.363 9.38733 147 11.1397 147 14.7049C147 15.7585 147.191 16.8467 147.573 17.9673C148.084 19.4427 149.925 23.0577 151.845 22.9993C152.85 22.9755 153.56 22.2811 154.867 22.2811C156.135 22.2811 156.792 22.9993 157.912 22.9993C159.85 22.9712 161.515 19.685 162 18.2053C159.401 16.97 159.541 14.5881 159.541 14.5124ZM157.285 7.91407C158.373 6.61172 158.275 5.42619 158.242 5C157.281 5.05625 156.17 5.65983 155.536 6.40187C154.839 7.19799 154.429 8.18233 154.517 9.29214C155.556 9.37219 156.504 8.8335 157.285 7.91407Z" fill="white"/>
</svg>
