<svg width="216" height="216" viewBox="0 0 216 216" fill="none" xmlns="http://www.w3.org/2000/svg">
<g filter="url(#filter0_d)">
<rect x="20" y="5" width="176" height="176" rx="28.8161" fill="#FDFDFD"/>
</g>
<path d="M97.9166 77.625C97.9166 76.2216 98.4741 74.8756 99.4665 73.8832C100.459 72.8908 101.805 72.3333 103.208 72.3333C104.612 72.3333 105.958 72.8908 106.95 73.8832C107.942 74.8756 108.5 76.2216 108.5 77.625V101.279L114.903 101.967L141.044 113.555C143.848 114.825 145.542 117.63 145.542 120.699V143.771C145.383 148.11 141.943 151.55 137.604 151.708H103.208C101.197 151.708 99.2924 150.915 97.9166 149.433L71.9874 127.208L75.9033 123.133C76.9087 122.022 78.3374 121.44 79.8191 121.44H80.9833L97.9166 130.542V77.625ZM103.208 56.4583C108.822 56.4583 114.206 58.6884 118.175 62.6579C122.145 66.6274 124.375 72.0112 124.375 77.625C124.375 85.5625 120.142 92.2829 113.792 95.9342V89.4783C117.02 86.5679 119.083 82.3346 119.083 77.625C119.083 73.4147 117.411 69.3768 114.434 66.3997C111.456 63.4225 107.419 61.75 103.208 61.75C98.9979 61.75 94.9601 63.4225 91.9829 66.3997C89.0058 69.3768 87.3333 73.4147 87.3333 77.625C87.3333 82.3346 89.397 86.5679 92.6249 89.4783V95.9342C86.2749 92.2829 82.0416 85.5625 82.0416 77.625C82.0416 72.0112 84.2716 66.6274 88.2412 62.6579C92.2107 58.6884 97.5945 56.4583 103.208 56.4583V56.4583ZM103.208 45.875C111.629 45.875 119.705 49.2201 125.659 55.1744C131.613 61.1286 134.958 69.2044 134.958 77.625C134.958 86.6208 131.201 94.7171 125.222 100.538L119.93 98.1567C122.971 95.6678 125.421 92.5352 127.105 88.9847C128.789 85.4343 129.664 81.5545 129.667 77.625C129.667 70.6078 126.879 63.878 121.917 58.9161C116.955 53.9542 110.225 51.1667 103.208 51.1667C96.1911 51.1667 89.4613 53.9542 84.4994 58.9161C79.5375 63.878 76.7499 70.6078 76.7499 77.625C76.7499 88.4729 83.2587 97.7862 92.6249 101.861V107.576C80.2953 103.184 71.4583 91.4362 71.4583 77.625C71.4583 69.2044 74.8033 61.1286 80.7576 55.1744C86.7119 49.2201 94.7876 45.875 103.208 45.875V45.875Z" fill="#045ECC"/>
<defs>
<filter id="filter0_d" x="0.493702" y="0.566751" width="215.013" height="215.013" filterUnits="userSpaceOnUse" color-interpolation-filters="sRGB">
<feFlood flood-opacity="0" result="BackgroundImageFix"/>
<feColorMatrix in="SourceAlpha" type="matrix" values="0 0 0 0 0 0 0 0 0 0 0 0 0 0 0 0 0 0 127 0"/>
<feOffset dy="15.073"/>
<feGaussianBlur stdDeviation="9.75315"/>
<feColorMatrix type="matrix" values="0 0 0 0 0 0 0 0 0 0 0 0 0 0 0 0 0 0 0.25 0"/>
<feBlend mode="normal" in2="BackgroundImageFix" result="effect1_dropShadow"/>
<feBlend mode="normal" in="SourceGraphic" in2="effect1_dropShadow" result="shape"/>
</filter>
</defs>
</svg>
