<svg width="216" height="216" viewBox="0 0 216 216" fill="none" xmlns="http://www.w3.org/2000/svg">
<g filter="url(#filter0_d)">
<rect x="20" y="5" width="176" height="176" rx="28.8161" fill="#FDFDFD"/>
</g>
<rect width="114" height="114" transform="translate(51 36)" fill="white"/>
<path d="M125.391 137.717C130.224 142.551 138.044 142.551 142.877 137.717C147.711 132.883 147.711 125.064 142.877 120.23L120.984 98.3364C120.202 97.5545 118.922 97.5545 118.211 98.3364L114.16 102.388C111.316 105.587 107.051 111.842 108.188 118.88C108.402 120.017 108.97 121.083 109.823 121.936L125.391 137.717Z" fill="#0000FF"/>
<path d="M77.903 91.5646C77.903 91.8489 77.903 92.2044 77.903 92.4887C77.903 92.702 77.903 92.9151 77.903 93.1284C77.903 93.1995 77.903 93.3417 77.903 93.4127C77.903 93.5549 77.903 93.626 77.903 93.6971C77.903 93.8393 77.9029 93.9814 77.974 94.1236C77.974 94.3368 78.0451 94.479 78.0451 94.6923C78.0451 94.9055 78.1161 95.1188 78.1872 95.3321L78.2584 95.5453C78.2584 95.6874 78.3294 95.8296 78.3294 95.9007C78.4005 96.1139 78.4005 96.3272 78.4716 96.5404C78.5427 96.7537 78.6138 96.967 78.6138 97.1092C78.6138 97.2513 78.6849 97.3223 78.6849 97.3934C78.7559 97.5356 78.7559 97.6778 78.827 97.82C78.9692 98.1754 79.1113 98.5308 79.2535 98.8151C79.9643 100.379 80.9596 101.73 82.168 102.938L92.6173 113.387C93.257 114.027 93.6125 114.88 93.6125 115.804V124.69C93.6125 132.438 87.5703 138.906 79.8222 139.12C71.7897 139.333 65.25 132.935 65.25 124.974V60.0033C65.25 52.042 71.7897 45.3601 79.68 45.5022C83.4475 45.5733 86.9306 47.1372 89.4185 49.6251C91.9775 52.1841 93.5414 55.7383 93.5414 59.6479V69.3153C93.5414 70.1683 93.1859 70.9503 92.6173 71.519L82.0968 82.0393C82.0257 82.1104 81.8836 82.2526 81.8126 82.3237C81.7415 82.3948 81.5993 82.537 81.5282 82.608C81.4571 82.7502 81.3149 82.8213 81.2439 82.8924C81.1728 82.9635 81.1017 83.1056 80.9595 83.1767C80.8884 83.2477 80.8174 83.3899 80.7463 83.461C80.6041 83.6032 80.5331 83.7454 80.3909 83.9586C80.2487 84.1719 80.1066 84.314 80.0355 84.5273C79.8933 84.8116 79.7511 85.0249 79.6089 85.2381C79.5378 85.3803 79.4668 85.4514 79.4668 85.5935C79.3246 85.8779 79.1824 86.0911 79.1113 86.3044C78.8981 86.7309 78.7559 87.0863 78.6849 87.5128C78.6138 87.655 78.6137 87.7972 78.5426 87.9393C78.5426 88.0104 78.5427 88.0104 78.4716 88.0815L78.2584 88.3658V88.7923C78.1873 89.2188 78.0451 89.6453 77.974 90.0718C77.974 90.1429 77.974 90.1429 77.974 90.214C77.974 90.3561 77.903 90.4984 77.903 90.7116V91.5646Z" fill="#0000FF"/>
<path d="M139.185 66.4024L109.259 96.3286L109.117 96.4708C106.984 98.8877 103.928 103.082 102.577 108.271C102.364 108.982 101.44 109.266 100.942 108.697L99.5204 107.276L91.8434 99.5985C90.9903 98.7455 90.3506 97.8214 89.853 96.8263C89.7108 96.613 89.6398 96.3287 89.5687 96.1154C89.5687 96.0443 89.4976 95.9732 89.4976 95.8311C89.4976 95.76 89.4265 95.6889 89.4265 95.6178C89.3554 95.4756 89.3554 95.4045 89.2844 95.2624V95.1913C89.2844 95.0491 89.2133 94.9781 89.2133 94.7648V94.6937L89.1421 94.4094C89.1421 94.2672 89.0711 94.1961 89.0711 94.054C89.0711 93.9118 89 93.7697 89 93.6275C89 93.5564 89 93.4853 89 93.3431C89 93.272 89 93.2721 89 93.2721V93.1298C89 93.0588 89 93.0588 89 92.9877V92.9166C89 92.7745 89 92.7034 89 92.5612C89 92.348 89 92.1347 89 91.9215L89.0711 91.4239C89.0711 91.3528 89.0711 91.2106 89.0711 91.1395V90.9973C89.1422 90.713 89.1422 90.3576 89.2844 90.0733L89.3554 89.7889C89.3554 89.7179 89.3554 89.7179 89.4265 89.6468V89.5757C89.4265 89.4335 89.4976 89.3624 89.5687 89.2202C89.6398 89.007 89.7108 88.7227 89.853 88.4383C89.9241 88.2962 89.9952 88.154 90.0663 87.9408C90.0663 87.8697 90.1373 87.7986 90.2084 87.7275C90.2795 87.5853 90.4217 87.3721 90.4927 87.2299C90.5638 87.0878 90.6349 86.9456 90.7771 86.8745L90.8482 86.8035C90.9192 86.7324 90.9904 86.6613 90.9904 86.5902L91.0614 86.5191C91.0614 86.448 91.1325 86.448 91.1325 86.3769V86.3058C91.2036 86.2347 91.2747 86.1637 91.3458 86.0926C91.4169 86.0215 91.4168 85.9504 91.559 85.8793C91.6301 85.8082 91.6301 85.8083 91.7012 85.7372L91.7723 85.666C91.8434 85.595 91.9144 85.5239 91.9144 85.4528L124.897 52.4699C126.888 50.4796 129.731 49.3422 132.574 49.4133C133.996 49.4844 135.276 49.7688 136.484 50.3374C137.692 50.9061 138.759 51.6881 139.683 52.6832C143.095 56.6639 142.953 62.706 139.185 66.4024Z" fill="#0000FF"/>
<path d="M138.503 97.0059C142.233 97.0059 145.256 93.9825 145.256 90.253C145.256 86.5234 142.233 83.5 138.503 83.5C134.773 83.5 131.75 86.5234 131.75 90.253C131.75 93.9825 134.773 97.0059 138.503 97.0059Z" fill="#0000FF"/>
<defs>
<filter id="filter0_d" x="0.493702" y="0.566751" width="215.013" height="215.013" filterUnits="userSpaceOnUse" color-interpolation-filters="sRGB">
<feFlood flood-opacity="0" result="BackgroundImageFix"/>
<feColorMatrix in="SourceAlpha" type="matrix" values="0 0 0 0 0 0 0 0 0 0 0 0 0 0 0 0 0 0 127 0"/>
<feOffset dy="15.073"/>
<feGaussianBlur stdDeviation="9.75315"/>
<feColorMatrix type="matrix" values="0 0 0 0 0 0 0 0 0 0 0 0 0 0 0 0 0 0 0.25 0"/>
<feBlend mode="normal" in2="BackgroundImageFix" result="effect1_dropShadow"/>
<feBlend mode="normal" in="SourceGraphic" in2="effect1_dropShadow" result="shape"/>
</filter>
</defs>
</svg>
