<svg width="58" height="58" viewBox="0 0 58 58" fill="none" xmlns="http://www.w3.org/2000/svg">
<circle cx="29" cy="29" r="29" fill="#0000FF"/>
<path d="M40.8418 43.5V40.5C40.8418 38.9087 40.2097 37.3826 39.0844 36.2574C37.9592 35.1321 36.4331 34.5 34.8418 34.5H22.8418C21.2505 34.5 19.7244 35.1321 18.5992 36.2574C17.4739 37.3826 16.8418 38.9087 16.8418 40.5V43.5" stroke="white" stroke-width="2" stroke-linecap="round" stroke-linejoin="round"/>
<path d="M29 31C32.3137 31 35 28.3137 35 25C35 21.6863 32.3137 19 29 19C25.6863 19 23 21.6863 23 25C23 28.3137 25.6863 31 29 31Z" stroke="white" stroke-width="2" stroke-linecap="round" stroke-linejoin="round"/>
<path d="M16 14L44 40" stroke="white" stroke-width="2" stroke-linecap="round"/>
</svg>
