<svg width="110" height="28" viewBox="0 0 110 28" fill="none" xmlns="http://www.w3.org/2000/svg">
<rect width="110" height="27" rx="13.5" fill="#0D0D5D"/>
<path d="M27.9738 19V6.4H34.2918C34.9038 6.4 35.4678 6.502 35.9838 6.706C36.5118 6.898 36.9618 7.168 37.3338 7.516C37.7058 7.864 37.9938 8.284 38.1978 8.776C38.4138 9.256 38.5218 9.784 38.5218 10.36C38.5218 10.924 38.4138 11.446 38.1978 11.926C37.9938 12.394 37.6998 12.802 37.3158 13.15C36.9438 13.498 36.4998 13.768 35.9838 13.96C35.4678 14.152 34.9038 14.248 34.2918 14.248H30.5838V19H27.9738ZM34.0038 8.65H30.5838V12.088H34.0038C34.5678 12.088 35.0178 11.932 35.3538 11.62C35.7018 11.308 35.8758 10.894 35.8758 10.378C35.8758 9.862 35.7018 9.448 35.3538 9.136C35.0178 8.812 34.5678 8.65 34.0038 8.65ZM42.6295 19.162C41.6215 19.162 40.7995 18.898 40.1635 18.37C39.5275 17.83 39.2095 17.134 39.2095 16.282C39.2095 15.394 39.5515 14.698 40.2355 14.194C40.9195 13.69 41.8615 13.438 43.0615 13.438C43.4455 13.438 43.8295 13.468 44.2135 13.528C44.5975 13.588 44.9755 13.678 45.3475 13.798V13.132C45.3475 12.592 45.1795 12.184 44.8435 11.908C44.5075 11.632 44.0155 11.494 43.3675 11.494C42.9715 11.494 42.5395 11.56 42.0715 11.692C41.6155 11.812 41.0935 12.004 40.5055 12.268L39.6055 10.45C40.3375 10.114 41.0455 9.862 41.7295 9.694C42.4255 9.526 43.1095 9.442 43.7815 9.442C45.0415 9.442 46.0195 9.748 46.7155 10.36C47.4235 10.96 47.7775 11.812 47.7775 12.916V19H45.3475V18.352C44.9515 18.628 44.5315 18.832 44.0875 18.964C43.6555 19.096 43.1695 19.162 42.6295 19.162ZM41.5675 16.228C41.5675 16.588 41.7235 16.876 42.0355 17.092C42.3475 17.296 42.7615 17.398 43.2775 17.398C43.6855 17.398 44.0575 17.35 44.3935 17.254C44.7415 17.146 45.0595 16.996 45.3475 16.804V15.4C45.0475 15.28 44.7295 15.196 44.3935 15.148C44.0695 15.088 43.7275 15.058 43.3675 15.058C42.8035 15.058 42.3595 15.166 42.0355 15.382C41.7235 15.586 41.5675 15.868 41.5675 16.228ZM48.8519 17.884L50.0759 16.246C50.6279 16.606 51.1499 16.876 51.6419 17.056C52.1339 17.224 52.6259 17.308 53.1179 17.308C53.6699 17.308 54.1079 17.218 54.4319 17.038C54.7679 16.858 54.9359 16.618 54.9359 16.318C54.9359 16.078 54.8399 15.886 54.6479 15.742C54.4679 15.598 54.1739 15.496 53.7659 15.436L51.9659 15.166C51.0419 15.022 50.3339 14.722 49.8419 14.266C49.3619 13.81 49.1219 13.204 49.1219 12.448C49.1219 11.548 49.4759 10.828 50.1839 10.288C50.8919 9.748 51.8399 9.478 53.0279 9.478C53.7119 9.478 54.3779 9.58 55.0259 9.784C55.6739 9.976 56.2919 10.264 56.8799 10.648L55.6919 12.232C55.1759 11.932 54.6839 11.71 54.2159 11.566C53.7479 11.41 53.2739 11.332 52.7939 11.332C52.3499 11.332 51.9899 11.416 51.7139 11.584C51.4499 11.752 51.3179 11.974 51.3179 12.25C51.3179 12.502 51.4139 12.7 51.6059 12.844C51.8099 12.976 52.1399 13.072 52.5959 13.132L54.3959 13.402C55.3079 13.534 56.0099 13.834 56.5019 14.302C57.0059 14.77 57.2579 15.364 57.2579 16.084C57.2579 16.528 57.1499 16.942 56.9339 17.326C56.7299 17.698 56.4479 18.022 56.0879 18.298C55.7279 18.574 55.2959 18.79 54.7919 18.946C54.2879 19.102 53.7419 19.18 53.1539 19.18C52.3019 19.18 51.5039 19.072 50.7599 18.856C50.0159 18.628 49.3799 18.304 48.8519 17.884ZM58.1416 14.32C58.1416 13.636 58.2676 13 58.5196 12.412C58.7836 11.812 59.1376 11.296 59.5816 10.864C60.0376 10.42 60.5716 10.072 61.1836 9.82C61.7956 9.568 62.4496 9.442 63.1456 9.442C63.8416 9.442 64.4956 9.568 65.1076 9.82C65.7196 10.072 66.2476 10.42 66.6916 10.864C67.1476 11.296 67.5016 11.812 67.7536 12.412C68.0176 13 68.1496 13.636 68.1496 14.32C68.1496 15.004 68.0176 15.646 67.7536 16.246C67.5016 16.834 67.1476 17.344 66.6916 17.776C66.2476 18.208 65.7196 18.55 65.1076 18.802C64.4956 19.054 63.8416 19.18 63.1456 19.18C62.4496 19.18 61.7956 19.054 61.1836 18.802C60.5716 18.55 60.0376 18.208 59.5816 17.776C59.1376 17.344 58.7836 16.834 58.5196 16.246C58.2676 15.646 58.1416 15.004 58.1416 14.32ZM63.1456 17.038C63.8656 17.038 64.4776 16.774 64.9816 16.246C65.4856 15.718 65.7376 15.076 65.7376 14.32C65.7376 13.552 65.4856 12.904 64.9816 12.376C64.4776 11.848 63.8656 11.584 63.1456 11.584C62.4256 11.584 61.8136 11.848 61.3096 12.376C60.8056 12.904 60.5536 13.552 60.5536 14.32C60.5536 15.076 60.8056 15.718 61.3096 16.246C61.8136 16.774 62.4256 17.038 63.1456 17.038ZM73.4485 13.006L73.7545 6.4H81.8725V8.47H75.7525L75.6265 11.404C75.9985 11.272 76.3765 11.176 76.7605 11.116C77.1565 11.056 77.5645 11.026 77.9845 11.026C79.3525 11.026 80.4625 11.386 81.3145 12.106C82.1665 12.814 82.5925 13.744 82.5925 14.896C82.5925 15.532 82.4665 16.114 82.2145 16.642C81.9745 17.17 81.6265 17.626 81.1705 18.01C80.7265 18.382 80.1865 18.676 79.5505 18.892C78.9145 19.096 78.2185 19.198 77.4625 19.198C76.5625 19.198 75.7105 19.054 74.9065 18.766C74.1025 18.478 73.3885 18.058 72.7645 17.506L74.2585 15.832C74.8105 16.288 75.3385 16.618 75.8425 16.822C76.3585 17.014 76.9225 17.11 77.5345 17.11C78.2905 17.11 78.9025 16.918 79.3705 16.534C79.8385 16.15 80.0725 15.646 80.0725 15.022C80.0725 14.422 79.8205 13.936 79.3165 13.564C78.8125 13.18 78.1645 12.988 77.3725 12.988C77.0005 12.988 76.6105 13.036 76.2025 13.132C75.8065 13.216 75.4225 13.336 75.0505 13.492L73.4485 13.006Z" fill="white"/>
</svg>
