<svg width="110" height="28" viewBox="0 0 110 28" fill="none" xmlns="http://www.w3.org/2000/svg">
<rect width="110" height="27" rx="13.5" fill="#0D0D5D"/>
<path d="M27.8508 19V6.4H34.1688C34.7808 6.4 35.3448 6.502 35.8608 6.706C36.3888 6.898 36.8388 7.168 37.2108 7.516C37.5828 7.864 37.8708 8.284 38.0748 8.776C38.2908 9.256 38.3988 9.784 38.3988 10.36C38.3988 10.924 38.2908 11.446 38.0748 11.926C37.8708 12.394 37.5768 12.802 37.1928 13.15C36.8208 13.498 36.3768 13.768 35.8608 13.96C35.3448 14.152 34.7808 14.248 34.1688 14.248H30.4608V19H27.8508ZM33.8808 8.65H30.4608V12.088H33.8808C34.4448 12.088 34.8948 11.932 35.2308 11.62C35.5788 11.308 35.7528 10.894 35.7528 10.378C35.7528 9.862 35.5788 9.448 35.2308 9.136C34.8948 8.812 34.4448 8.65 33.8808 8.65ZM42.5065 19.162C41.4985 19.162 40.6765 18.898 40.0405 18.37C39.4045 17.83 39.0865 17.134 39.0865 16.282C39.0865 15.394 39.4285 14.698 40.1125 14.194C40.7965 13.69 41.7385 13.438 42.9385 13.438C43.3225 13.438 43.7065 13.468 44.0905 13.528C44.4745 13.588 44.8525 13.678 45.2245 13.798V13.132C45.2245 12.592 45.0565 12.184 44.7205 11.908C44.3845 11.632 43.8925 11.494 43.2445 11.494C42.8485 11.494 42.4165 11.56 41.9485 11.692C41.4925 11.812 40.9705 12.004 40.3825 12.268L39.4825 10.45C40.2145 10.114 40.9225 9.862 41.6065 9.694C42.3025 9.526 42.9865 9.442 43.6585 9.442C44.9185 9.442 45.8965 9.748 46.5925 10.36C47.3005 10.96 47.6545 11.812 47.6545 12.916V19H45.2245V18.352C44.8285 18.628 44.4085 18.832 43.9645 18.964C43.5325 19.096 43.0465 19.162 42.5065 19.162ZM41.4445 16.228C41.4445 16.588 41.6005 16.876 41.9125 17.092C42.2245 17.296 42.6385 17.398 43.1545 17.398C43.5625 17.398 43.9345 17.35 44.2705 17.254C44.6185 17.146 44.9365 16.996 45.2245 16.804V15.4C44.9245 15.28 44.6065 15.196 44.2705 15.148C43.9465 15.088 43.6045 15.058 43.2445 15.058C42.6805 15.058 42.2365 15.166 41.9125 15.382C41.6005 15.586 41.4445 15.868 41.4445 16.228ZM48.7288 17.884L49.9528 16.246C50.5048 16.606 51.0268 16.876 51.5188 17.056C52.0108 17.224 52.5028 17.308 52.9948 17.308C53.5468 17.308 53.9848 17.218 54.3088 17.038C54.6448 16.858 54.8128 16.618 54.8128 16.318C54.8128 16.078 54.7168 15.886 54.5248 15.742C54.3448 15.598 54.0508 15.496 53.6428 15.436L51.8428 15.166C50.9188 15.022 50.2108 14.722 49.7188 14.266C49.2388 13.81 48.9988 13.204 48.9988 12.448C48.9988 11.548 49.3528 10.828 50.0608 10.288C50.7688 9.748 51.7168 9.478 52.9048 9.478C53.5888 9.478 54.2548 9.58 54.9028 9.784C55.5508 9.976 56.1688 10.264 56.7568 10.648L55.5688 12.232C55.0528 11.932 54.5608 11.71 54.0928 11.566C53.6248 11.41 53.1508 11.332 52.6708 11.332C52.2268 11.332 51.8668 11.416 51.5908 11.584C51.3268 11.752 51.1948 11.974 51.1948 12.25C51.1948 12.502 51.2908 12.7 51.4828 12.844C51.6868 12.976 52.0168 13.072 52.4728 13.132L54.2728 13.402C55.1848 13.534 55.8868 13.834 56.3788 14.302C56.8828 14.77 57.1348 15.364 57.1348 16.084C57.1348 16.528 57.0268 16.942 56.8108 17.326C56.6068 17.698 56.3248 18.022 55.9648 18.298C55.6048 18.574 55.1728 18.79 54.6688 18.946C54.1648 19.102 53.6188 19.18 53.0308 19.18C52.1788 19.18 51.3808 19.072 50.6368 18.856C49.8928 18.628 49.2568 18.304 48.7288 17.884ZM58.0185 14.32C58.0185 13.636 58.1445 13 58.3965 12.412C58.6605 11.812 59.0145 11.296 59.4585 10.864C59.9145 10.42 60.4485 10.072 61.0605 9.82C61.6725 9.568 62.3265 9.442 63.0225 9.442C63.7185 9.442 64.3725 9.568 64.9845 9.82C65.5965 10.072 66.1245 10.42 66.5685 10.864C67.0245 11.296 67.3785 11.812 67.6305 12.412C67.8945 13 68.0265 13.636 68.0265 14.32C68.0265 15.004 67.8945 15.646 67.6305 16.246C67.3785 16.834 67.0245 17.344 66.5685 17.776C66.1245 18.208 65.5965 18.55 64.9845 18.802C64.3725 19.054 63.7185 19.18 63.0225 19.18C62.3265 19.18 61.6725 19.054 61.0605 18.802C60.4485 18.55 59.9145 18.208 59.4585 17.776C59.0145 17.344 58.6605 16.834 58.3965 16.246C58.1445 15.646 58.0185 15.004 58.0185 14.32ZM63.0225 17.038C63.7425 17.038 64.3545 16.774 64.8585 16.246C65.3625 15.718 65.6145 15.076 65.6145 14.32C65.6145 13.552 65.3625 12.904 64.8585 12.376C64.3545 11.848 63.7425 11.584 63.0225 11.584C62.3025 11.584 61.6905 11.848 61.1865 12.376C60.6825 12.904 60.4305 13.552 60.4305 14.32C60.4305 15.076 60.6825 15.718 61.1865 16.246C61.6905 16.774 62.3025 17.038 63.0225 17.038ZM82.5414 15.49C82.5414 16.018 82.4154 16.51 82.1634 16.966C81.9114 17.422 81.5574 17.812 81.1014 18.136C80.6574 18.46 80.1234 18.718 79.4994 18.91C78.8874 19.09 78.2154 19.18 77.4834 19.18C76.5114 19.18 75.5874 19.006 74.7114 18.658C73.8354 18.31 73.1034 17.83 72.5154 17.218L74.1714 15.688C74.6754 16.192 75.1734 16.546 75.6654 16.75C76.1574 16.954 76.7574 17.056 77.4654 17.056C78.2334 17.056 78.8574 16.894 79.3374 16.57C79.8174 16.246 80.0574 15.826 80.0574 15.31C80.0574 14.842 79.8354 14.47 79.3914 14.194C78.9594 13.918 78.3834 13.78 77.6634 13.78H76.5114V11.818H77.4114C78.0594 11.818 78.5994 11.644 79.0314 11.296C79.4634 10.948 79.6794 10.51 79.6794 9.982C79.6794 9.514 79.4634 9.124 79.0314 8.812C78.6114 8.5 78.0774 8.344 77.4294 8.344C76.8174 8.344 76.2774 8.458 75.8094 8.686C75.3414 8.902 74.8374 9.28 74.2974 9.82L72.6234 8.29C73.2354 7.642 73.9734 7.132 74.8374 6.76C75.7014 6.388 76.5954 6.202 77.5194 6.202C78.1914 6.202 78.8094 6.292 79.3734 6.472C79.9494 6.64 80.4414 6.88 80.8494 7.192C81.2574 7.504 81.5754 7.876 81.8034 8.308C82.0314 8.74 82.1454 9.214 82.1454 9.73C82.1454 10.354 81.9774 10.924 81.6414 11.44C81.3054 11.944 80.8494 12.346 80.2734 12.646C80.9574 12.886 81.5034 13.258 81.9114 13.762C82.3314 14.266 82.5414 14.842 82.5414 15.49Z" fill="white"/>
</svg>
