<svg width="15" height="12" viewBox="0 0 15 12" fill="none" xmlns="http://www.w3.org/2000/svg">
<g clip-path="url(#clip0)">
<path fill-rule="evenodd" clip-rule="evenodd" d="M0 0H21.375V0.923438H0V0ZM0 1.84688H21.375V2.77031H0V1.84688ZM0 3.69141H21.375V4.61719H0V3.69141ZM0 5.53828H21.375V6.46172H0V5.53828ZM0 7.38516H21.375V8.3086H0V7.38516ZM0 9.22969H21.375V10.1531H0V9.22969ZM0 11.0766H21.375V12H0V11.0766Z" fill="#BD3D44"/>
<path fill-rule="evenodd" clip-rule="evenodd" d="M0 0.923462H21.375V1.8469H0V0.923462ZM0 2.77034H21.375V3.69143H0V2.77034ZM0 4.61487H21.375V5.53831H0V4.61487ZM0 6.46174H21.375V7.38518H0V6.46174ZM0 8.30862H21.375V9.23206H0V8.30862ZM0 10.1532H21.375V11.0766H0V10.1532Z" fill="white"/>
<path fill-rule="evenodd" clip-rule="evenodd" d="M0 0H8.54956V6.46172H0V0Z" fill="#192F5D"/>
<path fill-rule="evenodd" clip-rule="evenodd" d="M0.711914 0.276611L0.791016 0.53208H1.0415L0.839355 0.689111L0.91626 0.946924L0.711914 0.787549L0.509766 0.94458L0.58667 0.689111L0.382324 0.53208H0.637207L0.711914 0.276611ZM2.13794 0.276611L2.21484 0.53208H2.46753L2.26318 0.689111L2.34009 0.946924L2.13794 0.787549L1.93359 0.94458L2.0105 0.689111L1.80835 0.53208H2.05884L2.13794 0.276611ZM3.56177 0.276611L3.64087 0.53208H3.88916L3.68701 0.689111L3.76392 0.946924L3.55957 0.787549L3.35742 0.94458L3.43433 0.689111L3.22998 0.53208H3.48267L3.56177 0.276611ZM4.98779 0.276611L5.0647 0.53208H5.31738L5.11304 0.689111L5.19214 0.946924L4.98779 0.787549L4.78345 0.94458L4.86255 0.689111L4.6582 0.53208H4.90869L4.98779 0.276611ZM6.41162 0.276611L6.49072 0.53208H6.74121L6.53906 0.689111L6.61597 0.946924L6.41162 0.787549L6.20947 0.94458L6.28638 0.689111L6.08423 0.53208H6.33472L6.41162 0.276611ZM7.83765 0.276611L7.91455 0.53208H8.16724L7.96289 0.689111L8.04199 0.946924L7.83765 0.787549L7.6333 0.94458L7.7124 0.689111L7.50806 0.53208H7.76074L7.83765 0.276611ZM1.42603 0.923486L1.50293 1.17895H1.75562L1.55127 1.33599L1.62598 1.59145L1.42822 1.43442L1.22388 1.59145L1.29639 1.33599L1.09863 1.17895H1.34912L1.42603 0.923486ZM2.84985 0.923486L2.92896 1.17895H3.17944L2.9751 1.33599L3.0542 1.59145L2.84985 1.43442L2.64551 1.59145L2.72461 1.33599L2.52026 1.17895H2.77295L2.84985 0.923486ZM4.27588 0.923486L4.35278 1.17895H4.60547L4.40112 1.33599L4.47803 1.59145L4.27588 1.43442L4.07153 1.59145L4.14844 1.33599L3.94629 1.17895H4.19678L4.27588 0.923486ZM5.69971 0.923486L5.77881 1.17895H6.0293L5.82495 1.33599L5.90405 1.59145L5.69971 1.43442L5.49756 1.59145L5.57446 1.33599L5.37012 1.17895H5.625L5.69971 0.923486ZM7.12573 0.923486L7.20264 1.17895H7.45532L7.25098 1.33599L7.32788 1.59145L7.12573 1.43442L6.92139 1.59145L6.99829 1.33599L6.79614 1.17895H7.04663L7.12573 0.923486ZM0.711914 1.56802L0.791016 1.82817H1.0415L0.839355 1.9852L0.91626 2.24067L0.711914 2.0813L0.509766 2.24067L0.58667 1.98286L0.382324 1.82583H0.637207L0.711914 1.56802ZM2.13794 1.56802L2.21484 1.82583H2.46753L2.26318 1.98286L2.34009 2.23833L2.13794 2.07895L1.93359 2.23833L2.0105 1.98052L1.80835 1.82349H2.05884L2.13794 1.56802ZM3.56177 1.56802L3.64087 1.82583H3.88916L3.68701 1.98286L3.76392 2.23833L3.55957 2.07895L3.35742 2.23833L3.43433 1.98052L3.22998 1.82349H3.48267L3.56177 1.56802ZM4.98779 1.56802L5.0647 1.82583H5.31738L5.11304 1.98286L5.19214 2.23833L4.98779 2.07895L4.78345 2.23833L4.86255 1.98052L4.6582 1.82349H4.90869L4.98779 1.56802ZM6.41162 1.56802L6.49072 1.82583H6.74121L6.53906 1.98286L6.61597 2.23833L6.41162 2.07895L6.20947 2.23833L6.28638 1.98052L6.08423 1.82349H6.33472L6.41162 1.56802ZM7.83765 1.56802L7.91455 1.82583H8.16724L7.96289 1.98286L8.04199 2.23833L7.83765 2.07895L7.6333 2.23833L7.7124 1.98052L7.50806 1.82349H7.76074L7.83765 1.56802ZM1.42603 2.21489L1.50293 2.47036H1.75562L1.55127 2.62739L1.62817 2.8852L1.42603 2.72583L1.22168 2.88286L1.29858 2.62739L1.09644 2.47036H1.34692L1.42603 2.21489ZM2.84985 2.21489L2.92896 2.47036H3.17944L2.9751 2.62739L3.0542 2.8852L2.84985 2.72583L2.64551 2.88286L2.72461 2.62739L2.52026 2.47036H2.77295L2.84985 2.21489ZM4.27588 2.21489L4.35278 2.47036H4.60547L4.40112 2.62739L4.47803 2.8852L4.27588 2.72583L4.07153 2.88286L4.14844 2.62739L3.94629 2.47036H4.19678L4.27588 2.21489ZM5.69971 2.21489L5.77881 2.47036H6.0293L5.82715 2.62739L5.90405 2.8852L5.69971 2.72583L5.49756 2.88286L5.57446 2.62739L5.37012 2.47036H5.625L5.69971 2.21489ZM7.12573 2.21489L7.20264 2.47036H7.45532L7.25098 2.62739L7.32788 2.8852L7.12573 2.72583L6.92139 2.88286L6.99829 2.62739L6.79614 2.47036H7.04663L7.12573 2.21489ZM0.711914 2.86177L0.791016 3.11724H1.0415L0.839355 3.27427L0.91626 3.53208L0.711914 3.3727L0.509766 3.52974L0.58667 3.27427L0.382324 3.11724H0.637207L0.711914 2.86177ZM2.13794 2.86177L2.21484 3.11724H2.46753L2.26318 3.27427L2.34009 3.52974L2.13794 3.3727L1.93359 3.52974L2.0105 3.27427L1.80835 3.11724H2.05884L2.13794 2.86177ZM3.56177 2.86177L3.64087 3.11724H3.88916L3.68701 3.27427L3.76392 3.53208L3.55957 3.3727L3.35742 3.52974L3.43433 3.27427L3.22998 3.11724H3.48267L3.56177 2.86177ZM4.98779 2.86177L5.0647 3.11724H5.31738L5.11304 3.27427L5.19214 3.53208L4.98779 3.3727L4.78345 3.52974L4.86255 3.27427L4.6582 3.11724H4.90869L4.98779 2.86177ZM6.41162 2.86177L6.49072 3.11724H6.74121L6.53906 3.27427L6.61597 3.53208L6.41162 3.3727L6.20947 3.52974L6.28638 3.27427L6.08423 3.11724H6.33472L6.41162 2.86177ZM7.83765 2.86177L7.91455 3.11724H8.16724L7.96289 3.27427L8.04199 3.53208L7.83765 3.3727L7.6333 3.52974L7.7124 3.27427L7.50806 3.11724H7.76074L7.83765 2.86177ZM1.42603 3.50864L1.50293 3.76411H1.75562L1.55127 3.92114L1.62817 4.17661L1.42603 4.01723L1.22168 4.17661L1.29858 3.9188L1.09644 3.76177H1.34692L1.42603 3.50864ZM2.84985 3.50864L2.92896 3.76411H3.17944L2.9751 3.92114L3.0542 4.17661L2.84985 4.01723L2.64551 4.17661L2.72461 3.9188L2.52026 3.76177H2.77295L2.84985 3.50864ZM4.27588 3.50864L4.35278 3.76411H4.60547L4.40112 3.92114L4.47803 4.17661L4.27588 4.01723L4.07153 4.17661L4.14844 3.9188L3.94629 3.76177H4.19678L4.27588 3.50864ZM5.69971 3.50864L5.77881 3.76411H6.0293L5.82715 3.92114L5.90405 4.17661L5.69971 4.01723L5.49756 4.17661L5.57446 3.9188L5.37012 3.76177H5.625L5.69971 3.50864ZM7.12573 3.50864L7.20264 3.76411H7.45532L7.25098 3.92114L7.32788 4.17661L7.12573 4.01723L6.92139 4.17661L6.99829 3.9188L6.79614 3.76177H7.04663L7.12573 3.50864ZM0.711914 4.15317L0.791016 4.41098H1.0415L0.839355 4.56802L0.91626 4.82114L0.711914 4.66411L0.509766 4.82114L0.58667 4.56567L0.382324 4.40864H0.637207L0.711914 4.15317ZM2.13794 4.15317L2.21484 4.41098H2.46753L2.26318 4.56802L2.34228 4.82114L2.13794 4.66411L1.93359 4.82114L2.0127 4.56567L1.80835 4.40864H2.05884L2.13794 4.15317ZM3.56177 4.15317L3.64087 4.41098H3.88916L3.68701 4.56802L3.76392 4.82114L3.55957 4.66411L3.35742 4.82114L3.43433 4.56567L3.22998 4.40864H3.48267L3.56177 4.15317ZM4.98779 4.15317L5.0647 4.41098H5.31738L5.11304 4.56802L5.19214 4.82114L4.98779 4.66411L4.78345 4.82114L4.86255 4.56567L4.6582 4.40864H4.90869L4.98779 4.15317ZM6.41162 4.15317L6.49072 4.41098H6.74121L6.53906 4.56802L6.61597 4.82114L6.41162 4.66411L6.20947 4.82114L6.28638 4.56567L6.08423 4.40864H6.33472L6.41162 4.15317ZM7.83765 4.15317L7.91455 4.41098H8.16724L7.96289 4.56802L8.04199 4.82114L7.83765 4.66411L7.6333 4.82114L7.7124 4.56567L7.50806 4.40864H7.76074L7.83765 4.15317ZM1.42603 4.80005L1.50293 5.05552H1.75562L1.55127 5.21255L1.62817 5.47036L1.42603 5.31098L1.22168 5.46802L1.29858 5.21255L1.09644 5.05552H1.34692L1.42603 4.80005ZM2.84985 4.80005L2.92896 5.05552H3.17944L2.9751 5.21255L3.0542 5.47036L2.84985 5.31098L2.64551 5.46802L2.72461 5.21255L2.52026 5.05552H2.77295L2.84985 4.80005ZM4.27588 4.80005L4.35278 5.05552H4.60547L4.40112 5.21255L4.47803 5.47036L4.27588 5.31098L4.07153 5.46802L4.14844 5.21255L3.94629 5.05552H4.19678L4.27588 4.80005ZM5.69971 4.80005L5.77881 5.05552H6.0293L5.82715 5.21255L5.90405 5.47036L5.69971 5.31098L5.49756 5.46802L5.57446 5.21255L5.37012 5.05552H5.625L5.69971 4.80005ZM7.12573 4.80005L7.20264 5.05552H7.45532L7.25098 5.21255L7.32788 5.47036L7.12573 5.31098L6.92139 5.46802L6.99829 5.21255L6.79614 5.05552H7.04663L7.12573 4.80005ZM0.711914 5.44692L0.791016 5.70239H1.0415L0.839355 5.85942L0.91626 6.11489L0.711914 5.95786L0.509766 6.11489L0.58667 5.85708L0.382324 5.70005H0.637207L0.711914 5.44692ZM2.13794 5.44692L2.21484 5.70239H2.46753L2.26318 5.85942L2.34228 6.11489L2.13794 5.95786L1.93359 6.11489L2.0127 5.85708L1.80835 5.70005H2.05884L2.13794 5.44692ZM3.56177 5.44692L3.64087 5.70239H3.88916L3.69141 5.85942L3.76831 6.11489L3.56397 5.95786L3.36182 6.11489L3.43872 5.85708L3.23438 5.70005H3.48706L3.56177 5.44692ZM4.98779 5.44692L5.0647 5.70239H5.31738L5.11304 5.85942L5.19214 6.11489L4.98779 5.95786L4.78345 6.11489L4.86255 5.85708L4.6582 5.70005H4.90869L4.98779 5.44692ZM6.41162 5.44692L6.49072 5.70239H6.74121L6.53906 5.85942L6.61597 6.11489L6.41162 5.95786L6.20947 6.11489L6.28638 5.85708L6.08423 5.70005H6.33472L6.41162 5.44692ZM7.83765 5.44692L7.91455 5.70239H8.16724L7.96289 5.85942L8.04199 6.11489L7.83765 5.95786L7.6333 6.11489L7.7124 5.85708L7.50806 5.70005H7.76074L7.83765 5.44692Z" fill="white"/>
</g>
<defs>
<clipPath id="clip0">
<rect width="15" height="12" fill="white"/>
</clipPath>
</defs>
</svg>
