<svg width="1121" height="240" viewBox="0 0 1121 240" fill="none" xmlns="http://www.w3.org/2000/svg">
<path d="M36.1991 239.357C16.2527 239.357 0 223.104 0 203.158V36.199C0 16.2526 16.2527 0 36.1991 0C56.1455 0 72.3982 16.2526 72.3982 36.199V203.158C72.3982 223.104 56.1455 239.357 36.1991 239.357Z" fill="url(#paint0_linear)"/>
<path d="M178.595 228.645C165.482 241.758 144.058 241.758 130.945 228.645L87.7274 185.428L47.8346 145.535L45.9877 143.688C42.2939 139.994 39.5236 135.562 38.046 130.945C35.4604 123.742 35.4604 115.8 38.046 108.597C39.7082 103.98 42.2939 99.5476 45.9877 95.8538C59.1006 82.7409 80.5246 82.7409 93.6375 95.8538L178.595 180.811C191.707 194.293 191.707 215.532 178.595 228.645Z" fill="url(#paint1_linear)"/>
<path d="M180.072 12.7435C167.144 -1.8469 144.242 -2.03159 130.575 11.8201L46.1722 96.2229C33.0593 109.336 33.0593 130.76 46.1722 143.873C46.911 144.612 48.2038 145.72 48.2038 145.72H48.0191L86.9885 184.689C87.1732 184.874 87.5426 184.689 87.3579 184.32C81.0785 163.634 93.268 145.166 101.948 135.192L178.41 58.731C191.338 46.1721 191.707 25.8565 180.072 12.7435Z" fill="#30E3CA"/>
<path d="M162.342 137.409C171.93 137.409 179.703 129.636 179.703 120.048C179.703 110.46 171.93 102.687 162.342 102.687C152.754 102.687 144.981 110.46 144.981 120.048C144.981 129.636 152.754 137.409 162.342 137.409Z" fill="#30E3CA"/>
<path d="M275 138.855C277.142 146.998 283.571 151.284 293.856 151.284C300.285 151.284 305.427 149.141 308.856 144.427L322.57 152.57C316.142 161.998 306.285 166.712 293.428 166.712C282.285 166.712 273.714 163.284 266.857 156.855C260 149.998 257 141.856 257 131.57C257 121.713 260.429 113.142 266.857 106.713C273.285 99.8564 281.857 96.8568 292.142 96.8568C301.999 96.8568 309.713 100.285 316.142 107.142C322.57 113.999 325.57 122.142 325.57 131.999C325.57 134.141 325.141 136.713 324.713 138.855H275ZM275 125.57H308.856C307.999 120.856 305.856 117.856 302.856 115.285C299.856 113.142 296.428 111.856 292.571 111.856C287.856 111.856 283.999 113.142 280.999 115.285C278 118.285 275.857 121.285 275 125.57Z" fill="white"/>
<path d="M366.283 149.141L373.997 138.427H354.283L343.141 153.855V165.427H395.425V149.141H366.283ZM363.283 125.999H382.997L394.568 110.142V98.5711H344.855V114.856H371.426L363.283 125.999Z" fill="white"/>
<path d="M480.281 164.998H460.138L436.139 134.999V164.998H418.996V72H436.139V128.141L458.852 98.9996H479.423L452.853 131.999L480.281 164.998Z" fill="white"/>
<path d="M551.422 156.855C544.565 163.712 536.422 167.141 526.565 167.141C516.708 167.141 508.566 163.712 501.709 156.855C494.852 149.998 491.423 141.856 491.423 131.999C491.423 122.142 494.852 113.999 501.709 107.142C508.566 100.285 516.708 96.8568 526.565 96.8568C536.422 96.8568 544.565 100.285 551.422 107.142C558.279 113.999 561.707 122.142 561.707 131.999C561.707 141.856 558.279 149.998 551.422 156.855ZM513.708 145.284C517.137 148.712 521.423 150.427 526.565 150.427C531.708 150.427 535.994 148.712 539.422 145.284C542.851 141.855 544.565 137.57 544.565 131.999C544.565 126.427 542.851 122.142 539.422 118.713C535.994 115.285 531.708 113.571 526.565 113.571C521.423 113.571 517.137 115.285 513.708 118.713C510.28 122.142 508.566 126.427 508.566 131.999C508.566 137.57 510.28 141.855 513.708 145.284Z" fill="white"/>
<path d="M657.705 96.8568C665.419 96.8568 671.419 99.4279 676.133 104.142C680.847 109.285 682.99 115.714 682.99 124.285V165.427H665.848V125.57C665.848 121.713 664.991 118.285 662.848 116.142C660.705 113.999 658.134 112.713 654.705 112.713C650.848 112.713 647.848 113.999 645.705 116.57C643.563 119.142 642.277 122.999 642.277 127.713V164.998H625.134V125.142C625.134 121.285 624.277 117.856 622.135 115.714C619.992 113.571 617.42 112.285 613.992 112.285C610.135 112.285 607.135 113.571 604.992 116.142C602.849 118.713 601.563 122.57 601.563 127.285V164.569H584.421V98.1421H601.563V105C605.421 98.9997 611.849 95.9993 619.992 95.9993C628.134 95.9993 634.134 98.9996 637.991 105.428C642.277 99.8567 649.134 96.8568 657.705 96.8568Z" fill="white"/>
<path d="M781.559 96.8568C789.273 96.8568 795.273 99.4279 799.988 104.142C804.702 109.285 806.844 115.714 806.844 124.285V165.427H789.702V125.57C789.702 121.713 788.845 118.285 786.702 116.142C784.559 113.999 781.988 112.713 778.559 112.713C774.702 112.713 771.702 113.999 769.56 116.57C767.417 119.142 766.131 122.999 766.131 127.713V164.998H748.989V125.142C748.989 121.285 748.132 117.856 745.989 115.714C743.846 113.571 741.275 112.285 737.846 112.285C733.989 112.285 730.989 113.571 728.846 116.142C726.703 118.713 725.418 122.57 725.418 127.285V164.569H708.275V98.1421H725.418V105C729.275 98.9997 735.703 95.9993 743.846 95.9993C751.989 95.9993 757.988 98.9996 761.845 105.428C766.131 99.8567 772.988 96.8568 781.559 96.8568Z" fill="white"/>
<path d="M846.701 138.855C848.844 146.998 855.272 151.284 865.557 151.284C871.986 151.284 877.129 149.141 880.557 144.427L894.271 152.57C887.843 161.998 877.986 166.712 865.129 166.712C853.986 166.712 845.415 163.284 838.558 156.855C831.701 149.998 828.701 141.856 828.701 131.57C828.701 121.713 832.13 113.142 838.558 106.713C844.987 99.8564 853.558 96.8568 863.843 96.8568C873.7 96.8568 881.843 100.285 887.843 107.142C894.271 113.999 897.271 122.142 897.271 131.999C897.271 134.141 896.843 136.713 896.414 138.855H846.701ZM846.272 125.57H880.129C879.271 120.856 877.129 117.856 874.129 115.285C871.129 113.142 867.7 111.856 863.843 111.856C859.129 111.856 855.272 113.142 852.272 115.285C849.272 118.285 847.129 121.285 846.272 125.57Z" fill="white"/>
<path d="M937.127 110.142C938.842 105.856 941.413 102.857 944.841 100.714C948.698 98.5711 952.555 97.7137 957.27 97.7137V116.999C952.127 116.57 947.413 117.428 943.127 119.999C938.842 122.571 937.127 127.285 937.127 133.713V165.427H919.985V98.9995H937.127V110.142Z" fill="white"/>
<path d="M1006.98 167.141C997.126 167.141 988.555 163.712 982.126 156.855C975.269 149.998 972.269 141.856 972.269 131.999C972.269 122.142 975.698 113.571 982.126 107.142C988.983 100.285 997.126 96.8568 1006.98 96.8568C1013.41 96.8568 1019.41 98.5709 1024.55 101.571C1029.7 104.571 1033.98 108.856 1036.55 113.999L1021.98 122.57C1020.7 119.999 1018.55 117.856 1015.98 116.142C1013.41 114.428 1010.41 113.571 1006.98 113.571C1001.84 113.571 997.554 115.285 994.126 118.713C990.697 122.142 988.983 126.427 988.983 131.999C988.983 137.141 990.697 141.427 994.126 144.855C997.554 148.284 1001.84 149.998 1006.98 149.998C1010.41 149.998 1013.41 149.141 1016.41 147.856C1018.98 146.141 1021.13 143.999 1022.41 141.427L1037.41 149.998C1034.41 155.141 1030.55 159.426 1024.98 162.426C1019.41 165.426 1013.41 167.141 1006.98 167.141Z" fill="white"/>
<path d="M1069.98 138.855C1072.12 146.998 1078.55 151.284 1088.84 151.284C1095.27 151.284 1100.41 149.141 1103.84 144.427L1117.55 152.57C1111.12 161.998 1101.27 166.712 1088.41 166.712C1077.27 166.712 1068.7 163.284 1061.84 156.855C1054.98 149.998 1051.98 141.856 1051.98 131.57C1051.98 121.713 1055.41 113.142 1061.84 106.713C1068.27 99.8564 1076.84 96.8568 1087.12 96.8568C1096.98 96.8568 1104.69 100.285 1111.12 107.142C1117.55 113.999 1120.55 122.142 1120.55 131.999C1120.55 134.141 1120.12 136.713 1119.69 138.855H1069.98ZM1069.55 125.57H1103.41C1102.55 120.856 1100.41 117.856 1097.41 115.285C1094.41 113.142 1090.98 111.856 1087.12 111.856C1082.41 111.856 1078.55 113.142 1075.55 115.285C1072.55 118.285 1070.84 121.285 1069.55 125.57Z" fill="white"/>
<defs>
<linearGradient id="paint0_linear" x1="36.2056" y1="17.6781" x2="36.2056" y2="296.085" gradientUnits="userSpaceOnUse">
<stop offset="0.1471" stop-color="#30E3CA"/>
<stop offset="1" stop-color="#172FFF"/>
</linearGradient>
<linearGradient id="paint1_linear" x1="157.479" y1="203.573" x2="47.9607" y2="103.677" gradientUnits="userSpaceOnUse">
<stop offset="0.1548" stop-color="#30E3CA"/>
<stop offset="0.6705" stop-color="#172FFF"/>
</linearGradient>
</defs>
</svg>
