<svg width="34" height="34" viewBox="0 0 34 34" fill="none" xmlns="http://www.w3.org/2000/svg">
<circle cx="17" cy="17" r="17" fill="#0000FF"/>
<path d="M23.1083 23.8637V22.3529C23.1083 21.5515 22.79 20.7829 22.2233 20.2163C21.6566 19.6496 20.8881 19.3312 20.0867 19.3312H14.0433C13.2419 19.3312 12.4734 19.6496 11.9067 20.2163C11.34 20.7829 11.0217 21.5515 11.0217 22.3529V23.8637" stroke="white" stroke-width="2" stroke-linecap="round" stroke-linejoin="round"/>
<path d="M17.065 16.3096C18.7338 16.3096 20.0867 14.9567 20.0867 13.2879C20.0867 11.6191 18.7338 10.2662 17.065 10.2662C15.3962 10.2662 14.0433 11.6191 14.0433 13.2879C14.0433 14.9567 15.3962 16.3096 17.065 16.3096Z" stroke="white" stroke-width="2" stroke-linecap="round" stroke-linejoin="round"/>
</svg>
