<svg width="87" height="32" viewBox="0 0 87 32" fill="none" xmlns="http://www.w3.org/2000/svg">
<rect width="87" height="32" rx="5" fill="#9072EE"/>
<path d="M13.11 12.14C13.51 12.14 13.8933 12.06 14.26 11.9C14.6267 11.7333 14.9367 11.5 15.19 11.2L15.88 11.9C15.54 12.2733 15.12 12.57 14.62 12.79C14.1267 13.0033 13.6133 13.11 13.08 13.11C12.5667 13.11 12.0833 13.0167 11.63 12.83C11.1833 12.6433 10.7967 12.39 10.47 12.07C10.1433 11.7433 9.88333 11.36 9.69 10.92C9.50333 10.4733 9.41 10 9.41 9.5C9.41 8.99333 9.50333 8.52 9.69 8.08C9.88333 7.64 10.1433 7.26 10.47 6.94C10.7967 6.61333 11.1833 6.35667 11.63 6.17C12.0833 5.98333 12.5667 5.89 13.08 5.89C13.6267 5.89 14.15 6 14.65 6.22C15.1567 6.43333 15.5733 6.72667 15.9 7.1L15.2 7.82C14.9333 7.51333 14.6133 7.27667 14.24 7.11C13.8667 6.94333 13.48 6.86 13.08 6.86C12.7133 6.86 12.37 6.92667 12.05 7.06C11.73 7.19333 11.4533 7.38 11.22 7.62C10.9933 7.85333 10.8133 8.13333 10.68 8.46C10.5467 8.78 10.48 9.12667 10.48 9.5C10.48 9.87333 10.5467 10.2233 10.68 10.55C10.8133 10.87 10.9967 11.1467 11.23 11.38C11.4633 11.6133 11.74 11.8 12.06 11.94C12.3867 12.0733 12.7367 12.14 13.11 12.14ZM16.362 10.45C16.362 10.0833 16.4286 9.74 16.562 9.42C16.702 9.09333 16.892 8.81333 17.132 8.58C17.372 8.34 17.652 8.15333 17.972 8.02C18.2986 7.88 18.6453 7.81 19.012 7.81C19.3786 7.81 19.722 7.88 20.042 8.02C20.3686 8.15333 20.6486 8.34 20.882 8.58C21.122 8.81333 21.3086 9.09333 21.442 9.42C21.582 9.74 21.652 10.0833 21.652 10.45C21.652 10.8233 21.582 11.1733 21.442 11.5C21.3086 11.82 21.122 12.1 20.882 12.34C20.6486 12.5733 20.3686 12.76 20.042 12.9C19.722 13.0333 19.3786 13.1 19.012 13.1C18.6453 13.1 18.2986 13.0333 17.972 12.9C17.652 12.76 17.372 12.5733 17.132 12.34C16.892 12.1 16.702 11.82 16.562 11.5C16.4286 11.1733 16.362 10.8233 16.362 10.45ZM19.012 12.22C19.472 12.22 19.862 12.05 20.182 11.71C20.5086 11.3633 20.672 10.9433 20.672 10.45C20.672 9.95667 20.5086 9.54 20.182 9.2C19.862 8.86 19.472 8.69 19.012 8.69C18.552 8.69 18.1586 8.86 17.832 9.2C17.5053 9.54 17.342 9.95667 17.342 10.45C17.342 10.9433 17.502 11.3633 17.822 11.71C18.1486 12.05 18.5453 12.22 19.012 12.22ZM22.5978 13V7.91H23.5978V8.39C23.7845 8.20333 23.9978 8.06 24.2378 7.96C24.4778 7.86 24.7411 7.81 25.0278 7.81C25.3678 7.81 25.6745 7.88667 25.9478 8.04C26.2211 8.18667 26.4378 8.39333 26.5978 8.66C26.8045 8.38 27.0511 8.17 27.3378 8.03C27.6311 7.88333 27.9578 7.81 28.3178 7.81C28.8778 7.81 29.3345 7.99667 29.6878 8.37C30.0478 8.73667 30.2278 9.21333 30.2278 9.8V13H29.2278V9.97C29.2278 9.57 29.1211 9.25667 28.9078 9.03C28.7011 8.79667 28.4178 8.68 28.0578 8.68C27.8111 8.68 27.5878 8.73667 27.3878 8.85C27.1878 8.96333 27.0145 9.13333 26.8678 9.36C26.8811 9.42667 26.8911 9.5 26.8978 9.58C26.9045 9.65333 26.9078 9.72667 26.9078 9.8V13H25.9178V9.97C25.9178 9.57 25.8111 9.25667 25.5978 9.03C25.3911 8.79667 25.1078 8.68 24.7478 8.68C24.5078 8.68 24.2911 8.73333 24.0978 8.84C23.9045 8.94 23.7378 9.09333 23.5978 9.3V13H22.5978ZM31.3771 15.07V7.91H32.3671V8.4C32.5738 8.21333 32.8104 8.07333 33.0771 7.98C33.3438 7.88 33.6271 7.83 33.9271 7.83C34.2871 7.83 34.6238 7.9 34.9371 8.04C35.2504 8.17333 35.5204 8.35667 35.7471 8.59C35.9804 8.82333 36.1638 9.1 36.2971 9.42C36.4304 9.74 36.4971 10.0833 36.4971 10.45C36.4971 10.8167 36.4304 11.1633 36.2971 11.49C36.1638 11.81 35.9804 12.0867 35.7471 12.32C35.5204 12.5533 35.2471 12.74 34.9271 12.88C34.6071 13.0133 34.2671 13.08 33.9071 13.08C33.6271 13.08 33.3538 13.0367 33.0871 12.95C32.8271 12.8633 32.5904 12.74 32.3771 12.58V15.07H31.3771ZM33.7971 8.7C33.5104 8.7 33.2438 8.75333 32.9971 8.86C32.7504 8.96667 32.5438 9.11667 32.3771 9.31V11.61C32.5371 11.7967 32.7404 11.9433 32.9871 12.05C33.2404 12.1567 33.5104 12.21 33.7971 12.21C34.2838 12.21 34.6904 12.0433 35.0171 11.71C35.3504 11.3767 35.5171 10.96 35.5171 10.46C35.5171 9.96 35.3504 9.54333 35.0171 9.21C34.6838 8.87 34.2771 8.7 33.7971 8.7ZM37.4513 13V7.91H38.4513V8.56C38.6047 8.31333 38.8013 8.12667 39.0413 8C39.2813 7.86667 39.5513 7.8 39.8513 7.8C39.958 7.8 40.0513 7.80667 40.1313 7.82C40.2113 7.83333 40.288 7.85333 40.3613 7.88V8.78C40.268 8.74667 40.1713 8.72 40.0713 8.7C39.9713 8.68 39.8713 8.67 39.7713 8.67C39.478 8.67 39.2147 8.75 38.9813 8.91C38.7547 9.06333 38.578 9.29333 38.4513 9.6V13H37.4513ZM40.6198 10.45C40.6198 10.0833 40.6864 9.74 40.8198 9.42C40.9598 9.09333 41.1498 8.81333 41.3898 8.58C41.6298 8.34 41.9098 8.15333 42.2298 8.02C42.5564 7.88 42.9031 7.81 43.2698 7.81C43.6364 7.81 43.9798 7.88 44.2998 8.02C44.6264 8.15333 44.9064 8.34 45.1398 8.58C45.3798 8.81333 45.5664 9.09333 45.6998 9.42C45.8398 9.74 45.9098 10.0833 45.9098 10.45C45.9098 10.8233 45.8398 11.1733 45.6998 11.5C45.5664 11.82 45.3798 12.1 45.1398 12.34C44.9064 12.5733 44.6264 12.76 44.2998 12.9C43.9798 13.0333 43.6364 13.1 43.2698 13.1C42.9031 13.1 42.5564 13.0333 42.2298 12.9C41.9098 12.76 41.6298 12.5733 41.3898 12.34C41.1498 12.1 40.9598 11.82 40.8198 11.5C40.6864 11.1733 40.6198 10.8233 40.6198 10.45ZM43.2698 12.22C43.7298 12.22 44.1198 12.05 44.4398 11.71C44.7664 11.3633 44.9298 10.9433 44.9298 10.45C44.9298 9.95667 44.7664 9.54 44.4398 9.2C44.1198 8.86 43.7298 8.69 43.2698 8.69C42.8098 8.69 42.4164 8.86 42.0898 9.2C41.7631 9.54 41.5998 9.95667 41.5998 10.45C41.5998 10.9433 41.7598 11.3633 42.0798 11.71C42.4064 12.05 42.8031 12.22 43.2698 12.22ZM51.9756 10.45C51.9756 10.8167 51.909 11.1633 51.7756 11.49C51.6423 11.81 51.459 12.0867 51.2256 12.32C50.999 12.5533 50.7256 12.74 50.4056 12.88C50.0856 13.0133 49.7456 13.08 49.3856 13.08C49.099 13.08 48.8256 13.0367 48.5656 12.95C48.3056 12.8633 48.0656 12.7367 47.8456 12.57V13H46.8556V6L47.8556 5.78V8.39C48.0623 8.21 48.299 8.07333 48.5656 7.98C48.8323 7.88 49.1123 7.83 49.4056 7.83C49.7656 7.83 50.1023 7.9 50.4156 8.04C50.729 8.17333 50.999 8.35667 51.2256 8.59C51.459 8.82333 51.6423 9.1 51.7756 9.42C51.909 9.74 51.9756 10.0833 51.9756 10.45ZM49.2756 8.7C48.989 8.7 48.7223 8.75333 48.4756 8.86C48.229 8.96667 48.0223 9.11667 47.8556 9.31V11.61C48.0156 11.7967 48.219 11.9433 48.4656 12.05C48.719 12.1567 48.989 12.21 49.2756 12.21C49.7623 12.21 50.169 12.0433 50.4956 11.71C50.829 11.3767 50.9956 10.96 50.9956 10.46C50.9956 9.96 50.829 9.54333 50.4956 9.21C50.1623 8.87 49.7556 8.7 49.2756 8.7ZM54.5887 13.09C54.0353 13.09 53.5853 12.9467 53.2387 12.66C52.892 12.3733 52.7187 12 52.7187 11.54C52.7187 11.06 52.902 10.6833 53.2687 10.41C53.6353 10.13 54.1387 9.99 54.7787 9.99C55.0253 9.99 55.2653 10.0167 55.4987 10.07C55.732 10.1167 55.9553 10.1833 56.1687 10.27V9.73C56.1687 9.37 56.062 9.1 55.8487 8.92C55.6353 8.74 55.3287 8.65 54.9287 8.65C54.6953 8.65 54.452 8.68667 54.1987 8.76C53.9453 8.82667 53.662 8.93333 53.3487 9.08L52.9787 8.33C53.3587 8.15 53.7187 8.02 54.0587 7.94C54.3987 7.85333 54.7353 7.81 55.0687 7.81C55.7287 7.81 56.2387 7.97 56.5987 8.29C56.9653 8.60333 57.1487 9.05 57.1487 9.63V13H56.1687V12.56C55.942 12.74 55.6987 12.8733 55.4387 12.96C55.1787 13.0467 54.8953 13.09 54.5887 13.09ZM53.6787 11.52C53.6787 11.7667 53.782 11.9667 53.9887 12.12C54.202 12.2733 54.4787 12.35 54.8187 12.35C55.0853 12.35 55.332 12.31 55.5587 12.23C55.7853 12.15 55.9887 12.03 56.1687 11.87V10.99C55.9753 10.8833 55.772 10.8067 55.5587 10.76C55.3453 10.7067 55.112 10.68 54.8587 10.68C54.4987 10.68 54.212 10.7567 53.9987 10.91C53.7853 11.0633 53.6787 11.2667 53.6787 11.52ZM58.3009 13V7.91H59.3009V8.42C59.5009 8.22 59.7276 8.07 59.9809 7.97C60.2409 7.86333 60.5243 7.81 60.8309 7.81C61.4109 7.81 61.8876 7.99667 62.2609 8.37C62.6343 8.73667 62.8209 9.21333 62.8209 9.8V13H61.8209V9.97C61.8209 9.57 61.7043 9.25667 61.4709 9.03C61.2443 8.79667 60.9409 8.68 60.5609 8.68C60.2943 8.68 60.0509 8.73667 59.8309 8.85C59.6176 8.96333 59.4409 9.12667 59.3009 9.34V13H58.3009ZM64.4395 11.74V8.75H63.3595V7.91H64.4395V6.61L65.4295 6.37V7.91H66.9295V8.75H65.4295V11.51C65.4295 11.77 65.4861 11.9533 65.5995 12.06C65.7195 12.1667 65.9128 12.22 66.1795 12.22C66.3195 12.22 66.4428 12.2133 66.5495 12.2C66.6628 12.18 66.7828 12.1467 66.9095 12.1V12.94C66.7761 12.9867 66.6195 13.0233 66.4395 13.05C66.2661 13.0767 66.1061 13.09 65.9595 13.09C65.4661 13.09 65.0895 12.9767 64.8295 12.75C64.5695 12.5167 64.4395 12.18 64.4395 11.74ZM71.9688 12.42C71.6754 12.6467 71.3688 12.8167 71.0488 12.93C70.7288 13.0367 70.3788 13.09 69.9988 13.09C69.6254 13.09 69.2754 13.0233 68.9488 12.89C68.6221 12.75 68.3388 12.5633 68.0988 12.33C67.8588 12.0967 67.6688 11.82 67.5288 11.5C67.3954 11.1733 67.3288 10.8233 67.3288 10.45C67.3288 10.0833 67.3954 9.74 67.5288 9.42C67.6621 9.1 67.8421 8.82333 68.0688 8.59C68.2954 8.35667 68.5654 8.17333 68.8788 8.04C69.1921 7.9 69.5254 7.83 69.8788 7.83C70.2254 7.83 70.5488 7.9 70.8488 8.04C71.1554 8.17333 71.4154 8.36 71.6288 8.6C71.8488 8.83333 72.0221 9.11333 72.1488 9.44C72.2754 9.76667 72.3388 10.1167 72.3388 10.49V10.78H68.3188C68.3854 11.2 68.5788 11.55 68.8988 11.83C69.2188 12.1033 69.5988 12.24 70.0388 12.24C70.2854 12.24 70.5221 12.2 70.7488 12.12C70.9754 12.04 71.1688 11.93 71.3288 11.79L71.9688 12.42ZM69.8588 8.67C69.4788 8.67 69.1454 8.79667 68.8588 9.05C68.5788 9.30333 68.4021 9.63 68.3288 10.03H71.3488C71.2754 9.64333 71.0988 9.32 70.8188 9.06C70.5454 8.8 70.2254 8.67 69.8588 8.67ZM12.02 25.21C12.2733 25.21 12.5133 25.16 12.74 25.06C12.9667 24.9533 13.1833 24.7967 13.39 24.59L13.99 25.24C13.7233 25.5067 13.4167 25.7167 13.07 25.87C12.7233 26.0167 12.36 26.09 11.98 26.09C11.6133 26.09 11.27 26.0233 10.95 25.89C10.63 25.75 10.3533 25.5633 10.12 25.33C9.88667 25.0967 9.7 24.82 9.56 24.5C9.42667 24.1733 9.36 23.8233 9.36 23.45C9.36 23.0833 9.42667 22.74 9.56 22.42C9.7 22.0933 9.88667 21.8133 10.12 21.58C10.3533 21.34 10.63 21.1533 10.95 21.02C11.27 20.88 11.6133 20.81 11.98 20.81C12.36 20.81 12.73 20.8867 13.09 21.04C13.45 21.1867 13.7633 21.3933 14.03 21.66L13.4 22.34C13.2067 22.1333 12.99 21.9767 12.75 21.87C12.51 21.7567 12.26 21.7 12 21.7C11.54 21.7 11.15 21.87 10.83 22.21C10.51 22.55 10.35 22.9633 10.35 23.45C10.35 23.95 10.51 24.37 10.83 24.71C11.1567 25.0433 11.5533 25.21 12.02 25.21ZM14.3795 23.45C14.3795 23.0833 14.4462 22.74 14.5795 22.42C14.7195 22.0933 14.9095 21.8133 15.1495 21.58C15.3895 21.34 15.6695 21.1533 15.9895 21.02C16.3162 20.88 16.6629 20.81 17.0295 20.81C17.3962 20.81 17.7395 20.88 18.0595 21.02C18.3862 21.1533 18.6662 21.34 18.8995 21.58C19.1395 21.8133 19.3262 22.0933 19.4595 22.42C19.5995 22.74 19.6695 23.0833 19.6695 23.45C19.6695 23.8233 19.5995 24.1733 19.4595 24.5C19.3262 24.82 19.1395 25.1 18.8995 25.34C18.6662 25.5733 18.3862 25.76 18.0595 25.9C17.7395 26.0333 17.3962 26.1 17.0295 26.1C16.6629 26.1 16.3162 26.0333 15.9895 25.9C15.6695 25.76 15.3895 25.5733 15.1495 25.34C14.9095 25.1 14.7195 24.82 14.5795 24.5C14.4462 24.1733 14.3795 23.8233 14.3795 23.45ZM17.0295 25.22C17.4895 25.22 17.8795 25.05 18.1995 24.71C18.5262 24.3633 18.6895 23.9433 18.6895 23.45C18.6895 22.9567 18.5262 22.54 18.1995 22.2C17.8795 21.86 17.4895 21.69 17.0295 21.69C16.5695 21.69 16.1762 21.86 15.8495 22.2C15.5229 22.54 15.3595 22.9567 15.3595 23.45C15.3595 23.9433 15.5195 24.3633 15.8395 24.71C16.1662 25.05 16.5629 25.22 17.0295 25.22ZM20.6154 26V20.91H21.6154V21.39C21.8021 21.2033 22.0154 21.06 22.2554 20.96C22.4954 20.86 22.7587 20.81 23.0454 20.81C23.3854 20.81 23.6921 20.8867 23.9654 21.04C24.2387 21.1867 24.4554 21.3933 24.6154 21.66C24.8221 21.38 25.0687 21.17 25.3554 21.03C25.6487 20.8833 25.9754 20.81 26.3354 20.81C26.8954 20.81 27.3521 20.9967 27.7054 21.37C28.0654 21.7367 28.2454 22.2133 28.2454 22.8V26H27.2454V22.97C27.2454 22.57 27.1387 22.2567 26.9254 22.03C26.7187 21.7967 26.4354 21.68 26.0754 21.68C25.8287 21.68 25.6054 21.7367 25.4054 21.85C25.2054 21.9633 25.0321 22.1333 24.8854 22.36C24.8987 22.4267 24.9087 22.5 24.9154 22.58C24.9221 22.6533 24.9254 22.7267 24.9254 22.8V26H23.9354V22.97C23.9354 22.57 23.8287 22.2567 23.6154 22.03C23.4087 21.7967 23.1254 21.68 22.7654 21.68C22.5254 21.68 22.3087 21.7333 22.1154 21.84C21.9221 21.94 21.7554 22.0933 21.6154 22.3V26H20.6154ZM29.3947 28.07V20.91H30.3847V21.4C30.5914 21.2133 30.828 21.0733 31.0947 20.98C31.3614 20.88 31.6447 20.83 31.9447 20.83C32.3047 20.83 32.6414 20.9 32.9547 21.04C33.268 21.1733 33.538 21.3567 33.7647 21.59C33.998 21.8233 34.1814 22.1 34.3147 22.42C34.448 22.74 34.5147 23.0833 34.5147 23.45C34.5147 23.8167 34.448 24.1633 34.3147 24.49C34.1814 24.81 33.998 25.0867 33.7647 25.32C33.538 25.5533 33.2647 25.74 32.9447 25.88C32.6247 26.0133 32.2847 26.08 31.9247 26.08C31.6447 26.08 31.3714 26.0367 31.1047 25.95C30.8447 25.8633 30.608 25.74 30.3947 25.58V28.07H29.3947ZM31.8147 21.7C31.528 21.7 31.2614 21.7533 31.0147 21.86C30.768 21.9667 30.5614 22.1167 30.3947 22.31V24.61C30.5547 24.7967 30.758 24.9433 31.0047 25.05C31.258 25.1567 31.528 25.21 31.8147 25.21C32.3014 25.21 32.708 25.0433 33.0347 24.71C33.368 24.3767 33.5347 23.96 33.5347 23.46C33.5347 22.96 33.368 22.5433 33.0347 22.21C32.7014 21.87 32.2947 21.7 31.8147 21.7ZM35.4689 26V20.91H36.4689V21.56C36.6222 21.3133 36.8189 21.1267 37.0589 21C37.2989 20.8667 37.5689 20.8 37.8689 20.8C37.9756 20.8 38.0689 20.8067 38.1489 20.82C38.2289 20.8333 38.3056 20.8533 38.3789 20.88V21.78C38.2856 21.7467 38.1889 21.72 38.0889 21.7C37.9889 21.68 37.8889 21.67 37.7889 21.67C37.4956 21.67 37.2322 21.75 36.9989 21.91C36.7722 22.0633 36.5956 22.2933 36.4689 22.6V26H35.4689ZM40.575 26.09C40.0217 26.09 39.5717 25.9467 39.225 25.66C38.8783 25.3733 38.705 25 38.705 24.54C38.705 24.06 38.8883 23.6833 39.255 23.41C39.6217 23.13 40.125 22.99 40.765 22.99C41.0117 22.99 41.2517 23.0167 41.485 23.07C41.7183 23.1167 41.9417 23.1833 42.155 23.27V22.73C42.155 22.37 42.0483 22.1 41.835 21.92C41.6217 21.74 41.315 21.65 40.915 21.65C40.6817 21.65 40.4383 21.6867 40.185 21.76C39.9317 21.8267 39.6483 21.9333 39.335 22.08L38.965 21.33C39.345 21.15 39.705 21.02 40.045 20.94C40.385 20.8533 40.7217 20.81 41.055 20.81C41.715 20.81 42.225 20.97 42.585 21.29C42.9517 21.6033 43.135 22.05 43.135 22.63V26H42.155V25.56C41.9283 25.74 41.685 25.8733 41.425 25.96C41.165 26.0467 40.8817 26.09 40.575 26.09ZM39.665 24.52C39.665 24.7667 39.7683 24.9667 39.975 25.12C40.1883 25.2733 40.465 25.35 40.805 25.35C41.0717 25.35 41.3183 25.31 41.545 25.23C41.7717 25.15 41.975 25.03 42.155 24.87V23.99C41.9617 23.8833 41.7583 23.8067 41.545 23.76C41.3317 23.7067 41.0983 23.68 40.845 23.68C40.485 23.68 40.1983 23.7567 39.985 23.91C39.7717 24.0633 39.665 24.2667 39.665 24.52Z" fill="white"/>
</svg>
