<svg width="225" height="35" viewBox="0 0 225 35" fill="none" xmlns="http://www.w3.org/2000/svg">
<rect y="4" width="225" height="27" rx="13.5" fill="#ECEDFB"/>
<path d="M43.852 22V13.6H46.816C47.448 13.6 48.032 13.708 48.568 13.924C49.112 14.132 49.58 14.424 49.972 14.8C50.372 15.168 50.684 15.612 50.908 16.132C51.132 16.652 51.244 17.212 51.244 17.812C51.244 18.412 51.132 18.968 50.908 19.48C50.684 19.992 50.376 20.436 49.984 20.812C49.592 21.18 49.124 21.472 48.58 21.688C48.036 21.896 47.448 22 46.816 22H43.852ZM46.84 14.728H45.112V20.872H46.84C47.272 20.872 47.68 20.796 48.064 20.644C48.448 20.484 48.776 20.268 49.048 19.996C49.328 19.716 49.548 19.392 49.708 19.024C49.868 18.648 49.948 18.244 49.948 17.812C49.948 17.38 49.868 16.976 49.708 16.6C49.548 16.216 49.328 15.888 49.048 15.616C48.776 15.336 48.448 15.12 48.064 14.968C47.68 14.808 47.272 14.728 46.84 14.728ZM54.2533 22.108C53.5893 22.108 53.0493 21.936 52.6333 21.592C52.2173 21.248 52.0093 20.8 52.0093 20.248C52.0093 19.672 52.2293 19.22 52.6693 18.892C53.1093 18.556 53.7133 18.388 54.4813 18.388C54.7773 18.388 55.0653 18.42 55.3453 18.484C55.6253 18.54 55.8933 18.62 56.1493 18.724V18.076C56.1493 17.644 56.0213 17.32 55.7653 17.104C55.5093 16.888 55.1413 16.78 54.6613 16.78C54.3813 16.78 54.0893 16.824 53.7853 16.912C53.4813 16.992 53.1413 17.12 52.7653 17.296L52.3213 16.396C52.7773 16.18 53.2093 16.024 53.6173 15.928C54.0253 15.824 54.4293 15.772 54.8293 15.772C55.6213 15.772 56.2333 15.964 56.6653 16.348C57.1053 16.724 57.3253 17.26 57.3253 17.956V22H56.1493V21.472C55.8773 21.688 55.5853 21.848 55.2733 21.952C54.9613 22.056 54.6213 22.108 54.2533 22.108ZM53.1613 20.224C53.1613 20.52 53.2853 20.76 53.5333 20.944C53.7893 21.128 54.1213 21.22 54.5293 21.22C54.8493 21.22 55.1453 21.172 55.4173 21.076C55.6893 20.98 55.9333 20.836 56.1493 20.644V19.588C55.9173 19.46 55.6733 19.368 55.4173 19.312C55.1613 19.248 54.8813 19.216 54.5773 19.216C54.1453 19.216 53.8013 19.308 53.5453 19.492C53.2893 19.676 53.1613 19.92 53.1613 20.224ZM59.2656 20.488V16.9H57.9696V15.892H59.2656V14.332L60.4536 14.044V15.892H62.2536V16.9H60.4536V20.212C60.4536 20.524 60.5216 20.744 60.6576 20.872C60.8016 21 61.0336 21.064 61.3536 21.064C61.5216 21.064 61.6696 21.056 61.7976 21.04C61.9336 21.016 62.0776 20.976 62.2296 20.92V21.928C62.0696 21.984 61.8816 22.028 61.6656 22.06C61.4576 22.092 61.2656 22.108 61.0896 22.108C60.4976 22.108 60.0456 21.972 59.7336 21.7C59.4216 21.42 59.2656 21.016 59.2656 20.488ZM62.7328 18.94C62.7328 18.5 62.8128 18.088 62.9728 17.704C63.1408 17.312 63.3688 16.976 63.6568 16.696C63.9448 16.408 64.2808 16.184 64.6648 16.024C65.0568 15.856 65.4728 15.772 65.9128 15.772C66.3528 15.772 66.7648 15.856 67.1488 16.024C67.5408 16.184 67.8768 16.408 68.1568 16.696C68.4448 16.976 68.6688 17.312 68.8288 17.704C68.9968 18.088 69.0808 18.5 69.0808 18.94C69.0808 19.388 68.9968 19.808 68.8288 20.2C68.6688 20.584 68.4448 20.92 68.1568 21.208C67.8768 21.488 67.5408 21.712 67.1488 21.88C66.7648 22.04 66.3528 22.12 65.9128 22.12C65.4728 22.12 65.0568 22.04 64.6648 21.88C64.2808 21.712 63.9448 21.488 63.6568 21.208C63.3688 20.92 63.1408 20.584 62.9728 20.2C62.8128 19.808 62.7328 19.388 62.7328 18.94ZM65.9128 21.064C66.4648 21.064 66.9328 20.86 67.3168 20.452C67.7088 20.036 67.9048 19.532 67.9048 18.94C67.9048 18.348 67.7088 17.848 67.3168 17.44C66.9328 17.032 66.4648 16.828 65.9128 16.828C65.3608 16.828 64.8888 17.032 64.4968 17.44C64.1048 17.848 63.9088 18.348 63.9088 18.94C63.9088 19.532 64.1008 20.036 64.4848 20.452C64.8768 20.86 65.3528 21.064 65.9128 21.064ZM69.6398 21.208L70.2878 20.416C70.6078 20.664 70.9318 20.856 71.2598 20.992C71.5958 21.12 71.9358 21.184 72.2798 21.184C72.7118 21.184 73.0638 21.1 73.3358 20.932C73.6078 20.764 73.7438 20.544 73.7438 20.272C73.7438 20.056 73.6638 19.884 73.5038 19.756C73.3438 19.628 73.0958 19.54 72.7598 19.492L71.6558 19.336C71.0558 19.248 70.5998 19.064 70.2878 18.784C69.9838 18.496 69.8318 18.116 69.8318 17.644C69.8318 17.092 70.0518 16.648 70.4918 16.312C70.9318 15.968 71.5078 15.796 72.2198 15.796C72.6678 15.796 73.0918 15.86 73.4918 15.988C73.8998 16.116 74.2958 16.312 74.6798 16.576L74.0678 17.368C73.7318 17.144 73.4038 16.984 73.0838 16.888C72.7718 16.784 72.4558 16.732 72.1358 16.732C71.7678 16.732 71.4718 16.808 71.2478 16.96C71.0238 17.112 70.9118 17.312 70.9118 17.56C70.9118 17.784 70.9878 17.956 71.1398 18.076C71.2998 18.188 71.5598 18.272 71.9198 18.328L73.0238 18.484C73.6238 18.572 74.0798 18.76 74.3918 19.048C74.7118 19.336 74.8718 19.716 74.8718 20.188C74.8718 20.46 74.8038 20.716 74.6678 20.956C74.5398 21.188 74.3598 21.388 74.1278 21.556C73.9038 21.724 73.6358 21.86 73.3238 21.964C73.0118 22.06 72.6758 22.108 72.3158 22.108C71.7878 22.108 71.2918 22.032 70.8278 21.88C70.3718 21.728 69.9758 21.504 69.6398 21.208ZM78.4458 22V13.6H84.6497V14.704H79.7058V17.284H82.9698V18.364H79.7058V22H78.4458ZM86.1088 14.908C85.9088 14.908 85.7368 14.836 85.5928 14.692C85.4488 14.54 85.3768 14.364 85.3768 14.164C85.3768 13.964 85.4488 13.792 85.5928 13.648C85.7368 13.496 85.9088 13.42 86.1088 13.42C86.3088 13.42 86.4808 13.496 86.6248 13.648C86.7768 13.792 86.8528 13.964 86.8528 14.164C86.8528 14.364 86.7768 14.54 86.6248 14.692C86.4808 14.836 86.3088 14.908 86.1088 14.908ZM86.7088 15.892V22H85.5088V15.892H86.7088ZM87.5461 21.208L88.1941 20.416C88.5141 20.664 88.8381 20.856 89.1661 20.992C89.5021 21.12 89.8421 21.184 90.1861 21.184C90.6181 21.184 90.9701 21.1 91.2421 20.932C91.5141 20.764 91.6501 20.544 91.6501 20.272C91.6501 20.056 91.5701 19.884 91.4101 19.756C91.2501 19.628 91.0021 19.54 90.6661 19.492L89.5621 19.336C88.9621 19.248 88.5061 19.064 88.1941 18.784C87.8901 18.496 87.7381 18.116 87.7381 17.644C87.7381 17.092 87.9581 16.648 88.3981 16.312C88.8381 15.968 89.4141 15.796 90.1261 15.796C90.5741 15.796 90.9981 15.86 91.3981 15.988C91.8061 16.116 92.2021 16.312 92.5861 16.576L91.9741 17.368C91.6381 17.144 91.3101 16.984 90.9901 16.888C90.6781 16.784 90.3621 16.732 90.0421 16.732C89.6741 16.732 89.3781 16.808 89.1541 16.96C88.9301 17.112 88.8181 17.312 88.8181 17.56C88.8181 17.784 88.8941 17.956 89.0461 18.076C89.2061 18.188 89.4661 18.272 89.8261 18.328L90.9301 18.484C91.5301 18.572 91.9861 18.76 92.2981 19.048C92.6181 19.336 92.7781 19.716 92.7781 20.188C92.7781 20.46 92.7101 20.716 92.5741 20.956C92.4461 21.188 92.2661 21.388 92.0341 21.556C91.8101 21.724 91.5421 21.86 91.2301 21.964C90.9181 22.06 90.5821 22.108 90.2221 22.108C89.6941 22.108 89.1981 22.032 88.7341 21.88C88.2781 21.728 87.8821 21.504 87.5461 21.208ZM96.6748 21.052C96.9788 21.052 97.2668 20.992 97.5388 20.872C97.8108 20.744 98.0708 20.556 98.3188 20.308L99.0388 21.088C98.7188 21.408 98.3508 21.66 97.9348 21.844C97.5188 22.02 97.0828 22.108 96.6268 22.108C96.1868 22.108 95.7748 22.028 95.3908 21.868C95.0068 21.7 94.6748 21.476 94.3948 21.196C94.1148 20.916 93.8908 20.584 93.7228 20.2C93.5628 19.808 93.4828 19.388 93.4828 18.94C93.4828 18.5 93.5628 18.088 93.7228 17.704C93.8908 17.312 94.1148 16.976 94.3948 16.696C94.6748 16.408 95.0068 16.184 95.3908 16.024C95.7748 15.856 96.1868 15.772 96.6268 15.772C97.0828 15.772 97.5268 15.864 97.9588 16.048C98.3908 16.224 98.7668 16.472 99.0868 16.792L98.3308 17.608C98.0988 17.36 97.8388 17.172 97.5508 17.044C97.2628 16.908 96.9628 16.84 96.6508 16.84C96.0988 16.84 95.6308 17.044 95.2468 17.452C94.8628 17.86 94.6708 18.356 94.6708 18.94C94.6708 19.54 94.8628 20.044 95.2468 20.452C95.6388 20.852 96.1148 21.052 96.6748 21.052ZM101.949 22.108C101.285 22.108 100.745 21.936 100.329 21.592C99.9126 21.248 99.7046 20.8 99.7046 20.248C99.7046 19.672 99.9246 19.22 100.365 18.892C100.805 18.556 101.409 18.388 102.177 18.388C102.473 18.388 102.761 18.42 103.041 18.484C103.321 18.54 103.589 18.62 103.845 18.724V18.076C103.845 17.644 103.717 17.32 103.461 17.104C103.205 16.888 102.837 16.78 102.357 16.78C102.077 16.78 101.785 16.824 101.481 16.912C101.177 16.992 100.837 17.12 100.461 17.296L100.017 16.396C100.473 16.18 100.905 16.024 101.313 15.928C101.721 15.824 102.125 15.772 102.525 15.772C103.317 15.772 103.929 15.964 104.361 16.348C104.801 16.724 105.021 17.26 105.021 17.956V22H103.845V21.472C103.573 21.688 103.281 21.848 102.969 21.952C102.657 22.056 102.317 22.108 101.949 22.108ZM100.857 20.224C100.857 20.52 100.981 20.76 101.229 20.944C101.485 21.128 101.817 21.22 102.225 21.22C102.545 21.22 102.841 21.172 103.113 21.076C103.385 20.98 103.629 20.836 103.845 20.644V19.588C103.613 19.46 103.369 19.368 103.113 19.312C102.857 19.248 102.577 19.216 102.273 19.216C101.841 19.216 101.497 19.308 101.241 19.492C100.985 19.676 100.857 19.92 100.857 20.224ZM107.603 13.336V22H106.403V13.6L107.603 13.336ZM114.309 21.304C113.957 21.576 113.589 21.78 113.205 21.916C112.821 22.044 112.401 22.108 111.945 22.108C111.497 22.108 111.077 22.028 110.685 21.868C110.293 21.7 109.953 21.476 109.665 21.196C109.377 20.916 109.149 20.584 108.981 20.2C108.821 19.808 108.741 19.388 108.741 18.94C108.741 18.5 108.821 18.088 108.981 17.704C109.141 17.32 109.357 16.988 109.629 16.708C109.901 16.428 110.225 16.208 110.601 16.048C110.977 15.88 111.377 15.796 111.801 15.796C112.217 15.796 112.605 15.88 112.965 16.048C113.333 16.208 113.645 16.432 113.901 16.72C114.165 17 114.373 17.336 114.525 17.728C114.677 18.12 114.753 18.54 114.753 18.988V19.336H109.929C110.009 19.84 110.241 20.26 110.625 20.596C111.009 20.924 111.465 21.088 111.993 21.088C112.289 21.088 112.573 21.04 112.845 20.944C113.117 20.848 113.349 20.716 113.541 20.548L114.309 21.304ZM111.777 16.804C111.321 16.804 110.921 16.956 110.577 17.26C110.241 17.564 110.029 17.956 109.941 18.436H113.565C113.477 17.972 113.265 17.584 112.929 17.272C112.601 16.96 112.217 16.804 111.777 16.804ZM115.378 21.208L116.026 20.416C116.346 20.664 116.67 20.856 116.998 20.992C117.334 21.12 117.674 21.184 118.018 21.184C118.45 21.184 118.802 21.1 119.074 20.932C119.346 20.764 119.482 20.544 119.482 20.272C119.482 20.056 119.402 19.884 119.242 19.756C119.082 19.628 118.834 19.54 118.498 19.492L117.394 19.336C116.794 19.248 116.338 19.064 116.026 18.784C115.722 18.496 115.57 18.116 115.57 17.644C115.57 17.092 115.79 16.648 116.23 16.312C116.67 15.968 117.246 15.796 117.958 15.796C118.406 15.796 118.83 15.86 119.23 15.988C119.638 16.116 120.034 16.312 120.418 16.576L119.806 17.368C119.47 17.144 119.142 16.984 118.822 16.888C118.51 16.784 118.194 16.732 117.874 16.732C117.506 16.732 117.21 16.808 116.986 16.96C116.762 17.112 116.65 17.312 116.65 17.56C116.65 17.784 116.726 17.956 116.878 18.076C117.038 18.188 117.298 18.272 117.658 18.328L118.762 18.484C119.362 18.572 119.818 18.76 120.13 19.048C120.45 19.336 120.61 19.716 120.61 20.188C120.61 20.46 120.542 20.716 120.406 20.956C120.278 21.188 120.098 21.388 119.866 21.556C119.642 21.724 119.374 21.86 119.062 21.964C118.75 22.06 118.414 22.108 118.054 22.108C117.526 22.108 117.03 22.032 116.566 21.88C116.11 21.728 115.714 21.504 115.378 21.208ZM128.72 22V21.424C128.464 21.64 128.176 21.808 127.856 21.928C127.536 22.04 127.2 22.096 126.848 22.096C126.416 22.096 126.012 22.016 125.636 21.856C125.26 21.688 124.932 21.464 124.652 21.184C124.38 20.904 124.164 20.572 124.004 20.188C123.844 19.796 123.764 19.38 123.764 18.94C123.764 18.5 123.844 18.088 124.004 17.704C124.164 17.32 124.38 16.988 124.652 16.708C124.932 16.428 125.264 16.208 125.648 16.048C126.032 15.88 126.44 15.796 126.872 15.796C127.208 15.796 127.532 15.848 127.844 15.952C128.156 16.056 128.444 16.204 128.708 16.396V13.6L129.908 13.336V22H128.72ZM124.94 18.928C124.94 19.528 125.14 20.032 125.54 20.44C125.94 20.848 126.432 21.052 127.016 21.052C127.36 21.052 127.676 20.988 127.964 20.86C128.26 20.732 128.508 20.552 128.708 20.32V17.548C128.508 17.324 128.26 17.148 127.964 17.02C127.668 16.892 127.352 16.828 127.016 16.828C126.432 16.828 125.94 17.028 125.54 17.428C125.14 17.828 124.94 18.328 124.94 18.928ZM136.621 21.304C136.269 21.576 135.901 21.78 135.517 21.916C135.133 22.044 134.713 22.108 134.257 22.108C133.809 22.108 133.389 22.028 132.997 21.868C132.605 21.7 132.265 21.476 131.977 21.196C131.689 20.916 131.461 20.584 131.293 20.2C131.133 19.808 131.053 19.388 131.053 18.94C131.053 18.5 131.133 18.088 131.293 17.704C131.453 17.32 131.669 16.988 131.941 16.708C132.213 16.428 132.537 16.208 132.913 16.048C133.289 15.88 133.689 15.796 134.113 15.796C134.529 15.796 134.917 15.88 135.277 16.048C135.645 16.208 135.957 16.432 136.213 16.72C136.477 17 136.685 17.336 136.837 17.728C136.989 18.12 137.065 18.54 137.065 18.988V19.336H132.241C132.321 19.84 132.553 20.26 132.937 20.596C133.321 20.924 133.777 21.088 134.305 21.088C134.601 21.088 134.885 21.04 135.157 20.944C135.429 20.848 135.661 20.716 135.853 20.548L136.621 21.304ZM134.089 16.804C133.633 16.804 133.233 16.956 132.889 17.26C132.553 17.564 132.341 17.956 132.253 18.436H135.877C135.789 17.972 135.577 17.584 135.241 17.272C134.913 16.96 134.529 16.804 134.089 16.804ZM140.44 18.94C140.44 18.5 140.52 18.088 140.68 17.704C140.848 17.312 141.076 16.976 141.364 16.696C141.652 16.408 141.988 16.184 142.372 16.024C142.764 15.856 143.18 15.772 143.62 15.772C144.06 15.772 144.472 15.856 144.856 16.024C145.248 16.184 145.584 16.408 145.864 16.696C146.152 16.976 146.376 17.312 146.536 17.704C146.704 18.088 146.788 18.5 146.788 18.94C146.788 19.388 146.704 19.808 146.536 20.2C146.376 20.584 146.152 20.92 145.864 21.208C145.584 21.488 145.248 21.712 144.856 21.88C144.472 22.04 144.06 22.12 143.62 22.12C143.18 22.12 142.764 22.04 142.372 21.88C141.988 21.712 141.652 21.488 141.364 21.208C141.076 20.92 140.848 20.584 140.68 20.2C140.52 19.808 140.44 19.388 140.44 18.94ZM143.62 21.064C144.172 21.064 144.64 20.86 145.024 20.452C145.416 20.036 145.612 19.532 145.612 18.94C145.612 18.348 145.416 17.848 145.024 17.44C144.64 17.032 144.172 16.828 143.62 16.828C143.068 16.828 142.596 17.032 142.204 17.44C141.812 17.848 141.616 18.348 141.616 18.94C141.616 19.532 141.808 20.036 142.192 20.452C142.584 20.86 143.06 21.064 143.62 21.064ZM148.34 20.488V16.9H147.044V15.892H148.34V14.332L149.528 14.044V15.892H151.328V16.9H149.528V20.212C149.528 20.524 149.596 20.744 149.732 20.872C149.876 21 150.108 21.064 150.428 21.064C150.596 21.064 150.744 21.056 150.872 21.04C151.008 21.016 151.152 20.976 151.304 20.92V21.928C151.144 21.984 150.956 22.028 150.74 22.06C150.532 22.092 150.34 22.108 150.164 22.108C149.572 22.108 149.12 21.972 148.808 21.7C148.496 21.42 148.34 21.016 148.34 20.488ZM152.212 22V15.892H153.412V16.672C153.596 16.376 153.832 16.152 154.12 16C154.408 15.84 154.732 15.76 155.092 15.76C155.22 15.76 155.332 15.768 155.428 15.784C155.524 15.8 155.616 15.824 155.704 15.856V16.936C155.592 16.896 155.476 16.864 155.356 16.84C155.236 16.816 155.116 16.804 154.996 16.804C154.644 16.804 154.328 16.9 154.048 17.092C153.776 17.276 153.564 17.552 153.412 17.92V22H152.212ZM156.014 18.94C156.014 18.5 156.094 18.088 156.254 17.704C156.422 17.312 156.65 16.976 156.938 16.696C157.226 16.408 157.562 16.184 157.946 16.024C158.338 15.856 158.754 15.772 159.194 15.772C159.634 15.772 160.046 15.856 160.43 16.024C160.822 16.184 161.158 16.408 161.438 16.696C161.726 16.976 161.95 17.312 162.11 17.704C162.278 18.088 162.362 18.5 162.362 18.94C162.362 19.388 162.278 19.808 162.11 20.2C161.95 20.584 161.726 20.92 161.438 21.208C161.158 21.488 160.822 21.712 160.43 21.88C160.046 22.04 159.634 22.12 159.194 22.12C158.754 22.12 158.338 22.04 157.946 21.88C157.562 21.712 157.226 21.488 156.938 21.208C156.65 20.92 156.422 20.584 156.254 20.2C156.094 19.808 156.014 19.388 156.014 18.94ZM159.194 21.064C159.746 21.064 160.214 20.86 160.598 20.452C160.99 20.036 161.186 19.532 161.186 18.94C161.186 18.348 160.99 17.848 160.598 17.44C160.214 17.032 159.746 16.828 159.194 16.828C158.642 16.828 158.17 17.032 157.778 17.44C157.386 17.848 157.19 18.348 157.19 18.94C157.19 19.532 157.382 20.036 157.766 20.452C158.158 20.86 158.634 21.064 159.194 21.064ZM162.921 21.208L163.569 20.416C163.889 20.664 164.213 20.856 164.541 20.992C164.877 21.12 165.217 21.184 165.561 21.184C165.993 21.184 166.345 21.1 166.617 20.932C166.889 20.764 167.025 20.544 167.025 20.272C167.025 20.056 166.945 19.884 166.785 19.756C166.625 19.628 166.377 19.54 166.041 19.492L164.937 19.336C164.337 19.248 163.881 19.064 163.569 18.784C163.265 18.496 163.113 18.116 163.113 17.644C163.113 17.092 163.333 16.648 163.773 16.312C164.213 15.968 164.789 15.796 165.501 15.796C165.949 15.796 166.373 15.86 166.773 15.988C167.181 16.116 167.577 16.312 167.961 16.576L167.349 17.368C167.013 17.144 166.685 16.984 166.365 16.888C166.053 16.784 165.737 16.732 165.417 16.732C165.049 16.732 164.753 16.808 164.529 16.96C164.305 17.112 164.193 17.312 164.193 17.56C164.193 17.784 164.269 17.956 164.421 18.076C164.581 18.188 164.841 18.272 165.201 18.328L166.305 18.484C166.905 18.572 167.361 18.76 167.673 19.048C167.993 19.336 168.153 19.716 168.153 20.188C168.153 20.46 168.085 20.716 167.949 20.956C167.821 21.188 167.641 21.388 167.409 21.556C167.185 21.724 166.917 21.86 166.605 21.964C166.293 22.06 165.957 22.108 165.597 22.108C165.069 22.108 164.573 22.032 164.109 21.88C163.653 21.728 163.257 21.504 162.921 21.208ZM171.583 24.484V15.892H172.771V16.48C173.019 16.256 173.303 16.088 173.623 15.976C173.943 15.856 174.283 15.796 174.643 15.796C175.075 15.796 175.479 15.88 175.855 16.048C176.231 16.208 176.555 16.428 176.827 16.708C177.107 16.988 177.327 17.32 177.487 17.704C177.647 18.088 177.727 18.5 177.727 18.94C177.727 19.38 177.647 19.796 177.487 20.188C177.327 20.572 177.107 20.904 176.827 21.184C176.555 21.464 176.227 21.688 175.843 21.856C175.459 22.016 175.051 22.096 174.619 22.096C174.283 22.096 173.955 22.044 173.635 21.94C173.323 21.836 173.039 21.688 172.783 21.496V24.484H171.583ZM174.487 16.84C174.143 16.84 173.823 16.904 173.527 17.032C173.231 17.16 172.983 17.34 172.783 17.572V20.332C172.975 20.556 173.219 20.732 173.515 20.86C173.819 20.988 174.143 21.052 174.487 21.052C175.071 21.052 175.559 20.852 175.951 20.452C176.351 20.052 176.551 19.552 176.551 18.952C176.551 18.352 176.351 17.852 175.951 17.452C175.551 17.044 175.063 16.84 174.487 16.84ZM180.863 22.108C180.199 22.108 179.659 21.936 179.243 21.592C178.827 21.248 178.619 20.8 178.619 20.248C178.619 19.672 178.839 19.22 179.279 18.892C179.719 18.556 180.323 18.388 181.091 18.388C181.387 18.388 181.675 18.42 181.955 18.484C182.235 18.54 182.503 18.62 182.759 18.724V18.076C182.759 17.644 182.631 17.32 182.375 17.104C182.119 16.888 181.751 16.78 181.271 16.78C180.991 16.78 180.699 16.824 180.395 16.912C180.091 16.992 179.751 17.12 179.375 17.296L178.931 16.396C179.387 16.18 179.819 16.024 180.227 15.928C180.635 15.824 181.039 15.772 181.439 15.772C182.231 15.772 182.843 15.964 183.275 16.348C183.715 16.724 183.935 17.26 183.935 17.956V22H182.759V21.472C182.487 21.688 182.195 21.848 181.883 21.952C181.571 22.056 181.231 22.108 180.863 22.108ZM179.771 20.224C179.771 20.52 179.895 20.76 180.143 20.944C180.399 21.128 180.731 21.22 181.139 21.22C181.459 21.22 181.755 21.172 182.027 21.076C182.299 20.98 182.543 20.836 182.759 20.644V19.588C182.527 19.46 182.283 19.368 182.027 19.312C181.771 19.248 181.491 19.216 181.187 19.216C180.755 19.216 180.411 19.308 180.155 19.492C179.899 19.676 179.771 19.92 179.771 20.224ZM186.517 15.892V22H185.317V15.892H186.517ZM186.289 13.3H187.729L186.193 14.764H185.185L186.289 13.3ZM187.343 21.208L187.991 20.416C188.311 20.664 188.635 20.856 188.963 20.992C189.299 21.12 189.639 21.184 189.983 21.184C190.415 21.184 190.767 21.1 191.039 20.932C191.311 20.764 191.447 20.544 191.447 20.272C191.447 20.056 191.367 19.884 191.207 19.756C191.047 19.628 190.799 19.54 190.463 19.492L189.359 19.336C188.759 19.248 188.303 19.064 187.991 18.784C187.687 18.496 187.535 18.116 187.535 17.644C187.535 17.092 187.755 16.648 188.195 16.312C188.635 15.968 189.211 15.796 189.923 15.796C190.371 15.796 190.795 15.86 191.195 15.988C191.603 16.116 191.999 16.312 192.383 16.576L191.771 17.368C191.435 17.144 191.107 16.984 190.787 16.888C190.475 16.784 190.159 16.732 189.839 16.732C189.471 16.732 189.175 16.808 188.951 16.96C188.727 17.112 188.615 17.312 188.615 17.56C188.615 17.784 188.691 17.956 188.843 18.076C189.003 18.188 189.263 18.272 189.623 18.328L190.727 18.484C191.327 18.572 191.783 18.76 192.095 19.048C192.415 19.336 192.575 19.716 192.575 20.188C192.575 20.46 192.507 20.716 192.371 20.956C192.243 21.188 192.063 21.388 191.831 21.556C191.607 21.724 191.339 21.86 191.027 21.964C190.715 22.06 190.379 22.108 190.019 22.108C189.491 22.108 188.995 22.032 188.531 21.88C188.075 21.728 187.679 21.504 187.343 21.208ZM198.848 21.304C198.496 21.576 198.128 21.78 197.744 21.916C197.36 22.044 196.94 22.108 196.484 22.108C196.036 22.108 195.616 22.028 195.224 21.868C194.832 21.7 194.492 21.476 194.204 21.196C193.916 20.916 193.688 20.584 193.52 20.2C193.36 19.808 193.28 19.388 193.28 18.94C193.28 18.5 193.36 18.088 193.52 17.704C193.68 17.32 193.896 16.988 194.168 16.708C194.44 16.428 194.764 16.208 195.14 16.048C195.516 15.88 195.916 15.796 196.34 15.796C196.756 15.796 197.144 15.88 197.504 16.048C197.872 16.208 198.184 16.432 198.44 16.72C198.704 17 198.912 17.336 199.064 17.728C199.216 18.12 199.292 18.54 199.292 18.988V19.336H194.468C194.548 19.84 194.78 20.26 195.164 20.596C195.548 20.924 196.004 21.088 196.532 21.088C196.828 21.088 197.112 21.04 197.384 20.944C197.656 20.848 197.888 20.716 198.08 20.548L198.848 21.304ZM196.316 16.804C195.86 16.804 195.46 16.956 195.116 17.26C194.78 17.564 194.568 17.956 194.48 18.436H198.104C198.016 17.972 197.804 17.584 197.468 17.272C197.14 16.96 196.756 16.804 196.316 16.804ZM199.917 21.208L200.565 20.416C200.885 20.664 201.209 20.856 201.537 20.992C201.873 21.12 202.213 21.184 202.557 21.184C202.989 21.184 203.341 21.1 203.613 20.932C203.885 20.764 204.021 20.544 204.021 20.272C204.021 20.056 203.941 19.884 203.781 19.756C203.621 19.628 203.373 19.54 203.037 19.492L201.933 19.336C201.333 19.248 200.877 19.064 200.565 18.784C200.261 18.496 200.109 18.116 200.109 17.644C200.109 17.092 200.329 16.648 200.769 16.312C201.209 15.968 201.785 15.796 202.497 15.796C202.945 15.796 203.369 15.86 203.769 15.988C204.177 16.116 204.573 16.312 204.957 16.576L204.345 17.368C204.009 17.144 203.681 16.984 203.361 16.888C203.049 16.784 202.733 16.732 202.413 16.732C202.045 16.732 201.749 16.808 201.525 16.96C201.301 17.112 201.189 17.312 201.189 17.56C201.189 17.784 201.265 17.956 201.417 18.076C201.577 18.188 201.837 18.272 202.197 18.328L203.301 18.484C203.901 18.572 204.357 18.76 204.669 19.048C204.989 19.336 205.149 19.716 205.149 20.188C205.149 20.46 205.081 20.716 204.945 20.956C204.817 21.188 204.637 21.388 204.405 21.556C204.181 21.724 203.913 21.86 203.601 21.964C203.289 22.06 202.953 22.108 202.593 22.108C202.065 22.108 201.569 22.032 201.105 21.88C200.649 21.728 200.253 21.504 199.917 21.208Z" fill="#798697"/>
<path d="M26.0001 24.5C30.1422 24.5 33.5001 21.1421 33.5001 17C33.5001 12.8579 30.1422 9.5 26.0001 9.5C21.8579 9.5 18.5001 12.8579 18.5001 17C18.5001 21.1421 21.8579 24.5 26.0001 24.5Z" stroke="#798697" stroke-width="1.5" stroke-linecap="round" stroke-linejoin="round"/>
<path d="M18.5001 17H33.5001" stroke="#798697" stroke-width="1.5" stroke-linecap="round" stroke-linejoin="round"/>
<path d="M26.0001 9.5C27.876 11.5538 28.9421 14.219 29.0001 17C28.9421 19.781 27.876 22.4462 26.0001 24.5C24.1241 22.4462 23.058 19.781 23.0001 17C23.058 14.219 24.1241 11.5538 26.0001 9.5V9.5Z" stroke="#798697" stroke-width="1.5" stroke-linecap="round" stroke-linejoin="round"/>
</svg>
