<svg width="205" height="35" viewBox="0 0 205 35" fill="none" xmlns="http://www.w3.org/2000/svg">
<rect y="4" width="205" height="27" rx="13.5" fill="#ECEDFB"/>
<path d="M43.8518 22V13.6H46.8158C47.4478 13.6 48.0318 13.708 48.5678 13.924C49.1118 14.132 49.5798 14.424 49.9718 14.8C50.3718 15.168 50.6838 15.612 50.9078 16.132C51.1318 16.652 51.2438 17.212 51.2438 17.812C51.2438 18.412 51.1318 18.968 50.9078 19.48C50.6838 19.992 50.3758 20.436 49.9838 20.812C49.5918 21.18 49.1238 21.472 48.5798 21.688C48.0358 21.896 47.4478 22 46.8158 22H43.8518ZM46.8398 14.728H45.1118V20.872H46.8398C47.2718 20.872 47.6798 20.796 48.0638 20.644C48.4478 20.484 48.7758 20.268 49.0478 19.996C49.3278 19.716 49.5478 19.392 49.7078 19.024C49.8678 18.648 49.9478 18.244 49.9478 17.812C49.9478 17.38 49.8678 16.976 49.7078 16.6C49.5478 16.216 49.3278 15.888 49.0478 15.616C48.7758 15.336 48.4478 15.12 48.0638 14.968C47.6798 14.808 47.2718 14.728 46.8398 14.728ZM54.2531 22.108C53.5891 22.108 53.0491 21.936 52.6331 21.592C52.2171 21.248 52.0091 20.8 52.0091 20.248C52.0091 19.672 52.2291 19.22 52.6691 18.892C53.1091 18.556 53.7131 18.388 54.4811 18.388C54.7771 18.388 55.0651 18.42 55.3451 18.484C55.6251 18.54 55.8931 18.62 56.1491 18.724V18.076C56.1491 17.644 56.0211 17.32 55.7651 17.104C55.5091 16.888 55.1411 16.78 54.6611 16.78C54.3811 16.78 54.0891 16.824 53.7851 16.912C53.4811 16.992 53.1411 17.12 52.7651 17.296L52.3211 16.396C52.7771 16.18 53.2091 16.024 53.6171 15.928C54.0251 15.824 54.4291 15.772 54.8291 15.772C55.6211 15.772 56.2331 15.964 56.6651 16.348C57.1051 16.724 57.3251 17.26 57.3251 17.956V22H56.1491V21.472C55.8771 21.688 55.5851 21.848 55.2731 21.952C54.9611 22.056 54.6211 22.108 54.2531 22.108ZM53.1611 20.224C53.1611 20.52 53.2851 20.76 53.5331 20.944C53.7891 21.128 54.1211 21.22 54.5291 21.22C54.8491 21.22 55.1451 21.172 55.4171 21.076C55.6891 20.98 55.9331 20.836 56.1491 20.644V19.588C55.9171 19.46 55.6731 19.368 55.4171 19.312C55.1611 19.248 54.8811 19.216 54.5771 19.216C54.1451 19.216 53.8011 19.308 53.5451 19.492C53.2891 19.676 53.1611 19.92 53.1611 20.224ZM59.2654 20.488V16.9H57.9694V15.892H59.2654V14.332L60.4534 14.044V15.892H62.2534V16.9H60.4534V20.212C60.4534 20.524 60.5214 20.744 60.6574 20.872C60.8014 21 61.0334 21.064 61.3534 21.064C61.5214 21.064 61.6694 21.056 61.7974 21.04C61.9334 21.016 62.0774 20.976 62.2294 20.92V21.928C62.0694 21.984 61.8814 22.028 61.6654 22.06C61.4574 22.092 61.2654 22.108 61.0894 22.108C60.4974 22.108 60.0454 21.972 59.7334 21.7C59.4214 21.42 59.2654 21.016 59.2654 20.488ZM62.7326 18.94C62.7326 18.5 62.8126 18.088 62.9726 17.704C63.1406 17.312 63.3686 16.976 63.6566 16.696C63.9446 16.408 64.2806 16.184 64.6646 16.024C65.0566 15.856 65.4726 15.772 65.9126 15.772C66.3526 15.772 66.7646 15.856 67.1486 16.024C67.5406 16.184 67.8766 16.408 68.1566 16.696C68.4446 16.976 68.6686 17.312 68.8286 17.704C68.9966 18.088 69.0806 18.5 69.0806 18.94C69.0806 19.388 68.9966 19.808 68.8286 20.2C68.6686 20.584 68.4446 20.92 68.1566 21.208C67.8766 21.488 67.5406 21.712 67.1486 21.88C66.7646 22.04 66.3526 22.12 65.9126 22.12C65.4726 22.12 65.0566 22.04 64.6646 21.88C64.2806 21.712 63.9446 21.488 63.6566 21.208C63.3686 20.92 63.1406 20.584 62.9726 20.2C62.8126 19.808 62.7326 19.388 62.7326 18.94ZM65.9126 21.064C66.4646 21.064 66.9326 20.86 67.3166 20.452C67.7086 20.036 67.9046 19.532 67.9046 18.94C67.9046 18.348 67.7086 17.848 67.3166 17.44C66.9326 17.032 66.4646 16.828 65.9126 16.828C65.3606 16.828 64.8886 17.032 64.4966 17.44C64.1046 17.848 63.9086 18.348 63.9086 18.94C63.9086 19.532 64.1006 20.036 64.4846 20.452C64.8766 20.86 65.3526 21.064 65.9126 21.064ZM69.6396 21.208L70.2876 20.416C70.6076 20.664 70.9316 20.856 71.2596 20.992C71.5956 21.12 71.9356 21.184 72.2796 21.184C72.7116 21.184 73.0636 21.1 73.3356 20.932C73.6076 20.764 73.7436 20.544 73.7436 20.272C73.7436 20.056 73.6636 19.884 73.5036 19.756C73.3436 19.628 73.0956 19.54 72.7596 19.492L71.6556 19.336C71.0556 19.248 70.5996 19.064 70.2876 18.784C69.9836 18.496 69.8316 18.116 69.8316 17.644C69.8316 17.092 70.0516 16.648 70.4916 16.312C70.9316 15.968 71.5076 15.796 72.2196 15.796C72.6676 15.796 73.0916 15.86 73.4916 15.988C73.8996 16.116 74.2956 16.312 74.6796 16.576L74.0676 17.368C73.7316 17.144 73.4036 16.984 73.0836 16.888C72.7716 16.784 72.4556 16.732 72.1356 16.732C71.7676 16.732 71.4716 16.808 71.2476 16.96C71.0236 17.112 70.9116 17.312 70.9116 17.56C70.9116 17.784 70.9876 17.956 71.1396 18.076C71.2996 18.188 71.5596 18.272 71.9196 18.328L73.0236 18.484C73.6236 18.572 74.0796 18.76 74.3916 19.048C74.7116 19.336 74.8716 19.716 74.8716 20.188C74.8716 20.46 74.8036 20.716 74.6676 20.956C74.5396 21.188 74.3596 21.388 74.1276 21.556C73.9036 21.724 73.6356 21.86 73.3236 21.964C73.0116 22.06 72.6756 22.108 72.3156 22.108C71.7876 22.108 71.2916 22.032 70.8276 21.88C70.3716 21.728 69.9756 21.504 69.6396 21.208ZM78.4455 22V13.6H84.6495V14.704H79.7055V17.284H82.9695V18.364H79.7055V22H78.4455ZM86.1086 14.908C85.9086 14.908 85.7366 14.836 85.5926 14.692C85.4486 14.54 85.3766 14.364 85.3766 14.164C85.3766 13.964 85.4486 13.792 85.5926 13.648C85.7366 13.496 85.9086 13.42 86.1086 13.42C86.3086 13.42 86.4806 13.496 86.6246 13.648C86.7766 13.792 86.8526 13.964 86.8526 14.164C86.8526 14.364 86.7766 14.54 86.6246 14.692C86.4806 14.836 86.3086 14.908 86.1086 14.908ZM86.7086 15.892V22H85.5086V15.892H86.7086ZM87.5458 21.208L88.1938 20.416C88.5138 20.664 88.8378 20.856 89.1658 20.992C89.5018 21.12 89.8418 21.184 90.1858 21.184C90.6178 21.184 90.9698 21.1 91.2418 20.932C91.5138 20.764 91.6498 20.544 91.6498 20.272C91.6498 20.056 91.5698 19.884 91.4098 19.756C91.2498 19.628 91.0018 19.54 90.6658 19.492L89.5618 19.336C88.9618 19.248 88.5058 19.064 88.1938 18.784C87.8898 18.496 87.7378 18.116 87.7378 17.644C87.7378 17.092 87.9578 16.648 88.3978 16.312C88.8378 15.968 89.4138 15.796 90.1258 15.796C90.5738 15.796 90.9978 15.86 91.3978 15.988C91.8058 16.116 92.2018 16.312 92.5858 16.576L91.9738 17.368C91.6378 17.144 91.3098 16.984 90.9898 16.888C90.6778 16.784 90.3618 16.732 90.0418 16.732C89.6738 16.732 89.3778 16.808 89.1538 16.96C88.9298 17.112 88.8178 17.312 88.8178 17.56C88.8178 17.784 88.8938 17.956 89.0458 18.076C89.2058 18.188 89.4658 18.272 89.8258 18.328L90.9298 18.484C91.5298 18.572 91.9858 18.76 92.2978 19.048C92.6178 19.336 92.7778 19.716 92.7778 20.188C92.7778 20.46 92.7098 20.716 92.5738 20.956C92.4458 21.188 92.2658 21.388 92.0338 21.556C91.8098 21.724 91.5418 21.86 91.2298 21.964C90.9178 22.06 90.5818 22.108 90.2218 22.108C89.6938 22.108 89.1978 22.032 88.7338 21.88C88.2778 21.728 87.8818 21.504 87.5458 21.208ZM96.6746 21.052C96.9786 21.052 97.2666 20.992 97.5386 20.872C97.8106 20.744 98.0706 20.556 98.3186 20.308L99.0386 21.088C98.7186 21.408 98.3506 21.66 97.9346 21.844C97.5186 22.02 97.0826 22.108 96.6266 22.108C96.1866 22.108 95.7746 22.028 95.3906 21.868C95.0066 21.7 94.6746 21.476 94.3946 21.196C94.1146 20.916 93.8906 20.584 93.7226 20.2C93.5626 19.808 93.4826 19.388 93.4826 18.94C93.4826 18.5 93.5626 18.088 93.7226 17.704C93.8906 17.312 94.1146 16.976 94.3946 16.696C94.6746 16.408 95.0066 16.184 95.3906 16.024C95.7746 15.856 96.1866 15.772 96.6266 15.772C97.0826 15.772 97.5266 15.864 97.9586 16.048C98.3906 16.224 98.7666 16.472 99.0866 16.792L98.3306 17.608C98.0986 17.36 97.8386 17.172 97.5506 17.044C97.2626 16.908 96.9626 16.84 96.6506 16.84C96.0986 16.84 95.6306 17.044 95.2466 17.452C94.8626 17.86 94.6706 18.356 94.6706 18.94C94.6706 19.54 94.8626 20.044 95.2466 20.452C95.6386 20.852 96.1146 21.052 96.6746 21.052ZM101.948 22.108C101.284 22.108 100.744 21.936 100.328 21.592C99.9124 21.248 99.7044 20.8 99.7044 20.248C99.7044 19.672 99.9244 19.22 100.364 18.892C100.804 18.556 101.408 18.388 102.176 18.388C102.472 18.388 102.76 18.42 103.04 18.484C103.32 18.54 103.588 18.62 103.844 18.724V18.076C103.844 17.644 103.716 17.32 103.46 17.104C103.204 16.888 102.836 16.78 102.356 16.78C102.076 16.78 101.784 16.824 101.48 16.912C101.176 16.992 100.836 17.12 100.46 17.296L100.016 16.396C100.472 16.18 100.904 16.024 101.312 15.928C101.72 15.824 102.124 15.772 102.524 15.772C103.316 15.772 103.928 15.964 104.36 16.348C104.8 16.724 105.02 17.26 105.02 17.956V22H103.844V21.472C103.572 21.688 103.28 21.848 102.968 21.952C102.656 22.056 102.316 22.108 101.948 22.108ZM100.856 20.224C100.856 20.52 100.98 20.76 101.228 20.944C101.484 21.128 101.816 21.22 102.224 21.22C102.544 21.22 102.84 21.172 103.112 21.076C103.384 20.98 103.628 20.836 103.844 20.644V19.588C103.612 19.46 103.368 19.368 103.112 19.312C102.856 19.248 102.576 19.216 102.272 19.216C101.84 19.216 101.496 19.308 101.24 19.492C100.984 19.676 100.856 19.92 100.856 20.224ZM107.603 13.336V22H106.403V13.6L107.603 13.336ZM114.308 21.304C113.956 21.576 113.588 21.78 113.204 21.916C112.82 22.044 112.4 22.108 111.944 22.108C111.496 22.108 111.076 22.028 110.684 21.868C110.292 21.7 109.952 21.476 109.664 21.196C109.376 20.916 109.148 20.584 108.98 20.2C108.82 19.808 108.74 19.388 108.74 18.94C108.74 18.5 108.82 18.088 108.98 17.704C109.14 17.32 109.356 16.988 109.628 16.708C109.9 16.428 110.224 16.208 110.6 16.048C110.976 15.88 111.376 15.796 111.8 15.796C112.216 15.796 112.604 15.88 112.964 16.048C113.332 16.208 113.644 16.432 113.9 16.72C114.164 17 114.372 17.336 114.524 17.728C114.676 18.12 114.752 18.54 114.752 18.988V19.336H109.928C110.008 19.84 110.24 20.26 110.624 20.596C111.008 20.924 111.464 21.088 111.992 21.088C112.288 21.088 112.572 21.04 112.844 20.944C113.116 20.848 113.348 20.716 113.54 20.548L114.308 21.304ZM111.776 16.804C111.32 16.804 110.92 16.956 110.576 17.26C110.24 17.564 110.028 17.956 109.94 18.436H113.564C113.476 17.972 113.264 17.584 112.928 17.272C112.6 16.96 112.216 16.804 111.776 16.804ZM115.378 21.208L116.026 20.416C116.346 20.664 116.67 20.856 116.998 20.992C117.334 21.12 117.674 21.184 118.018 21.184C118.45 21.184 118.802 21.1 119.074 20.932C119.346 20.764 119.482 20.544 119.482 20.272C119.482 20.056 119.402 19.884 119.242 19.756C119.082 19.628 118.834 19.54 118.498 19.492L117.394 19.336C116.794 19.248 116.338 19.064 116.026 18.784C115.722 18.496 115.57 18.116 115.57 17.644C115.57 17.092 115.79 16.648 116.23 16.312C116.67 15.968 117.246 15.796 117.958 15.796C118.406 15.796 118.83 15.86 119.23 15.988C119.638 16.116 120.034 16.312 120.418 16.576L119.806 17.368C119.47 17.144 119.142 16.984 118.822 16.888C118.51 16.784 118.194 16.732 117.874 16.732C117.506 16.732 117.21 16.808 116.986 16.96C116.762 17.112 116.65 17.312 116.65 17.56C116.65 17.784 116.726 17.956 116.878 18.076C117.038 18.188 117.298 18.272 117.658 18.328L118.762 18.484C119.362 18.572 119.818 18.76 120.13 19.048C120.45 19.336 120.61 19.716 120.61 20.188C120.61 20.46 120.542 20.716 120.406 20.956C120.278 21.188 120.098 21.388 119.866 21.556C119.642 21.724 119.374 21.86 119.062 21.964C118.75 22.06 118.414 22.108 118.054 22.108C117.526 22.108 117.03 22.032 116.566 21.88C116.11 21.728 115.714 21.504 115.378 21.208ZM128.72 22V21.424C128.464 21.64 128.176 21.808 127.856 21.928C127.536 22.04 127.2 22.096 126.848 22.096C126.416 22.096 126.012 22.016 125.636 21.856C125.26 21.688 124.932 21.464 124.652 21.184C124.38 20.904 124.164 20.572 124.004 20.188C123.844 19.796 123.764 19.38 123.764 18.94C123.764 18.5 123.844 18.088 124.004 17.704C124.164 17.32 124.38 16.988 124.652 16.708C124.932 16.428 125.264 16.208 125.648 16.048C126.032 15.88 126.44 15.796 126.872 15.796C127.208 15.796 127.532 15.848 127.844 15.952C128.156 16.056 128.444 16.204 128.708 16.396V13.6L129.908 13.336V22H128.72ZM124.94 18.928C124.94 19.528 125.14 20.032 125.54 20.44C125.94 20.848 126.432 21.052 127.016 21.052C127.36 21.052 127.676 20.988 127.964 20.86C128.26 20.732 128.508 20.552 128.708 20.32V17.548C128.508 17.324 128.26 17.148 127.964 17.02C127.668 16.892 127.352 16.828 127.016 16.828C126.432 16.828 125.94 17.028 125.54 17.428C125.14 17.828 124.94 18.328 124.94 18.928ZM136.621 21.304C136.269 21.576 135.901 21.78 135.517 21.916C135.133 22.044 134.713 22.108 134.257 22.108C133.809 22.108 133.389 22.028 132.997 21.868C132.605 21.7 132.265 21.476 131.977 21.196C131.689 20.916 131.461 20.584 131.293 20.2C131.133 19.808 131.053 19.388 131.053 18.94C131.053 18.5 131.133 18.088 131.293 17.704C131.453 17.32 131.669 16.988 131.941 16.708C132.213 16.428 132.537 16.208 132.913 16.048C133.289 15.88 133.689 15.796 134.113 15.796C134.529 15.796 134.917 15.88 135.277 16.048C135.645 16.208 135.957 16.432 136.213 16.72C136.477 17 136.685 17.336 136.837 17.728C136.989 18.12 137.065 18.54 137.065 18.988V19.336H132.241C132.321 19.84 132.553 20.26 132.937 20.596C133.321 20.924 133.777 21.088 134.305 21.088C134.601 21.088 134.885 21.04 135.157 20.944C135.429 20.848 135.661 20.716 135.853 20.548L136.621 21.304ZM134.089 16.804C133.633 16.804 133.233 16.956 132.889 17.26C132.553 17.564 132.341 17.956 132.253 18.436H135.877C135.789 17.972 135.577 17.584 135.241 17.272C134.913 16.96 134.529 16.804 134.089 16.804ZM145.168 21.4L142.036 15.16V22H140.86V13.6H142.54L145.18 18.964L147.808 13.6H149.488V22H148.3V15.148L145.168 21.4ZM156.344 21.304C155.992 21.576 155.624 21.78 155.24 21.916C154.856 22.044 154.436 22.108 153.98 22.108C153.532 22.108 153.112 22.028 152.72 21.868C152.328 21.7 151.988 21.476 151.7 21.196C151.412 20.916 151.184 20.584 151.016 20.2C150.856 19.808 150.776 19.388 150.776 18.94C150.776 18.5 150.856 18.088 151.016 17.704C151.176 17.32 151.392 16.988 151.664 16.708C151.936 16.428 152.26 16.208 152.636 16.048C153.012 15.88 153.412 15.796 153.836 15.796C154.252 15.796 154.64 15.88 155 16.048C155.368 16.208 155.68 16.432 155.936 16.72C156.2 17 156.408 17.336 156.56 17.728C156.712 18.12 156.788 18.54 156.788 18.988V19.336H151.964C152.044 19.84 152.276 20.26 152.66 20.596C153.044 20.924 153.5 21.088 154.028 21.088C154.324 21.088 154.608 21.04 154.88 20.944C155.152 20.848 155.384 20.716 155.576 20.548L156.344 21.304ZM153.812 16.804C153.356 16.804 152.956 16.956 152.612 17.26C152.276 17.564 152.064 17.956 151.976 18.436H155.6C155.512 17.972 155.3 17.584 154.964 17.272C154.636 16.96 154.252 16.804 153.812 16.804ZM154.208 13.3H155.648L154.112 14.764H153.104L154.208 13.3ZM156.801 22L159.177 18.868L156.897 15.892H158.301L159.873 17.992L161.445 15.892H162.801L160.545 18.856L162.957 22H161.541L159.861 19.744L158.157 22H156.801ZM164.284 14.908C164.084 14.908 163.912 14.836 163.768 14.692C163.624 14.54 163.552 14.364 163.552 14.164C163.552 13.964 163.624 13.792 163.768 13.648C163.912 13.496 164.084 13.42 164.284 13.42C164.484 13.42 164.656 13.496 164.8 13.648C164.952 13.792 165.028 13.964 165.028 14.164C165.028 14.364 164.952 14.54 164.8 14.692C164.656 14.836 164.484 14.908 164.284 14.908ZM164.884 15.892V22H163.684V15.892H164.884ZM169.214 21.052C169.518 21.052 169.806 20.992 170.078 20.872C170.35 20.744 170.61 20.556 170.858 20.308L171.578 21.088C171.258 21.408 170.89 21.66 170.474 21.844C170.058 22.02 169.622 22.108 169.166 22.108C168.726 22.108 168.314 22.028 167.93 21.868C167.546 21.7 167.214 21.476 166.934 21.196C166.654 20.916 166.43 20.584 166.262 20.2C166.102 19.808 166.022 19.388 166.022 18.94C166.022 18.5 166.102 18.088 166.262 17.704C166.43 17.312 166.654 16.976 166.934 16.696C167.214 16.408 167.546 16.184 167.93 16.024C168.314 15.856 168.726 15.772 169.166 15.772C169.622 15.772 170.066 15.864 170.498 16.048C170.93 16.224 171.306 16.472 171.626 16.792L170.87 17.608C170.638 17.36 170.378 17.172 170.09 17.044C169.802 16.908 169.502 16.84 169.19 16.84C168.638 16.84 168.17 17.044 167.786 17.452C167.402 17.86 167.21 18.356 167.21 18.94C167.21 19.54 167.402 20.044 167.786 20.452C168.178 20.852 168.654 21.052 169.214 21.052ZM172.045 18.94C172.045 18.5 172.125 18.088 172.285 17.704C172.453 17.312 172.681 16.976 172.969 16.696C173.257 16.408 173.593 16.184 173.977 16.024C174.369 15.856 174.785 15.772 175.225 15.772C175.665 15.772 176.077 15.856 176.461 16.024C176.853 16.184 177.189 16.408 177.469 16.696C177.757 16.976 177.981 17.312 178.141 17.704C178.309 18.088 178.393 18.5 178.393 18.94C178.393 19.388 178.309 19.808 178.141 20.2C177.981 20.584 177.757 20.92 177.469 21.208C177.189 21.488 176.853 21.712 176.461 21.88C176.077 22.04 175.665 22.12 175.225 22.12C174.785 22.12 174.369 22.04 173.977 21.88C173.593 21.712 173.257 21.488 172.969 21.208C172.681 20.92 172.453 20.584 172.285 20.2C172.125 19.808 172.045 19.388 172.045 18.94ZM175.225 21.064C175.777 21.064 176.245 20.86 176.629 20.452C177.021 20.036 177.217 19.532 177.217 18.94C177.217 18.348 177.021 17.848 176.629 17.44C176.245 17.032 175.777 16.828 175.225 16.828C174.673 16.828 174.201 17.032 173.809 17.44C173.417 17.848 173.221 18.348 173.221 18.94C173.221 19.532 173.413 20.036 173.797 20.452C174.189 20.86 174.665 21.064 175.225 21.064Z" fill="#798697"/>
<path d="M26.9543 24L32.9997 24L32.9997 10.7205L26.9543 10.7205L26.9543 24Z" fill="#CE1126"/>
<path d="M20.9554 24L27.0036 24L27.0036 10.7205L20.9554 10.7205L20.9554 24Z" fill="white"/>
<path d="M15 24L21.0455 24L21.0455 10.7205L15 10.7205L15 24Z" fill="#006847"/>
<ellipse cx="24.0491" cy="17.3975" rx="1.73601" ry="1.68893" transform="rotate(-180 24.0491 17.3975)" fill="#5B5B5B"/>
</svg>
