<svg width="32" height="32" viewBox="0 0 32 32" fill="none" xmlns="http://www.w3.org/2000/svg">
<circle cx="16" cy="16" r="16" fill="#0000FF"/>
<path d="M12.608 22V20.464L17.024 16.512C17.5253 16.0533 17.8827 15.6533 18.096 15.312C18.3093 14.96 18.416 14.5973 18.416 14.224C18.416 13.7333 18.224 13.328 17.84 13.008C17.456 12.688 16.976 12.528 16.4 12.528C15.8667 12.528 15.3653 12.6347 14.896 12.848C14.4373 13.0613 13.936 13.4133 13.392 13.904L12.16 12.432C12.8107 11.8453 13.4987 11.4027 14.224 11.104C14.9493 10.8053 15.696 10.656 16.464 10.656C17.0613 10.656 17.6107 10.7413 18.112 10.912C18.624 11.072 19.056 11.3013 19.408 11.6C19.7707 11.8987 20.048 12.2613 20.24 12.688C20.4427 13.1147 20.544 13.5787 20.544 14.08C20.544 14.72 20.384 15.312 20.064 15.856C19.744 16.4 19.1893 17.024 18.4 17.728L15.664 20.16H20.688V22H12.608Z" fill="white"/>
</svg>
