<svg width="32" height="32" viewBox="0 0 32 32" fill="none" xmlns="http://www.w3.org/2000/svg">
<circle cx="16" cy="16" r="16" fill="#D8E1EB"/>
<path d="M12.008 16.672L12.28 10.8H19.496V12.64H14.056L13.944 15.248C14.2747 15.1307 14.6107 15.0453 14.952 14.992C15.304 14.9387 15.6667 14.912 16.04 14.912C17.256 14.912 18.2427 15.232 19 15.872C19.7573 16.5013 20.136 17.328 20.136 18.352C20.136 18.9173 20.024 19.4347 19.8 19.904C19.5867 20.3733 19.2773 20.7787 18.872 21.12C18.4773 21.4507 17.9973 21.712 17.432 21.904C16.8667 22.0853 16.248 22.176 15.576 22.176C14.776 22.176 14.0187 22.048 13.304 21.792C12.5893 21.536 11.9547 21.1627 11.4 20.672L12.728 19.184C13.2187 19.5893 13.688 19.8827 14.136 20.064C14.5947 20.2347 15.096 20.32 15.64 20.32C16.312 20.32 16.856 20.1493 17.272 19.808C17.688 19.4667 17.896 19.0187 17.896 18.464C17.896 17.9307 17.672 17.4987 17.224 17.168C16.776 16.8267 16.2 16.656 15.496 16.656C15.1653 16.656 14.8187 16.6987 14.456 16.784C14.104 16.8587 13.7627 16.9653 13.432 17.104L12.008 16.672Z" fill="#939CA7"/>
</svg>
