<svg width="32" height="32" viewBox="0 0 32 32" fill="none" xmlns="http://www.w3.org/2000/svg">
<circle cx="16" cy="16" r="16" fill="#0000FF"/>
<path d="M23.0591 13.8483L21.679 9.29395C21.6262 9.11936 21.4652 9 21.2828 9H10.7941C10.6117 9 10.4508 9.11936 10.3979 9.29395L9.0178 13.8483C9.006 13.8872 9 13.9277 9 13.9683C9 14.761 9.44808 15.4507 10.1041 15.7984V22.9389C10.1041 23.1676 10.2895 23.3529 10.5181 23.3529H21.5588C21.7875 23.3529 21.9728 23.1676 21.9728 22.9389V15.7984C22.6288 15.4507 23.0769 14.761 23.0769 13.9683C23.0769 13.9276 23.0709 13.8872 23.0591 13.8483ZM17.4784 22.5249H14.9942V19.3507H17.4784V22.5249ZM21.1448 22.5249H18.3064V18.9367C18.3064 18.708 18.1211 18.5226 17.8924 18.5226H14.5802C14.3515 18.5226 14.1662 18.708 14.1662 18.9367V22.5249H10.9321V16.0339C10.9389 16.0343 10.9458 16.0345 10.9526 16.0349C10.9604 16.0353 10.9681 16.0357 10.9759 16.036C11.0073 16.0375 11.0386 16.0384 11.0701 16.0384C11.3449 16.0384 11.6074 15.9846 11.8475 15.8869C12.1985 15.7442 12.5018 15.5079 12.7262 15.2091C12.9507 15.5079 13.254 15.7442 13.6049 15.8869C13.8451 15.9846 14.1075 16.0384 14.3824 16.0384C14.6572 16.0384 14.9196 15.9846 15.1598 15.8869C15.5107 15.7442 15.814 15.5079 16.0385 15.2091C16.2629 15.5079 16.5662 15.7442 16.9172 15.8869C17.1573 15.9846 17.4198 16.0384 17.6946 16.0384C17.9694 16.0384 18.2319 15.9846 18.472 15.8869C18.823 15.7442 19.1262 15.5079 19.3507 15.2091C19.5751 15.5079 19.8784 15.7442 20.2294 15.8869C20.4695 15.9846 20.732 16.0384 21.0068 16.0384C21.0383 16.0384 21.0697 16.0375 21.101 16.036C21.1088 16.0357 21.1165 16.0353 21.1243 16.0349C21.1311 16.0345 21.138 16.0343 21.1448 16.0339V22.5249ZM21.3686 15.1566C21.3621 15.1586 21.3554 15.1603 21.3489 15.1622C21.3375 15.1655 21.3261 15.1687 21.3146 15.1717C21.3067 15.1737 21.2988 15.1755 21.2909 15.1773C21.2804 15.1798 21.2699 15.1822 21.2593 15.1844C21.2512 15.1861 21.2431 15.1876 21.2349 15.1891C21.2243 15.1911 21.2136 15.193 21.2029 15.1947C21.1948 15.196 21.1868 15.1972 21.1787 15.1983C21.1675 15.1999 21.1562 15.2012 21.1449 15.2025C21.1372 15.2034 21.1296 15.2043 21.122 15.205C21.1094 15.2061 21.0967 15.207 21.084 15.2078C21.0776 15.2081 21.0711 15.2087 21.0647 15.209C21.0455 15.2099 21.0262 15.2104 21.0068 15.2104C20.3219 15.2104 19.7647 14.6532 19.7647 13.9683C19.7647 13.7396 19.5793 13.5543 19.3507 13.5543C19.122 13.5543 18.9367 13.7397 18.9367 13.9683C18.9367 14.6532 18.3795 15.2104 17.6946 15.2104C17.0097 15.2104 16.4525 14.6532 16.4525 13.9683C16.4525 13.7396 16.2671 13.5543 16.0385 13.5543C15.8098 13.5543 15.6244 13.7397 15.6244 13.9683C15.6244 14.6532 15.0673 15.2104 14.3824 15.2104C13.6974 15.2104 13.1403 14.6532 13.1403 13.9683C13.1403 13.7396 12.9549 13.5543 12.7262 13.5543C12.4976 13.5543 12.3122 13.7397 12.3122 13.9683C12.3122 14.6532 11.755 15.2104 11.0701 15.2104C11.0507 15.2104 11.0315 15.2098 11.0122 15.209C11.0058 15.2087 10.9993 15.2081 10.9929 15.2077C10.9802 15.2069 10.9675 15.2061 10.9549 15.2049C10.9473 15.2042 10.9397 15.2034 10.932 15.2025C10.9207 15.2012 10.9094 15.1999 10.8982 15.1983C10.8902 15.1972 10.8821 15.196 10.874 15.1947C10.8633 15.193 10.8526 15.1911 10.842 15.1891C10.8338 15.1876 10.8257 15.1861 10.8176 15.1844C10.807 15.1822 10.7965 15.1798 10.786 15.1773C10.7781 15.1754 10.7702 15.1737 10.7623 15.1717C10.7508 15.1687 10.7394 15.1654 10.728 15.1621C10.7215 15.1603 10.7148 15.1586 10.7083 15.1566C10.2168 15.0066 9.85361 14.5594 9.82933 14.0254L11.1013 9.82804H20.9756L22.2476 14.0254C22.2233 14.5595 21.8601 15.0067 21.3686 15.1566Z" fill="white"/>
</svg>
