<svg width="52" height="12" viewBox="0 0 52 12" fill="none" xmlns="http://www.w3.org/2000/svg">
<rect width="52" height="12" rx="3" fill="#0667CC"/>
<path d="M9.784 8L8.024 3.928H8.904L10.176 6.976L11.448 3.928H12.304L10.544 8H9.784ZM16.1719 7.536C15.9372 7.71733 15.6919 7.85333 15.4359 7.944C15.1799 8.02933 14.8999 8.072 14.5959 8.072C14.2972 8.072 14.0172 8.01867 13.7559 7.912C13.4945 7.8 13.2679 7.65067 13.0759 7.464C12.8839 7.27733 12.7319 7.056 12.6199 6.8C12.5132 6.53867 12.4599 6.25867 12.4599 5.96C12.4599 5.66667 12.5132 5.392 12.6199 5.136C12.7265 4.88 12.8705 4.65867 13.0519 4.472C13.2332 4.28533 13.4492 4.13867 13.6999 4.032C13.9505 3.92 14.2172 3.864 14.4999 3.864C14.7772 3.864 15.0359 3.92 15.2759 4.032C15.5212 4.13867 15.7292 4.288 15.8999 4.48C16.0759 4.66667 16.2145 4.89067 16.3159 5.152C16.4172 5.41333 16.4679 5.69333 16.4679 5.992V6.224H13.2519C13.3052 6.56 13.4599 6.84 13.7159 7.064C13.9719 7.28267 14.2759 7.392 14.6279 7.392C14.8252 7.392 15.0145 7.36 15.1959 7.296C15.3772 7.232 15.5319 7.144 15.6599 7.032L16.1719 7.536ZM14.4839 4.536C14.1799 4.536 13.9132 4.63733 13.6839 4.84C13.4599 5.04267 13.3185 5.304 13.2599 5.624H15.6759C15.6172 5.31467 15.4759 5.056 15.2519 4.848C15.0332 4.64 14.7772 4.536 14.4839 4.536ZM17.2298 8V3.928H18.0298V4.336C18.1898 4.176 18.3711 4.056 18.5738 3.976C18.7818 3.89067 19.0085 3.848 19.2538 3.848C19.7178 3.848 20.0991 3.99733 20.3978 4.296C20.6965 4.58933 20.8458 4.97067 20.8458 5.44V8H20.0458V5.576C20.0458 5.256 19.9525 5.00533 19.7658 4.824C19.5845 4.63733 19.3418 4.544 19.0378 4.544C18.8245 4.544 18.6298 4.58933 18.4538 4.68C18.2831 4.77067 18.1418 4.90133 18.0298 5.072V8H17.2298ZM24.8889 8V7.616C24.7182 7.76 24.5262 7.872 24.3129 7.952C24.0995 8.02667 23.8755 8.064 23.6409 8.064C23.3529 8.064 23.0835 8.01067 22.8329 7.904C22.5822 7.792 22.3635 7.64267 22.1769 7.456C21.9955 7.26933 21.8515 7.048 21.7449 6.792C21.6382 6.53067 21.5849 6.25333 21.5849 5.96C21.5849 5.66667 21.6382 5.392 21.7449 5.136C21.8515 4.88 21.9955 4.65867 22.1769 4.472C22.3635 4.28533 22.5849 4.13867 22.8409 4.032C23.0969 3.92 23.3689 3.864 23.6569 3.864C23.8809 3.864 24.0969 3.89867 24.3049 3.968C24.5129 4.03733 24.7049 4.136 24.8809 4.264V2.4L25.6809 2.224V8H24.8889ZM22.3689 5.952C22.3689 6.352 22.5022 6.688 22.7689 6.96C23.0355 7.232 23.3635 7.368 23.7529 7.368C23.9822 7.368 24.1929 7.32533 24.3849 7.24C24.5822 7.15467 24.7475 7.03467 24.8809 6.88V5.032C24.7475 4.88267 24.5822 4.76533 24.3849 4.68C24.1875 4.59467 23.9769 4.552 23.7529 4.552C23.3635 4.552 23.0355 4.68533 22.7689 4.952C22.5022 5.21867 22.3689 5.552 22.3689 5.952ZM30.1562 7.536C29.9216 7.71733 29.6763 7.85333 29.4203 7.944C29.1643 8.02933 28.8843 8.072 28.5803 8.072C28.2816 8.072 28.0016 8.01867 27.7403 7.912C27.4789 7.8 27.2523 7.65067 27.0603 7.464C26.8683 7.27733 26.7163 7.056 26.6043 6.8C26.4976 6.53867 26.4443 6.25867 26.4443 5.96C26.4443 5.66667 26.4976 5.392 26.6043 5.136C26.7109 4.88 26.8549 4.65867 27.0363 4.472C27.2176 4.28533 27.4336 4.13867 27.6843 4.032C27.9349 3.92 28.2016 3.864 28.4843 3.864C28.7616 3.864 29.0203 3.92 29.2603 4.032C29.5056 4.13867 29.7136 4.288 29.8843 4.48C30.0603 4.66667 30.1989 4.89067 30.3003 5.152C30.4016 5.41333 30.4523 5.69333 30.4523 5.992V6.224H27.2363C27.2896 6.56 27.4443 6.84 27.7003 7.064C27.9563 7.28267 28.2603 7.392 28.6123 7.392C28.8096 7.392 28.9989 7.36 29.1803 7.296C29.3616 7.232 29.5163 7.144 29.6443 7.032L30.1562 7.536ZM28.4683 4.536C28.1643 4.536 27.8976 4.63733 27.6683 4.84C27.4443 5.04267 27.3029 5.304 27.2443 5.624H29.6603C29.6016 5.31467 29.4603 5.056 29.2363 4.848C29.0176 4.64 28.7616 4.536 28.4683 4.536ZM34.3498 8V7.616C34.1791 7.76 33.9871 7.872 33.7738 7.952C33.5605 8.02667 33.3365 8.064 33.1018 8.064C32.8138 8.064 32.5445 8.01067 32.2938 7.904C32.0431 7.792 31.8245 7.64267 31.6378 7.456C31.4565 7.26933 31.3125 7.048 31.2058 6.792C31.0991 6.53067 31.0458 6.25333 31.0458 5.96C31.0458 5.66667 31.0991 5.392 31.2058 5.136C31.3125 4.88 31.4565 4.65867 31.6378 4.472C31.8245 4.28533 32.0458 4.13867 32.3018 4.032C32.5578 3.92 32.8298 3.864 33.1178 3.864C33.3418 3.864 33.5578 3.89867 33.7658 3.968C33.9738 4.03733 34.1658 4.136 34.3418 4.264V2.4L35.1418 2.224V8H34.3498ZM31.8298 5.952C31.8298 6.352 31.9631 6.688 32.2298 6.96C32.4965 7.232 32.8245 7.368 33.2138 7.368C33.4431 7.368 33.6538 7.32533 33.8458 7.24C34.0431 7.15467 34.2085 7.03467 34.3418 6.88V5.032C34.2085 4.88267 34.0431 4.76533 33.8458 4.68C33.6485 4.59467 33.4378 4.552 33.2138 4.552C32.8245 4.552 32.4965 4.68533 32.2298 4.952C31.9631 5.21867 31.8298 5.552 31.8298 5.952ZM35.9052 5.96C35.9052 5.66667 35.9585 5.392 36.0652 5.136C36.1772 4.87467 36.3292 4.65067 36.5212 4.464C36.7132 4.272 36.9372 4.12267 37.1932 4.016C37.4545 3.904 37.7319 3.848 38.0252 3.848C38.3185 3.848 38.5932 3.904 38.8492 4.016C39.1105 4.12267 39.3345 4.272 39.5212 4.464C39.7132 4.65067 39.8625 4.87467 39.9692 5.136C40.0812 5.392 40.1372 5.66667 40.1372 5.96C40.1372 6.25867 40.0812 6.53867 39.9692 6.8C39.8625 7.056 39.7132 7.28 39.5212 7.472C39.3345 7.65867 39.1105 7.808 38.8492 7.92C38.5932 8.02667 38.3185 8.08 38.0252 8.08C37.7319 8.08 37.4545 8.02667 37.1932 7.92C36.9372 7.808 36.7132 7.65867 36.5212 7.472C36.3292 7.28 36.1772 7.056 36.0652 6.8C35.9585 6.53867 35.9052 6.25867 35.9052 5.96ZM38.0252 7.376C38.3932 7.376 38.7052 7.24 38.9612 6.968C39.2225 6.69067 39.3532 6.35467 39.3532 5.96C39.3532 5.56533 39.2225 5.232 38.9612 4.96C38.7052 4.688 38.3932 4.552 38.0252 4.552C37.6572 4.552 37.3425 4.688 37.0812 4.96C36.8199 5.232 36.6892 5.56533 36.6892 5.96C36.6892 6.35467 36.8172 6.69067 37.0732 6.968C37.3345 7.24 37.6519 7.376 38.0252 7.376ZM40.8939 8V3.928H41.6939V4.448C41.8165 4.25067 41.9739 4.10133 42.1659 4C42.3579 3.89333 42.5739 3.84 42.8139 3.84C42.8992 3.84 42.9739 3.84533 43.0379 3.856C43.1019 3.86667 43.1632 3.88267 43.2219 3.904V4.624C43.1472 4.59733 43.0699 4.576 42.9899 4.56C42.9099 4.544 42.8299 4.536 42.7499 4.536C42.5152 4.536 42.3045 4.6 42.1179 4.728C41.9365 4.85067 41.7952 5.03467 41.6939 5.28V8H40.8939Z" fill="white"/>
</svg>
