<svg width="279" height="60" viewBox="0 0 279 60" fill="none" xmlns="http://www.w3.org/2000/svg">
<path d="M9.01301 59.5962C4.04666 59.5962 0 55.5496 0 50.5832V9.013C0 4.04665 4.04666 0 9.01301 0C13.9794 0 18.026 4.04665 18.026 9.013V50.5832C18.026 55.5496 13.9794 59.5962 9.01301 59.5962Z" fill="url(#paint0_linear)"/>
<path d="M44.4672 56.9292C41.2023 60.1941 35.8681 60.1941 32.6032 56.9292L21.8427 46.1688L11.91 36.236L11.4502 35.7762C10.5305 34.8565 9.84071 33.7529 9.47283 32.6033C8.82904 30.8099 8.82904 28.8325 9.47283 27.0391C9.88669 25.8895 10.5305 24.7859 11.4502 23.8662C14.7151 20.6013 20.0493 20.6013 23.3142 23.8662L44.4672 45.0191C47.7321 48.376 47.7321 53.6642 44.4672 56.9292Z" fill="url(#paint1_linear)"/>
<path d="M44.835 3.17296C41.6161 -0.459839 35.914 -0.505824 32.5111 2.94303L11.4961 23.958C8.23113 27.223 8.23113 32.5572 11.4961 35.8221C11.68 36.0061 12.0019 36.282 12.0019 36.282H11.9559L21.6587 45.9847C21.7047 46.0307 21.7966 45.9847 21.7507 45.8927C20.1872 40.7424 23.2222 36.144 25.3834 33.6608L44.4211 14.6231C47.6401 11.4961 47.732 6.43787 44.835 3.17296Z" fill="#30E3CA"/>
<path d="M40.4206 34.2128C42.8079 34.2128 44.7432 32.2775 44.7432 29.8902C44.7432 27.5029 42.8079 25.5676 40.4206 25.5676C38.0333 25.5676 36.098 27.5029 36.098 29.8902C36.098 32.2775 38.0333 34.2128 40.4206 34.2128Z" fill="#30E3CA"/>
<path d="M68.4706 34.5728C69.0042 36.6002 70.6047 37.6672 73.1657 37.6672C74.7662 37.6672 76.0467 37.1337 76.9003 35.96L80.3149 37.9874C78.7143 40.3349 76.2601 41.5086 73.059 41.5086C70.2846 41.5086 68.1505 40.655 66.4432 39.0545C64.736 37.3472 63.989 35.3197 63.989 32.7588C63.989 30.3046 64.8427 28.1704 66.4432 26.5699C68.0438 24.8626 70.1779 24.1157 72.7388 24.1157C75.1931 24.1157 77.1138 24.9694 78.7143 26.6767C80.3149 28.384 81.0618 30.4113 81.0618 32.8655C81.0618 33.399 80.9551 34.0392 80.8484 34.5728H68.4706V34.5728ZM68.4706 31.2649H76.9003C76.6869 30.0912 76.1534 29.3442 75.4065 28.704C74.6595 28.1704 73.8059 27.8504 72.8455 27.8504C71.6718 27.8504 70.7114 28.1704 69.9645 28.704C69.2176 29.4509 68.684 30.1979 68.4706 31.2649Z" fill="white"/>
<path d="M91.1987 37.1336L93.1194 34.466H88.211L85.4366 38.3073V41.1885H98.4547V37.1336H91.1987ZM90.4518 31.3715H95.3602L98.2413 27.4235V24.5425H85.8635V28.5972H92.4792L90.4518 31.3715Z" fill="white"/>
<path d="M119.582 41.0819H114.567L108.592 33.6125V41.0819H104.323V17.9268H108.592V31.9051L114.247 24.6492H119.369L112.753 32.8655L119.582 41.0819Z" fill="white"/>
<path d="M137.295 39.0545C135.588 40.7617 133.561 41.6154 131.107 41.6154C128.652 41.6154 126.625 40.7617 124.918 39.0545C123.21 37.3472 122.357 35.3197 122.357 32.8655C122.357 30.4113 123.21 28.384 124.918 26.6767C126.625 24.9694 128.652 24.1157 131.107 24.1157C133.561 24.1157 135.588 24.9694 137.295 26.6767C139.003 28.384 139.856 30.4113 139.856 32.8655C139.856 35.3197 139.003 37.3472 137.295 39.0545ZM127.905 36.1733C128.759 37.027 129.826 37.4539 131.107 37.4539C132.387 37.4539 133.454 37.027 134.308 36.1733C135.161 35.3197 135.588 34.2527 135.588 32.8655C135.588 31.4783 135.161 30.4113 134.308 29.5577C133.454 28.704 132.387 28.2773 131.107 28.2773C129.826 28.2773 128.759 28.704 127.905 29.5577C127.052 30.4113 126.625 31.4783 126.625 32.8655C126.625 34.2527 127.052 35.3197 127.905 36.1733Z" fill="white"/>
<path d="M163.758 24.1158C165.679 24.1158 167.173 24.756 168.347 25.9298C169.52 27.2102 170.054 28.8109 170.054 30.945V41.1887H165.786V31.265C165.786 30.3047 165.572 29.4511 165.039 28.9176C164.505 28.384 163.865 28.0639 163.011 28.0639C162.051 28.0639 161.304 28.384 160.771 29.0242C160.237 29.6645 159.917 30.6248 159.917 31.7986V41.082H155.649V31.1584C155.649 30.198 155.435 29.3444 154.902 28.8109C154.368 28.2774 153.728 27.9572 152.874 27.9572C151.914 27.9572 151.167 28.2773 150.634 28.9176C150.1 29.5578 149.78 30.5181 149.78 31.6919V40.9752H145.512V24.4359H149.78V26.1433C150.74 24.6494 152.341 23.9023 154.368 23.9023C156.396 23.9023 157.89 24.6494 158.85 26.2499C159.917 24.8628 161.624 24.1158 163.758 24.1158Z" fill="white"/>
<path d="M194.596 24.1158C196.517 24.1158 198.011 24.756 199.184 25.9298C200.358 27.2102 200.892 28.8109 200.892 30.945V41.1887H196.623V31.265C196.623 30.3047 196.41 29.4511 195.877 28.9176C195.343 28.384 194.703 28.0639 193.849 28.0639C192.889 28.0639 192.142 28.384 191.608 29.0242C191.075 29.6645 190.755 30.6248 190.755 31.7986V41.082H186.486V31.1584C186.486 30.198 186.273 29.3444 185.74 28.8109C185.206 28.2774 184.566 27.9572 183.712 27.9572C182.752 27.9572 182.005 28.2773 181.471 28.9176C180.938 29.5578 180.618 30.5181 180.618 31.6919V40.9752H176.349V24.4359H180.618V26.1433C181.578 24.6494 183.179 23.9023 185.206 23.9023C187.233 23.9023 188.727 24.6494 189.688 26.2499C190.755 24.8628 192.462 24.1158 194.596 24.1158Z" fill="white"/>
<path d="M210.815 34.5728C211.349 36.6002 212.949 37.6672 215.51 37.6672C217.111 37.6672 218.391 37.1337 219.245 35.96L222.66 37.9874C221.059 40.3349 218.605 41.5086 215.404 41.5086C212.629 41.5086 210.495 40.655 208.788 39.0545C207.081 37.3472 206.334 35.3197 206.334 32.7588C206.334 30.3046 207.187 28.1704 208.788 26.5699C210.389 24.8626 212.523 24.1157 215.084 24.1157C217.538 24.1157 219.565 24.9694 221.059 26.6767C222.66 28.384 223.407 30.4113 223.407 32.8655C223.407 33.399 223.3 34.0392 223.193 34.5728H210.815V34.5728ZM210.709 31.2649H219.138C218.925 30.0912 218.391 29.3442 217.644 28.704C216.898 28.1704 216.044 27.8504 215.084 27.8504C213.91 27.8504 212.949 28.1704 212.203 28.704C211.456 29.4509 210.922 30.1979 210.709 31.2649Z" fill="white"/>
<path d="M233.33 27.4236C233.757 26.3565 234.397 25.6096 235.251 25.0761C236.211 24.5426 237.171 24.3291 238.345 24.3291V29.1308C237.065 29.0241 235.891 29.2376 234.824 29.8778C233.757 30.5181 233.33 31.6918 233.33 33.2924V41.1886H229.062V24.6493H233.33V27.4236Z" fill="white"/>
<path d="M250.723 41.6154C248.269 41.6154 246.135 40.7617 244.534 39.0545C242.827 37.3472 242.08 35.3197 242.08 32.8655C242.08 30.4113 242.934 28.2773 244.534 26.6767C246.241 24.9694 248.269 24.1157 250.723 24.1157C252.324 24.1157 253.818 24.5425 255.098 25.2895C256.378 26.0364 257.446 27.1035 258.086 28.3839L254.458 30.518C254.138 29.8778 253.604 29.3443 252.964 28.9175C252.324 28.4906 251.577 28.2773 250.723 28.2773C249.443 28.2773 248.376 28.704 247.522 29.5577C246.668 30.4113 246.241 31.4783 246.241 32.8655C246.241 34.146 246.668 35.213 247.522 36.0667C248.376 36.9203 249.443 37.3472 250.723 37.3472C251.577 37.3472 252.324 37.1338 253.071 36.8137C253.711 36.3868 254.244 35.8533 254.564 35.2131L258.299 37.3472C257.552 38.6277 256.592 39.6946 255.205 40.4415C253.818 41.1885 252.324 41.6154 250.723 41.6154Z" fill="white"/>
<path d="M266.409 34.5728C266.942 36.6002 268.543 37.6672 271.104 37.6672C272.704 37.6672 273.985 37.1337 274.838 35.96L278.253 37.9874C276.652 40.3349 274.198 41.5086 270.997 41.5086C268.223 41.5086 266.089 40.655 264.381 39.0545C262.674 37.3472 261.927 35.3197 261.927 32.7588C261.927 30.3046 262.781 28.1704 264.381 26.5699C265.982 24.8626 268.116 24.1157 270.677 24.1157C273.131 24.1157 275.052 24.9694 276.652 26.6767C278.253 28.384 279 30.4113 279 32.8655C279 33.399 278.893 34.0392 278.787 34.5728H266.409V34.5728ZM266.302 31.2649H274.732C274.518 30.0912 273.985 29.3442 273.238 28.704C272.491 28.1704 271.637 27.8504 270.677 27.8504C269.503 27.8504 268.543 28.1704 267.796 28.704C267.049 29.4509 266.622 30.1979 266.302 31.2649Z" fill="white"/>
<defs>
<linearGradient id="paint0_linear" x1="9.01462" y1="4.40157" x2="9.01462" y2="73.7205" gradientUnits="userSpaceOnUse">
<stop offset="0.1471" stop-color="#30E3CA"/>
<stop offset="1" stop-color="#172FFF"/>
</linearGradient>
<linearGradient id="paint1_linear" x1="39.2098" y1="50.6867" x2="11.9414" y2="25.8141" gradientUnits="userSpaceOnUse">
<stop offset="0.1548" stop-color="#30E3CA"/>
<stop offset="0.6705" stop-color="#172FFF"/>
</linearGradient>
</defs>
</svg>
