<svg width="40" height="40" viewBox="0 0 40 40" fill="none" xmlns="http://www.w3.org/2000/svg">
<circle cx="20" cy="20" r="20" fill="#0000FF"/>
<path d="M17.4137 28.6207C17.8898 28.6207 18.2758 28.2347 18.2758 27.7586C18.2758 27.2825 17.8898 26.8965 17.4137 26.8965C16.9376 26.8965 16.5516 27.2825 16.5516 27.7586C16.5516 28.2347 16.9376 28.6207 17.4137 28.6207Z" stroke="white" stroke-linecap="round" stroke-linejoin="round"/>
<path d="M26.8965 28.6207C27.3726 28.6207 27.7586 28.2347 27.7586 27.7586C27.7586 27.2825 27.3726 26.8965 26.8965 26.8965C26.4204 26.8965 26.0344 27.2825 26.0344 27.7586C26.0344 28.2347 26.4204 28.6207 26.8965 28.6207Z" stroke="white" stroke-linecap="round" stroke-linejoin="round"/>
<path d="M10.5172 10.5172H13.9655L16.2758 22.0603C16.3547 22.4572 16.5706 22.8138 16.8858 23.0675C17.201 23.3212 17.5954 23.456 18 23.4483H26.3793C26.7839 23.456 27.1783 23.3212 27.4935 23.0675C27.8087 22.8138 28.0246 22.4572 28.1034 22.0603L29.4827 14.8276H14.8276" stroke="white" stroke-linecap="round" stroke-linejoin="round"/>
</svg>
