<svg width="34" height="34" viewBox="0 0 34 34" fill="none" xmlns="http://www.w3.org/2000/svg">
<circle cx="17" cy="17" r="17" fill="#0000FF"/>
<path d="M24.6192 16.37V17.065C24.6182 18.694 24.0908 20.2791 23.1154 21.5838C22.14 22.8885 20.769 23.843 19.2069 24.3049C17.6447 24.7667 15.9751 24.7113 14.4471 24.1467C12.919 23.5822 11.6144 22.5388 10.7278 21.1723C9.84115 19.8057 9.42003 18.1891 9.52721 16.5637C9.63439 14.9382 10.2641 13.3909 11.3225 12.1526C12.3809 10.9143 13.8113 10.0513 15.4002 9.69226C16.9892 9.33326 18.6516 9.49751 20.1395 10.1605" stroke="white" stroke-width="2" stroke-linecap="round" stroke-linejoin="round"/>
<path d="M24.6192 11.0217L17.065 18.5834L14.7988 16.3171" stroke="white" stroke-width="2" stroke-linecap="round" stroke-linejoin="round"/>
</svg>
