<svg width="35" height="35" viewBox="0 0 35 35" fill="none" xmlns="http://www.w3.org/2000/svg">
<circle cx="17.5" cy="17.5" r="17.5" fill="#D8E1EB"/>
<path d="M13.6221 24V22.464L18.0381 18.512C18.5394 18.0533 18.8967 17.6533 19.1101 17.312C19.3234 16.96 19.4301 16.5973 19.4301 16.224C19.4301 15.7333 19.2381 15.328 18.8541 15.008C18.4701 14.688 17.9901 14.528 17.4141 14.528C16.8807 14.528 16.3794 14.6347 15.9101 14.848C15.4514 15.0613 14.9501 15.4133 14.4061 15.904L13.1741 14.432C13.8247 13.8453 14.5127 13.4027 15.2381 13.104C15.9634 12.8053 16.7101 12.656 17.4781 12.656C18.0754 12.656 18.6247 12.7413 19.1261 12.912C19.6381 13.072 20.0701 13.3013 20.4221 13.6C20.7847 13.8987 21.0621 14.2613 21.2541 14.688C21.4567 15.1147 21.5581 15.5787 21.5581 16.08C21.5581 16.72 21.3981 17.312 21.0781 17.856C20.7581 18.4 20.2034 19.024 19.4141 19.728L16.6781 22.16H21.7021V24H13.6221Z" fill="#939CA7"/>
</svg>
