<svg width="24" height="24" viewBox="0 0 24 24" fill="none" xmlns="http://www.w3.org/2000/svg">
<circle cx="12" cy="12" r="12" fill="#0000FF"/>
<path d="M14.7167 17.0656C15.2967 17.6457 16.235 17.6457 16.815 17.0656C17.3951 16.4856 17.3951 15.5473 16.815 14.9673L14.1879 12.3401C14.094 12.2463 13.9405 12.2463 13.8552 12.3401L13.369 12.8263C13.0278 13.2102 12.516 13.9608 12.6525 14.8053C12.6781 14.9417 12.7463 15.0697 12.8487 15.172L14.7167 17.0656Z" fill="white"/>
<path d="M9.0183 11.5276C9.0183 11.5617 9.0183 11.6043 9.0183 11.6385C9.0183 11.664 9.0183 11.6896 9.0183 11.7152C9.0183 11.7237 9.0183 11.7408 9.0183 11.7493C9.0183 11.7664 9.0183 11.7749 9.0183 11.7835C9.0183 11.8005 9.0183 11.8176 9.02683 11.8346C9.02683 11.8602 9.03536 11.8773 9.03536 11.9029C9.03536 11.9285 9.04389 11.9541 9.05242 11.9797L9.06095 12.0052C9.06095 12.0223 9.06948 12.0394 9.06948 12.0479C9.07801 12.0735 9.07801 12.0991 9.08654 12.1247C9.09507 12.1502 9.1036 12.1758 9.1036 12.1929C9.1036 12.21 9.11213 12.2185 9.11213 12.227C9.12066 12.2441 9.12066 12.2611 9.12919 12.2782C9.14625 12.3208 9.1633 12.3635 9.18036 12.3976C9.26566 12.5853 9.38509 12.7473 9.53009 12.8923L10.784 14.1462C10.8607 14.223 10.9034 14.3253 10.9034 14.4362V15.5024C10.9034 16.4322 10.1784 17.2084 9.2486 17.234C8.28474 17.2596 7.5 16.4919 7.5 15.5366V7.74034C7.5 6.78501 8.28474 5.98321 9.23155 6.00027C9.68363 6.0088 10.1016 6.19646 10.4001 6.495C10.7072 6.80207 10.8949 7.22856 10.8949 7.6977V8.85774C10.8949 8.9601 10.8522 9.05394 10.784 9.12217L9.52155 10.3846C9.51302 10.3931 9.49597 10.4102 9.48744 10.4187C9.47891 10.4272 9.46185 10.4443 9.45332 10.4528C9.44479 10.4699 9.42773 10.4784 9.4192 10.4869C9.41067 10.4955 9.40214 10.5125 9.38508 10.521C9.37655 10.5296 9.36803 10.5466 9.3595 10.5552C9.34244 10.5722 9.33391 10.5893 9.31685 10.6149C9.29979 10.6405 9.28273 10.6575 9.2742 10.6831C9.25714 10.7172 9.24007 10.7428 9.22301 10.7684C9.21448 10.7855 9.20596 10.794 9.20596 10.8111C9.1889 10.8452 9.17184 10.8708 9.16331 10.8964C9.13772 10.9475 9.12066 10.9902 9.11213 11.0414C9.1036 11.0584 9.10359 11.0755 9.09506 11.0926C9.09506 11.1011 9.09507 11.1011 9.08654 11.1096L9.06095 11.1437V11.1949C9.05242 11.2461 9.03536 11.2973 9.02683 11.3484C9.02683 11.357 9.02683 11.357 9.02683 11.3655C9.02683 11.3826 9.0183 11.3996 9.0183 11.4252V11.5276Z" fill="white"/>
<path d="M16.3719 8.50805L12.7808 12.0991L12.7638 12.1162C12.5079 12.4062 12.1411 12.9094 11.979 13.5321C11.9534 13.6174 11.8426 13.6515 11.7829 13.5833L11.6123 13.4127L10.691 12.4915C10.5887 12.3891 10.5119 12.2782 10.4522 12.1588C10.4351 12.1332 10.4266 12.0991 10.4181 12.0735C10.4181 12.065 10.4096 12.0564 10.4096 12.0394C10.4096 12.0309 10.401 12.0223 10.401 12.0138C10.3925 11.9967 10.3925 11.9882 10.384 11.9711V11.9626C10.384 11.9456 10.3754 11.937 10.3754 11.9114V11.9029L10.3669 11.8688C10.3669 11.8517 10.3584 11.8432 10.3584 11.8261C10.3584 11.8091 10.3499 11.792 10.3499 11.775C10.3499 11.7664 10.3499 11.7579 10.3499 11.7408C10.3499 11.7323 10.3499 11.7323 10.3499 11.7323V11.7152C10.3499 11.7067 10.3499 11.7067 10.3499 11.6982V11.6897C10.3499 11.6726 10.3499 11.6641 10.3499 11.647C10.3499 11.6214 10.3499 11.5958 10.3499 11.5702L10.3584 11.5105C10.3584 11.502 10.3584 11.4849 10.3584 11.4764V11.4594C10.3669 11.4252 10.3669 11.3826 10.384 11.3485L10.3925 11.3144C10.3925 11.3058 10.3925 11.3058 10.401 11.2973V11.2888C10.401 11.2717 10.4096 11.2632 10.4181 11.2461C10.4266 11.2205 10.4351 11.1864 10.4522 11.1523C10.4607 11.1352 10.4693 11.1182 10.4778 11.0926C10.4778 11.084 10.4863 11.0755 10.4949 11.067C10.5034 11.0499 10.5204 11.0243 10.529 11.0073C10.5375 10.9902 10.546 10.9732 10.5631 10.9646L10.5716 10.9561C10.5802 10.9476 10.5887 10.939 10.5887 10.9305L10.5972 10.922C10.5972 10.9135 10.6057 10.9134 10.6057 10.9049V10.8964C10.6143 10.8879 10.6228 10.8793 10.6313 10.8708C10.6399 10.8623 10.6399 10.8537 10.6569 10.8452C10.6655 10.8367 10.6655 10.8367 10.674 10.8282L10.6825 10.8196C10.691 10.8111 10.6996 10.8026 10.6996 10.794L14.6574 6.83622C14.8962 6.59738 15.2374 6.4609 15.5786 6.46943C15.7492 6.47796 15.9027 6.51209 16.0477 6.58032C16.1928 6.64856 16.3207 6.74239 16.4316 6.86181C16.841 7.33948 16.824 8.0645 16.3719 8.50805Z" fill="white"/>
<path d="M16.2901 12.1805C16.7376 12.1805 17.1004 11.8177 17.1004 11.3702C17.1004 10.9227 16.7376 10.5599 16.2901 10.5599C15.8425 10.5599 15.4797 10.9227 15.4797 11.3702C15.4797 11.8177 15.8425 12.1805 16.2901 12.1805Z" fill="white"/>
</svg>
