<svg width="34" height="34" viewBox="0 0 34 34" fill="none" xmlns="http://www.w3.org/2000/svg">
<circle cx="17" cy="17" r="17" fill="#0000FF"/>
<path d="M18.5758 9.5108H12.5325C12.1318 9.5108 11.7475 9.66998 11.4642 9.95332C11.1808 10.2367 11.0217 10.6209 11.0217 11.0216V23.1083C11.0217 23.509 11.1808 23.8933 11.4642 24.1766C11.7475 24.46 12.1318 24.6191 12.5325 24.6191H21.5975C21.9982 24.6191 22.3825 24.46 22.6658 24.1766C22.9492 23.8933 23.1083 23.509 23.1083 23.1083V14.0433L18.5758 9.5108Z" stroke="white" stroke-width="2" stroke-linecap="round" stroke-linejoin="round"/>
<path d="M18.5758 9.5108V14.0433H23.1083" stroke="white" stroke-width="2" stroke-linecap="round" stroke-linejoin="round"/>
<path d="M20.0867 17.8204H14.0433" stroke="white" stroke-width="2" stroke-linecap="round" stroke-linejoin="round"/>
<path d="M20.0867 20.8421H14.0433" stroke="white" stroke-width="2" stroke-linecap="round" stroke-linejoin="round"/>
<path d="M15.5542 14.7988H14.7988H14.0433" stroke="white" stroke-width="2" stroke-linecap="round" stroke-linejoin="round"/>
</svg>
