<svg width="30" height="30" viewBox="0 0 30 30" fill="none" xmlns="http://www.w3.org/2000/svg">
<circle cx="15" cy="15" r="15" fill="#0000FF"/>
<g clip-path="url(#clip0)">
<path d="M11.165 12.6687C11.1362 12.6692 11.1076 12.6641 11.0808 12.6535C11.054 12.643 11.0296 12.6273 11.0088 12.6073C10.967 12.5669 10.9429 12.5115 10.9419 12.4534C10.9409 12.3952 10.963 12.3391 11.0034 12.2972C11.0438 12.2554 11.0992 12.2313 11.1573 12.2303C12.2329 12.2183 13.3062 12.1275 14.3685 11.9585C14.3873 11.9546 14.4067 11.9532 14.4259 11.9546C14.6922 11.9686 14.9505 12.0501 15.1767 12.1913C15.214 12.2184 15.2419 12.2567 15.2562 12.3006C15.2706 12.3444 15.2707 12.3917 15.2566 12.4357C15.2424 12.4796 15.2148 12.518 15.1776 12.5453C15.1404 12.5727 15.0955 12.5875 15.0493 12.5879C14.9977 12.5878 14.9476 12.5701 14.9075 12.5377C14.7597 12.453 14.5942 12.4039 14.4242 12.3945C13.3476 12.5637 12.2603 12.6553 11.1707 12.6687H11.165Z" fill="white"/>
<path d="M19.1836 17.8837C18.9966 17.8839 18.8143 17.8248 18.663 17.7149L18.6159 17.6822C18.6097 17.6781 18.5994 17.6697 18.5898 17.6603L16.0095 15.8021C15.9854 15.7856 15.9648 15.7645 15.949 15.7401C15.9331 15.7156 15.9223 15.6882 15.9172 15.6594C15.9121 15.6307 15.9128 15.6013 15.9192 15.5728C15.9256 15.5444 15.9376 15.5175 15.9546 15.4937C15.9715 15.47 15.993 15.4499 16.0178 15.4345C16.0426 15.4192 16.0703 15.409 16.0991 15.4045C16.1279 15.3999 16.1573 15.4012 16.1856 15.4082C16.2139 15.4152 16.2406 15.4278 16.264 15.4452L16.4393 15.5701L18.8539 17.3113C18.8611 17.3165 18.868 17.3221 18.8745 17.3282L18.9164 17.3574C19.0115 17.4255 19.1291 17.4546 19.245 17.4385C19.3608 17.4225 19.4661 17.3626 19.5392 17.2712C19.5839 17.2147 19.6145 17.1482 19.6282 17.0774C19.6419 17.0066 19.6383 16.9335 19.6179 16.8644C19.5932 16.7772 19.5423 16.6998 19.4721 16.6427L16.0209 13.831C14.6993 14.5324 13.763 14.1716 13.3161 13.886C13.2422 13.8379 13.1822 13.7713 13.1421 13.6928C13.102 13.6143 13.0832 13.5267 13.0875 13.4387C13.0918 13.3506 13.1192 13.2653 13.1668 13.1911C13.2144 13.1169 13.2806 13.0565 13.3588 13.0159L15.3343 11.9668C15.4604 11.9008 15.5983 11.8605 15.7401 11.8481C15.8818 11.8357 16.0246 11.8514 16.1603 11.8945L17.3289 12.2737C17.6729 12.3869 18.0461 12.3734 18.3811 12.2358L18.8901 12.0273C18.9167 12.0164 18.9453 12.0108 18.9741 12.0109C19.0028 12.011 19.0313 12.0168 19.0579 12.0279C19.0845 12.039 19.1086 12.0553 19.1289 12.0757C19.1492 12.0961 19.1652 12.1204 19.1761 12.147C19.1871 12.1736 19.1926 12.2022 19.1925 12.231C19.1924 12.2598 19.1867 12.2883 19.1756 12.3148C19.1644 12.3414 19.1482 12.3655 19.1278 12.3858C19.1073 12.4061 19.0831 12.4221 19.0565 12.4331L18.5479 12.6413C18.1165 12.8189 17.6359 12.8363 17.1928 12.6904L16.0253 12.3114C15.9453 12.2863 15.8611 12.2772 15.7777 12.2847C15.6942 12.2923 15.613 12.3162 15.5388 12.3552L13.5629 13.4046C13.5519 13.4098 13.5425 13.4179 13.5359 13.4281C13.5292 13.4383 13.5255 13.4501 13.5252 13.4622C13.5243 13.4732 13.5264 13.4843 13.5314 13.4941C13.5363 13.504 13.5439 13.5123 13.5532 13.5181C14.0136 13.8123 14.8038 14.028 15.9352 13.3781C15.9736 13.356 16.0179 13.3461 16.0621 13.3497C16.1064 13.3533 16.1485 13.3702 16.1829 13.3982L19.7472 16.3027C19.887 16.4155 19.9886 16.5686 20.0383 16.7412C20.0777 16.877 20.0843 17.0202 20.0576 17.1591C20.0309 17.298 19.9717 17.4286 19.8848 17.5402C19.8021 17.6473 19.6958 17.734 19.5742 17.7936C19.4526 17.8531 19.319 17.8839 19.1836 17.8837Z" fill="white"/>
<path d="M18.2765 18.8997C18.0907 18.8999 17.9095 18.8422 17.7581 18.7347L15.3884 17.0533C15.3421 17.0193 15.3111 16.9684 15.3019 16.9116C15.2928 16.8549 15.3063 16.7968 15.3396 16.7499C15.3728 16.703 15.4232 16.6711 15.4797 16.661C15.5363 16.6508 15.5946 16.6634 15.6421 16.6958L18.0117 18.3769C18.1111 18.4418 18.2318 18.4658 18.3485 18.4439C18.4652 18.422 18.5689 18.3558 18.638 18.2592C18.707 18.1626 18.7361 18.043 18.719 17.9255C18.702 17.808 18.6402 17.7016 18.5466 17.6285L16.1848 15.9264C16.1413 15.8912 16.1129 15.8406 16.1054 15.7851C16.098 15.7296 16.112 15.6734 16.1447 15.6279C16.1774 15.5825 16.2263 15.5513 16.2813 15.5407C16.3362 15.5301 16.3932 15.541 16.4404 15.571L18.8028 17.2734C18.9566 17.3847 19.0712 17.5419 19.1301 17.7224C19.1891 17.9028 19.1893 18.0973 19.1309 18.278C19.0725 18.4586 18.9584 18.6161 18.8049 18.7279C18.6515 18.8396 18.4666 18.9 18.2767 18.9002L18.2765 18.8997Z" fill="white"/>
<path d="M17.2535 19.7781C17.077 19.778 16.9048 19.724 16.76 19.6231L14.6366 18.1522C14.5888 18.1191 14.5561 18.0684 14.5457 18.0111C14.5352 17.9539 14.548 17.8949 14.5811 17.8471C14.6142 17.7993 14.665 17.7666 14.7222 17.7562C14.7794 17.7458 14.8384 17.7585 14.8863 17.7916L17.0097 19.2625C17.0564 19.2948 17.1089 19.3175 17.1643 19.3295C17.2197 19.3414 17.277 19.3423 17.3328 19.3322C17.3885 19.322 17.4418 19.3009 17.4894 19.2702C17.537 19.2394 17.5781 19.1996 17.6104 19.1529C17.6745 19.0594 17.6994 18.9444 17.6797 18.8328C17.6601 18.7211 17.5974 18.6215 17.5051 18.5556L15.392 17.0566C15.3679 17.0402 15.3474 17.0191 15.3316 16.9947C15.3158 16.9703 15.305 16.9429 15.2999 16.9143C15.2948 16.8856 15.2954 16.8562 15.3018 16.8278C15.3081 16.7994 15.3201 16.7726 15.3369 16.7488C15.3537 16.7251 15.3751 16.705 15.3999 16.6896C15.4246 16.6742 15.4521 16.6639 15.4808 16.6593C15.5096 16.6546 15.5389 16.6558 15.5672 16.6626C15.5955 16.6694 15.6221 16.6818 15.6456 16.6991L17.7588 18.198C17.9448 18.331 18.0712 18.5316 18.1109 18.7567C18.1506 18.9819 18.1005 19.2136 17.9712 19.4022C17.9066 19.4964 17.8239 19.5769 17.728 19.639C17.6321 19.701 17.5248 19.7435 17.4124 19.7639C17.36 19.7734 17.3068 19.7782 17.2535 19.7781Z" fill="white"/>
<path d="M16.0009 20.4988C15.8475 20.4981 15.697 20.4571 15.5645 20.38L14.3858 19.7005C14.3358 19.6712 14.2995 19.6234 14.2847 19.5674C14.2699 19.5115 14.2779 19.4519 14.3068 19.4018C14.3357 19.3516 14.3833 19.315 14.4392 19.2998C14.4951 19.2847 14.5547 19.2922 14.605 19.3208L15.7834 20.0004C15.8831 20.0566 16.0007 20.0717 16.1113 20.0423C16.2219 20.013 16.3166 19.9416 16.3753 19.8434C16.431 19.7493 16.4488 19.6374 16.4249 19.5306C16.4009 19.4239 16.3372 19.3303 16.2466 19.2689L14.7407 18.2257C14.717 18.2093 14.6968 18.1884 14.6812 18.1642C14.6656 18.14 14.655 18.1129 14.6498 18.0846C14.6447 18.0563 14.6452 18.0272 14.6513 17.9991C14.6574 17.971 14.6689 17.9443 14.6853 17.9206C14.7017 17.897 14.7226 17.8768 14.7468 17.8612C14.771 17.8456 14.7981 17.8349 14.8264 17.8298C14.8547 17.8246 14.8838 17.8251 14.9119 17.8312C14.94 17.8373 14.9667 17.8489 14.9904 17.8653L16.4961 18.9083C16.649 19.0141 16.764 19.166 16.8246 19.3417C16.8851 19.5175 16.8879 19.708 16.8326 19.8855C16.7774 20.063 16.6668 20.2183 16.5172 20.3286C16.3676 20.4389 16.1866 20.4985 16.0007 20.4988H16.0009Z" fill="white"/>
<path d="M13.5188 20.368C13.3395 20.3682 13.1643 20.3138 13.0168 20.2119C12.8692 20.11 12.7562 19.9655 12.6929 19.7977C12.6297 19.6299 12.6191 19.4468 12.6626 19.2728C12.7062 19.0988 12.8017 18.9423 12.9366 18.8241L13.5221 18.3111C13.6091 18.2348 13.7103 18.1763 13.8199 18.139C13.9296 18.1017 14.0454 18.0864 14.161 18.0939C14.2765 18.1014 14.3894 18.1316 14.4933 18.1828C14.5972 18.2339 14.69 18.305 14.7663 18.392C14.8427 18.4791 14.9012 18.5803 14.9385 18.6899C14.9757 18.7995 14.991 18.9154 14.9835 19.0309C14.9759 19.1465 14.9457 19.2594 14.8946 19.3633C14.8434 19.4671 14.7723 19.5599 14.6852 19.6363L14.0997 20.1503C13.939 20.2911 13.7325 20.3685 13.5188 20.368ZM14.1034 18.5303C13.9959 18.5301 13.892 18.569 13.8112 18.64L13.2255 19.1536C13.1818 19.1919 13.146 19.2386 13.1203 19.2908C13.0945 19.343 13.0793 19.3998 13.0755 19.4578C13.0717 19.5159 13.0794 19.5742 13.0981 19.6293C13.1169 19.6844 13.1463 19.7353 13.1846 19.7791C13.2622 19.8674 13.3716 19.9214 13.4889 19.9291C13.547 19.9329 13.6053 19.9252 13.6604 19.9065C13.7155 19.8877 13.7664 19.8583 13.8101 19.82L14.3957 19.3059C14.4632 19.2465 14.511 19.1678 14.5328 19.0805C14.5546 18.9932 14.5492 18.9014 14.5175 18.8172C14.4858 18.733 14.4292 18.6604 14.3552 18.6092C14.2812 18.558 14.1934 18.5305 14.1034 18.5303Z" fill="white"/>
<path d="M12.1917 19.7709C12.1722 19.7709 12.1527 19.7709 12.1332 19.7691C12.0176 19.7619 11.9046 19.7318 11.8006 19.6806C11.6967 19.6294 11.604 19.5582 11.5277 19.471C11.4503 19.3839 11.3908 19.2825 11.3527 19.1724C11.3146 19.0623 11.2986 18.9458 11.3056 18.8295C11.3127 18.7133 11.3426 18.5995 11.3937 18.4948C11.4448 18.3902 11.516 18.2966 11.6034 18.2195L12.5815 17.3609C12.6685 17.2845 12.7697 17.226 12.8793 17.1887C12.9889 17.1515 13.1048 17.1361 13.2203 17.1436C13.3359 17.1512 13.4488 17.1813 13.5527 17.2325C13.6565 17.2837 13.7493 17.3548 13.8257 17.4418L13.6672 17.5937L13.8318 17.449C13.9083 17.536 13.9668 17.6372 14.0041 17.7468C14.0414 17.8564 14.0567 17.9723 14.0492 18.0879C14.0417 18.2034 14.0115 18.3164 13.9603 18.4202C13.9091 18.5241 13.838 18.6169 13.751 18.6932L12.772 19.5519C12.6118 19.6933 12.4054 19.7712 12.1917 19.7709ZM13.1617 17.5801C13.0544 17.5798 12.9506 17.6188 12.87 17.6897L11.8919 18.5483C11.8264 18.6075 11.7797 18.6845 11.7577 18.77C11.7357 18.8554 11.7393 18.9454 11.768 19.0288C11.7968 19.1122 11.8495 19.1853 11.9195 19.2391C11.9894 19.2928 12.0737 19.3247 12.1617 19.3309C12.2198 19.3349 12.2782 19.3272 12.3333 19.3084C12.3884 19.2896 12.4393 19.26 12.4828 19.2213L13.4609 18.3627C13.5047 18.3243 13.5405 18.2776 13.5662 18.2254C13.592 18.1732 13.6071 18.1164 13.6109 18.0583C13.6147 18.0002 13.607 17.9419 13.5883 17.8868C13.5695 17.8317 13.5401 17.7808 13.5017 17.737L13.4954 17.7298C13.4571 17.6862 13.4106 17.6506 13.3585 17.6251C13.3065 17.5995 13.2499 17.5845 13.192 17.581C13.1817 17.5805 13.1714 17.5803 13.1615 17.5803L13.1617 17.5801Z" fill="white"/>
<path d="M11.0856 18.9662C11.0663 18.9662 11.0468 18.9662 11.0271 18.9644C10.9114 18.9572 10.7984 18.9271 10.6945 18.8759C10.5906 18.8248 10.4978 18.7535 10.4216 18.6663L10.3977 18.6378C10.2436 18.462 10.1656 18.2323 10.1809 17.9991C10.1961 17.7658 10.3034 17.5482 10.479 17.394L11.613 16.3986C11.7 16.3222 11.8012 16.2636 11.9108 16.2263C12.0204 16.1891 12.1363 16.1737 12.2519 16.1812C12.3674 16.1888 12.4803 16.219 12.5842 16.2701C12.6881 16.3213 12.7809 16.3924 12.8572 16.4795L12.882 16.5077C13.0361 16.6835 13.1142 16.9132 13.0989 17.1465C13.0836 17.3797 12.9764 17.5974 12.8007 17.7515L11.6667 18.7469C11.5063 18.8886 11.2996 18.9666 11.0856 18.9662ZM12.1932 16.618C12.0859 16.6177 11.9821 16.6567 11.9015 16.7276L10.7675 17.723C10.6791 17.8006 10.6251 17.9102 10.6174 18.0276C10.6097 18.145 10.6489 18.2606 10.7265 18.3491L10.7513 18.3774C10.8289 18.4656 10.9384 18.5194 11.0556 18.5269C11.1729 18.5345 11.2884 18.4952 11.3767 18.4177L12.5107 17.4223C12.5544 17.3839 12.5902 17.3372 12.6159 17.285C12.6417 17.2328 12.6569 17.176 12.6606 17.1179C12.6644 17.0598 12.6567 17.0015 12.638 16.9464C12.6193 16.8913 12.5898 16.8404 12.5514 16.7967L12.5271 16.7688C12.4888 16.725 12.4422 16.6893 12.39 16.6636C12.3379 16.638 12.2811 16.6229 12.2231 16.6193C12.2128 16.6184 12.2031 16.618 12.1932 16.618Z" fill="white"/>
<path d="M10.1327 17.9905C10.1134 17.9905 10.0937 17.9905 10.0742 17.9885C9.89908 17.9775 9.73118 17.9148 9.59169 17.8083C9.45221 17.7019 9.34742 17.5565 9.29055 17.3905C9.23368 17.2245 9.22729 17.0454 9.2722 16.8758C9.3171 16.7062 9.41128 16.5537 9.54283 16.4376L10.2528 15.8144C10.3398 15.738 10.441 15.6794 10.5507 15.6421C10.6603 15.6049 10.7762 15.5895 10.8917 15.597C11.0073 15.6046 11.1202 15.6348 11.2241 15.6859C11.3279 15.7371 11.4207 15.8082 11.4971 15.8953L11.5047 15.904C11.5812 15.991 11.6397 16.0922 11.677 16.2018C11.7143 16.3115 11.7296 16.4274 11.7221 16.5429C11.7146 16.6585 11.6844 16.7714 11.6332 16.8753C11.582 16.9791 11.5109 17.0719 11.4239 17.1483L10.7138 17.7715C10.5534 17.9131 10.3467 17.991 10.1327 17.9905ZM10.8342 16.0336C10.7268 16.0333 10.623 16.0723 10.5424 16.1432L9.8324 16.7664C9.78863 16.8048 9.75286 16.8514 9.72713 16.9037C9.70139 16.9559 9.6862 17.0127 9.68241 17.0708C9.67862 17.1289 9.68632 17.1871 9.70506 17.2423C9.7238 17.2974 9.75322 17.3483 9.79163 17.392C9.82973 17.4372 9.87642 17.4743 9.92898 17.5012C9.98154 17.5282 10.0389 17.5444 10.0978 17.549C10.1567 17.5537 10.2159 17.5465 10.272 17.5281C10.3281 17.5096 10.38 17.4802 10.4247 17.4416L11.1347 16.8184C11.1785 16.78 11.2143 16.7333 11.24 16.6811C11.2657 16.6289 11.2809 16.5721 11.2847 16.514C11.2885 16.4559 11.2808 16.3976 11.2621 16.3425C11.2433 16.2874 11.2139 16.2365 11.1755 16.1927L11.1678 16.184C11.1295 16.1401 11.0829 16.1043 11.0307 16.0786C10.9785 16.0529 10.9217 16.0378 10.8636 16.0342C10.8528 16.034 10.843 16.0336 10.8331 16.0336H10.8342Z" fill="white"/>
<path d="M9.73504 16.7793C9.68759 16.7794 9.64141 16.764 9.60351 16.7355L8.85448 16.1655C8.83157 16.1481 8.81231 16.1263 8.79781 16.1015C8.78331 16.0766 8.77385 16.0491 8.76997 16.0206C8.76609 15.9921 8.76787 15.963 8.77521 15.9352C8.78254 15.9074 8.79529 15.8812 8.81272 15.8583C8.84792 15.812 8.90007 15.7816 8.95768 15.7738C8.98621 15.7699 9.01522 15.7717 9.04306 15.7791C9.0709 15.7864 9.09703 15.7991 9.11994 15.8166L9.86898 16.3865C9.90587 16.4142 9.9331 16.4528 9.94679 16.4968C9.96048 16.5409 9.95992 16.5881 9.94521 16.6318C9.93049 16.6755 9.90236 16.7135 9.86483 16.7403C9.82729 16.7671 9.78226 16.7814 9.73614 16.7811L9.73504 16.7793Z" fill="white"/>
<path d="M19.8279 17.0222C19.7845 17.0222 19.7421 17.0093 19.7061 16.9853C19.6701 16.9612 19.642 16.9269 19.6254 16.8869C19.6088 16.8468 19.6045 16.8028 19.6129 16.7603C19.6214 16.7177 19.6422 16.6787 19.6729 16.648L20.9029 15.4176C20.9442 15.3777 20.9996 15.3556 21.0571 15.3561C21.1145 15.3566 21.1695 15.3796 21.2102 15.4203C21.2508 15.4609 21.2739 15.5159 21.2744 15.5734C21.2749 15.6309 21.2528 15.6862 21.2128 15.7276L19.9828 16.9575C19.9625 16.978 19.9384 16.9942 19.9118 17.0053C19.8852 17.0164 19.8567 17.0222 19.8279 17.0222Z" fill="white"/>
<path d="M21.505 16.5674C21.4675 16.5674 21.4307 16.5578 21.3979 16.5396C21.3652 16.5213 21.3377 16.4949 21.318 16.463L18.6415 12.1095C18.6132 12.0635 18.603 12.0086 18.6127 11.9554C18.6224 11.9023 18.6514 11.8546 18.6941 11.8215L21.345 9.76837C21.3741 9.74584 21.4084 9.73099 21.4448 9.7252C21.4811 9.71941 21.5183 9.72287 21.553 9.73525C21.5876 9.74764 21.6186 9.76855 21.6431 9.79606C21.6675 9.82357 21.6847 9.85679 21.6929 9.89266L22.9965 15.5805C23.0073 15.6268 23.0028 15.6753 22.9836 15.7188C22.9645 15.7623 22.9317 15.7984 22.8902 15.8216L21.612 16.5399C21.5793 16.5581 21.5424 16.5676 21.505 16.5674ZM19.1181 12.0473L21.5811 16.0533L22.5327 15.5184L21.3424 10.3249L19.1181 12.0473Z" fill="white"/>
<path d="M8.7164 16.6452C8.67885 16.6451 8.64194 16.6355 8.60921 16.6171L7.331 15.8999C7.28953 15.8766 7.25674 15.8405 7.23756 15.797C7.21839 15.7536 7.21387 15.705 7.22469 15.6587L8.52854 9.97158C8.53677 9.93571 8.5539 9.90249 8.57835 9.87498C8.6028 9.84747 8.63378 9.82655 8.66844 9.81417C8.7031 9.80179 8.74032 9.79833 8.77667 9.80412C8.81302 9.80991 8.84732 9.82476 8.87642 9.84729L11.5275 11.9002C11.5703 11.9333 11.5993 11.981 11.609 12.0341C11.6187 12.0873 11.6084 12.1422 11.5801 12.1882L8.90338 16.5417C8.88363 16.5735 8.85608 16.5996 8.82335 16.6178C8.79062 16.6359 8.7538 16.6453 8.7164 16.6452ZM7.68875 15.5978L8.64033 16.1324L11.1034 12.1262L8.87905 10.4039L7.68875 15.5978Z" fill="white"/>
</g>
<defs>
<clipPath id="clip0">
<rect width="16.2214" height="16.2214" fill="white" transform="translate(7 7)"/>
</clipPath>
</defs>
</svg>
