<svg width="35" height="35" viewBox="0 0 35 35" fill="none" xmlns="http://www.w3.org/2000/svg">
<circle cx="17.5" cy="17.5" r="17.5" fill="#D8E1EB"/>
<path d="M21.8703 20.88C21.8703 21.3493 21.7583 21.7867 21.5343 22.192C21.3103 22.5973 20.9956 22.944 20.5903 23.232C20.1956 23.52 19.721 23.7493 19.1663 23.92C18.6223 24.08 18.025 24.16 17.3743 24.16C16.5103 24.16 15.689 24.0053 14.9103 23.696C14.1316 23.3867 13.481 22.96 12.9583 22.416L14.4303 21.056C14.8783 21.504 15.321 21.8187 15.7583 22C16.1956 22.1813 16.729 22.272 17.3583 22.272C18.041 22.272 18.5956 22.128 19.0223 21.84C19.449 21.552 19.6623 21.1787 19.6623 20.72C19.6623 20.304 19.465 19.9733 19.0703 19.728C18.6863 19.4827 18.1743 19.36 17.5343 19.36H16.5103V17.616H17.3103C17.8863 17.616 18.3663 17.4613 18.7503 17.152C19.1343 16.8427 19.3263 16.4533 19.3263 15.984C19.3263 15.568 19.1343 15.2213 18.7503 14.944C18.377 14.6667 17.9023 14.528 17.3263 14.528C16.7823 14.528 16.3023 14.6293 15.8863 14.832C15.4703 15.024 15.0223 15.36 14.5423 15.84L13.0543 14.48C13.5983 13.904 14.2543 13.4507 15.0223 13.12C15.7903 12.7893 16.585 12.624 17.4063 12.624C18.0036 12.624 18.553 12.704 19.0543 12.864C19.5663 13.0133 20.0036 13.2267 20.3663 13.504C20.729 13.7813 21.0116 14.112 21.2143 14.496C21.417 14.88 21.5183 15.3013 21.5183 15.76C21.5183 16.3147 21.369 16.8213 21.0703 17.28C20.7716 17.728 20.3663 18.0853 19.8543 18.352C20.4623 18.5653 20.9476 18.896 21.3103 19.344C21.6836 19.792 21.8703 20.304 21.8703 20.88Z" fill="#939CA7"/>
</svg>
