<svg width="32" height="32" viewBox="0 0 32 32" fill="none" xmlns="http://www.w3.org/2000/svg">
<circle cx="16" cy="16" r="16" fill="#0000FF"/>
<path d="M22.3545 13.3545C21.4773 13.3545 20.7637 12.6409 20.7637 11.7637V7.52734C20.7637 7.23611 20.5276 7 20.2363 7H17.7622C17.6557 7 17.5552 7.03213 17.4709 7.08807C17.4709 7.088 17.4708 7.08796 17.4708 7.08789C17.4647 7.08181 16.7346 7.5625 16 7.5625C15.2666 7.5625 14.5415 7.074 14.5283 7.08719C14.5282 7.08726 14.5281 7.08729 14.5281 7.08733C14.444 7.03189 14.3439 7 14.2378 7H11.7637C11.4724 7 11.2363 7.23611 11.2363 7.52734V11.7637C11.2363 12.6409 10.5227 13.3545 9.64551 13.3545C9.35427 13.3545 9.11816 13.5906 9.11816 13.8818V23.1586C9.11816 24.174 9.9442 25 10.9595 25H21.0405C22.0558 25 22.8818 24.174 22.8818 23.1586V13.8818C22.8818 13.5906 22.6457 13.3545 22.3545 13.3545V13.3545ZM21.8271 14.3564V16.8438H16.5273V13.9536L18.1632 8.05469H19.709V11.7637C19.709 13.0418 20.6202 14.1112 21.8271 14.3564ZM21.8271 19.397H18.6455V17.8984H21.8271V19.397ZM10.1729 19.397V17.8984H13.3545V19.397H10.1729ZM14.4092 17.8984H15.4727V19.397H14.4092V17.8984ZM16.5273 17.8984H17.5908V19.397H16.5273V17.8984ZM16.9545 8.46672L16 11.9085L15.0455 8.46672C15.3355 8.55384 15.6622 8.61719 16 8.61719C16.3378 8.61719 16.6645 8.55384 16.9545 8.46672ZM12.291 11.7637V8.05469H13.8368L15.4727 13.9536V16.8438H10.1729V14.3564C11.3798 14.1112 12.291 13.0418 12.291 11.7637V11.7637ZM10.1729 23.1586V20.4517H15.4727V23.9453H10.9595C10.5257 23.9453 10.1729 23.5924 10.1729 23.1586V23.1586ZM21.0405 23.9453H16.5273V20.4517H21.8271V23.1586C21.8271 23.5924 21.4742 23.9453 21.0405 23.9453Z" fill="white"/>
</svg>
