<svg width="110" height="28" viewBox="0 0 110 28" fill="none" xmlns="http://www.w3.org/2000/svg">
<rect width="110" height="27" rx="13.5" fill="#0D0D5D"/>
<path d="M28.2375 19V6.4H34.5555C35.1675 6.4 35.7315 6.502 36.2475 6.706C36.7755 6.898 37.2255 7.168 37.5975 7.516C37.9695 7.864 38.2575 8.284 38.4615 8.776C38.6775 9.256 38.7855 9.784 38.7855 10.36C38.7855 10.924 38.6775 11.446 38.4615 11.926C38.2575 12.394 37.9635 12.802 37.5795 13.15C37.2075 13.498 36.7635 13.768 36.2475 13.96C35.7315 14.152 35.1675 14.248 34.5555 14.248H30.8475V19H28.2375ZM34.2675 8.65H30.8475V12.088H34.2675C34.8315 12.088 35.2815 11.932 35.6175 11.62C35.9655 11.308 36.1395 10.894 36.1395 10.378C36.1395 9.862 35.9655 9.448 35.6175 9.136C35.2815 8.812 34.8315 8.65 34.2675 8.65ZM42.8932 19.162C41.8852 19.162 41.0632 18.898 40.4272 18.37C39.7912 17.83 39.4732 17.134 39.4732 16.282C39.4732 15.394 39.8152 14.698 40.4992 14.194C41.1832 13.69 42.1252 13.438 43.3252 13.438C43.7092 13.438 44.0932 13.468 44.4772 13.528C44.8612 13.588 45.2392 13.678 45.6112 13.798V13.132C45.6112 12.592 45.4432 12.184 45.1072 11.908C44.7712 11.632 44.2792 11.494 43.6312 11.494C43.2352 11.494 42.8032 11.56 42.3352 11.692C41.8792 11.812 41.3572 12.004 40.7692 12.268L39.8692 10.45C40.6012 10.114 41.3092 9.862 41.9932 9.694C42.6892 9.526 43.3732 9.442 44.0452 9.442C45.3052 9.442 46.2832 9.748 46.9792 10.36C47.6872 10.96 48.0412 11.812 48.0412 12.916V19H45.6112V18.352C45.2152 18.628 44.7952 18.832 44.3512 18.964C43.9192 19.096 43.4332 19.162 42.8932 19.162ZM41.8312 16.228C41.8312 16.588 41.9872 16.876 42.2992 17.092C42.6112 17.296 43.0252 17.398 43.5412 17.398C43.9492 17.398 44.3212 17.35 44.6572 17.254C45.0052 17.146 45.3232 16.996 45.6112 16.804V15.4C45.3112 15.28 44.9932 15.196 44.6572 15.148C44.3332 15.088 43.9912 15.058 43.6312 15.058C43.0672 15.058 42.6232 15.166 42.2992 15.382C41.9872 15.586 41.8312 15.868 41.8312 16.228ZM49.1155 17.884L50.3395 16.246C50.8915 16.606 51.4135 16.876 51.9055 17.056C52.3975 17.224 52.8895 17.308 53.3815 17.308C53.9335 17.308 54.3715 17.218 54.6955 17.038C55.0315 16.858 55.1995 16.618 55.1995 16.318C55.1995 16.078 55.1035 15.886 54.9115 15.742C54.7315 15.598 54.4375 15.496 54.0295 15.436L52.2295 15.166C51.3055 15.022 50.5975 14.722 50.1055 14.266C49.6255 13.81 49.3855 13.204 49.3855 12.448C49.3855 11.548 49.7395 10.828 50.4475 10.288C51.1555 9.748 52.1035 9.478 53.2915 9.478C53.9755 9.478 54.6415 9.58 55.2895 9.784C55.9375 9.976 56.5555 10.264 57.1435 10.648L55.9555 12.232C55.4395 11.932 54.9475 11.71 54.4795 11.566C54.0115 11.41 53.5375 11.332 53.0575 11.332C52.6135 11.332 52.2535 11.416 51.9775 11.584C51.7135 11.752 51.5815 11.974 51.5815 12.25C51.5815 12.502 51.6775 12.7 51.8695 12.844C52.0735 12.976 52.4035 13.072 52.8595 13.132L54.6595 13.402C55.5715 13.534 56.2735 13.834 56.7655 14.302C57.2695 14.77 57.5215 15.364 57.5215 16.084C57.5215 16.528 57.4135 16.942 57.1975 17.326C56.9935 17.698 56.7115 18.022 56.3515 18.298C55.9915 18.574 55.5595 18.79 55.0555 18.946C54.5515 19.102 54.0055 19.18 53.4175 19.18C52.5655 19.18 51.7675 19.072 51.0235 18.856C50.2795 18.628 49.6435 18.304 49.1155 17.884ZM58.4052 14.32C58.4052 13.636 58.5312 13 58.7832 12.412C59.0472 11.812 59.4012 11.296 59.8452 10.864C60.3012 10.42 60.8352 10.072 61.4472 9.82C62.0592 9.568 62.7132 9.442 63.4092 9.442C64.1052 9.442 64.7592 9.568 65.3712 9.82C65.9832 10.072 66.5112 10.42 66.9552 10.864C67.4112 11.296 67.7652 11.812 68.0172 12.412C68.2812 13 68.4132 13.636 68.4132 14.32C68.4132 15.004 68.2812 15.646 68.0172 16.246C67.7652 16.834 67.4112 17.344 66.9552 17.776C66.5112 18.208 65.9832 18.55 65.3712 18.802C64.7592 19.054 64.1052 19.18 63.4092 19.18C62.7132 19.18 62.0592 19.054 61.4472 18.802C60.8352 18.55 60.3012 18.208 59.8452 17.776C59.4012 17.344 59.0472 16.834 58.7832 16.246C58.5312 15.646 58.4052 15.004 58.4052 14.32ZM63.4092 17.038C64.1292 17.038 64.7412 16.774 65.2452 16.246C65.7492 15.718 66.0012 15.076 66.0012 14.32C66.0012 13.552 65.7492 12.904 65.2452 12.376C64.7412 11.848 64.1292 11.584 63.4092 11.584C62.6892 11.584 62.0772 11.848 61.5732 12.376C61.0692 12.904 60.8172 13.552 60.8172 14.32C60.8172 15.076 61.0692 15.718 61.5732 16.246C62.0772 16.774 62.6892 17.038 63.4092 17.038ZM73.2621 19V17.272L78.2301 12.826C78.7941 12.31 79.1961 11.86 79.4361 11.476C79.6761 11.08 79.7961 10.672 79.7961 10.252C79.7961 9.7 79.5801 9.244 79.1481 8.884C78.7161 8.524 78.1761 8.344 77.5281 8.344C76.9281 8.344 76.3641 8.464 75.8361 8.704C75.3201 8.944 74.7561 9.34 74.1441 9.892L72.7581 8.236C73.4901 7.576 74.2641 7.078 75.0801 6.742C75.8961 6.406 76.7361 6.238 77.6001 6.238C78.2721 6.238 78.8901 6.334 79.4541 6.526C80.0301 6.706 80.5161 6.964 80.9121 7.3C81.3201 7.636 81.6321 8.044 81.8481 8.524C82.0761 9.004 82.1901 9.526 82.1901 10.09C82.1901 10.81 82.0101 11.476 81.6501 12.088C81.2901 12.7 80.6661 13.402 79.7781 14.194L76.7001 16.93H82.3521V19H73.2621Z" fill="white"/>
</svg>
