<svg width="110" height="28" viewBox="0 0 110 28" fill="none" xmlns="http://www.w3.org/2000/svg">
<rect width="110" height="27" rx="13.5" fill="#0D0D5D"/>
<path d="M27.675 19V6.4H33.993C34.605 6.4 35.169 6.502 35.685 6.706C36.213 6.898 36.663 7.168 37.035 7.516C37.407 7.864 37.695 8.284 37.899 8.776C38.115 9.256 38.223 9.784 38.223 10.36C38.223 10.924 38.115 11.446 37.899 11.926C37.695 12.394 37.401 12.802 37.017 13.15C36.645 13.498 36.201 13.768 35.685 13.96C35.169 14.152 34.605 14.248 33.993 14.248H30.285V19H27.675ZM33.705 8.65H30.285V12.088H33.705C34.269 12.088 34.719 11.932 35.055 11.62C35.403 11.308 35.577 10.894 35.577 10.378C35.577 9.862 35.403 9.448 35.055 9.136C34.719 8.812 34.269 8.65 33.705 8.65ZM42.3307 19.162C41.3227 19.162 40.5007 18.898 39.8647 18.37C39.2287 17.83 38.9107 17.134 38.9107 16.282C38.9107 15.394 39.2527 14.698 39.9367 14.194C40.6207 13.69 41.5627 13.438 42.7627 13.438C43.1467 13.438 43.5307 13.468 43.9147 13.528C44.2987 13.588 44.6767 13.678 45.0487 13.798V13.132C45.0487 12.592 44.8807 12.184 44.5447 11.908C44.2087 11.632 43.7167 11.494 43.0687 11.494C42.6727 11.494 42.2407 11.56 41.7727 11.692C41.3167 11.812 40.7947 12.004 40.2067 12.268L39.3067 10.45C40.0387 10.114 40.7467 9.862 41.4307 9.694C42.1267 9.526 42.8107 9.442 43.4827 9.442C44.7427 9.442 45.7207 9.748 46.4167 10.36C47.1247 10.96 47.4787 11.812 47.4787 12.916V19H45.0487V18.352C44.6527 18.628 44.2327 18.832 43.7887 18.964C43.3567 19.096 42.8707 19.162 42.3307 19.162ZM41.2687 16.228C41.2687 16.588 41.4247 16.876 41.7367 17.092C42.0487 17.296 42.4627 17.398 42.9787 17.398C43.3867 17.398 43.7587 17.35 44.0947 17.254C44.4427 17.146 44.7607 16.996 45.0487 16.804V15.4C44.7487 15.28 44.4307 15.196 44.0947 15.148C43.7707 15.088 43.4287 15.058 43.0687 15.058C42.5047 15.058 42.0607 15.166 41.7367 15.382C41.4247 15.586 41.2687 15.868 41.2687 16.228ZM48.553 17.884L49.777 16.246C50.329 16.606 50.851 16.876 51.343 17.056C51.835 17.224 52.327 17.308 52.819 17.308C53.371 17.308 53.809 17.218 54.133 17.038C54.469 16.858 54.637 16.618 54.637 16.318C54.637 16.078 54.541 15.886 54.349 15.742C54.169 15.598 53.875 15.496 53.467 15.436L51.667 15.166C50.743 15.022 50.035 14.722 49.543 14.266C49.063 13.81 48.823 13.204 48.823 12.448C48.823 11.548 49.177 10.828 49.885 10.288C50.593 9.748 51.541 9.478 52.729 9.478C53.413 9.478 54.079 9.58 54.727 9.784C55.375 9.976 55.993 10.264 56.581 10.648L55.393 12.232C54.877 11.932 54.385 11.71 53.917 11.566C53.449 11.41 52.975 11.332 52.495 11.332C52.051 11.332 51.691 11.416 51.415 11.584C51.151 11.752 51.019 11.974 51.019 12.25C51.019 12.502 51.115 12.7 51.307 12.844C51.511 12.976 51.841 13.072 52.297 13.132L54.097 13.402C55.009 13.534 55.711 13.834 56.203 14.302C56.707 14.77 56.959 15.364 56.959 16.084C56.959 16.528 56.851 16.942 56.635 17.326C56.431 17.698 56.149 18.022 55.789 18.298C55.429 18.574 54.997 18.79 54.493 18.946C53.989 19.102 53.443 19.18 52.855 19.18C52.003 19.18 51.205 19.072 50.461 18.856C49.717 18.628 49.081 18.304 48.553 17.884ZM57.8427 14.32C57.8427 13.636 57.9687 13 58.2207 12.412C58.4847 11.812 58.8387 11.296 59.2827 10.864C59.7387 10.42 60.2727 10.072 60.8847 9.82C61.4967 9.568 62.1507 9.442 62.8467 9.442C63.5427 9.442 64.1967 9.568 64.8087 9.82C65.4207 10.072 65.9487 10.42 66.3927 10.864C66.8487 11.296 67.2027 11.812 67.4547 12.412C67.7187 13 67.8507 13.636 67.8507 14.32C67.8507 15.004 67.7187 15.646 67.4547 16.246C67.2027 16.834 66.8487 17.344 66.3927 17.776C65.9487 18.208 65.4207 18.55 64.8087 18.802C64.1967 19.054 63.5427 19.18 62.8467 19.18C62.1507 19.18 61.4967 19.054 60.8847 18.802C60.2727 18.55 59.7387 18.208 59.2827 17.776C58.8387 17.344 58.4847 16.834 58.2207 16.246C57.9687 15.646 57.8427 15.004 57.8427 14.32ZM62.8467 17.038C63.5667 17.038 64.1787 16.774 64.6827 16.246C65.1867 15.718 65.4387 15.076 65.4387 14.32C65.4387 13.552 65.1867 12.904 64.6827 12.376C64.1787 11.848 63.5667 11.584 62.8467 11.584C62.1267 11.584 61.5147 11.848 61.0107 12.376C60.5067 12.904 60.2547 13.552 60.2547 14.32C60.2547 15.076 60.5067 15.718 61.0107 16.246C61.5147 16.774 62.1267 17.038 62.8467 17.038ZM78.1716 19.198C77.3436 19.198 76.5876 19.048 75.9036 18.748C75.2196 18.436 74.6316 18.01 74.1396 17.47C73.6596 16.918 73.2816 16.258 73.0056 15.49C72.7416 14.722 72.6096 13.876 72.6096 12.952C72.6096 11.944 72.7596 11.026 73.0596 10.198C73.3596 9.358 73.7796 8.644 74.3196 8.056C74.8596 7.468 75.5136 7.012 76.2816 6.688C77.0496 6.364 77.8956 6.202 78.8196 6.202C79.5036 6.202 80.1816 6.316 80.8536 6.544C81.5256 6.76 82.0896 7.054 82.5456 7.426L81.1416 9.19C80.7696 8.902 80.3796 8.692 79.9716 8.56C79.5636 8.428 79.1196 8.362 78.6396 8.362C77.5596 8.362 76.7076 8.734 76.0836 9.478C75.4716 10.21 75.1356 11.254 75.0756 12.61C75.4836 12.154 75.9876 11.8 76.5876 11.548C77.1876 11.284 77.8236 11.152 78.4956 11.152C79.1316 11.152 79.7196 11.248 80.2596 11.44C80.7996 11.632 81.2616 11.902 81.6456 12.25C82.0416 12.586 82.3476 12.994 82.5636 13.474C82.7796 13.942 82.8876 14.458 82.8876 15.022C82.8876 15.622 82.7676 16.18 82.5276 16.696C82.2876 17.2 81.9576 17.638 81.5376 18.01C81.1296 18.382 80.6316 18.676 80.0436 18.892C79.4676 19.096 78.8436 19.198 78.1716 19.198ZM78.0996 13.096C77.5356 13.096 77.0076 13.216 76.5156 13.456C76.0356 13.696 75.6036 14.038 75.2196 14.482C75.4116 15.274 75.7596 15.91 76.2636 16.39C76.7676 16.87 77.3676 17.11 78.0636 17.11C78.7476 17.11 79.3176 16.918 79.7736 16.534C80.2416 16.15 80.4756 15.664 80.4756 15.076C80.4756 14.488 80.2536 14.014 79.8096 13.654C79.3656 13.282 78.7956 13.096 78.0996 13.096Z" fill="white"/>
</svg>
