<svg width="205" height="35" viewBox="0 0 205 35" fill="none" xmlns="http://www.w3.org/2000/svg">
<rect y="4" width="205" height="27" rx="13.5" fill="#ECEDFB"/>
<path d="M47.932 20.968C48.412 20.968 48.872 20.872 49.312 20.68C49.752 20.48 50.124 20.2 50.428 19.84L51.256 20.68C50.848 21.128 50.344 21.484 49.744 21.748C49.152 22.004 48.536 22.132 47.896 22.132C47.28 22.132 46.7 22.02 46.156 21.796C45.62 21.572 45.156 21.268 44.764 20.884C44.372 20.492 44.06 20.032 43.828 19.504C43.604 18.968 43.492 18.4 43.492 17.8C43.492 17.192 43.604 16.624 43.828 16.096C44.06 15.568 44.372 15.112 44.764 14.728C45.156 14.336 45.62 14.028 46.156 13.804C46.7 13.58 47.28 13.468 47.896 13.468C48.552 13.468 49.18 13.6 49.78 13.864C50.388 14.12 50.888 14.472 51.28 14.92L50.44 15.784C50.12 15.416 49.736 15.132 49.288 14.932C48.84 14.732 48.376 14.632 47.896 14.632C47.456 14.632 47.044 14.712 46.66 14.872C46.276 15.032 45.944 15.256 45.664 15.544C45.392 15.824 45.176 16.16 45.016 16.552C44.856 16.936 44.776 17.352 44.776 17.8C44.776 18.248 44.856 18.668 45.016 19.06C45.176 19.444 45.396 19.776 45.676 20.056C45.956 20.336 46.288 20.56 46.672 20.728C47.064 20.888 47.484 20.968 47.932 20.968ZM53.2863 15.892V19.516C53.2863 19.996 53.4223 20.376 53.6943 20.656C53.9743 20.936 54.3423 21.076 54.7983 21.076C55.1183 21.076 55.4063 21.008 55.6623 20.872C55.9183 20.728 56.1303 20.528 56.2983 20.272V15.892H57.4983V22H56.2983V21.388C56.0583 21.628 55.7823 21.812 55.4703 21.94C55.1663 22.06 54.8303 22.12 54.4623 22.12C53.7663 22.12 53.1943 21.896 52.7463 21.448C52.3063 21 52.0863 20.424 52.0863 19.72V15.892H53.2863ZM64.2109 21.304C63.8589 21.576 63.4909 21.78 63.1069 21.916C62.7229 22.044 62.3029 22.108 61.8469 22.108C61.3989 22.108 60.9789 22.028 60.5869 21.868C60.1949 21.7 59.8549 21.476 59.5669 21.196C59.2789 20.916 59.0509 20.584 58.8829 20.2C58.7229 19.808 58.6429 19.388 58.6429 18.94C58.6429 18.5 58.7229 18.088 58.8829 17.704C59.0429 17.32 59.2589 16.988 59.5309 16.708C59.8029 16.428 60.1269 16.208 60.5029 16.048C60.8789 15.88 61.2789 15.796 61.7029 15.796C62.1189 15.796 62.5069 15.88 62.8669 16.048C63.2349 16.208 63.5469 16.432 63.8029 16.72C64.0669 17 64.2749 17.336 64.4269 17.728C64.5789 18.12 64.6549 18.54 64.6549 18.988V19.336H59.8309C59.9109 19.84 60.1429 20.26 60.5269 20.596C60.9109 20.924 61.3669 21.088 61.8949 21.088C62.1909 21.088 62.4749 21.04 62.7469 20.944C63.0189 20.848 63.2509 20.716 63.4429 20.548L64.2109 21.304ZM61.6789 16.804C61.2229 16.804 60.8229 16.956 60.4789 17.26C60.1429 17.564 59.9309 17.956 59.8429 18.436H63.4669C63.3789 17.972 63.1669 17.584 62.8309 17.272C62.5029 16.96 62.1189 16.804 61.6789 16.804ZM65.7978 22V15.892H66.9978V16.504C67.2378 16.264 67.5098 16.084 67.8138 15.964C68.1258 15.836 68.4658 15.772 68.8338 15.772C69.5298 15.772 70.1018 15.996 70.5498 16.444C70.9978 16.884 71.2218 17.456 71.2218 18.16V22H70.0218V18.364C70.0218 17.884 69.8818 17.508 69.6018 17.236C69.3298 16.956 68.9658 16.816 68.5098 16.816C68.1898 16.816 67.8978 16.884 67.6338 17.02C67.3778 17.156 67.1658 17.352 66.9978 17.608V22H65.7978ZM73.1641 20.488V16.9H71.8681V15.892H73.1641V14.332L74.3521 14.044V15.892H76.1521V16.9H74.3521V20.212C74.3521 20.524 74.4201 20.744 74.5561 20.872C74.7001 21 74.9321 21.064 75.2521 21.064C75.4201 21.064 75.5681 21.056 75.6961 21.04C75.8321 21.016 75.9761 20.976 76.1281 20.92V21.928C75.9681 21.984 75.7801 22.028 75.5641 22.06C75.3561 22.092 75.1641 22.108 74.9881 22.108C74.3961 22.108 73.9441 21.972 73.6321 21.7C73.3201 21.42 73.1641 21.016 73.1641 20.488ZM78.9681 22.108C78.3041 22.108 77.7641 21.936 77.3481 21.592C76.9321 21.248 76.7241 20.8 76.7241 20.248C76.7241 19.672 76.9441 19.22 77.3841 18.892C77.8241 18.556 78.4281 18.388 79.1961 18.388C79.4921 18.388 79.7801 18.42 80.0601 18.484C80.3401 18.54 80.6081 18.62 80.8641 18.724V18.076C80.8641 17.644 80.7361 17.32 80.4801 17.104C80.2241 16.888 79.8561 16.78 79.3761 16.78C79.0961 16.78 78.8041 16.824 78.5001 16.912C78.1961 16.992 77.8561 17.12 77.4801 17.296L77.0361 16.396C77.4921 16.18 77.9241 16.024 78.3321 15.928C78.7401 15.824 79.1441 15.772 79.5441 15.772C80.3361 15.772 80.9481 15.964 81.3801 16.348C81.8201 16.724 82.0401 17.26 82.0401 17.956V22H80.8641V21.472C80.5921 21.688 80.3001 21.848 79.9881 21.952C79.6761 22.056 79.3361 22.108 78.9681 22.108ZM77.8761 20.224C77.8761 20.52 78.0001 20.76 78.2481 20.944C78.5041 21.128 78.8361 21.22 79.2441 21.22C79.5641 21.22 79.8601 21.172 80.1321 21.076C80.4041 20.98 80.6481 20.836 80.8641 20.644V19.588C80.6321 19.46 80.3881 19.368 80.1321 19.312C79.8761 19.248 79.5961 19.216 79.2921 19.216C78.8601 19.216 78.5161 19.308 78.2601 19.492C78.0041 19.676 77.8761 19.92 77.8761 20.224ZM86.0747 13.6H89.7107C90.5267 13.6 91.1827 13.804 91.6787 14.212C92.1827 14.612 92.4347 15.148 92.4347 15.82C92.4347 16.22 92.3307 16.58 92.1227 16.9C91.9147 17.212 91.6307 17.456 91.2707 17.632C91.7267 17.808 92.0867 18.068 92.3507 18.412C92.6227 18.756 92.7587 19.156 92.7587 19.612C92.7587 20.332 92.4947 20.912 91.9667 21.352C91.4387 21.784 90.7387 22 89.8667 22H86.0747V13.6ZM89.6387 14.668H87.3347V17.164H89.6387C90.1107 17.164 90.4867 17.052 90.7667 16.828C91.0467 16.604 91.1867 16.3 91.1867 15.916C91.1867 15.532 91.0467 15.228 90.7667 15.004C90.4867 14.78 90.1107 14.668 89.6387 14.668ZM89.7707 20.932C90.2907 20.932 90.7067 20.808 91.0187 20.56C91.3307 20.304 91.4867 19.968 91.4867 19.552C91.4867 19.144 91.3307 18.812 91.0187 18.556C90.7067 18.3 90.2907 18.172 89.7707 18.172H87.3347V20.932H89.7707ZM95.9134 22.108C95.2494 22.108 94.7094 21.936 94.2934 21.592C93.8774 21.248 93.6694 20.8 93.6694 20.248C93.6694 19.672 93.8894 19.22 94.3294 18.892C94.7694 18.556 95.3734 18.388 96.1414 18.388C96.4374 18.388 96.7254 18.42 97.0054 18.484C97.2854 18.54 97.5534 18.62 97.8094 18.724V18.076C97.8094 17.644 97.6814 17.32 97.4254 17.104C97.1694 16.888 96.8014 16.78 96.3214 16.78C96.0414 16.78 95.7494 16.824 95.4454 16.912C95.1414 16.992 94.8014 17.12 94.4254 17.296L93.9814 16.396C94.4374 16.18 94.8694 16.024 95.2774 15.928C95.6854 15.824 96.0894 15.772 96.4894 15.772C97.2814 15.772 97.8934 15.964 98.3254 16.348C98.7654 16.724 98.9854 17.26 98.9854 17.956V22H97.8094V21.472C97.5374 21.688 97.2454 21.848 96.9334 21.952C96.6214 22.056 96.2814 22.108 95.9134 22.108ZM94.8214 20.224C94.8214 20.52 94.9454 20.76 95.1934 20.944C95.4494 21.128 95.7814 21.22 96.1894 21.22C96.5094 21.22 96.8054 21.172 97.0774 21.076C97.3494 20.98 97.5934 20.836 97.8094 20.644V19.588C97.5774 19.46 97.3334 19.368 97.0774 19.312C96.8214 19.248 96.5414 19.216 96.2374 19.216C95.8054 19.216 95.4614 19.308 95.2054 19.492C94.9494 19.676 94.8214 19.92 94.8214 20.224ZM100.368 22V15.892H101.568V16.504C101.808 16.264 102.08 16.084 102.384 15.964C102.696 15.836 103.036 15.772 103.404 15.772C104.1 15.772 104.672 15.996 105.12 16.444C105.568 16.884 105.792 17.456 105.792 18.16V22H104.592V18.364C104.592 17.884 104.452 17.508 104.172 17.236C103.9 16.956 103.536 16.816 103.08 16.816C102.76 16.816 102.468 16.884 102.204 17.02C101.948 17.156 101.736 17.352 101.568 17.608V22H100.368ZM110.093 21.052C110.397 21.052 110.685 20.992 110.957 20.872C111.229 20.744 111.489 20.556 111.737 20.308L112.457 21.088C112.137 21.408 111.769 21.66 111.353 21.844C110.937 22.02 110.501 22.108 110.045 22.108C109.605 22.108 109.193 22.028 108.809 21.868C108.425 21.7 108.093 21.476 107.813 21.196C107.533 20.916 107.309 20.584 107.141 20.2C106.981 19.808 106.901 19.388 106.901 18.94C106.901 18.5 106.981 18.088 107.141 17.704C107.309 17.312 107.533 16.976 107.813 16.696C108.093 16.408 108.425 16.184 108.809 16.024C109.193 15.856 109.605 15.772 110.045 15.772C110.501 15.772 110.945 15.864 111.377 16.048C111.809 16.224 112.185 16.472 112.505 16.792L111.749 17.608C111.517 17.36 111.257 17.172 110.969 17.044C110.681 16.908 110.381 16.84 110.069 16.84C109.517 16.84 109.049 17.044 108.665 17.452C108.281 17.86 108.089 18.356 108.089 18.94C108.089 19.54 108.281 20.044 108.665 20.452C109.057 20.852 109.533 21.052 110.093 21.052ZM115.367 22.108C114.703 22.108 114.163 21.936 113.747 21.592C113.331 21.248 113.123 20.8 113.123 20.248C113.123 19.672 113.343 19.22 113.783 18.892C114.223 18.556 114.827 18.388 115.595 18.388C115.891 18.388 116.179 18.42 116.459 18.484C116.739 18.54 117.007 18.62 117.263 18.724V18.076C117.263 17.644 117.135 17.32 116.879 17.104C116.623 16.888 116.255 16.78 115.775 16.78C115.495 16.78 115.203 16.824 114.899 16.912C114.595 16.992 114.255 17.12 113.879 17.296L113.435 16.396C113.891 16.18 114.323 16.024 114.731 15.928C115.139 15.824 115.543 15.772 115.943 15.772C116.735 15.772 117.347 15.964 117.779 16.348C118.219 16.724 118.439 17.26 118.439 17.956V22H117.263V21.472C116.991 21.688 116.699 21.848 116.387 21.952C116.075 22.056 115.735 22.108 115.367 22.108ZM114.275 20.224C114.275 20.52 114.399 20.76 114.647 20.944C114.903 21.128 115.235 21.22 115.643 21.22C115.963 21.22 116.259 21.172 116.531 21.076C116.803 20.98 117.047 20.836 117.263 20.644V19.588C117.031 19.46 116.787 19.368 116.531 19.312C116.275 19.248 115.995 19.216 115.691 19.216C115.259 19.216 114.915 19.308 114.659 19.492C114.403 19.676 114.275 19.92 114.275 20.224ZM119.821 22V15.892H121.021V16.672C121.205 16.376 121.441 16.152 121.729 16C122.017 15.84 122.341 15.76 122.701 15.76C122.829 15.76 122.941 15.768 123.037 15.784C123.133 15.8 123.225 15.824 123.313 15.856V16.936C123.201 16.896 123.085 16.864 122.965 16.84C122.845 16.816 122.725 16.804 122.605 16.804C122.253 16.804 121.937 16.9 121.657 17.092C121.385 17.276 121.173 17.552 121.021 17.92V22H119.821ZM124.874 14.908C124.674 14.908 124.502 14.836 124.358 14.692C124.214 14.54 124.142 14.364 124.142 14.164C124.142 13.964 124.214 13.792 124.358 13.648C124.502 13.496 124.674 13.42 124.874 13.42C125.074 13.42 125.246 13.496 125.39 13.648C125.542 13.792 125.618 13.964 125.618 14.164C125.618 14.364 125.542 14.54 125.39 14.692C125.246 14.836 125.074 14.908 124.874 14.908ZM125.474 15.892V22H124.274V15.892H125.474ZM128.82 22.108C128.156 22.108 127.616 21.936 127.2 21.592C126.784 21.248 126.576 20.8 126.576 20.248C126.576 19.672 126.796 19.22 127.236 18.892C127.676 18.556 128.28 18.388 129.048 18.388C129.344 18.388 129.632 18.42 129.912 18.484C130.192 18.54 130.46 18.62 130.716 18.724V18.076C130.716 17.644 130.588 17.32 130.332 17.104C130.076 16.888 129.708 16.78 129.228 16.78C128.948 16.78 128.656 16.824 128.352 16.912C128.048 16.992 127.708 17.12 127.332 17.296L126.888 16.396C127.344 16.18 127.776 16.024 128.184 15.928C128.592 15.824 128.996 15.772 129.396 15.772C130.188 15.772 130.8 15.964 131.232 16.348C131.672 16.724 131.892 17.26 131.892 17.956V22H130.716V21.472C130.444 21.688 130.152 21.848 129.84 21.952C129.528 22.056 129.188 22.108 128.82 22.108ZM127.728 20.224C127.728 20.52 127.852 20.76 128.1 20.944C128.356 21.128 128.688 21.22 129.096 21.22C129.416 21.22 129.712 21.172 129.984 21.076C130.256 20.98 130.5 20.836 130.716 20.644V19.588C130.484 19.46 130.24 19.368 129.984 19.312C129.728 19.248 129.448 19.216 129.144 19.216C128.712 19.216 128.368 19.308 128.112 19.492C127.856 19.676 127.728 19.92 127.728 20.224ZM140.462 22V21.424C140.206 21.64 139.918 21.808 139.598 21.928C139.278 22.04 138.942 22.096 138.59 22.096C138.158 22.096 137.754 22.016 137.378 21.856C137.002 21.688 136.674 21.464 136.394 21.184C136.122 20.904 135.906 20.572 135.746 20.188C135.586 19.796 135.506 19.38 135.506 18.94C135.506 18.5 135.586 18.088 135.746 17.704C135.906 17.32 136.122 16.988 136.394 16.708C136.674 16.428 137.006 16.208 137.39 16.048C137.774 15.88 138.182 15.796 138.614 15.796C138.95 15.796 139.274 15.848 139.586 15.952C139.898 16.056 140.186 16.204 140.45 16.396V13.6L141.65 13.336V22H140.462ZM136.682 18.928C136.682 19.528 136.882 20.032 137.282 20.44C137.682 20.848 138.174 21.052 138.758 21.052C139.102 21.052 139.418 20.988 139.706 20.86C140.002 20.732 140.25 20.552 140.45 20.32V17.548C140.25 17.324 140.002 17.148 139.706 17.02C139.41 16.892 139.094 16.828 138.758 16.828C138.174 16.828 137.682 17.028 137.282 17.428C136.882 17.828 136.682 18.328 136.682 18.928ZM148.363 21.304C148.011 21.576 147.643 21.78 147.259 21.916C146.875 22.044 146.455 22.108 145.999 22.108C145.551 22.108 145.131 22.028 144.739 21.868C144.347 21.7 144.007 21.476 143.719 21.196C143.431 20.916 143.203 20.584 143.035 20.2C142.875 19.808 142.795 19.388 142.795 18.94C142.795 18.5 142.875 18.088 143.035 17.704C143.195 17.32 143.411 16.988 143.683 16.708C143.955 16.428 144.279 16.208 144.655 16.048C145.031 15.88 145.431 15.796 145.855 15.796C146.271 15.796 146.659 15.88 147.019 16.048C147.387 16.208 147.699 16.432 147.955 16.72C148.219 17 148.427 17.336 148.579 17.728C148.731 18.12 148.807 18.54 148.807 18.988V19.336H143.983C144.063 19.84 144.295 20.26 144.679 20.596C145.063 20.924 145.519 21.088 146.047 21.088C146.343 21.088 146.627 21.04 146.899 20.944C147.171 20.848 147.403 20.716 147.595 20.548L148.363 21.304ZM145.831 16.804C145.375 16.804 144.975 16.956 144.631 17.26C144.295 17.564 144.083 17.956 143.995 18.436H147.619C147.531 17.972 147.319 17.584 146.983 17.272C146.655 16.96 146.271 16.804 145.831 16.804ZM156.91 21.4L153.778 15.16V22H152.602V13.6H154.282L156.922 18.964L159.55 13.6H161.23V22H160.042V15.148L156.91 21.4ZM168.086 21.304C167.734 21.576 167.366 21.78 166.982 21.916C166.598 22.044 166.178 22.108 165.722 22.108C165.274 22.108 164.854 22.028 164.462 21.868C164.07 21.7 163.73 21.476 163.442 21.196C163.154 20.916 162.926 20.584 162.758 20.2C162.598 19.808 162.518 19.388 162.518 18.94C162.518 18.5 162.598 18.088 162.758 17.704C162.918 17.32 163.134 16.988 163.406 16.708C163.678 16.428 164.002 16.208 164.378 16.048C164.754 15.88 165.154 15.796 165.578 15.796C165.994 15.796 166.382 15.88 166.742 16.048C167.11 16.208 167.422 16.432 167.678 16.72C167.942 17 168.15 17.336 168.302 17.728C168.454 18.12 168.53 18.54 168.53 18.988V19.336H163.706C163.786 19.84 164.018 20.26 164.402 20.596C164.786 20.924 165.242 21.088 165.77 21.088C166.066 21.088 166.35 21.04 166.622 20.944C166.894 20.848 167.126 20.716 167.318 20.548L168.086 21.304ZM165.554 16.804C165.098 16.804 164.698 16.956 164.354 17.26C164.018 17.564 163.806 17.956 163.718 18.436H167.342C167.254 17.972 167.042 17.584 166.706 17.272C166.378 16.96 165.994 16.804 165.554 16.804ZM165.95 13.3H167.39L165.854 14.764H164.846L165.95 13.3ZM168.544 22L170.92 18.868L168.64 15.892H170.044L171.616 17.992L173.188 15.892H174.544L172.288 18.856L174.7 22H173.284L171.604 19.744L169.9 22H168.544ZM176.027 14.908C175.827 14.908 175.655 14.836 175.511 14.692C175.367 14.54 175.295 14.364 175.295 14.164C175.295 13.964 175.367 13.792 175.511 13.648C175.655 13.496 175.827 13.42 176.027 13.42C176.227 13.42 176.399 13.496 176.543 13.648C176.695 13.792 176.771 13.964 176.771 14.164C176.771 14.364 176.695 14.54 176.543 14.692C176.399 14.836 176.227 14.908 176.027 14.908ZM176.627 15.892V22H175.427V15.892H176.627ZM180.956 21.052C181.26 21.052 181.548 20.992 181.82 20.872C182.092 20.744 182.352 20.556 182.6 20.308L183.32 21.088C183 21.408 182.632 21.66 182.216 21.844C181.8 22.02 181.364 22.108 180.908 22.108C180.468 22.108 180.056 22.028 179.672 21.868C179.288 21.7 178.956 21.476 178.676 21.196C178.396 20.916 178.172 20.584 178.004 20.2C177.844 19.808 177.764 19.388 177.764 18.94C177.764 18.5 177.844 18.088 178.004 17.704C178.172 17.312 178.396 16.976 178.676 16.696C178.956 16.408 179.288 16.184 179.672 16.024C180.056 15.856 180.468 15.772 180.908 15.772C181.364 15.772 181.808 15.864 182.24 16.048C182.672 16.224 183.048 16.472 183.368 16.792L182.612 17.608C182.38 17.36 182.12 17.172 181.832 17.044C181.544 16.908 181.244 16.84 180.932 16.84C180.38 16.84 179.912 17.044 179.528 17.452C179.144 17.86 178.952 18.356 178.952 18.94C178.952 19.54 179.144 20.044 179.528 20.452C179.92 20.852 180.396 21.052 180.956 21.052ZM183.787 18.94C183.787 18.5 183.867 18.088 184.027 17.704C184.195 17.312 184.423 16.976 184.711 16.696C184.999 16.408 185.335 16.184 185.719 16.024C186.111 15.856 186.527 15.772 186.967 15.772C187.407 15.772 187.819 15.856 188.203 16.024C188.595 16.184 188.931 16.408 189.211 16.696C189.499 16.976 189.723 17.312 189.883 17.704C190.051 18.088 190.135 18.5 190.135 18.94C190.135 19.388 190.051 19.808 189.883 20.2C189.723 20.584 189.499 20.92 189.211 21.208C188.931 21.488 188.595 21.712 188.203 21.88C187.819 22.04 187.407 22.12 186.967 22.12C186.527 22.12 186.111 22.04 185.719 21.88C185.335 21.712 184.999 21.488 184.711 21.208C184.423 20.92 184.195 20.584 184.027 20.2C183.867 19.808 183.787 19.388 183.787 18.94ZM186.967 21.064C187.519 21.064 187.987 20.86 188.371 20.452C188.763 20.036 188.959 19.532 188.959 18.94C188.959 18.348 188.763 17.848 188.371 17.44C187.987 17.032 187.519 16.828 186.967 16.828C186.415 16.828 185.943 17.032 185.551 17.44C185.159 17.848 184.963 18.348 184.963 18.94C184.963 19.532 185.155 20.036 185.539 20.452C185.931 20.86 186.407 21.064 186.967 21.064Z" fill="#798697"/>
<path d="M26.9545 24L32.9999 24L32.9999 10.7205L26.9545 10.7205L26.9545 24Z" fill="#CE1126"/>
<path d="M20.9556 24L27.0038 24L27.0038 10.7205L20.9556 10.7205L20.9556 24Z" fill="white"/>
<path d="M15.0002 24L21.0457 24L21.0457 10.7205L15.0002 10.7205L15.0002 24Z" fill="#006847"/>
<ellipse cx="24.0493" cy="17.3975" rx="1.73601" ry="1.68893" transform="rotate(-180 24.0493 17.3975)" fill="#5B5B5B"/>
</svg>
