<svg width="454" height="86" viewBox="0 0 454 86" fill="none" xmlns="http://www.w3.org/2000/svg">
<path d="M53.5001 59.4C51.8001 60.8 49.8001 62 47.8001 63C45.7001 64 43.4001 64.7 41.0001 65.3C38.5001 65.8 35.8 66.1 32.7 66.1C28.1 66.1 23.7001 65.3 19.8001 63.6C15.8001 61.9 12.4001 59.6 9.50006 56.7C6.60006 53.8 4.30007 50.3 2.70007 46.3C1.10007 42.3 0.300049 38.1 0.300049 33.5V33.3C0.300049 28.8 1.10007 24.5 2.70007 20.6C4.30007 16.7 6.60006 13.2 9.50006 10.2C12.4001 7.20001 15.9001 4.89998 19.9001 3.09998C23.9001 1.39998 28.4001 0.5 33.3001 0.5C36.3001 0.5 39.0001 0.700012 41.4001 1.20001C43.8001 1.70001 46.1001 2.30001 48.0001 3.20001C50.0001 4.00001 51.8001 5.09999 53.5001 6.29999C55.2001 7.49999 56.8 8.79999 58.2 10.3L49.3001 20.5C46.8001 18.3 44.3 16.5 41.7 15.3C39.1 14 36.3 13.4 33.1 13.4C30.4 13.4 28 13.9 25.7 14.9C23.4 15.9 21.5001 17.3 19.9001 19.2C18.3001 21 17 23.1 16.1 25.5C15.2 27.9 14.7 30.4 14.7 33.1V33.3C14.7 36 15.2 38.6 16.1 41C17 43.4 18.3001 45.5 19.9001 47.3C21.5001 49.1 23.4 50.5 25.7 51.6C28 52.7 30.4 53.2 33.2 53.2C36.8 53.2 39.9001 52.5 42.4001 51.2C44.9001 49.9 47.4001 48.1 49.9001 45.8L58.8001 54.8C56.9001 56.4 55.2001 58 53.5001 59.4Z" fill="white"/>
<path d="M96.6 64.9V59.7C94.9 61.6 92.9001 63.1 90.5001 64.2C88.1001 65.3 85.3001 65.9 81.9001 65.9C79.6001 65.9 77.5001 65.6 75.4001 65C73.4001 64.4 71.6 63.4 70.1 62.2C68.6 60.9 67.4001 59.4 66.5001 57.5C65.6001 55.7 65.2 53.5 65.2 51.1V50.9C65.2 48.2 65.7 46 66.6 44C67.6 42.1 68.9 40.5 70.6 39.2C72.3 37.9 74.4 37 76.7 36.4C79.1 35.8 81.7 35.5 84.6 35.5C87.1 35.5 89.2 35.7 91.1 36C92.9 36.4 94.7001 36.8 96.5001 37.4V36.6C96.5001 33.7 95.6001 31.5 93.9001 30C92.2001 28.5 89.6 27.7 86.1 27.7C83.4 27.7 81.1 27.9 79.1 28.4C77.1 28.9 75 29.5 72.7 30.3L69.3001 19.8C72.0001 18.7 74.7 17.7 77.6 17C80.5 16.3 84 15.9 88.1 15.9C95.6 15.9 101.1 17.7 104.6 21.4C108 25.1 109.8 30.2 109.8 36.8V64.9H96.6ZM96.9001 45.3C95.7001 44.8 94.4001 44.3 92.9001 44C91.4001 43.7 89.8 43.5 88.2 43.5C85.2 43.5 82.9 44.1 81.2 45.2C79.5 46.3 78.7 48 78.7 50.2V50.4C78.7 52.3 79.4001 53.7 80.8001 54.7C82.2001 55.7 84 56.2 86.2 56.2C89.5 56.2 92.1001 55.4 94.0001 53.8C96.0001 52.2 96.9001 50.2 96.9001 47.7V45.3Z" fill="white"/>
<path d="M182 64.9V37.9C182 34.7 181.3 32.2 179.9 30.5C178.5 28.8 176.5 28 173.9 28C171.3 28 169.3 28.8 167.8 30.5C166.3 32.2 165.6 34.6 165.6 37.9V64.9H151.9V37.9C151.9 34.7 151.2 32.2 149.8 30.5C148.4 28.8 146.4 28 143.8 28C141.2 28 139.2 28.8 137.7 30.5C136.2 32.2 135.5 34.6 135.5 37.9V64.9H121.8V16.4H135.5V23.3C136.3 22.3 137.1 21.3 138.1 20.3C139 19.4 140.1 18.5 141.2 17.8C142.3 17.1 143.6 16.5 145 16.1C146.4 15.7 148 15.5 149.7 15.5C152.9 15.5 155.7 16.2 158 17.5C160.3 18.8 162.1 20.7 163.4 23.2C165.5 20.7 167.9 18.7 170.5 17.4C173.1 16.1 176 15.4 179.4 15.4C184.5 15.4 188.5 16.9 191.4 19.9C194.3 22.9 195.7 27.3 195.7 33.2V64.8H182V64.9Z" fill="white"/>
<path d="M256.8 51.4C255.6 54.5 253.9 57.1 251.9 59.3C249.9 61.4 247.5 63.1 244.9 64.1C242.2 65.2 239.5 65.7 236.6 65.7C232.9 65.7 229.9 65 227.5 63.5C225.1 62.1 223.1 60.4 221.5 58.5V79.2H207.8V16.3H221.5V23.2C223.2 20.9 225.2 19.1 227.6 17.6C230 16.1 233 15.4 236.6 15.4C239.4 15.4 242.2 15.9 244.8 17C247.5 18.1 249.8 19.7 251.9 21.8C253.9 23.9 255.6 26.6 256.8 29.7C258 32.8 258.7 36.4 258.7 40.4V40.6C258.6 44.8 258 48.3 256.8 51.4ZM244.9 40.5C244.9 38.5 244.6 36.7 244 35C243.4 33.3 242.5 31.9 241.4 30.7C240.3 29.5 239.1 28.6 237.6 28C236.2 27.4 234.7 27 233 27C231.3 27 229.8 27.3 228.4 28C227 28.6 225.7 29.5 224.7 30.7C223.6 31.9 222.8 33.3 222.2 35C221.6 36.7 221.3 38.5 221.3 40.5V40.7C221.3 42.7 221.6 44.5 222.2 46.2C222.8 47.9 223.7 49.3 224.7 50.5C225.8 51.7 227 52.6 228.4 53.2C229.8 53.8 231.3 54.2 233 54.2C234.7 54.2 236.1 53.9 237.6 53.2C239 52.6 240.3 51.7 241.4 50.5C242.5 49.3 243.3 47.9 244 46.3C244.6 44.7 244.9 42.8 244.9 40.7V40.5Z" fill="white"/>
<path d="M303.5 41.8C303.5 45.3 301.6 48.4 298.7 50.1C295.8 48.5 293.9 45.4 293.9 41.8C293.9 38.2 295.8 35.2 298.7 33.5C301.5 35.2 303.5 38.3 303.5 41.8Z" fill="white"/>
<path d="M307.9 57.2C304.5 58.3 301 57.4 298.6 55.2C299.3 52 301.7 49.2 305 48.1C308.4 47 311.9 47.9 314.3 50.1C313.6 53.3 311.3 56.1 307.9 57.2Z" fill="white"/>
<path d="M289.4 57.2C292.8 58.3 296.3 57.4 298.7 55.2C298 52 295.6 49.2 292.3 48.1C288.9 47 285.4 47.9 283 50.1C283.7 53.3 286.1 56.1 289.4 57.2Z" fill="white"/>
<path d="M299.6 55.2H297.8V73.9H299.6V55.2Z" fill="white"/>
<path d="M341.2 78.7L327.3 63.2C327 62.8 326.9 62.3 327.1 61.8C333.4 49.4 331 34.4 321.1 24.6C314.9 18.4 306.6 15 297.7 15.2C288.9 15.4 280.7 19 274.7 25.5C263.6 37.5 263.4 56.4 274.2 68.6C283.7 79.3 298.7 82.5 311.7 76.6C313.8 75.6 314.7 73.2 313.7 71.1C313.2 70.1 312.4 69.3 311.4 68.9C310.4 68.5 309.2 68.6 308.2 69C298.6 73.4 287.4 71 280.3 63.1C272.3 54.1 272.5 40 280.7 31.1C285.2 26.3 291.2 23.5 297.8 23.4C304.3 23.3 310.5 25.8 315.2 30.4C322.5 37.7 324.3 48.8 319.6 58.1C317.8 61.6 318.4 65.9 321.1 68.8L335 84.3C335.8 85.2 336.9 85.7 338.1 85.7C339.1 85.7 340.1 85.3 340.9 84.6C341.7 83.9 342.2 82.8 342.2 81.7C342.4 80.5 342 79.5 341.2 78.7Z" fill="white"/>
<path d="M428.7 65.5999H368.8C355.1 65.5999 344.1 54.5 344.1 40.9C344.1 27.2 355.2 16.2 368.8 16.2H428.7C442.4 16.2 453.4 27.3 453.4 40.9C453.5 54.5 442.4 65.5999 428.7 65.5999Z" fill="white"/>
<path d="M374.1 23.7999H369.8L354 58.7H359.1L363.1 49.7999H380.7L384.6 58.7H389.9L374.3 24.0999L374.1 23.7999ZM378.7 45.2999H365.1L371.9 30.0999L378.7 45.2999Z" fill="#4D3D6E"/>
<path d="M413.2 36.4C413 36.1 412.7 35.8999 412.5 35.5999C411.8 34.8999 411.1 34.2999 410.3 33.7999C409.5 33.2999 408.6 32.8999 407.6 32.5999C406.6 32.2999 405.5 32.0999 404.3 32.0999C402.7 32.0999 401.2 32.3999 399.7 32.9999C398.2 33.5999 396.9 34.5 395.7 35.7C394.5 36.8 393.6 38.3 392.9 39.9C392.2 41.6 391.9 43.4999 391.9 45.5999C391.9 47.6999 392.3 49.5999 392.9 51.2999C393.6 52.9999 394.5 54.3999 395.7 55.4999C396.9 56.5999 398.2 57.4999 399.7 58.0999C401.2 58.6999 402.7 58.9999 404.3 58.9999C405.5 58.9999 406.6 58.7999 407.6 58.4999C408.6 58.1999 409.5 57.7999 410.3 57.2C411.1 56.7 411.8 55.9999 412.5 55.2999C412.8 54.9999 413 54.7 413.3 54.4V58.2999H418.1V22.2H413.3V36.4H413.2ZM410.7 39.2C411.5 40 412.1 40.8999 412.6 41.9999C413.1 43.0999 413.3 44.3 413.3 45.7C413.3 47.1 413.1 48.3 412.6 49.4C412.1 50.5 411.5 51.5 410.7 52.2C409.9 53 409 53.5999 408 53.9999C406 54.8999 403.7 54.7999 401.7 53.9999C400.7 53.5999 399.8 53 399.1 52.2C398.4 51.4 397.8 50.4999 397.3 49.2999C396.9 48.1999 396.6 46.8999 396.6 45.4999C396.6 44.0999 396.8 42.8 397.3 41.7C397.7 40.6 398.3 39.6 399.1 38.9C399.8 38.1 400.7 37.6 401.7 37.2C402.7 36.8 403.8 36.5999 404.9 36.5999C406 36.5999 407 36.8 408 37.2C409 37.8 409.9 38.4 410.7 39.2Z" fill="#4D3D6E"/>
<path d="M442.4 47.9001C441.9 47.1001 441.2 46.4 440.4 45.8C439.6 45.2 438.7 44.8001 437.7 44.4001C436.7 44.0001 435.8 43.7001 434.8 43.4001C434 43.1001 433.2 42.9 432.4 42.6C431.7 42.4 431 42.1 430.4 41.8C429.9 41.5 429.5 41.2 429.2 40.8C428.9 40.5 428.8 40.1 428.8 39.6V39.5C428.8 38.6 429.2 37.9001 429.9 37.4001C430.7 36.8001 431.7 36.5 433.1 36.5C434.2 36.5 435.4 36.7 436.6 37.1C437.8 37.5 439 38.1 440.1 38.8L440.6 39.1L442.8 35.4001L442.4 35.1C441.1 34.2 439.6 33.6 438 33C435.1 32.1 432.1 32 429.6 32.8C428.5 33.2 427.5 33.7 426.7 34.3C425.9 35 425.3 35.8 424.8 36.7C424.4 37.6 424.1 38.7 424.1 39.8V39.9001C424.1 41.2001 424.4 42.2 424.9 43.1C425.4 43.9 426.1 44.6 427 45.2C427.8 45.7 428.7 46.2 429.8 46.5C430.8 46.8 431.8 47.2001 432.7 47.4001C433.5 47.6001 434.3 47.9 435 48.1C435.7 48.3 436.4 48.6001 436.9 48.9001C437.4 49.2001 437.8 49.5001 438.1 49.9001C438.4 50.3001 438.5 50.7 438.5 51.2V51.3C438.5 52.3 438.1 53.1 437.3 53.7C436.4 54.3 435.3 54.6 433.9 54.6C432.5 54.6 431.1 54.3 429.7 53.8C428.3 53.3 426.9 52.5 425.6 51.5L425.2 51.2L422.7 54.7L423.1 55C424.5 56.2 426.2 57.1 428.1 57.7C430 58.4 431.9 58.7 433.7 58.7C435 58.7 436.2 58.5 437.3 58.2C438.4 57.8 439.4 57.3 440.3 56.6C441.1 55.9 441.8 55.1 442.3 54.1C442.8 53.1 443.1 52 443.1 50.7V51C443.2 49.8 443 48.8001 442.4 47.9001Z" fill="#4D3D6E"/>
</svg>
