<svg width="44" height="44" viewBox="0 0 44 44" fill="none" xmlns="http://www.w3.org/2000/svg">
<circle cx="22" cy="22" r="22" fill="#045ECC"/>
<path fill-rule="evenodd" clip-rule="evenodd" d="M6.87895 15.5368L9.57352 26.3146L10.0944 26.1845L7.35169 15.2034C7.32184 15.0839 7.21446 15 7.09127 15H5.26842C5.12018 15 5 15.1202 5 15.2684C5 15.4167 5.12018 15.5368 5.26842 15.5368H6.87895Z" fill="white"/>
<path fill-rule="evenodd" clip-rule="evenodd" d="M11.442 27.0789C11.442 26.3377 10.8411 25.7368 10.0999 25.7368C9.35869 25.7368 8.75781 26.3377 8.75781 27.0789C8.75781 27.8201 9.35869 28.421 10.0999 28.421C10.8411 28.421 11.442 27.8201 11.442 27.0789ZM9.29465 27.0789C9.29465 26.6342 9.65518 26.2737 10.0999 26.2737C10.5447 26.2737 10.9052 26.6342 10.9052 27.0789C10.9052 27.5237 10.5447 27.8842 10.0999 27.8842C9.65518 27.8842 9.29465 27.5237 9.29465 27.0789Z" fill="white"/>
<path fill-rule="evenodd" clip-rule="evenodd" d="M18.9579 27.0789C18.9579 26.3377 18.357 25.7368 17.6158 25.7368C16.8746 25.7368 16.2737 26.3377 16.2737 27.0789C16.2737 27.8201 16.8746 28.421 17.6158 28.421C18.357 28.421 18.9579 27.8201 18.9579 27.0789ZM16.8105 27.0789C16.8105 26.6342 17.1711 26.2737 17.6158 26.2737C18.0605 26.2737 18.4211 26.6342 18.4211 27.0789C18.4211 27.5237 18.0605 27.8842 17.6158 27.8842C17.1711 27.8842 16.8105 27.5237 16.8105 27.0789Z" fill="white"/>
<path fill-rule="evenodd" clip-rule="evenodd" d="M19.4196 18.758L17.9433 24.6633H9.56316V25.2001H18.1526C18.2758 25.2001 18.3832 25.1163 18.413 24.9968L20.0236 18.5547C20.0659 18.3853 19.9378 18.2212 19.7632 18.2212H7.95264V18.758H19.4196Z" fill="white"/>
<path fill-rule="evenodd" clip-rule="evenodd" d="M16.5422 27.3474V26.8105H11.1738V27.3474H16.5422Z" fill="white"/>
<g clip-path="url(#clip0)">
<path d="M32.2893 15.5591V27.8617" stroke="white" stroke-linecap="round" stroke-linejoin="round"/>
<path d="M35.0854 17.7959H30.8913C30.3722 17.7959 29.8744 18.0021 29.5073 18.3692C29.1403 18.7362 28.9341 19.234 28.9341 19.7531C28.9341 20.2722 29.1403 20.7701 29.5073 21.1371C29.8744 21.5042 30.3722 21.7104 30.8913 21.7104H33.6874C34.2065 21.7104 34.7043 21.9166 35.0713 22.2836C35.4384 22.6507 35.6446 23.1485 35.6446 23.6676C35.6446 24.1867 35.4384 24.6845 35.0713 25.0516C34.7043 25.4186 34.2065 25.6248 33.6874 25.6248H28.9341" stroke="white" stroke-linecap="round" stroke-linejoin="round"/>
</g>
<defs>
<clipPath id="clip0">
<rect width="13.4211" height="13.4211" fill="white" transform="translate(25.5789 15)"/>
</clipPath>
</defs>
</svg>
