<svg width="44" height="44" viewBox="0 0 44 44" fill="none" xmlns="http://www.w3.org/2000/svg">
<circle cx="22" cy="22" r="22" fill="#045ECC"/>
<path fill-rule="evenodd" clip-rule="evenodd" d="M13.625 13.75L17.3894 28.807L18.1171 28.6253L14.2854 13.2841C14.2437 13.1172 14.0937 13 13.9216 13H11.375C11.1679 13 11 13.1679 11 13.375C11 13.5821 11.1679 13.75 11.375 13.75H13.625Z" fill="white"/>
<path fill-rule="evenodd" clip-rule="evenodd" d="M19.9997 29.874C19.9997 28.8385 19.1603 27.999 18.1247 27.999C17.0892 27.999 16.2498 28.8385 16.2498 29.874C16.2498 30.9095 17.0892 31.749 18.1247 31.749C19.1603 31.749 19.9997 30.9095 19.9997 29.874ZM16.9997 29.874C16.9997 29.2527 17.5034 28.749 18.1247 28.749C18.7461 28.749 19.2497 29.2527 19.2497 29.874C19.2497 30.4953 18.7461 30.999 18.1247 30.999C17.5034 30.999 16.9997 30.4953 16.9997 29.874Z" fill="white"/>
<path fill-rule="evenodd" clip-rule="evenodd" d="M30.4997 29.874C30.4997 28.8385 29.6603 27.999 28.6247 27.999C27.5892 27.999 26.7498 28.8385 26.7498 29.874C26.7498 30.9095 27.5892 31.749 28.6247 31.749C29.6603 31.749 30.4997 30.9095 30.4997 29.874ZM27.4997 29.874C27.4997 29.2527 28.0034 28.749 28.6247 28.749C29.2461 28.749 29.7497 29.2527 29.7497 29.874C29.7497 30.4953 29.2461 30.999 28.6247 30.999C28.0034 30.999 27.4997 30.4953 27.4997 29.874Z" fill="white"/>
<path fill-rule="evenodd" clip-rule="evenodd" d="M31.1449 18.249L29.0824 26.4989H17.375V27.2489H29.3749C29.5469 27.2489 29.6969 27.1318 29.7387 26.9649L31.9887 17.965C32.0478 17.7283 31.8688 17.499 31.6249 17.499H15.125V18.249H31.1449Z" fill="white"/>
<path fill-rule="evenodd" clip-rule="evenodd" d="M27.1252 30.25V29.5H19.6252V30.25H27.1252Z" fill="white"/>
</svg>
