<svg width="76" height="30" viewBox="0 0 76 30" fill="none" xmlns="http://www.w3.org/2000/svg">
<path fill-rule="evenodd" clip-rule="evenodd" d="M4.2 1.2L10.2232 25.2915L11.3874 25.0007L5.25673 0.454609C5.19 0.187445 4.94998 0 4.67461 0H0.6C0.268629 0 0 0.268629 0 0.6C0 0.931371 0.268629 1.2 0.6 1.2H4.2Z" fill="#0667D0"/>
<path fill-rule="evenodd" clip-rule="evenodd" d="M14.4 26.9999C14.4 25.3431 13.0569 23.9999 11.4 23.9999C9.74317 23.9999 8.40002 25.3431 8.40002 26.9999C8.40002 28.6568 9.74317 29.9999 11.4 29.9999C13.0569 29.9999 14.4 28.6568 14.4 26.9999ZM9.60002 26.9999C9.60002 26.0058 10.4059 25.1999 11.4 25.1999C12.3941 25.1999 13.2 26.0058 13.2 26.9999C13.2 27.9941 12.3941 28.7999 11.4 28.7999C10.4059 28.7999 9.60002 27.9941 9.60002 26.9999Z" fill="#0667D0"/>
<path fill-rule="evenodd" clip-rule="evenodd" d="M31.2001 26.9999C31.2001 25.3431 29.8569 23.9999 28.2001 23.9999C26.5432 23.9999 25.2001 25.3431 25.2001 26.9999C25.2001 28.6568 26.5432 29.9999 28.2001 29.9999C29.8569 29.9999 31.2001 28.6568 31.2001 26.9999ZM26.4001 26.9999C26.4001 26.0058 27.206 25.1999 28.2001 25.1999C29.1942 25.1999 30.0001 26.0058 30.0001 26.9999C30.0001 27.9941 29.1942 28.7999 28.2001 28.7999C27.206 28.7999 26.4001 27.9941 26.4001 26.9999Z" fill="#0667D0"/>
<path fill-rule="evenodd" clip-rule="evenodd" d="M32.232 8.40007L28.932 21.6001H10.2V22.8001H29.4C29.6753 22.8001 29.9153 22.6127 29.9821 22.3456L33.5821 7.94559C33.6767 7.56691 33.3903 7.20007 33 7.20007H6.59998V8.40007H32.232Z" fill="#0667D0"/>
<path fill-rule="evenodd" clip-rule="evenodd" d="M25.7999 27.6V26.4H13.7999V27.6H25.7999Z" fill="#0667D0"/>
<path d="M61 1.25V28.75" stroke="#0667D0" stroke-linecap="round" stroke-linejoin="round"/>
<path d="M67.25 6.25H57.875C56.7147 6.25 55.6019 6.71094 54.7814 7.53141C53.9609 8.35188 53.5 9.46468 53.5 10.625C53.5 11.7853 53.9609 12.8981 54.7814 13.7186C55.6019 14.5391 56.7147 15 57.875 15H64.125C65.2853 15 66.3981 15.4609 67.2186 16.2814C68.0391 17.1019 68.5 18.2147 68.5 19.375C68.5 20.5353 68.0391 21.6481 67.2186 22.4686C66.3981 23.2891 65.2853 23.75 64.125 23.75H53.5" stroke="#0667D0" stroke-linecap="round" stroke-linejoin="round"/>
</svg>
