<svg width="44" height="44" viewBox="0 0 44 44" fill="none" xmlns="http://www.w3.org/2000/svg">
<circle cx="22" cy="22" r="22" fill="#045ECC"/>
<path d="M10.8089 20.6184C11.284 20.6184 11.7316 20.4989 12.1243 20.2899L16.2741 24.563C15.9181 25.0338 15.7044 25.6174 15.7044 26.2517C15.7044 27.8007 16.9645 29.0605 18.5135 29.0605C20.0626 29.0605 21.3224 27.8003 21.3224 26.2517C21.3224 25.6459 21.1279 25.0858 20.8003 24.6266L24.1753 21.8792C24.6881 22.4235 25.413 22.7656 26.2182 22.7656C27.0665 22.7656 27.8268 22.3861 28.3422 21.7892L31.2179 23.3551C31.1518 23.594 31.1137 23.8444 31.1137 24.1038C31.1137 25.6528 32.3739 26.913 33.9226 26.913C35.4713 26.913 36.7314 25.6528 36.7314 24.1038C36.7314 22.5548 35.4713 21.2946 33.9226 21.2946C33.1087 21.2946 32.3766 21.6447 31.8631 22.1998L28.9467 20.6118C28.9973 20.401 29.0271 20.1827 29.0271 19.9567C29.0271 18.4077 27.7669 17.1475 26.2182 17.1475C24.6689 17.1475 23.4087 18.4077 23.4087 19.9567C23.4087 20.2184 23.4474 20.4705 23.5146 20.7107L19.7823 23.7485C19.4005 23.5543 18.9704 23.4425 18.5135 23.4425C18.0791 23.4425 17.6689 23.5447 17.3013 23.7214L13.1145 19.4098C13.4311 18.9552 13.6181 18.404 13.6181 17.8092C13.6181 16.2602 12.3579 15 10.8089 15C9.25985 15 8 16.2602 8 17.8092C8 19.3582 9.26018 20.6184 10.8089 20.6184ZM33.9229 22.6183C34.7421 22.6183 35.4084 23.285 35.4084 24.1042C35.4084 24.9233 34.7418 25.59 33.9229 25.59C33.1041 25.59 32.4374 24.9233 32.4374 24.1042C32.4371 23.285 33.1037 22.6183 33.9229 22.6183ZM26.2186 18.4709C27.0377 18.4709 27.7041 19.1375 27.7041 19.9567C27.7041 20.7759 27.0374 21.4422 26.2186 21.4422C25.3991 21.4422 24.7324 20.7759 24.7324 19.9567C24.7324 19.1375 25.3991 18.4709 26.2186 18.4709ZM19.9994 26.2517C19.9994 27.0708 19.333 27.7371 18.5139 27.7371C17.6944 27.7371 17.0281 27.0705 17.0281 26.2517C17.0281 25.4322 17.6947 24.7658 18.5139 24.7658C19.333 24.7658 19.9994 25.4322 19.9994 26.2517ZM10.8089 16.3237C11.6284 16.3237 12.2947 16.9904 12.2947 17.8095C12.2947 18.6287 11.628 19.2953 10.8089 19.2953C9.98969 19.2953 9.32337 18.6287 9.32337 17.8095C9.32337 16.9904 9.98969 16.3237 10.8089 16.3237Z" fill="white"/>
</svg>
