<svg width="69" height="69" viewBox="0 0 69 69" fill="none" xmlns="http://www.w3.org/2000/svg">
<circle cx="34.5" cy="34.5" r="34.5" fill="#0000FF"/>
<path d="M23.4462 27.7559C23.3637 27.7573 23.2817 27.7425 23.205 27.7123C23.1282 27.682 23.0581 27.637 22.9988 27.5796C22.8789 27.4639 22.8099 27.3052 22.807 27.1386C22.8041 26.972 22.8675 26.811 22.9832 26.6912C23.099 26.5713 23.2576 26.5023 23.4242 26.4994C26.5069 26.4649 29.5829 26.2046 32.6275 25.7203C32.6816 25.7091 32.737 25.7052 32.7921 25.709C33.5552 25.7494 34.2956 25.9828 34.9439 26.3875C35.0509 26.4653 35.1307 26.5749 35.1718 26.7007C35.2129 26.8264 35.2132 26.9619 35.1728 27.0879C35.1323 27.2139 35.0531 27.3239 34.9465 27.4022C34.8398 27.4805 34.7112 27.5232 34.5789 27.524C34.4309 27.524 34.2874 27.4732 34.1724 27.3802C33.7489 27.1374 33.2745 26.997 32.7871 26.9699C29.7017 27.4547 26.5855 27.7173 23.4626 27.7559H23.4462Z" fill="white"/>
<path d="M46.4275 42.7021C45.8915 42.7027 45.3691 42.5334 44.9354 42.2183L44.8004 42.1247C44.7828 42.1128 44.7532 42.0889 44.7256 42.0619L37.3304 36.7362C37.2614 36.689 37.2024 36.6286 37.157 36.5584C37.1117 36.4882 37.0807 36.4097 37.0661 36.3274C37.0514 36.2451 37.0533 36.1607 37.0717 36.0791C37.0901 35.9976 37.1246 35.9205 37.1731 35.8525C37.2216 35.7844 37.2833 35.7267 37.3544 35.6828C37.4255 35.6389 37.5046 35.6096 37.5872 35.5966C37.6698 35.5836 37.7541 35.5873 37.8353 35.6073C37.9165 35.6274 37.9928 35.6634 38.0598 35.7134L38.5624 36.0715L45.4826 41.0617C45.5033 41.0765 45.5231 41.0927 45.5417 41.1101L45.6617 41.1936C45.9342 41.3889 46.2713 41.4722 46.6034 41.4263C46.9355 41.3803 47.2373 41.2087 47.4466 40.9467C47.5749 40.7847 47.6624 40.5942 47.7017 40.3912C47.7409 40.1883 47.7308 39.9789 47.6721 39.7807C47.6015 39.531 47.4556 39.3092 47.2543 39.1455L37.3631 31.0869C33.5754 33.0973 30.8921 32.0632 29.6111 31.2446C29.3994 31.1068 29.2275 30.9159 29.1126 30.691C28.9976 30.4661 28.9437 30.2149 28.9561 29.9627C28.9685 29.7104 29.0468 29.4657 29.1832 29.2531C29.3196 29.0406 29.5094 28.8674 29.7336 28.7511L35.3954 25.7443C35.7568 25.5552 36.152 25.4395 36.5583 25.404C36.9646 25.3684 37.3739 25.4136 37.7627 25.5369L41.1119 26.6238C42.0979 26.9481 43.1674 26.9096 44.1275 26.5151L45.5863 25.9177C45.6627 25.8863 45.7444 25.8704 45.827 25.8707C45.9095 25.871 45.9911 25.8875 46.0673 25.9194C46.1434 25.9512 46.2125 25.9978 46.2707 26.0563C46.3288 26.1149 46.3749 26.1843 46.4062 26.2607C46.4375 26.337 46.4534 26.4188 46.4531 26.5013C46.4529 26.5839 46.4363 26.6655 46.4045 26.7417C46.3726 26.8178 46.3261 26.8869 46.2675 26.9451C46.2089 27.0032 46.1395 27.0492 46.0631 27.0805L44.6056 27.6774C43.3693 28.1863 41.9917 28.2362 40.7217 27.8181L37.3757 26.7319C37.1465 26.6599 36.9053 26.6339 36.6661 26.6555C36.4268 26.677 36.1942 26.7457 35.9816 26.8575L30.3185 29.865C30.287 29.8798 30.2602 29.9031 30.2411 29.9323C30.222 29.9615 30.2114 29.9954 30.2104 30.0302C30.2078 30.0617 30.214 30.0933 30.2281 30.1216C30.2423 30.1499 30.264 30.1737 30.2909 30.1904C31.6102 31.0335 33.875 31.6517 37.1175 29.7889C37.2277 29.7256 37.3546 29.6972 37.4814 29.7075C37.6082 29.7178 37.7288 29.7664 37.8274 29.8467L48.0428 38.1711C48.4434 38.4943 48.7347 38.933 48.8771 39.4276C48.9899 39.8169 49.0089 40.2274 48.9324 40.6255C48.856 41.0235 48.6863 41.3978 48.4373 41.7176C48.2001 42.0246 47.8955 42.2731 47.547 42.4438C47.1986 42.6145 46.8156 42.7028 46.4275 42.7021Z" fill="white"/>
<path d="M43.8279 45.614C43.2955 45.6146 42.7761 45.4492 42.3421 45.1409L35.5506 40.3222C35.4179 40.2246 35.3289 40.0788 35.3027 39.9161C35.2765 39.7535 35.3152 39.587 35.4105 39.4527C35.5058 39.3183 35.6501 39.2267 35.8123 39.1977C35.9745 39.1687 36.1415 39.2046 36.2775 39.2975L43.069 44.1156C43.3539 44.3017 43.6997 44.3705 44.0342 44.3076C44.3687 44.2448 44.6659 44.0551 44.8638 43.7782C45.0617 43.5013 45.1449 43.1586 45.0961 42.8218C45.0473 42.485 44.8702 42.1801 44.6019 41.9708L37.8331 37.0924C37.7083 36.9915 37.6269 36.8466 37.6056 36.6876C37.5842 36.5285 37.6245 36.3673 37.7182 36.2371C37.8119 36.1068 37.9519 36.0173 38.1095 35.987C38.2671 35.9567 38.4303 35.9878 38.5656 36.074L45.3363 40.953C45.777 41.2721 46.1054 41.7225 46.2743 42.2397C46.4433 42.7569 46.4441 43.3143 46.2766 43.832C46.1092 44.3497 45.7821 44.8011 45.3423 45.1215C44.9026 45.4418 44.3726 45.6147 43.8285 45.6153L43.8279 45.614Z" fill="white"/>
<path d="M40.8958 48.1314C40.3901 48.1312 39.8966 47.9762 39.4816 47.6872L33.3957 43.4716C33.2587 43.3767 33.1649 43.2313 33.1351 43.0673C33.1053 42.9033 33.1419 42.7341 33.2368 42.5971C33.3317 42.46 33.4771 42.3663 33.6411 42.3365C33.8051 42.3067 33.9743 42.3432 34.1113 42.4381L40.1972 46.6537C40.3309 46.7462 40.4814 46.8114 40.6402 46.8456C40.7991 46.8798 40.9631 46.8825 41.123 46.8533C41.2829 46.8241 41.4354 46.7637 41.5719 46.6756C41.7084 46.5875 41.8262 46.4733 41.9186 46.3396C42.1025 46.0716 42.1739 45.7421 42.1175 45.422C42.0611 45.1019 41.8814 44.8167 41.6171 44.6276L35.5607 40.3316C35.4918 40.2845 35.433 40.2242 35.3877 40.1541C35.3424 40.0841 35.3116 40.0057 35.2969 39.9236C35.2822 39.8415 35.284 39.7573 35.3022 39.6759C35.3204 39.5945 35.3546 39.5175 35.4029 39.4495C35.4511 39.3814 35.5125 39.3237 35.5833 39.2796C35.6541 39.2355 35.733 39.206 35.8153 39.1927C35.8977 39.1795 35.9819 39.1827 36.0629 39.2023C36.144 39.2219 36.2204 39.2575 36.2876 39.3069L42.344 43.6029C42.877 43.9839 43.2394 44.5588 43.3533 45.2041C43.4671 45.8493 43.3233 46.5135 42.9527 47.0539C42.7676 47.324 42.5307 47.5547 42.2558 47.7326C41.981 47.9105 41.6735 48.0322 41.3513 48.0905C41.201 48.118 41.0486 48.1316 40.8958 48.1314Z" fill="white"/>
<path d="M37.3059 50.1972C36.8664 50.195 36.4351 50.0776 36.0551 49.8567L32.677 47.9091C32.5339 47.8252 32.4297 47.6881 32.3873 47.5277C32.3449 47.3673 32.3677 47.1966 32.4506 47.053C32.5336 46.9093 32.67 46.8043 32.8301 46.7608C32.9902 46.7173 33.161 46.7389 33.3052 46.8209L36.6827 48.7685C36.9682 48.9297 37.3055 48.9728 37.6224 48.8888C37.9393 48.8048 38.2108 48.6002 38.379 48.3187C38.5387 48.0489 38.5895 47.7283 38.521 47.4223C38.4525 47.1163 38.2698 46.848 38.0102 46.672L33.6941 43.6822C33.6263 43.6352 33.5684 43.5753 33.5237 43.506C33.479 43.4366 33.4485 43.3591 33.4337 43.2779C33.419 43.1968 33.4204 43.1135 33.4379 43.0328C33.4553 42.9522 33.4885 42.8758 33.5355 42.808C33.5825 42.7402 33.6423 42.6823 33.7117 42.6376C33.7811 42.5929 33.8586 42.5623 33.9397 42.5476C34.0209 42.5329 34.1042 42.5343 34.1848 42.5517C34.2655 42.5692 34.3419 42.6024 34.4097 42.6493L38.7252 45.6386C39.1632 45.9419 39.4931 46.3771 39.6666 46.8809C39.8401 47.3847 39.8482 47.9307 39.6897 48.4394C39.5313 48.9481 39.2145 49.393 38.7856 49.7092C38.3568 50.0253 37.8381 50.1963 37.3053 50.1972H37.3059Z" fill="white"/>
<path d="M30.1923 49.822C29.6783 49.8228 29.1763 49.6667 28.7534 49.3747C28.3304 49.0826 28.0067 48.6685 27.8253 48.1876C27.6439 47.7067 27.6136 47.1819 27.7384 46.6833C27.8632 46.1847 28.1371 45.736 28.5236 45.3972L30.2017 43.9271C30.4511 43.7082 30.7411 43.5405 31.0553 43.4337C31.3694 43.3269 31.7016 43.283 32.0327 43.3045C32.3638 43.326 32.6875 43.4125 32.9852 43.5592C33.2828 43.7058 33.5487 43.9096 33.7677 44.1589C33.9865 44.4083 34.1542 44.6984 34.2609 45.0126C34.3677 45.3268 34.4116 45.6589 34.39 45.9901C34.3684 46.3212 34.2818 46.6448 34.1351 46.9425C33.9885 47.2402 33.7846 47.506 33.5352 47.7249L31.8571 49.1981C31.3966 49.6017 30.8046 49.8235 30.1923 49.822ZM31.8678 44.5554C31.5597 44.5546 31.2619 44.6663 31.0304 44.8695L29.3517 46.3415C29.2263 46.4515 29.1238 46.5851 29.05 46.7348C28.9762 46.8844 28.9327 47.0471 28.9218 47.2136C28.9109 47.38 28.9329 47.547 28.9866 47.705C29.0402 47.863 29.1245 48.0088 29.2345 48.1342C29.4567 48.3875 29.7704 48.5421 30.1066 48.5641C30.2731 48.575 30.44 48.5529 30.598 48.4993C30.756 48.4456 30.9018 48.3614 31.0272 48.2514L32.7053 46.7781C32.8989 46.6077 33.036 46.3824 33.0983 46.1322C33.1607 45.882 33.1454 45.6187 33.0545 45.3774C32.9636 45.1361 32.8013 44.9282 32.5894 44.7813C32.3774 44.6345 32.1257 44.5557 31.8678 44.5554Z" fill="white"/>
<path d="M26.3889 48.1106C26.333 48.1106 26.2771 48.1106 26.2212 48.1056C25.8898 48.0849 25.5659 47.9987 25.2681 47.852C24.9702 47.7054 24.7044 47.5012 24.4859 47.2512C24.264 47.0018 24.0936 46.711 23.9843 46.3955C23.8751 46.08 23.8292 45.7461 23.8493 45.4128C23.8695 45.0796 23.9552 44.7536 24.1017 44.4536C24.2481 44.1536 24.4524 43.8854 24.7027 43.6645L27.506 41.2037C27.7553 40.9847 28.0454 40.8171 28.3595 40.7102C28.6737 40.6034 29.0058 40.5595 29.3369 40.581C29.6681 40.6026 29.9917 40.6891 30.2894 40.8357C30.5871 40.9823 30.853 41.1861 31.0719 41.4355L30.6177 41.8709L31.0895 41.4562C31.3085 41.7055 31.4762 41.9956 31.5831 42.3097C31.69 42.6239 31.7339 42.9561 31.7124 43.2872C31.6909 43.6184 31.6043 43.942 31.4576 44.2397C31.311 44.5374 31.1071 44.8033 30.8577 45.0222L28.0519 47.483C27.5928 47.8883 27.0013 48.1116 26.3889 48.1106ZM29.1689 41.8319C28.8612 41.8311 28.5638 41.9428 28.3327 42.146L25.5295 44.6069C25.3418 44.7763 25.2081 44.9972 25.145 45.2421C25.0819 45.487 25.0922 45.745 25.1746 45.984C25.2571 46.2231 25.408 46.4326 25.6086 46.5865C25.8092 46.7404 26.0506 46.832 26.3029 46.8497C26.4694 46.8612 26.6366 46.8393 26.7947 46.7853C26.9527 46.7314 27.0984 46.6465 27.2232 46.5356L30.0265 44.0748C30.1519 43.9647 30.2545 43.831 30.3282 43.6814C30.402 43.5317 30.4455 43.369 30.4564 43.2025C30.4672 43.036 30.4452 42.8689 30.3915 42.711C30.3378 42.553 30.2534 42.4071 30.1434 42.2817L30.1251 42.261C30.0155 42.1361 29.8822 42.0341 29.733 41.9609C29.5838 41.8876 29.4215 41.8447 29.2556 41.8344C29.2261 41.8332 29.1966 41.8325 29.1683 41.8325L29.1689 41.8319Z" fill="white"/>
<path d="M23.2186 45.8044C23.1633 45.8044 23.1074 45.8044 23.0509 45.7993C22.7195 45.7786 22.3956 45.6924 22.0977 45.5458C21.7999 45.3991 21.5341 45.1949 21.3156 44.9449L21.2471 44.8633C20.8056 44.3595 20.582 43.7011 20.6258 43.0326C20.6695 42.3642 20.9768 41.7405 21.4802 41.2985L24.7302 38.4456C24.9795 38.2266 25.2695 38.0589 25.5837 37.952C25.8979 37.8452 26.23 37.8012 26.5612 37.8228C26.8923 37.8443 27.216 37.9309 27.5137 38.0775C27.8114 38.2242 28.0773 38.428 28.2961 38.6775L28.3671 38.7585C28.8089 39.2622 29.0325 39.9206 28.9888 40.5891C28.9451 41.2576 28.6376 41.8814 28.1341 42.3232L24.8841 45.1761C24.4244 45.5821 23.8319 45.8056 23.2186 45.8044ZM26.3932 39.0745C26.0854 39.0737 25.7881 39.1855 25.557 39.3887L22.307 42.2416C22.0535 42.4639 21.8987 42.7779 21.8767 43.1144C21.8547 43.4509 21.9672 43.7823 22.1895 44.0358L22.2605 44.1169C22.483 44.3697 22.7967 44.5239 23.1328 44.5455C23.4689 44.5672 23.7998 44.4546 24.0529 44.2325L27.3029 41.3796C27.4283 41.2695 27.5308 41.1359 27.6046 40.9862C27.6783 40.8365 27.7219 40.6738 27.7327 40.5073C27.7436 40.3408 27.7215 40.1738 27.6678 40.0158C27.6141 39.8578 27.5298 39.7119 27.4197 39.5866L27.35 39.5068C27.2403 39.3813 27.1068 39.2788 26.9572 39.2053C26.8076 39.1317 26.645 39.0886 26.4786 39.0783C26.4491 39.0758 26.4214 39.0745 26.3932 39.0745Z" fill="white"/>
<path d="M20.4877 43.008C20.4324 43.008 20.3759 43.008 20.32 43.0023C19.8181 42.9707 19.3369 42.791 18.9371 42.486C18.5374 42.1809 18.237 41.7642 18.0741 41.2885C17.9111 40.8128 17.8928 40.2994 18.0215 39.8133C18.1502 39.3272 18.4201 38.8902 18.7971 38.5574L20.832 36.7713C21.0813 36.5523 21.3714 36.3845 21.6855 36.2777C21.9997 36.1708 22.3319 36.1269 22.663 36.1484C22.9942 36.1699 23.3178 36.2565 23.6155 36.4031C23.9132 36.5498 24.1791 36.7537 24.398 37.0031L24.42 37.0282C24.639 37.2776 24.8067 37.5676 24.9136 37.8818C25.0204 38.1959 25.0644 38.5281 25.0428 38.8593C25.0213 39.1904 24.9348 39.5141 24.7881 39.8118C24.6414 40.1095 24.4376 40.3753 24.1881 40.5942L22.1532 42.3804C21.6935 42.7862 21.101 43.0095 20.4877 43.008ZM22.4981 37.3995C22.1904 37.3988 21.893 37.5105 21.6619 37.7137L19.627 39.4998C19.5016 39.6098 19.3991 39.7435 19.3253 39.8932C19.2515 40.0429 19.208 40.2056 19.1971 40.3721C19.1863 40.5386 19.2083 40.7056 19.2621 40.8636C19.3158 41.0216 19.4001 41.1675 19.5102 41.2928C19.6194 41.4222 19.7532 41.5286 19.9038 41.6058C20.0545 41.6831 20.2189 41.7296 20.3877 41.7429C20.5565 41.7561 20.7262 41.7356 20.887 41.6828C21.0478 41.6299 21.1965 41.5456 21.3246 41.4348L23.3595 39.6487C23.4849 39.5387 23.5874 39.405 23.6612 39.2553C23.7349 39.1056 23.7785 38.9429 23.7893 38.7764C23.8002 38.6099 23.7781 38.4429 23.7244 38.2849C23.6707 38.1269 23.5864 37.981 23.4763 37.8556L23.4543 37.8305C23.3446 37.7049 23.211 37.6022 23.0613 37.5286C22.9116 37.4549 22.7488 37.4117 22.5823 37.4014C22.5515 37.4008 22.5233 37.3995 22.495 37.3995H22.4981Z" fill="white"/>
<path d="M19.3478 39.5368C19.2118 39.5371 19.0795 39.493 18.9708 39.4112L16.8241 37.7777C16.7584 37.7278 16.7032 37.6654 16.6617 37.5941C16.6201 37.5228 16.593 37.444 16.5819 37.3623C16.5708 37.2805 16.5759 37.1974 16.5969 37.1176C16.6179 37.0378 16.6545 36.9629 16.7044 36.8972C16.8053 36.7646 16.9548 36.6775 17.1199 36.655C17.2016 36.6439 17.2848 36.649 17.3646 36.6701C17.4444 36.6911 17.5192 36.7276 17.5849 36.7776L19.7317 38.411C19.8374 38.4903 19.9154 38.601 19.9547 38.7272C19.9939 38.8534 19.9923 38.9888 19.9501 39.1141C19.908 39.2394 19.8273 39.3481 19.7198 39.4249C19.6122 39.5017 19.4831 39.5427 19.3509 39.5419L19.3478 39.5368Z" fill="white"/>
<path d="M48.2741 40.233C48.1499 40.233 48.0284 40.1961 47.9251 40.1271C47.8219 40.0581 47.7414 39.96 47.6938 39.8452C47.6463 39.7304 47.6338 39.6041 47.6581 39.4822C47.6823 39.3604 47.7421 39.2485 47.8299 39.1606L51.3551 35.6342C51.4736 35.5198 51.6323 35.4564 51.797 35.4579C51.9617 35.4593 52.1193 35.5254 52.2358 35.6419C52.3523 35.7583 52.4183 35.9159 52.4198 36.0806C52.4212 36.2454 52.3579 36.4041 52.2434 36.5226L48.7183 40.0477C48.6601 40.1063 48.5909 40.1528 48.5147 40.1846C48.4384 40.2164 48.3567 40.2328 48.2741 40.233Z" fill="white"/>
<path d="M53.0808 38.9294C52.9733 38.9295 52.8676 38.9021 52.7738 38.8498C52.68 38.7974 52.6012 38.7219 52.5449 38.6303L44.8739 26.1532C44.7928 26.0212 44.7634 25.8639 44.7912 25.7116C44.8191 25.5592 44.9022 25.4225 45.0247 25.3277L52.6221 19.4434C52.7055 19.3788 52.8039 19.3363 52.908 19.3197C53.0122 19.3031 53.1189 19.313 53.2182 19.3485C53.3175 19.384 53.4063 19.4439 53.4764 19.5228C53.5465 19.6016 53.5956 19.6968 53.6192 19.7997L57.3554 36.101C57.3864 36.2336 57.3735 36.3728 57.3185 36.4974C57.2635 36.6221 57.1696 36.7255 57.0507 36.7921L53.3874 38.8509C53.2936 38.9029 53.188 38.93 53.0808 38.9294ZM46.2397 25.9748L53.2988 37.4561L56.026 35.9232L52.6146 21.0386L46.2397 25.9748Z" fill="white"/>
<path d="M16.4285 39.1524C16.3209 39.1523 16.2151 39.1246 16.1213 39.072L12.4579 37.0163C12.3391 36.9497 12.2451 36.8463 12.1901 36.7217C12.1352 36.597 12.1222 36.4579 12.1532 36.3252L15.8901 20.0258C15.9136 19.923 15.9627 19.8278 16.0328 19.7489C16.1029 19.6701 16.1917 19.6102 16.291 19.5747C16.3904 19.5392 16.497 19.5293 16.6012 19.5459C16.7054 19.5625 16.8037 19.605 16.8871 19.6696L24.4852 25.5532C24.6077 25.648 24.6908 25.7847 24.7186 25.9371C24.7465 26.0895 24.717 26.2467 24.636 26.3787L16.9644 38.8558C16.9078 38.9469 16.8288 39.0219 16.735 39.0738C16.6412 39.1257 16.5357 39.1528 16.4285 39.1524ZM13.4832 36.1506L16.2105 37.6829L23.2695 26.2009L16.8946 21.2647L13.4832 36.1506Z" fill="white"/>
</svg>
