<svg width="46" height="46" viewBox="0 0 46 46" fill="none" xmlns="http://www.w3.org/2000/svg">
<path d="M22.5852 45.1705C35.0587 45.1705 45.1705 35.0587 45.1705 22.5852C45.1705 10.1118 35.0587 0 22.5852 0C10.1118 0 0 10.1118 0 22.5852C0 35.0587 10.1118 45.1705 22.5852 45.1705Z" fill="#045ECC"/>
<rect x="10.5396" y="10.5398" width="24.0909" height="24.0909" rx="4.51705" stroke="white" stroke-width="1.50568"/>
<g clip-path="url(#clip0_3_367)">
<path d="M21.1972 13.5511C21.7341 13.8252 22.2259 14.1612 22.6512 14.5895C23.1324 15.0741 23.482 15.634 23.6379 16.304C23.6436 16.3287 23.6575 16.3514 23.668 16.3773C23.8972 16.1607 24.1113 15.9405 24.3442 15.7417C24.8147 15.3397 25.3349 15.0126 25.9072 14.7709C26.1128 14.6839 26.3029 14.7118 26.4629 14.8644C26.6074 15.0025 26.6688 15.1859 26.5817 15.3652C26.5231 15.4862 26.4136 15.6134 26.2943 15.6696C25.7074 15.9478 25.1709 16.2943 24.7068 16.7481C24.3539 17.0934 24.0572 17.4805 23.839 17.9525C24.0336 17.8545 24.2045 17.7549 24.3853 17.68C25.9504 17.0331 27.4145 17.229 28.722 18.2889C29.8125 19.1731 30.3197 20.3625 30.2769 21.7575C30.2615 22.2648 30.1573 22.772 30.0612 23.2736C29.8202 24.5334 29.4942 25.7706 28.9467 26.939C28.5124 27.8652 27.9808 28.7291 27.1382 29.3453C25.9219 30.2343 24.612 30.357 23.2594 29.6878C22.9997 29.5594 22.8503 29.5351 22.5861 29.6845C21.3967 30.3582 19.7844 30.1987 18.7037 29.3562C17.8663 28.7036 17.3115 27.847 16.876 26.9029C16.2825 25.6176 15.9426 24.2573 15.7074 22.8692C15.6361 22.4453 15.5637 22.0162 15.558 21.5887C15.5319 19.5815 16.981 17.8072 18.9556 17.4015C19.4697 17.2958 19.9867 17.2894 20.504 17.3853C20.5456 17.393 20.5883 17.3934 20.6209 17.3962C20.526 17.1084 20.4076 16.8299 20.3437 16.5392C20.1397 15.6162 20.2745 14.7187 20.6213 13.8515C20.6701 13.7293 20.8289 13.6503 20.9367 13.5511H21.1968L21.1972 13.5511ZM25.0288 29.1109C25.79 29.1141 26.4629 28.7324 27.023 28.1223C27.6584 27.43 28.0548 26.6009 28.3776 25.7334C28.794 24.6136 29.0322 23.4497 29.2328 22.2765C29.4099 21.2417 29.1917 20.3098 28.536 19.4848C27.7426 18.4856 26.3676 18.0679 25.1473 18.4419C24.7097 18.5759 24.3442 18.8326 23.9644 19.0706C23.5923 19.3042 23.1796 19.3909 22.7388 19.3544C22.2959 19.318 21.923 19.1261 21.5705 18.8743C21.093 18.5334 20.5557 18.3431 19.9704 18.3104C18.2811 18.2152 16.7881 19.469 16.5756 21.1405C16.5092 21.6628 16.5862 22.1696 16.6778 22.6797C16.8939 23.8841 17.1691 25.0723 17.649 26.2038C17.9836 26.9928 18.3914 27.7365 19.0264 28.3332C19.5324 28.8089 20.123 29.0967 20.8301 29.1097C21.4993 29.1218 22.0997 28.955 22.5869 28.4615C22.7835 28.2624 23.044 28.2798 23.2614 28.4619C23.3729 28.5554 23.4763 28.6603 23.5952 28.7433C23.9965 29.023 24.4557 29.1052 25.0292 29.1113L25.0288 29.1109ZM22.6231 18.082C23.029 16.8736 22.3846 15.2231 21.3601 14.8235C21.0279 16.1376 21.3759 17.2541 22.6231 18.082Z" fill="white"/>
</g>
<defs>
<clipPath id="clip0_3_367">
<rect width="14.7222" height="16.5625" fill="white" transform="translate(15.5581 13.5511)"/>
</clipPath>
</defs>
</svg>
