<svg width="1623" height="849" viewBox="0 0 1623 849" fill="none" xmlns="http://www.w3.org/2000/svg">
<circle cx="299.014" cy="305.014" r="299.014" fill="#045ECC"/>
<rect x="815" y="6" width="7" height="604" fill="#C4C4C4"/>
<path d="M132.812 286.285C139.58 286.285 145.957 284.583 151.551 281.605L210.668 342.479C205.596 349.186 202.552 357.5 202.552 366.535C202.552 388.602 220.504 406.549 242.571 406.549C264.637 406.549 282.585 388.597 282.585 366.535C282.585 357.905 279.814 349.926 275.148 343.384L323.226 304.246C330.531 311.999 340.858 316.873 352.329 316.873C364.414 316.873 375.245 311.467 382.588 302.964L423.554 325.272C422.611 328.674 422.069 332.242 422.069 335.937C422.069 358.004 440.021 375.956 462.083 375.956C484.145 375.956 502.098 358.004 502.098 335.937C502.098 313.871 484.145 295.918 462.083 295.918C450.489 295.918 440.059 300.905 432.744 308.813L391.198 286.19C391.919 283.188 392.344 280.078 392.344 276.859C392.344 254.792 374.391 236.84 352.329 236.84C330.258 236.84 312.306 254.792 312.306 276.859C312.306 280.587 312.857 284.178 313.814 287.6L260.645 330.875C255.206 328.109 249.079 326.516 242.571 326.516C236.382 326.516 230.538 327.972 225.302 330.489L165.657 269.068C170.168 262.592 172.831 254.74 172.831 246.266C172.831 224.199 154.879 206.247 132.812 206.247C110.745 206.247 92.7975 224.199 92.7975 246.266C92.7975 268.333 110.75 286.285 132.812 286.285ZM462.088 314.775C473.758 314.775 483.25 324.272 483.25 335.942C483.25 347.612 473.753 357.109 462.088 357.109C450.423 357.109 440.926 347.612 440.926 335.942C440.922 324.272 450.418 314.775 462.088 314.775ZM352.334 255.692C364.004 255.692 373.496 265.189 373.496 276.859C373.496 288.528 363.999 298.02 352.334 298.02C340.66 298.02 331.163 288.528 331.163 276.859C331.163 265.189 340.66 255.692 352.334 255.692ZM263.737 366.535C263.737 378.204 254.245 387.697 242.575 387.697C230.901 387.697 221.409 378.2 221.409 366.535C221.409 354.86 230.906 345.368 242.575 345.368C254.245 345.368 263.737 354.86 263.737 366.535ZM132.812 225.104C144.486 225.104 153.978 234.601 153.978 246.271C153.978 257.94 144.481 267.437 132.812 267.437C121.142 267.437 111.65 257.94 111.65 246.271C111.65 234.601 121.142 225.104 132.812 225.104Z" fill="white"/>
<circle cx="1321" cy="302" r="302" fill="#045ECC"/>
<path d="M1478.29 401.158C1478.26 401.088 1478.23 401.019 1478.2 400.95C1471.79 385.93 1456.76 380.379 1438.97 386.464L1390.45 399.9C1387.64 391.393 1380.64 384.154 1370.75 380.477C1370.69 380.455 1370.63 380.432 1370.56 380.411L1317.23 362.284C1312.79 356.538 1298.88 341.835 1272.85 341.835C1254.65 341.835 1238.56 354.334 1229.35 367.958H1164.89C1161.04 367.958 1157.92 371.08 1157.92 374.932V462.862C1157.92 466.713 1161.04 469.836 1164.89 469.836H1206.3C1210.14 469.836 1213.26 466.713 1213.26 462.862V456.84H1232.68C1236.53 456.84 1239.64 453.718 1239.64 449.866V447.859C1250.96 448.847 1254.69 450.998 1265.08 457.001C1273.08 461.618 1285.16 468.596 1306.92 478.394C1307.03 478.439 1307.13 478.482 1307.23 478.523C1311.41 480.168 1319.57 482.753 1329.64 482.753C1336.64 482.753 1344.57 481.499 1352.71 477.805L1459.96 439.352C1460.15 439.284 1460.34 439.207 1460.52 439.122C1470.77 434.4 1486.05 421.091 1478.29 401.158ZM1199.33 455.887H1171.85V381.906H1199.33V455.887ZM1225.71 442.891H1213.26V381.906H1225.71V442.891ZM1454.96 426.329L1347.76 464.765C1347.66 464.798 1347.54 464.848 1347.44 464.886C1347.35 464.924 1347.25 464.965 1347.16 465.007C1332.23 471.878 1318.04 467.765 1312.48 465.6C1291.46 456.128 1280.24 449.65 1272.04 444.916C1260.65 438.335 1255.15 435.163 1239.64 433.881V377.709C1246.25 366.874 1259.05 355.782 1272.85 355.782C1296.52 355.782 1306.55 371.199 1306.94 371.821C1307.79 373.206 1309.1 374.25 1310.64 374.773L1365.99 393.585C1374.83 396.908 1379.5 404.489 1377.35 412.049C1376.36 415.54 1374.07 418.436 1370.91 420.202C1367.77 421.953 1364.14 422.386 1360.68 421.428L1298.28 401.627C1294.61 400.463 1290.7 402.497 1289.54 406.169C1288.38 409.841 1290.41 413.76 1294.07 414.924L1356.58 434.759C1356.65 434.78 1356.71 434.801 1356.78 434.819C1359.28 435.53 1361.82 435.882 1364.34 435.882C1368.96 435.882 1373.54 434.702 1377.69 432.387C1384.1 428.807 1388.74 422.939 1390.75 415.863C1390.91 415.299 1391.05 414.734 1391.18 414.169L1443.47 399.662C1451.02 397.079 1460.94 396.148 1465.35 406.328C1469.92 418.28 1458.04 424.855 1454.96 426.329Z" fill="white"/>
<path d="M1507.33 150.393H1465.97C1462.13 150.393 1459.01 153.506 1459.01 157.347V163.351H1439.62C1435.77 163.351 1432.66 166.464 1432.66 170.305V172.307C1421.35 171.32 1417.63 169.176 1407.25 163.19C1399.27 158.587 1387.2 151.629 1365.46 141.859C1365.36 141.813 1365.26 141.771 1365.16 141.73C1358.08 138.947 1339.54 133.472 1319.73 142.445L1291.74 152.464L1268.15 128.877C1265.43 126.161 1261.03 126.161 1258.31 128.877L1180.85 206.317C1178.34 208.822 1177.86 213.167 1180.85 216.152L1313.21 348.481C1315.33 350.599 1320.29 351.24 1323.05 348.481L1393.77 277.782C1395.61 277.941 1397.52 278.026 1399.49 278.026C1417.67 278.026 1433.74 265.563 1442.94 251.979H1507.33C1511.17 251.979 1514.28 248.865 1514.28 245.024V157.347C1514.28 153.506 1511.17 150.393 1507.33 150.393ZM1263.23 143.629L1279.08 159.479C1274.37 162.393 1268.92 163.952 1263.23 163.952C1257.54 163.952 1252.09 162.393 1247.37 159.479L1263.23 143.629ZM1211.46 227.085L1195.61 211.234L1211.46 195.384C1214.38 200.095 1215.93 205.543 1215.93 211.234C1215.93 216.925 1214.38 222.372 1211.46 227.085ZM1318.13 333.728L1302.28 317.881C1311.96 311.91 1324.31 311.91 1333.98 317.881L1318.13 333.728ZM1344.01 307.863C1328.63 296.715 1307.63 296.715 1292.26 307.863L1221.48 237.103C1226.91 229.634 1229.85 220.662 1229.85 211.234C1229.85 201.805 1226.91 192.834 1221.48 185.365L1237.35 169.498C1244.82 174.929 1253.8 177.861 1263.23 177.861C1272.66 177.861 1281.63 174.929 1289.11 169.498L1304.15 184.54C1300.9 185.019 1297.74 186.088 1294.79 187.733C1289.8 190.511 1285.89 194.67 1283.45 199.702C1275.61 201.155 1268.34 204.952 1262.64 210.648C1247.18 226.105 1247.18 251.253 1262.64 266.71C1270.37 274.437 1280.53 278.301 1290.68 278.301C1300.83 278.301 1310.99 274.438 1318.72 266.71C1323.75 261.682 1327.27 255.502 1329.04 248.768L1352.52 256.737C1349.88 268.981 1352.59 281.863 1359.89 291.982L1344.01 307.863ZM1301.71 239.494C1301.78 239.517 1301.84 239.539 1301.9 239.56L1315.81 244.28C1314.76 249.019 1312.38 253.376 1308.88 256.875C1298.85 266.907 1282.52 266.908 1272.48 256.875C1262.45 246.842 1262.45 230.517 1272.48 220.484C1274.9 218.062 1277.76 216.17 1280.87 214.887C1282.16 225.57 1289.85 235.092 1301.71 239.494ZM1369.91 281.961C1367.23 277.587 1365.71 272.594 1365.47 267.499C1368.8 269.907 1372.87 272.267 1377.74 274.139L1369.91 281.961ZM1432.66 242.252C1426.07 253.057 1413.28 264.116 1399.49 264.116C1396.91 264.116 1394.5 263.933 1392.24 263.606C1392.23 263.605 1392.22 263.603 1392.21 263.602C1377.19 261.42 1369.11 252.885 1366.44 249.505C1366.3 249.296 1365.7 248.506 1365.61 248.374C1364.8 246.926 1363.47 245.762 1361.77 245.187L1306.47 226.421C1297.64 223.11 1292.98 215.554 1295.12 208.018C1295.12 208.013 1295.12 208.009 1295.12 208.004C1295.12 207.998 1295.12 207.992 1295.12 207.986C1296.12 204.516 1298.4 201.638 1301.56 199.881C1304.69 198.134 1308.31 197.701 1311.77 198.659L1374.09 218.402C1377.75 219.564 1381.66 217.535 1382.82 213.874C1383.98 210.212 1381.96 206.304 1378.29 205.144L1328.73 189.441L1328.3 189.008C1328.29 189.004 1328.29 188.999 1328.28 188.995L1302.62 163.341L1324.68 155.445C1324.75 155.418 1324.85 155.384 1324.92 155.354C1324.94 155.347 1324.97 155.333 1324.99 155.325C1325.09 155.287 1325.18 155.247 1325.27 155.204C1340.18 148.353 1354.36 152.454 1359.91 154.614C1380.91 164.058 1392.11 170.518 1400.3 175.238C1411.68 181.8 1417.17 184.962 1432.66 186.241V242.252V242.252ZM1459.01 238.069H1446.57V177.259H1459.01V238.069ZM1500.37 238.069H1472.92V164.301H1500.37V238.069Z" fill="white"/>
<path d="M52.875 772.438C52.875 779.375 50.5 784.719 45.75 788.469C41.0312 792.188 34.2656 794.047 25.4531 794.047H17.3906V821H9.42188V752.469H27.1875C44.3125 752.469 52.875 759.125 52.875 772.438ZM17.3906 787.203H24.5625C31.625 787.203 36.7344 786.062 39.8906 783.781C43.0469 781.5 44.625 777.844 44.625 772.812C44.625 768.281 43.1406 764.906 40.1719 762.688C37.2031 760.469 32.5781 759.359 26.2969 759.359H17.3906V787.203ZM89.5312 768.688C91.8125 768.688 93.8594 768.875 95.6719 769.25L94.5938 776.469C92.4688 776 90.5938 775.766 88.9688 775.766C84.8125 775.766 81.25 777.453 78.2812 780.828C75.3438 784.203 73.875 788.406 73.875 793.438V821H66.0938V769.625H72.5156L73.4062 779.141H73.7812C75.6875 775.797 77.9844 773.219 80.6719 771.406C83.3594 769.594 86.3125 768.688 89.5312 768.688ZM126.984 821.938C119.391 821.938 113.391 819.625 108.984 815C104.609 810.375 102.422 803.953 102.422 795.734C102.422 787.453 104.453 780.875 108.516 776C112.609 771.125 118.094 768.688 124.969 768.688C131.406 768.688 136.5 770.812 140.25 775.062C144 779.281 145.875 784.859 145.875 791.797V796.719H110.484C110.641 802.75 112.156 807.328 115.031 810.453C117.938 813.578 122.016 815.141 127.266 815.141C132.797 815.141 138.266 813.984 143.672 811.672V818.609C140.922 819.797 138.312 820.641 135.844 821.141C133.406 821.672 130.453 821.938 126.984 821.938ZM124.875 775.203C120.75 775.203 117.453 776.547 114.984 779.234C112.547 781.922 111.109 785.641 110.672 790.391H137.531C137.531 785.484 136.438 781.734 134.25 779.141C132.062 776.516 128.938 775.203 124.875 775.203ZM179.719 821.938C172.281 821.938 166.516 819.656 162.422 815.094C158.359 810.5 156.328 804.016 156.328 795.641C156.328 787.047 158.391 780.406 162.516 775.719C166.672 771.031 172.578 768.688 180.234 768.688C182.703 768.688 185.172 768.953 187.641 769.484C190.109 770.016 192.047 770.641 193.453 771.359L191.062 777.969C189.344 777.281 187.469 776.719 185.438 776.281C183.406 775.812 181.609 775.578 180.047 775.578C169.609 775.578 164.391 782.234 164.391 795.547C164.391 801.859 165.656 806.703 168.188 810.078C170.75 813.453 174.531 815.141 179.531 815.141C183.812 815.141 188.203 814.219 192.703 812.375V819.266C189.266 821.047 184.938 821.938 179.719 821.938ZM212.719 821H204.938V769.625H212.719V821ZM204.281 755.703C204.281 753.922 204.719 752.625 205.594 751.812C206.469 750.969 207.562 750.547 208.875 750.547C210.125 750.547 211.203 750.969 212.109 751.812C213.016 752.656 213.469 753.953 213.469 755.703C213.469 757.453 213.016 758.766 212.109 759.641C211.203 760.484 210.125 760.906 208.875 760.906C207.562 760.906 206.469 760.484 205.594 759.641C204.719 758.766 204.281 757.453 204.281 755.703ZM273.562 795.266C273.562 803.641 271.453 810.188 267.234 814.906C263.016 819.594 257.188 821.938 249.75 821.938C245.156 821.938 241.078 820.859 237.516 818.703C233.953 816.547 231.203 813.453 229.266 809.422C227.328 805.391 226.359 800.672 226.359 795.266C226.359 786.891 228.453 780.375 232.641 775.719C236.828 771.031 242.641 768.688 250.078 768.688C257.266 768.688 262.969 771.078 267.188 775.859C271.438 780.641 273.562 787.109 273.562 795.266ZM234.422 795.266C234.422 801.828 235.734 806.828 238.359 810.266C240.984 813.703 244.844 815.422 249.938 815.422C255.031 815.422 258.891 813.719 261.516 810.312C264.172 806.875 265.5 801.859 265.5 795.266C265.5 788.734 264.172 783.781 261.516 780.406C258.891 777 255 775.297 249.844 775.297C244.75 775.297 240.906 776.969 238.312 780.312C235.719 783.656 234.422 788.641 234.422 795.266ZM320.391 806.984C320.391 811.766 318.609 815.453 315.047 818.047C311.484 820.641 306.484 821.938 300.047 821.938C293.234 821.938 287.922 820.859 284.109 818.703V811.484C286.578 812.734 289.219 813.719 292.031 814.438C294.875 815.156 297.609 815.516 300.234 815.516C304.297 815.516 307.422 814.875 309.609 813.594C311.797 812.281 312.891 810.297 312.891 807.641C312.891 805.641 312.016 803.938 310.266 802.531C308.547 801.094 305.172 799.406 300.141 797.469C295.359 795.688 291.953 794.141 289.922 792.828C287.922 791.484 286.422 789.969 285.422 788.281C284.453 786.594 283.969 784.578 283.969 782.234C283.969 778.047 285.672 774.75 289.078 772.344C292.484 769.906 297.156 768.688 303.094 768.688C308.625 768.688 314.031 769.812 319.312 772.062L316.547 778.391C311.391 776.266 306.719 775.203 302.531 775.203C298.844 775.203 296.062 775.781 294.188 776.938C292.312 778.094 291.375 779.688 291.375 781.719C291.375 783.094 291.719 784.266 292.406 785.234C293.125 786.203 294.266 787.125 295.828 788C297.391 788.875 300.391 790.141 304.828 791.797C310.922 794.016 315.031 796.25 317.156 798.5C319.312 800.75 320.391 803.578 320.391 806.984ZM389.625 821L388.078 813.688H387.703C385.141 816.906 382.578 819.094 380.016 820.25C377.484 821.375 374.312 821.938 370.5 821.938C365.406 821.938 361.406 820.625 358.5 818C355.625 815.375 354.188 811.641 354.188 806.797C354.188 796.422 362.484 790.984 379.078 790.484L387.797 790.203V787.016C387.797 782.984 386.922 780.016 385.172 778.109C383.453 776.172 380.688 775.203 376.875 775.203C372.594 775.203 367.75 776.516 362.344 779.141L359.953 773.188C362.484 771.812 365.25 770.734 368.25 769.953C371.281 769.172 374.312 768.781 377.344 768.781C383.469 768.781 388 770.141 390.938 772.859C393.906 775.578 395.391 779.938 395.391 785.938V821H389.625ZM372.047 815.516C376.891 815.516 380.688 814.188 383.438 811.531C386.219 808.875 387.609 805.156 387.609 800.375V795.734L379.828 796.062C373.641 796.281 369.172 797.25 366.422 798.969C363.703 800.656 362.344 803.297 362.344 806.891C362.344 809.703 363.188 811.844 364.875 813.312C366.594 814.781 368.984 815.516 372.047 815.516ZM419.25 821H411.469V748.062H419.25V821ZM495.656 814.109H495.234C491.641 819.328 486.266 821.938 479.109 821.938C472.391 821.938 467.156 819.641 463.406 815.047C459.688 810.453 457.828 803.922 457.828 795.453C457.828 786.984 459.703 780.406 463.453 775.719C467.203 771.031 472.422 768.688 479.109 768.688C486.078 768.688 491.422 771.219 495.141 776.281H495.75L495.422 772.578L495.234 768.969V748.062H503.016V821H496.688L495.656 814.109ZM480.094 815.422C485.406 815.422 489.25 813.984 491.625 811.109C494.031 808.203 495.234 803.531 495.234 797.094V795.453C495.234 788.172 494.016 782.984 491.578 779.891C489.172 776.766 485.312 775.203 480 775.203C475.438 775.203 471.938 776.984 469.5 780.547C467.094 784.078 465.891 789.078 465.891 795.547C465.891 802.109 467.094 807.062 469.5 810.406C471.906 813.75 475.438 815.422 480.094 815.422ZM527.344 821H519.562V769.625H527.344V821ZM519.234 761.656C520.734 759.719 522.344 757.375 524.062 754.625C525.812 751.875 527.188 749.484 528.188 747.453H537.656V748.438C536.281 750.469 534.234 752.969 531.516 755.938C528.797 758.906 526.438 761.203 524.438 762.828H519.234V761.656ZM575.438 821L573.891 813.688H573.516C570.953 816.906 568.391 819.094 565.828 820.25C563.297 821.375 560.125 821.938 556.312 821.938C551.219 821.938 547.219 820.625 544.312 818C541.438 815.375 540 811.641 540 806.797C540 796.422 548.297 790.984 564.891 790.484L573.609 790.203V787.016C573.609 782.984 572.734 780.016 570.984 778.109C569.266 776.172 566.5 775.203 562.688 775.203C558.406 775.203 553.562 776.516 548.156 779.141L545.766 773.188C548.297 771.812 551.062 770.734 554.062 769.953C557.094 769.172 560.125 768.781 563.156 768.781C569.281 768.781 573.812 770.141 576.75 772.859C579.719 775.578 581.203 779.938 581.203 785.938V821H575.438ZM557.859 815.516C562.703 815.516 566.5 814.188 569.25 811.531C572.031 808.875 573.422 805.156 573.422 800.375V795.734L565.641 796.062C559.453 796.281 554.984 797.25 552.234 798.969C549.516 800.656 548.156 803.297 548.156 806.891C548.156 809.703 549 811.844 550.688 813.312C552.406 814.781 554.797 815.516 557.859 815.516Z" fill="black"/>
<path d="M1089.77 758.609C1082.23 758.609 1076.28 761.125 1071.91 766.156C1067.56 771.156 1065.39 778.016 1065.39 786.734C1065.39 795.703 1067.48 802.641 1071.67 807.547C1075.89 812.422 1081.89 814.859 1089.67 814.859C1094.45 814.859 1099.91 814 1106.03 812.281V819.266C1101.28 821.047 1095.42 821.938 1088.45 821.938C1078.36 821.938 1070.56 818.875 1065.06 812.75C1059.59 806.625 1056.86 797.922 1056.86 786.641C1056.86 779.578 1058.17 773.391 1060.8 768.078C1063.45 762.766 1067.27 758.672 1072.23 755.797C1077.23 752.922 1083.11 751.484 1089.86 751.484C1097.05 751.484 1103.33 752.797 1108.7 755.422L1105.33 762.266C1100.14 759.828 1094.95 758.609 1089.77 758.609ZM1164.16 795.266C1164.16 803.641 1162.05 810.188 1157.83 814.906C1153.61 819.594 1147.78 821.938 1140.34 821.938C1135.75 821.938 1131.67 820.859 1128.11 818.703C1124.55 816.547 1121.8 813.453 1119.86 809.422C1117.92 805.391 1116.95 800.672 1116.95 795.266C1116.95 786.891 1119.05 780.375 1123.23 775.719C1127.42 771.031 1133.23 768.688 1140.67 768.688C1147.86 768.688 1153.56 771.078 1157.78 775.859C1162.03 780.641 1164.16 787.109 1164.16 795.266ZM1125.02 795.266C1125.02 801.828 1126.33 806.828 1128.95 810.266C1131.58 813.703 1135.44 815.422 1140.53 815.422C1145.62 815.422 1149.48 813.719 1152.11 810.312C1154.77 806.875 1156.09 801.859 1156.09 795.266C1156.09 788.734 1154.77 783.781 1152.11 780.406C1149.48 777 1145.59 775.297 1140.44 775.297C1135.34 775.297 1131.5 776.969 1128.91 780.312C1126.31 783.656 1125.02 788.641 1125.02 795.266ZM1243.33 821V787.578C1243.33 783.484 1242.45 780.422 1240.7 778.391C1238.95 776.328 1236.23 775.297 1232.55 775.297C1227.7 775.297 1224.12 776.688 1221.81 779.469C1219.5 782.25 1218.34 786.531 1218.34 792.312V821H1210.56V787.578C1210.56 783.484 1209.69 780.422 1207.94 778.391C1206.19 776.328 1203.45 775.297 1199.73 775.297C1194.86 775.297 1191.28 776.766 1189 779.703C1186.75 782.609 1185.62 787.391 1185.62 794.047V821H1177.84V769.625H1184.17L1185.44 776.656H1185.81C1187.28 774.156 1189.34 772.203 1192 770.797C1194.69 769.391 1197.69 768.688 1201 768.688C1209.03 768.688 1214.28 771.594 1216.75 777.406H1217.12C1218.66 774.719 1220.88 772.594 1223.78 771.031C1226.69 769.469 1230 768.688 1233.72 768.688C1239.53 768.688 1243.88 770.188 1246.75 773.188C1249.66 776.156 1251.11 780.922 1251.11 787.484V821H1243.33ZM1288.89 821.938C1281.3 821.938 1275.3 819.625 1270.89 815C1266.52 810.375 1264.33 803.953 1264.33 795.734C1264.33 787.453 1266.36 780.875 1270.42 776C1274.52 771.125 1280 768.688 1286.88 768.688C1293.31 768.688 1298.41 770.812 1302.16 775.062C1305.91 779.281 1307.78 784.859 1307.78 791.797V796.719H1272.39C1272.55 802.75 1274.06 807.328 1276.94 810.453C1279.84 813.578 1283.92 815.141 1289.17 815.141C1294.7 815.141 1300.17 813.984 1305.58 811.672V818.609C1302.83 819.797 1300.22 820.641 1297.75 821.141C1295.31 821.672 1292.36 821.938 1288.89 821.938ZM1286.78 775.203C1282.66 775.203 1279.36 776.547 1276.89 779.234C1274.45 781.922 1273.02 785.641 1272.58 790.391H1299.44C1299.44 785.484 1298.34 781.734 1296.16 779.141C1293.97 776.516 1290.84 775.203 1286.78 775.203ZM1344.53 768.688C1346.81 768.688 1348.86 768.875 1350.67 769.25L1349.59 776.469C1347.47 776 1345.59 775.766 1343.97 775.766C1339.81 775.766 1336.25 777.453 1333.28 780.828C1330.34 784.203 1328.88 788.406 1328.88 793.438V821H1321.09V769.625H1327.52L1328.41 779.141H1328.78C1330.69 775.797 1332.98 773.219 1335.67 771.406C1338.36 769.594 1341.31 768.688 1344.53 768.688ZM1380.81 821.938C1373.38 821.938 1367.61 819.656 1363.52 815.094C1359.45 810.5 1357.42 804.016 1357.42 795.641C1357.42 787.047 1359.48 780.406 1363.61 775.719C1367.77 771.031 1373.67 768.688 1381.33 768.688C1383.8 768.688 1386.27 768.953 1388.73 769.484C1391.2 770.016 1393.14 770.641 1394.55 771.359L1392.16 777.969C1390.44 777.281 1388.56 776.719 1386.53 776.281C1384.5 775.812 1382.7 775.578 1381.14 775.578C1370.7 775.578 1365.48 782.234 1365.48 795.547C1365.48 801.859 1366.75 806.703 1369.28 810.078C1371.84 813.453 1375.62 815.141 1380.62 815.141C1384.91 815.141 1389.3 814.219 1393.8 812.375V819.266C1390.36 821.047 1386.03 821.938 1380.81 821.938ZM1413.81 821H1406.03V769.625H1413.81V821ZM1405.38 755.703C1405.38 753.922 1405.81 752.625 1406.69 751.812C1407.56 750.969 1408.66 750.547 1409.97 750.547C1411.22 750.547 1412.3 750.969 1413.2 751.812C1414.11 752.656 1414.56 753.953 1414.56 755.703C1414.56 757.453 1414.11 758.766 1413.2 759.641C1412.3 760.484 1411.22 760.906 1409.97 760.906C1408.66 760.906 1407.56 760.484 1406.69 759.641C1405.81 758.766 1405.38 757.453 1405.38 755.703ZM1461.91 821L1460.36 813.688H1459.98C1457.42 816.906 1454.86 819.094 1452.3 820.25C1449.77 821.375 1446.59 821.938 1442.78 821.938C1437.69 821.938 1433.69 820.625 1430.78 818C1427.91 815.375 1426.47 811.641 1426.47 806.797C1426.47 796.422 1434.77 790.984 1451.36 790.484L1460.08 790.203V787.016C1460.08 782.984 1459.2 780.016 1457.45 778.109C1455.73 776.172 1452.97 775.203 1449.16 775.203C1444.88 775.203 1440.03 776.516 1434.62 779.141L1432.23 773.188C1434.77 771.812 1437.53 770.734 1440.53 769.953C1443.56 769.172 1446.59 768.781 1449.62 768.781C1455.75 768.781 1460.28 770.141 1463.22 772.859C1466.19 775.578 1467.67 779.938 1467.67 785.938V821H1461.91ZM1444.33 815.516C1449.17 815.516 1452.97 814.188 1455.72 811.531C1458.5 808.875 1459.89 805.156 1459.89 800.375V795.734L1452.11 796.062C1445.92 796.281 1441.45 797.25 1438.7 798.969C1435.98 800.656 1434.62 803.297 1434.62 806.891C1434.62 809.703 1435.47 811.844 1437.16 813.312C1438.88 814.781 1441.27 815.516 1444.33 815.516ZM1491.53 821H1483.75V748.062H1491.53V821ZM1515.81 821H1508.03V769.625H1515.81V821ZM1507.38 755.703C1507.38 753.922 1507.81 752.625 1508.69 751.812C1509.56 750.969 1510.66 750.547 1511.97 750.547C1513.22 750.547 1514.3 750.969 1515.2 751.812C1516.11 752.656 1516.56 753.953 1516.56 755.703C1516.56 757.453 1516.11 758.766 1515.2 759.641C1514.3 760.484 1513.22 760.906 1511.97 760.906C1510.66 760.906 1509.56 760.484 1508.69 759.641C1507.81 758.766 1507.38 757.453 1507.38 755.703ZM1565.17 821H1527.91V815.703L1555.94 775.672H1529.64V769.625H1564.47V775.672L1536.81 814.953H1565.17V821ZM1608.81 821L1607.27 813.688H1606.89C1604.33 816.906 1601.77 819.094 1599.2 820.25C1596.67 821.375 1593.5 821.938 1589.69 821.938C1584.59 821.938 1580.59 820.625 1577.69 818C1574.81 815.375 1573.38 811.641 1573.38 806.797C1573.38 796.422 1581.67 790.984 1598.27 790.484L1606.98 790.203V787.016C1606.98 782.984 1606.11 780.016 1604.36 778.109C1602.64 776.172 1599.88 775.203 1596.06 775.203C1591.78 775.203 1586.94 776.516 1581.53 779.141L1579.14 773.188C1581.67 771.812 1584.44 770.734 1587.44 769.953C1590.47 769.172 1593.5 768.781 1596.53 768.781C1602.66 768.781 1607.19 770.141 1610.12 772.859C1613.09 775.578 1614.58 779.938 1614.58 785.938V821H1608.81ZM1591.23 815.516C1596.08 815.516 1599.88 814.188 1602.62 811.531C1605.41 808.875 1606.8 805.156 1606.8 800.375V795.734L1599.02 796.062C1592.83 796.281 1588.36 797.25 1585.61 798.969C1582.89 800.656 1581.53 803.297 1581.53 806.891C1581.53 809.703 1582.38 811.844 1584.06 813.312C1585.78 814.781 1588.17 815.516 1591.23 815.516Z" fill="black"/>
</svg>
