<svg width="32" height="32" viewBox="0 0 32 32" fill="none" xmlns="http://www.w3.org/2000/svg">
<circle cx="16" cy="16" r="16" fill="#045ECC"/>
<path d="M18.6875 13.6582L12.3125 9.98193" stroke="white" stroke-linecap="round" stroke-linejoin="round"/>
<path d="M21.875 18.3332V12.6665C21.8747 12.4181 21.8092 12.1741 21.6848 11.959C21.5605 11.7439 21.3818 11.5653 21.1667 11.4411L16.2083 8.60777C15.993 8.48343 15.7487 8.41797 15.5 8.41797C15.2513 8.41797 15.007 8.48343 14.7917 8.60777L9.83333 11.4411C9.61819 11.5653 9.43949 11.7439 9.31516 11.959C9.19083 12.1741 9.12525 12.4181 9.125 12.6665V18.3332C9.12525 18.5816 9.19083 18.8256 9.31516 19.0407C9.43949 19.2558 9.61819 19.4344 9.83333 19.5586L14.7917 22.3919C15.007 22.5163 15.2513 22.5817 15.5 22.5817C15.7487 22.5817 15.993 22.5163 16.2083 22.3919L21.1667 19.5586C21.3818 19.4344 21.5605 19.2558 21.6848 19.0407C21.8092 18.8256 21.8747 18.5816 21.875 18.3332Z" stroke="white" stroke-linecap="round" stroke-linejoin="round"/>
<path d="M9.31616 11.9302L15.4999 15.5073L21.6837 11.9302" stroke="white" stroke-linecap="round" stroke-linejoin="round"/>
<path d="M15.5 22.64V15.5" stroke="white" stroke-linecap="round" stroke-linejoin="round"/>
</svg>
