<svg width="32" height="32" viewBox="0 0 32 32" fill="none" xmlns="http://www.w3.org/2000/svg">
<circle cx="16" cy="16" r="16" fill="#0000FF"/>
<path d="M18.6875 13.6583L12.3125 9.98209" stroke="white" stroke-linecap="round" stroke-linejoin="round"/>
<path d="M21.875 18.3333V12.6667C21.8747 12.4182 21.8092 12.1742 21.6848 11.9592C21.5605 11.7441 21.3818 11.5655 21.1667 11.4413L16.2083 8.60792C15.993 8.48358 15.7487 8.41812 15.5 8.41812C15.2513 8.41812 15.007 8.48358 14.7917 8.60792L9.83333 11.4413C9.61819 11.5655 9.43949 11.7441 9.31516 11.9592C9.19083 12.1742 9.12525 12.4182 9.125 12.6667V18.3333C9.12525 18.5818 9.19083 18.8258 9.31516 19.0408C9.43949 19.2559 9.61819 19.4345 9.83333 19.5588L14.7917 22.3921C15.007 22.5164 15.2513 22.5819 15.5 22.5819C15.7487 22.5819 15.993 22.5164 16.2083 22.3921L21.1667 19.5588C21.3818 19.4345 21.5605 19.2559 21.6848 19.0408C21.8092 18.8258 21.8747 18.5818 21.875 18.3333Z" stroke="white" stroke-linecap="round" stroke-linejoin="round"/>
<path d="M9.31625 11.93L15.5 15.5071L21.6838 11.93" stroke="white" stroke-linecap="round" stroke-linejoin="round"/>
<path d="M15.5 22.64V15.5" stroke="white" stroke-linecap="round" stroke-linejoin="round"/>
</svg>
