<svg width="32" height="32" viewBox="0 0 32 32" fill="none" xmlns="http://www.w3.org/2000/svg">
<circle cx="16" cy="16" r="16" fill="#045ECC"/>
<path d="M19.3333 10.125H8.70825V19.3333H19.3333V10.125Z" stroke="white" stroke-linecap="round" stroke-linejoin="round"/>
<path d="M19.3333 13.6665H22.1666L24.2916 15.7915V19.3332H19.3333V13.6665Z" stroke="white" stroke-linecap="round" stroke-linejoin="round"/>
<path d="M11.8958 22.8752C12.8738 22.8752 13.6667 22.0823 13.6667 21.1043C13.6667 20.1263 12.8738 19.3335 11.8958 19.3335C10.9178 19.3335 10.125 20.1263 10.125 21.1043C10.125 22.0823 10.9178 22.8752 11.8958 22.8752Z" stroke="white" stroke-linecap="round" stroke-linejoin="round"/>
<path d="M21.1041 22.8752C22.0821 22.8752 22.8749 22.0823 22.8749 21.1043C22.8749 20.1263 22.0821 19.3335 21.1041 19.3335C20.1261 19.3335 19.3333 20.1263 19.3333 21.1043C19.3333 22.0823 20.1261 22.8752 21.1041 22.8752Z" stroke="white" stroke-linecap="round" stroke-linejoin="round"/>
</svg>
