<svg width="44" height="44" viewBox="0 0 44 44" fill="none" xmlns="http://www.w3.org/2000/svg">
<circle cx="22" cy="22" r="22" fill="#045ECC"/>
<g clip-path="url(#clip0)">
<path d="M21.7104 12.8096V30.6122" stroke="white" stroke-linecap="round" stroke-linejoin="round"/>
<path d="M25.7565 16.0459H19.6875C18.9363 16.0459 18.2159 16.3443 17.6848 16.8754C17.1536 17.4066 16.8552 18.127 16.8552 18.8781C16.8552 19.6293 17.1536 20.3497 17.6848 20.8808C18.2159 21.412 18.9363 21.7104 19.6875 21.7104H23.7335C24.4847 21.7104 25.2051 22.0088 25.7362 22.5399C26.2674 23.0711 26.5658 23.7915 26.5658 24.5426C26.5658 25.2938 26.2674 26.0142 25.7362 26.5453C25.2051 27.0765 24.4847 27.3748 23.7335 27.3748H16.8552" stroke="white" stroke-linecap="round" stroke-linejoin="round"/>
</g>
<defs>
<clipPath id="clip0">
<rect width="19.4211" height="19.4211" fill="white" transform="translate(12 12)"/>
</clipPath>
</defs>
</svg>
