<svg width="32" height="32" viewBox="0 0 32 32" fill="none" xmlns="http://www.w3.org/2000/svg">
<circle cx="16" cy="16" r="16" fill="#0000FF"/>
<path d="M20 20.2V19.2C20 18.6695 19.7893 18.1608 19.4142 17.7858C19.0391 17.4107 18.5304 17.2 18 17.2H14C13.4696 17.2 12.9609 17.4107 12.5858 17.7858C12.2107 18.1608 12 18.6695 12 19.2V20.2" stroke="white" stroke-linecap="round" stroke-linejoin="round"/>
<path d="M16 15.2C17.1045 15.2 18 14.3046 18 13.2C18 12.0954 17.1045 11.2 16 11.2C14.8954 11.2 14 12.0954 14 13.2C14 14.3046 14.8954 15.2 16 15.2Z" stroke="white" stroke-linecap="round" stroke-linejoin="round"/>
<circle cx="16" cy="16" r="7.5" stroke="white"/>
<circle cx="21.2" cy="20.4" r="3.1" fill="#0000FF" stroke="white"/>
<path d="M22.4 19.2L20.8 21.2L20 20.4" stroke="white" stroke-linecap="round" stroke-linejoin="round"/>
</svg>
