<svg width="122" height="122" viewBox="0 0 122 122" fill="none" xmlns="http://www.w3.org/2000/svg">
<rect width="122" height="122" rx="8" fill="#008C00"/>
<path d="M19.6609 78.5363H16.1144L11 93.2445H14.0985L14.9571 90.6046H20.9302L21.8635 93.2445H24.8127L19.6609 78.5363ZM15.9278 87.8892L17.9063 81.8928L19.9969 87.8892H15.9278Z" fill="white"/>
<path d="M33.7723 82.7227V84.0427C32.9884 82.9867 31.8684 82.4587 30.4498 82.4587C28.9939 82.4587 27.762 82.9867 26.754 84.0427C25.7461 85.0987 25.2607 86.3432 25.2607 87.8517C25.2607 89.3603 25.7461 90.6048 26.754 91.6608C27.762 92.7168 28.9939 93.2447 30.4498 93.2447C31.8684 93.2447 32.9884 92.7168 33.7723 91.6608V92.7922C33.7723 93.6219 33.511 94.263 33.0257 94.7156C32.5404 95.1681 31.8684 95.3944 31.0471 95.3944C29.7405 95.3944 28.8446 94.9041 28.3219 93.9236L26.0447 95.2435C26.4927 96.0732 27.1647 96.7144 28.0233 97.1669C28.8819 97.6195 29.8525 97.8081 30.9725 97.8081C32.4657 97.8081 33.735 97.3932 34.8176 96.5258C35.8629 95.6584 36.4229 94.4139 36.4229 92.7922V82.7982H33.7723V82.7227ZM32.951 89.8883C32.3911 90.4162 31.7191 90.6802 30.8605 90.6802C30.0019 90.6802 29.3299 90.4162 28.7699 89.8883C28.2099 89.3603 27.9486 88.6437 27.9486 87.814C27.9486 86.9843 28.2099 86.3055 28.7699 85.7775C29.3299 85.2495 30.0019 84.9855 30.8605 84.9855C31.7191 84.9855 32.3911 85.2495 32.951 85.7775C33.511 86.3055 33.7723 86.9843 33.7723 87.814C33.7723 88.6437 33.4737 89.3603 32.951 89.8883Z" fill="white"/>
<path d="M42.7317 83.0245C42.1717 83.3639 41.7238 83.8542 41.4998 84.533V82.7228H38.8119V93.2448H41.4998V88.2289C41.4998 87.2107 41.8357 86.4941 42.4704 86.0416C43.105 85.6267 43.8517 85.4382 44.6729 85.5513V82.5342C43.9636 82.5342 43.329 82.6851 42.7317 83.0245Z" fill="white"/>
<path d="M54.7153 84.0427C53.6327 82.9867 52.3261 82.421 50.7955 82.421C49.2649 82.421 47.9583 82.949 46.8756 84.0427C45.8304 85.0987 45.2704 86.4186 45.2704 88.0026C45.2704 89.5488 45.793 90.8688 46.8756 91.9248C47.9583 92.9807 49.2275 93.5464 50.7955 93.5464C52.3261 93.5464 53.6327 93.0185 54.7153 91.9248C55.7979 90.8688 56.3205 89.5488 56.3205 88.0026C56.2832 86.4186 55.7606 85.0987 54.7153 84.0427ZM52.8114 90.0768C52.2514 90.6048 51.6168 90.9065 50.7955 90.9065C49.9742 90.9065 49.3395 90.6425 48.7796 90.0768C48.2569 89.5111 47.9583 88.8323 47.9583 88.0026C47.9583 87.1729 48.2196 86.4563 48.7796 85.9284C49.3022 85.3627 49.9742 85.0987 50.7955 85.0987C51.6168 85.0987 52.2887 85.3627 52.8114 85.9284C53.334 86.4563 53.6327 87.1729 53.6327 88.0026C53.6327 88.8323 53.334 89.5111 52.8114 90.0768Z" fill="white"/>
<path d="M72.5599 83.6278C71.8506 82.8359 70.88 82.4587 69.6854 82.4587C68.3041 82.4587 67.2588 82.949 66.5868 83.9673C65.9895 82.949 65.0189 82.4587 63.7496 82.4587C62.443 82.4587 61.4724 82.9113 60.8378 83.8541V82.7227H58.1499V93.2447H60.8378V87.3238C60.8378 86.5695 61.0244 85.9661 61.3604 85.5512C61.7337 85.1364 62.1817 84.9478 62.779 84.9478C63.339 84.9478 63.7496 85.1364 64.0856 85.4758C64.3843 85.8152 64.5336 86.3055 64.5336 86.9466V93.2447H67.2215V87.3238C67.2215 86.5695 67.3708 85.9661 67.7441 85.5512C68.0801 85.1364 68.5654 84.9478 69.1627 84.9478C69.7227 84.9478 70.1333 85.1364 70.4693 85.4758C70.768 85.8152 70.9173 86.3055 70.9173 86.9466V93.2447H73.6052V86.7581C73.6425 85.4381 73.2692 84.3821 72.5599 83.6278Z" fill="white"/>
<path d="M84.8046 84.0427C83.7219 82.9867 82.4153 82.421 80.8847 82.421C79.3541 82.421 78.0475 82.949 77.0022 84.0427C75.9569 85.0987 75.397 86.4186 75.397 88.0026C75.397 89.5488 75.9196 90.8688 77.0022 91.9248C78.0475 92.9807 79.3541 93.5464 80.8847 93.5464C82.4153 93.5464 83.7219 93.0185 84.8046 91.9248C85.8872 90.8688 86.4098 89.5488 86.4098 88.0026C86.4098 86.4186 85.8498 85.0987 84.8046 84.0427ZM82.9006 90.0768C82.378 90.6048 81.706 90.9065 80.8847 90.9065C80.0634 90.9065 79.4288 90.6425 78.8688 90.0768C78.3462 89.5111 78.0849 88.8323 78.0849 88.0026C78.0849 87.1729 78.3462 86.4563 78.8688 85.9284C79.3915 85.3627 80.0634 85.0987 80.8847 85.0987C81.706 85.0987 82.378 85.3627 82.9006 85.9284C83.4606 86.4563 83.7219 87.1729 83.7219 88.0026C83.7219 88.8323 83.4233 89.5111 82.9006 90.0768Z" fill="white"/>
<path d="M97.1611 84.0427C96.0785 82.9867 94.7719 82.421 93.2413 82.421C91.7107 82.421 90.4041 82.949 89.3214 84.0427C88.2762 85.0987 87.7162 86.4186 87.7162 88.0026C87.7162 89.5488 88.2388 90.8688 89.3214 91.9248C90.4041 92.9807 91.6733 93.5464 93.2413 93.5464C94.7719 93.5464 96.0785 93.0185 97.1611 91.9248C98.2437 90.8688 98.7663 89.5488 98.7663 88.0026C98.7663 86.4186 98.2064 85.0987 97.1611 84.0427ZM95.2572 90.0768C94.6972 90.6048 94.0626 90.9065 93.2413 90.9065C92.42 90.9065 91.7853 90.6425 91.2254 90.0768C90.7027 89.5111 90.4041 88.8323 90.4041 88.0026C90.4041 87.1729 90.6654 86.4563 91.2254 85.9284C91.748 85.3627 92.42 85.0987 93.2413 85.0987C94.0626 85.0987 94.7345 85.3627 95.2572 85.9284C95.7798 86.4563 96.0785 87.1729 96.0785 88.0026C96.0785 88.8323 95.8171 89.5111 95.2572 90.0768Z" fill="white"/>
<path d="M107.988 89.4357C107.801 89.8883 107.465 90.2277 107.054 90.454C106.644 90.7179 106.158 90.8311 105.598 90.8311C104.815 90.8311 104.143 90.5671 103.62 90.0391C103.097 89.5111 102.836 88.8323 102.836 88.0026C102.836 87.1729 103.097 86.4563 103.62 85.9284C104.143 85.4004 104.815 85.1364 105.598 85.1364C106.121 85.1364 106.606 85.2495 107.017 85.5135C107.428 85.7775 107.764 86.1169 107.95 86.5318L110.265 85.1741C109.817 84.3444 109.182 83.7033 108.361 83.213C107.54 82.7227 106.606 82.4587 105.598 82.4587C104.031 82.4587 102.724 82.9867 101.679 84.0427C100.633 85.0987 100.111 86.4186 100.111 88.0026C100.111 89.5866 100.633 90.9065 101.679 91.9625C102.724 93.0185 104.031 93.5464 105.598 93.5464C106.606 93.5464 107.54 93.2825 108.361 92.7922C109.182 92.3019 109.854 91.6231 110.302 90.7934L107.988 89.4357Z" fill="white"/>
<path d="M60.6514 39.1638C51.7291 39.1638 44.4868 46.4802 44.4868 55.4937C44.4868 64.5072 51.7291 71.8235 60.6514 71.8235C69.5736 71.8235 76.816 64.5072 76.816 55.4937C76.816 46.4802 69.5736 39.1638 60.6514 39.1638ZM64.7579 56.0594L58.8968 60.6227C58.4488 60.9621 57.8142 60.6604 57.8142 60.0947V50.9681C57.8142 50.4024 58.4488 50.1007 58.8968 50.4401L64.7579 54.9657C65.1312 55.2297 65.1312 55.7577 64.7579 56.0594Z" fill="white"/>
<path d="M70.8803 34.2986C68.3791 37.1648 64.6459 38.2962 61.2114 37.6174C60.0914 34.2232 60.7261 30.3764 63.2273 27.5102C65.7285 24.644 69.4617 23.5126 72.8962 24.1914C74.0161 27.5479 73.3442 31.3947 70.8803 34.2986Z" fill="white"/>
<path d="M53.5957 35.6185C55.089 37.3533 57.3289 38.0321 59.3821 37.5796C60.0541 35.543 59.6808 33.2425 58.1875 31.5077C56.6943 29.7729 54.4544 29.1318 52.4011 29.5466C51.7292 31.5831 52.1025 33.8837 53.5957 35.6185Z" fill="white"/>
</svg>
