<svg width="32" height="32" viewBox="0 0 32 32" fill="none" xmlns="http://www.w3.org/2000/svg">
<circle cx="16" cy="16" r="16" fill="#0000FF"/>
<path d="M19.0417 21.875V20.4583C19.0417 19.7069 18.7432 18.9862 18.2118 18.4549C17.6805 17.9235 16.9598 17.625 16.2083 17.625H10.5417C9.79023 17.625 9.06956 17.9235 8.53821 18.4549C8.00685 18.9862 7.70834 19.7069 7.70834 20.4583V21.875" stroke="white" stroke-linecap="round" stroke-linejoin="round"/>
<path d="M13.375 14.7917C14.9398 14.7917 16.2083 13.5231 16.2083 11.9583C16.2083 10.3935 14.9398 9.125 13.375 9.125C11.8102 9.125 10.5417 10.3935 10.5417 11.9583C10.5417 13.5231 11.8102 14.7917 13.375 14.7917Z" stroke="white" stroke-linecap="round" stroke-linejoin="round"/>
<path d="M23.2917 21.875V20.4583C23.2912 19.8306 23.0822 19.2207 22.6976 18.7246C22.313 18.2284 21.7745 17.874 21.1667 17.7171" stroke="white" stroke-linecap="round" stroke-linejoin="round"/>
<path d="M18.3333 9.21709C18.9428 9.37313 19.483 9.72758 19.8688 10.2246C20.2545 10.7215 20.4639 11.3328 20.4639 11.9619C20.4639 12.591 20.2545 13.2022 19.8688 13.6992C19.483 14.1962 18.9428 14.5506 18.3333 14.7067" stroke="white" stroke-linecap="round" stroke-linejoin="round"/>
</svg>
