<svg width="53" height="26" viewBox="0 0 53 26" fill="none" xmlns="http://www.w3.org/2000/svg">
<path d="M5.33597 10.136C6.19307 10.136 7.00063 9.92055 7.70912 9.54333L15.1956 17.2525C14.5534 18.1018 14.1678 19.1547 14.1678 20.2989C14.1678 23.0934 16.4413 25.3663 19.2358 25.3663C22.0304 25.3663 24.3032 23.0928 24.3032 20.2989C24.3032 19.206 23.9523 18.1955 23.3614 17.3671L29.45 12.4107C30.3752 13.3925 31.6829 14.0097 33.1357 14.0097C34.6661 14.0097 36.0377 13.3251 36.9676 12.2483L42.1556 15.0733C42.0362 15.5042 41.9676 15.9561 41.9676 16.424C41.9676 19.2186 44.241 21.492 47.035 21.492C49.8289 21.492 52.1024 19.2186 52.1024 16.424C52.1024 13.6295 49.8289 11.356 47.035 11.356C45.5667 11.356 44.2458 11.9875 43.3195 12.989L38.0581 10.1241C38.1494 9.74387 38.2031 9.34994 38.2031 8.94228C38.2031 6.14774 35.9296 3.87427 33.1357 3.87427C30.3406 3.87427 28.0671 6.14774 28.0671 8.94228C28.0671 9.4144 28.1369 9.86922 28.2581 10.3025L21.5248 15.783C20.836 15.4326 20.0601 15.2309 19.2358 15.2309C18.4521 15.2309 17.712 15.4153 17.0489 15.734L9.49554 7.95566C10.0667 7.13556 10.404 6.14118 10.404 5.06801C10.404 2.27347 8.1305 0 5.33597 0C2.54143 0 0.268555 2.27347 0.268555 5.06801C0.268555 7.86255 2.54203 10.136 5.33597 10.136ZM47.0356 13.7441C48.5134 13.7441 49.7155 14.9468 49.7155 16.4246C49.7155 17.9025 48.5128 19.1052 47.0356 19.1052C45.5583 19.1052 44.3556 17.9025 44.3556 16.4246C44.355 14.9468 45.5577 13.7441 47.0356 13.7441ZM33.1363 6.26174C34.6142 6.26174 35.8162 7.46443 35.8162 8.94228C35.8162 10.4201 34.6136 11.6222 33.1363 11.6222C31.6579 11.6222 30.4552 10.4201 30.4552 8.94228C30.4552 7.46443 31.6579 6.26174 33.1363 6.26174ZM21.9164 20.2989C21.9164 21.7767 20.7143 22.9788 19.2364 22.9788C17.758 22.9788 16.5559 21.7761 16.5559 20.2989C16.5559 18.8204 17.7586 17.6184 19.2364 17.6184C20.7143 17.6184 21.9164 18.8204 21.9164 20.2989ZM5.33597 2.38807C6.81441 2.38807 8.0165 3.59076 8.0165 5.0686C8.0165 6.54645 6.81381 7.74914 5.33597 7.74914C3.85812 7.74914 2.65603 6.54645 2.65603 5.0686C2.65603 3.59076 3.85812 2.38807 5.33597 2.38807Z" fill="#0667D0"/>
</svg>
